G04 EAGLE Gerber RS-274X export*
G75*
%MOMM*%
%FSLAX34Y34*%
%LPD*%
%INBottom Copper*%
%IPPOS*%
%AMOC8*
5,1,8,0,0,1.08239X$1,22.5*%
G01*
%ADD10C,1.879600*%
%ADD11C,1.524000*%
%ADD12R,1.000000X1.100000*%
%ADD13R,1.100000X1.000000*%
%ADD14R,0.900000X0.800000*%
%ADD15R,1.500000X2.200000*%
%ADD16R,1.524000X1.524000*%
%ADD17C,1.524000*%
%ADD18R,0.300000X1.300000*%
%ADD19R,1.800000X2.200000*%
%ADD20C,0.254000*%
%ADD21C,0.406400*%
%ADD22C,0.152400*%
%ADD23C,0.756400*%

G36*
X113128Y41923D02*
X113128Y41923D01*
X113227Y41926D01*
X113285Y41943D01*
X113346Y41951D01*
X113438Y41987D01*
X113533Y42015D01*
X113585Y42045D01*
X113641Y42068D01*
X113721Y42126D01*
X113807Y42176D01*
X113882Y42242D01*
X113899Y42254D01*
X113906Y42264D01*
X113928Y42283D01*
X144452Y72807D01*
X144512Y72885D01*
X144580Y72957D01*
X144610Y73010D01*
X144647Y73058D01*
X144686Y73149D01*
X144734Y73236D01*
X144749Y73294D01*
X144773Y73350D01*
X144789Y73448D01*
X144813Y73544D01*
X144820Y73644D01*
X144823Y73664D01*
X144822Y73676D01*
X144824Y73704D01*
X144824Y227285D01*
X144919Y227288D01*
X144977Y227305D01*
X145038Y227313D01*
X145130Y227349D01*
X145225Y227377D01*
X145277Y227407D01*
X145333Y227430D01*
X145413Y227488D01*
X145499Y227538D01*
X145574Y227604D01*
X145591Y227616D01*
X145598Y227626D01*
X145620Y227645D01*
X163086Y245111D01*
X854711Y245908D01*
X854829Y245923D01*
X854947Y245931D01*
X854986Y245943D01*
X855027Y245949D01*
X855137Y245992D01*
X855249Y246029D01*
X855284Y246051D01*
X855323Y246066D01*
X855418Y246136D01*
X855518Y246199D01*
X855546Y246229D01*
X855580Y246253D01*
X855655Y246344D01*
X855736Y246431D01*
X855756Y246467D01*
X855782Y246498D01*
X855832Y246605D01*
X855890Y246709D01*
X855900Y246749D01*
X855917Y246786D01*
X855940Y246902D01*
X855969Y247017D01*
X855973Y247078D01*
X855977Y247099D01*
X855976Y247119D01*
X855979Y247178D01*
X855979Y273130D01*
X855964Y273248D01*
X855957Y273367D01*
X855944Y273405D01*
X855939Y273446D01*
X855896Y273556D01*
X855859Y273669D01*
X855837Y273704D01*
X855822Y273741D01*
X855753Y273837D01*
X855689Y273938D01*
X855659Y273966D01*
X855636Y273999D01*
X855544Y274075D01*
X855457Y274156D01*
X855422Y274176D01*
X855391Y274201D01*
X855283Y274252D01*
X855179Y274310D01*
X855139Y274320D01*
X855103Y274337D01*
X854986Y274359D01*
X854871Y274389D01*
X854811Y274393D01*
X854791Y274397D01*
X854770Y274395D01*
X854710Y274399D01*
X854480Y274399D01*
X851709Y275547D01*
X849587Y277669D01*
X848439Y280440D01*
X848439Y283440D01*
X849587Y286211D01*
X851709Y288333D01*
X854480Y289481D01*
X854710Y289481D01*
X854828Y289496D01*
X854947Y289503D01*
X854985Y289516D01*
X855026Y289521D01*
X855136Y289564D01*
X855249Y289601D01*
X855284Y289623D01*
X855321Y289638D01*
X855417Y289707D01*
X855518Y289771D01*
X855546Y289801D01*
X855579Y289824D01*
X855655Y289916D01*
X855736Y290003D01*
X855756Y290038D01*
X855781Y290069D01*
X855832Y290177D01*
X855890Y290281D01*
X855900Y290321D01*
X855917Y290357D01*
X855939Y290474D01*
X855969Y290589D01*
X855973Y290649D01*
X855977Y290669D01*
X855975Y290690D01*
X855979Y290750D01*
X855979Y495380D01*
X855964Y495498D01*
X855957Y495617D01*
X855944Y495655D01*
X855939Y495696D01*
X855896Y495806D01*
X855859Y495919D01*
X855837Y495954D01*
X855822Y495991D01*
X855753Y496087D01*
X855689Y496188D01*
X855659Y496216D01*
X855636Y496249D01*
X855544Y496325D01*
X855457Y496406D01*
X855422Y496426D01*
X855391Y496451D01*
X855283Y496502D01*
X855179Y496560D01*
X855139Y496570D01*
X855103Y496587D01*
X854986Y496609D01*
X854871Y496639D01*
X854811Y496643D01*
X854791Y496647D01*
X854770Y496645D01*
X854710Y496649D01*
X851940Y496649D01*
X849169Y497797D01*
X847047Y499919D01*
X845899Y502690D01*
X845899Y505690D01*
X847047Y508461D01*
X849169Y510583D01*
X851940Y511731D01*
X854710Y511731D01*
X854828Y511746D01*
X854947Y511753D01*
X854985Y511766D01*
X855026Y511771D01*
X855136Y511814D01*
X855249Y511851D01*
X855284Y511873D01*
X855321Y511888D01*
X855417Y511957D01*
X855518Y512021D01*
X855546Y512051D01*
X855579Y512074D01*
X855655Y512166D01*
X855736Y512253D01*
X855756Y512288D01*
X855781Y512319D01*
X855832Y512427D01*
X855890Y512531D01*
X855900Y512571D01*
X855917Y512607D01*
X855939Y512724D01*
X855969Y512839D01*
X855973Y512899D01*
X855977Y512919D01*
X855975Y512940D01*
X855979Y513000D01*
X855979Y521210D01*
X855964Y521328D01*
X855957Y521447D01*
X855944Y521485D01*
X855939Y521526D01*
X855896Y521636D01*
X855859Y521749D01*
X855837Y521784D01*
X855822Y521821D01*
X855753Y521917D01*
X855689Y522018D01*
X855659Y522046D01*
X855636Y522079D01*
X855544Y522155D01*
X855457Y522236D01*
X855422Y522256D01*
X855391Y522281D01*
X855283Y522332D01*
X855179Y522390D01*
X855139Y522400D01*
X855103Y522417D01*
X854986Y522439D01*
X854871Y522469D01*
X854811Y522473D01*
X854791Y522477D01*
X854770Y522475D01*
X854710Y522479D01*
X52580Y522479D01*
X52482Y522467D01*
X52383Y522464D01*
X52325Y522447D01*
X52264Y522439D01*
X52172Y522403D01*
X52077Y522375D01*
X52025Y522345D01*
X51969Y522322D01*
X51889Y522264D01*
X51803Y522214D01*
X51728Y522148D01*
X51711Y522136D01*
X51704Y522126D01*
X51683Y522108D01*
X41013Y511438D01*
X40952Y511359D01*
X40884Y511287D01*
X40855Y511234D01*
X40818Y511186D01*
X40778Y511095D01*
X40730Y511009D01*
X40715Y510950D01*
X40691Y510894D01*
X40676Y510796D01*
X40651Y510701D01*
X40645Y510601D01*
X40641Y510580D01*
X40643Y510568D01*
X40641Y510540D01*
X40641Y328929D01*
X6439Y328929D01*
X6317Y328914D01*
X6194Y328905D01*
X6160Y328894D01*
X6124Y328889D01*
X6009Y328844D01*
X5892Y328805D01*
X5862Y328786D01*
X5828Y328772D01*
X5728Y328700D01*
X5625Y328633D01*
X5600Y328607D01*
X5571Y328586D01*
X5492Y328491D01*
X5408Y328400D01*
X5391Y328368D01*
X5368Y328341D01*
X5316Y328229D01*
X5257Y328120D01*
X5248Y328085D01*
X5233Y328053D01*
X5209Y327932D01*
X5179Y327812D01*
X5176Y327759D01*
X5173Y327741D01*
X5174Y327719D01*
X5170Y327651D01*
X6840Y85198D01*
X6857Y85074D01*
X6866Y84950D01*
X6878Y84917D01*
X6882Y84883D01*
X6929Y84767D01*
X6969Y84649D01*
X6988Y84620D01*
X7001Y84588D01*
X7075Y84488D01*
X7144Y84383D01*
X7179Y84347D01*
X7190Y84332D01*
X7206Y84319D01*
X7256Y84268D01*
X41136Y53482D01*
X41225Y53420D01*
X41309Y53350D01*
X41355Y53329D01*
X41397Y53300D01*
X41499Y53261D01*
X41597Y53215D01*
X41647Y53205D01*
X41694Y53187D01*
X41803Y53176D01*
X41910Y53155D01*
X41960Y53158D01*
X42010Y53153D01*
X42118Y53168D01*
X42227Y53175D01*
X42275Y53190D01*
X42325Y53198D01*
X42426Y53239D01*
X42529Y53273D01*
X42572Y53300D01*
X42619Y53319D01*
X42706Y53385D01*
X42798Y53443D01*
X42833Y53480D01*
X42873Y53510D01*
X42941Y53595D01*
X43016Y53675D01*
X43041Y53719D01*
X43072Y53759D01*
X43117Y53858D01*
X43170Y53953D01*
X43182Y54002D01*
X43203Y54048D01*
X43222Y54156D01*
X43249Y54261D01*
X43254Y54340D01*
X43258Y54362D01*
X43257Y54378D01*
X43259Y54422D01*
X43259Y56110D01*
X44407Y58881D01*
X46529Y61003D01*
X49300Y62151D01*
X52300Y62151D01*
X55071Y61003D01*
X57193Y58881D01*
X58341Y56110D01*
X58341Y53110D01*
X57193Y50339D01*
X55071Y48217D01*
X52300Y47069D01*
X51479Y47069D01*
X51468Y47068D01*
X51458Y47069D01*
X51311Y47048D01*
X51163Y47029D01*
X51154Y47026D01*
X51143Y47024D01*
X51006Y46967D01*
X50867Y46912D01*
X50859Y46906D01*
X50850Y46902D01*
X50731Y46813D01*
X50610Y46726D01*
X50603Y46718D01*
X50595Y46711D01*
X50503Y46596D01*
X50407Y46481D01*
X50403Y46471D01*
X50396Y46463D01*
X50335Y46327D01*
X50272Y46193D01*
X50270Y46183D01*
X50266Y46173D01*
X50240Y46026D01*
X50212Y45881D01*
X50213Y45870D01*
X50211Y45860D01*
X50222Y45712D01*
X50232Y45563D01*
X50235Y45553D01*
X50236Y45543D01*
X50284Y45402D01*
X50330Y45261D01*
X50335Y45252D01*
X50339Y45242D01*
X50420Y45118D01*
X50500Y44992D01*
X50507Y44985D01*
X50513Y44976D01*
X50625Y44861D01*
X53509Y42241D01*
X53565Y42201D01*
X53615Y42154D01*
X53694Y42110D01*
X53769Y42058D01*
X53833Y42034D01*
X53894Y42000D01*
X53981Y41978D01*
X54066Y41946D01*
X54135Y41938D01*
X54201Y41921D01*
X54362Y41911D01*
X113030Y41911D01*
X113128Y41923D01*
G37*
%LPC*%
G36*
X520050Y254507D02*
X520050Y254507D01*
X516502Y255977D01*
X513787Y258692D01*
X512317Y262240D01*
X512317Y266080D01*
X513787Y269628D01*
X516502Y272343D01*
X520050Y273813D01*
X523890Y273813D01*
X525272Y273240D01*
X525300Y273233D01*
X525326Y273219D01*
X525453Y273191D01*
X525578Y273157D01*
X525608Y273156D01*
X525637Y273150D01*
X525766Y273154D01*
X525896Y273151D01*
X525925Y273158D01*
X525955Y273159D01*
X526079Y273195D01*
X526206Y273226D01*
X526232Y273239D01*
X526260Y273248D01*
X526372Y273313D01*
X526487Y273374D01*
X526509Y273394D01*
X526534Y273409D01*
X526655Y273516D01*
X531758Y278618D01*
X531818Y278697D01*
X531886Y278769D01*
X531915Y278822D01*
X531952Y278870D01*
X531992Y278961D01*
X532040Y279047D01*
X532055Y279106D01*
X532079Y279161D01*
X532094Y279259D01*
X532119Y279355D01*
X532125Y279455D01*
X532129Y279476D01*
X532127Y279488D01*
X532129Y279516D01*
X532129Y283004D01*
X532112Y283141D01*
X532099Y283280D01*
X532092Y283300D01*
X532089Y283320D01*
X532038Y283448D01*
X531991Y283580D01*
X531980Y283596D01*
X531972Y283615D01*
X531891Y283728D01*
X531813Y283843D01*
X531797Y283856D01*
X531786Y283873D01*
X531678Y283961D01*
X531574Y284053D01*
X531556Y284062D01*
X531541Y284075D01*
X531415Y284135D01*
X531291Y284198D01*
X531271Y284202D01*
X531253Y284211D01*
X531117Y284237D01*
X530981Y284268D01*
X530960Y284267D01*
X530941Y284271D01*
X530802Y284262D01*
X530663Y284258D01*
X530643Y284252D01*
X530623Y284251D01*
X530491Y284208D01*
X530357Y284169D01*
X530340Y284159D01*
X530321Y284153D01*
X530203Y284078D01*
X530083Y284008D01*
X530062Y283989D01*
X530052Y283983D01*
X530038Y283968D01*
X529963Y283902D01*
X527438Y281377D01*
X523890Y279907D01*
X520050Y279907D01*
X516502Y281377D01*
X513787Y284092D01*
X512317Y287640D01*
X512317Y291480D01*
X512890Y292862D01*
X512897Y292890D01*
X512911Y292916D01*
X512939Y293043D01*
X512973Y293168D01*
X512974Y293198D01*
X512980Y293227D01*
X512976Y293356D01*
X512979Y293486D01*
X512972Y293515D01*
X512971Y293545D01*
X512935Y293669D01*
X512904Y293796D01*
X512891Y293822D01*
X512882Y293850D01*
X512817Y293962D01*
X512756Y294077D01*
X512736Y294099D01*
X512721Y294124D01*
X512614Y294245D01*
X495807Y311052D01*
X495807Y326588D01*
X495795Y326686D01*
X495792Y326785D01*
X495775Y326844D01*
X495767Y326904D01*
X495731Y326996D01*
X495703Y327091D01*
X495673Y327143D01*
X495650Y327199D01*
X495592Y327279D01*
X495542Y327365D01*
X495476Y327440D01*
X495464Y327457D01*
X495454Y327464D01*
X495436Y327486D01*
X494180Y328741D01*
X493295Y330878D01*
X493295Y333191D01*
X494180Y335328D01*
X495816Y336964D01*
X497953Y337849D01*
X500267Y337849D01*
X502404Y336964D01*
X504040Y335328D01*
X504925Y333191D01*
X504925Y330878D01*
X504040Y328741D01*
X502784Y327486D01*
X502724Y327407D01*
X502656Y327335D01*
X502627Y327282D01*
X502590Y327234D01*
X502550Y327143D01*
X502502Y327057D01*
X502487Y326998D01*
X502463Y326942D01*
X502448Y326844D01*
X502423Y326749D01*
X502417Y326649D01*
X502413Y326628D01*
X502415Y326616D01*
X502413Y326588D01*
X502413Y314314D01*
X502425Y314216D01*
X502428Y314117D01*
X502445Y314058D01*
X502453Y313998D01*
X502489Y313906D01*
X502517Y313811D01*
X502547Y313759D01*
X502570Y313703D01*
X502628Y313623D01*
X502678Y313537D01*
X502744Y313462D01*
X502756Y313445D01*
X502766Y313437D01*
X502784Y313416D01*
X517285Y298916D01*
X517309Y298897D01*
X517328Y298875D01*
X517434Y298800D01*
X517536Y298721D01*
X517564Y298709D01*
X517588Y298692D01*
X517709Y298646D01*
X517828Y298594D01*
X517857Y298590D01*
X517885Y298579D01*
X518014Y298565D01*
X518142Y298544D01*
X518172Y298547D01*
X518201Y298544D01*
X518330Y298562D01*
X518459Y298574D01*
X518487Y298584D01*
X518516Y298588D01*
X518668Y298640D01*
X520050Y299213D01*
X523890Y299213D01*
X527438Y297743D01*
X529963Y295218D01*
X530072Y295133D01*
X530179Y295045D01*
X530198Y295036D01*
X530214Y295024D01*
X530342Y294968D01*
X530467Y294909D01*
X530487Y294905D01*
X530506Y294897D01*
X530644Y294875D01*
X530780Y294849D01*
X530800Y294851D01*
X530820Y294847D01*
X530959Y294860D01*
X531097Y294869D01*
X531116Y294875D01*
X531136Y294877D01*
X531268Y294924D01*
X531399Y294967D01*
X531417Y294978D01*
X531436Y294985D01*
X531551Y295063D01*
X531668Y295137D01*
X531682Y295152D01*
X531699Y295163D01*
X531791Y295268D01*
X531886Y295369D01*
X531896Y295387D01*
X531909Y295402D01*
X531973Y295526D01*
X532040Y295647D01*
X532045Y295667D01*
X532054Y295685D01*
X532084Y295821D01*
X532119Y295955D01*
X532121Y295983D01*
X532124Y295995D01*
X532123Y296016D01*
X532129Y296116D01*
X532129Y315268D01*
X532117Y315366D01*
X532114Y315465D01*
X532097Y315523D01*
X532089Y315583D01*
X532053Y315675D01*
X532025Y315770D01*
X531995Y315823D01*
X531972Y315879D01*
X531914Y315959D01*
X531864Y316044D01*
X531798Y316120D01*
X531786Y316136D01*
X531776Y316144D01*
X531758Y316165D01*
X504979Y342943D01*
X504979Y373970D01*
X504967Y374068D01*
X504964Y374167D01*
X504947Y374225D01*
X504940Y374285D01*
X504903Y374377D01*
X504876Y374472D01*
X504845Y374525D01*
X504823Y374581D01*
X504764Y374661D01*
X504714Y374746D01*
X504648Y374822D01*
X504636Y374838D01*
X504626Y374846D01*
X504608Y374867D01*
X482733Y396741D01*
X482639Y396815D01*
X482550Y396893D01*
X482514Y396912D01*
X482482Y396936D01*
X482373Y396984D01*
X482267Y397038D01*
X482228Y397047D01*
X482190Y397063D01*
X482073Y397081D01*
X481957Y397107D01*
X481916Y397106D01*
X481876Y397113D01*
X481758Y397101D01*
X481639Y397098D01*
X481600Y397087D01*
X481560Y397083D01*
X481448Y397043D01*
X481333Y397009D01*
X481298Y396989D01*
X481260Y396975D01*
X481162Y396908D01*
X481059Y396848D01*
X481014Y396808D01*
X480997Y396797D01*
X480984Y396781D01*
X480938Y396741D01*
X479826Y395629D01*
X477689Y394743D01*
X475375Y394743D01*
X473238Y395629D01*
X471602Y397264D01*
X470717Y399402D01*
X470717Y401715D01*
X471602Y403852D01*
X473238Y405488D01*
X475375Y406373D01*
X477689Y406373D01*
X479826Y405488D01*
X481081Y404233D01*
X481159Y404172D01*
X481231Y404104D01*
X481284Y404075D01*
X481332Y404038D01*
X481423Y403998D01*
X481510Y403951D01*
X481568Y403935D01*
X481624Y403911D01*
X481722Y403896D01*
X481818Y403871D01*
X481918Y403865D01*
X481938Y403862D01*
X481950Y403863D01*
X481978Y403861D01*
X484956Y403861D01*
X511585Y377232D01*
X511585Y346205D01*
X511597Y346107D01*
X511600Y346008D01*
X511617Y345950D01*
X511625Y345889D01*
X511661Y345797D01*
X511689Y345702D01*
X511720Y345650D01*
X511742Y345594D01*
X511800Y345514D01*
X511850Y345428D01*
X511917Y345353D01*
X511929Y345336D01*
X511938Y345329D01*
X511957Y345308D01*
X517771Y339494D01*
X517880Y339408D01*
X517987Y339320D01*
X518006Y339311D01*
X518022Y339299D01*
X518150Y339243D01*
X518275Y339184D01*
X518295Y339180D01*
X518314Y339172D01*
X518452Y339150D01*
X518588Y339124D01*
X518608Y339126D01*
X518628Y339123D01*
X518767Y339136D01*
X518905Y339144D01*
X518924Y339150D01*
X518944Y339152D01*
X519076Y339200D01*
X519207Y339242D01*
X519225Y339253D01*
X519244Y339260D01*
X519359Y339338D01*
X519476Y339412D01*
X519490Y339427D01*
X519507Y339439D01*
X519599Y339543D01*
X519694Y339644D01*
X519704Y339662D01*
X519717Y339677D01*
X519781Y339801D01*
X519848Y339923D01*
X519853Y339942D01*
X519862Y339960D01*
X519892Y340096D01*
X519927Y340230D01*
X519929Y340259D01*
X519932Y340270D01*
X519931Y340291D01*
X519937Y340391D01*
X519937Y379106D01*
X519925Y379204D01*
X519922Y379303D01*
X519905Y379361D01*
X519897Y379421D01*
X519861Y379514D01*
X519833Y379609D01*
X519803Y379661D01*
X519780Y379717D01*
X519722Y379797D01*
X519672Y379883D01*
X519606Y379958D01*
X519594Y379975D01*
X519584Y379982D01*
X519566Y380003D01*
X484835Y414734D01*
X484812Y414752D01*
X484793Y414774D01*
X484727Y414820D01*
X484720Y414827D01*
X484709Y414833D01*
X484687Y414849D01*
X484584Y414929D01*
X484557Y414940D01*
X484533Y414957D01*
X484412Y415003D01*
X484292Y415055D01*
X484263Y415059D01*
X484235Y415070D01*
X484107Y415084D01*
X483978Y415105D01*
X483949Y415102D01*
X483919Y415105D01*
X483791Y415087D01*
X483662Y415075D01*
X483634Y415065D01*
X483605Y415061D01*
X483452Y415009D01*
X481064Y414019D01*
X476516Y414019D01*
X472315Y415759D01*
X469099Y418975D01*
X467359Y423176D01*
X467359Y427724D01*
X468664Y430874D01*
X468672Y430903D01*
X468685Y430929D01*
X468714Y431056D01*
X468748Y431181D01*
X468748Y431211D01*
X468755Y431240D01*
X468751Y431369D01*
X468753Y431499D01*
X468746Y431528D01*
X468745Y431557D01*
X468709Y431682D01*
X468679Y431808D01*
X468665Y431835D01*
X468657Y431863D01*
X468591Y431975D01*
X468530Y432090D01*
X468510Y432111D01*
X468495Y432137D01*
X468389Y432258D01*
X462106Y438540D01*
X460246Y440400D01*
X460246Y446183D01*
X460234Y446281D01*
X460231Y446380D01*
X460214Y446439D01*
X460206Y446499D01*
X460170Y446591D01*
X460142Y446686D01*
X460112Y446738D01*
X460089Y446794D01*
X460031Y446874D01*
X459981Y446960D01*
X459915Y447035D01*
X459903Y447052D01*
X459893Y447059D01*
X459874Y447081D01*
X459254Y447701D01*
X459254Y462385D01*
X460445Y463576D01*
X465129Y463576D01*
X466320Y462385D01*
X466320Y447701D01*
X465699Y447081D01*
X465639Y447002D01*
X465571Y446930D01*
X465542Y446877D01*
X465505Y446829D01*
X465465Y446738D01*
X465417Y446652D01*
X465402Y446593D01*
X465378Y446537D01*
X465363Y446439D01*
X465338Y446344D01*
X465332Y446244D01*
X465328Y446223D01*
X465329Y446211D01*
X465328Y446183D01*
X465328Y443031D01*
X465340Y442933D01*
X465343Y442834D01*
X465360Y442775D01*
X465368Y442715D01*
X465404Y442623D01*
X465432Y442528D01*
X465462Y442476D01*
X465485Y442420D01*
X465543Y442340D01*
X465593Y442254D01*
X465659Y442179D01*
X465671Y442162D01*
X465681Y442155D01*
X465699Y442133D01*
X471982Y435851D01*
X472005Y435833D01*
X472025Y435810D01*
X472131Y435736D01*
X472233Y435656D01*
X472260Y435644D01*
X472285Y435627D01*
X472406Y435581D01*
X472525Y435530D01*
X472554Y435525D01*
X472582Y435514D01*
X472711Y435500D01*
X472839Y435480D01*
X472869Y435482D01*
X472898Y435479D01*
X473027Y435497D01*
X473156Y435509D01*
X473184Y435519D01*
X473213Y435524D01*
X473365Y435576D01*
X476516Y436881D01*
X479759Y436881D01*
X479897Y436898D01*
X480036Y436911D01*
X480055Y436918D01*
X480075Y436921D01*
X480204Y436972D01*
X480335Y437019D01*
X480352Y437030D01*
X480370Y437038D01*
X480483Y437119D01*
X480598Y437197D01*
X480611Y437213D01*
X480628Y437224D01*
X480716Y437332D01*
X480809Y437436D01*
X480818Y437454D01*
X480831Y437469D01*
X480890Y437595D01*
X480953Y437719D01*
X480958Y437739D01*
X480966Y437757D01*
X480992Y437893D01*
X481023Y438029D01*
X481022Y438050D01*
X481026Y438069D01*
X481017Y438208D01*
X481013Y438347D01*
X481007Y438367D01*
X481006Y438387D01*
X480963Y438519D01*
X480925Y438653D01*
X480914Y438670D01*
X480908Y438689D01*
X480834Y438807D01*
X480763Y438927D01*
X480745Y438948D01*
X480738Y438958D01*
X480723Y438972D01*
X480657Y439047D01*
X473566Y446138D01*
X473488Y446199D01*
X473416Y446267D01*
X473363Y446296D01*
X473315Y446333D01*
X473224Y446373D01*
X473137Y446420D01*
X473078Y446436D01*
X473023Y446460D01*
X472925Y446475D01*
X472829Y446500D01*
X472729Y446506D01*
X472709Y446509D01*
X472696Y446508D01*
X472668Y446510D01*
X470445Y446510D01*
X469254Y447701D01*
X469254Y462385D01*
X470445Y463576D01*
X475129Y463576D01*
X476320Y462385D01*
X476320Y451097D01*
X476332Y450998D01*
X476335Y450899D01*
X476352Y450841D01*
X476360Y450781D01*
X476396Y450689D01*
X476423Y450594D01*
X476454Y450542D01*
X476477Y450485D01*
X476535Y450405D01*
X476585Y450320D01*
X476651Y450245D01*
X476663Y450228D01*
X476673Y450220D01*
X476691Y450199D01*
X477087Y449803D01*
X477197Y449718D01*
X477304Y449629D01*
X477323Y449621D01*
X477339Y449608D01*
X477466Y449553D01*
X477592Y449494D01*
X477612Y449490D01*
X477631Y449482D01*
X477768Y449460D01*
X477904Y449434D01*
X477925Y449435D01*
X477945Y449432D01*
X478084Y449445D01*
X478222Y449454D01*
X478241Y449460D01*
X478261Y449462D01*
X478393Y449509D01*
X478524Y449552D01*
X478541Y449562D01*
X478561Y449569D01*
X478676Y449648D01*
X478793Y449722D01*
X478807Y449737D01*
X478824Y449748D01*
X478916Y449852D01*
X479011Y449953D01*
X479021Y449971D01*
X479034Y449986D01*
X479098Y450110D01*
X479165Y450232D01*
X479170Y450251D01*
X479179Y450270D01*
X479209Y450406D01*
X479244Y450540D01*
X479246Y450568D01*
X479248Y450580D01*
X479248Y450600D01*
X479254Y450701D01*
X479254Y462385D01*
X480445Y463576D01*
X485129Y463576D01*
X486320Y462385D01*
X486320Y448144D01*
X486332Y448046D01*
X486335Y447947D01*
X486352Y447889D01*
X486360Y447829D01*
X486396Y447737D01*
X486423Y447642D01*
X486454Y447589D01*
X486477Y447533D01*
X486535Y447453D01*
X486585Y447368D01*
X486651Y447292D01*
X486663Y447276D01*
X486673Y447268D01*
X486691Y447247D01*
X487087Y446851D01*
X487197Y446766D01*
X487304Y446677D01*
X487323Y446668D01*
X487339Y446656D01*
X487466Y446601D01*
X487592Y446541D01*
X487612Y446538D01*
X487631Y446529D01*
X487768Y446508D01*
X487904Y446482D01*
X487925Y446483D01*
X487945Y446480D01*
X488084Y446493D01*
X488222Y446501D01*
X488241Y446508D01*
X488261Y446509D01*
X488393Y446557D01*
X488524Y446599D01*
X488541Y446610D01*
X488561Y446617D01*
X488676Y446695D01*
X488793Y446769D01*
X488807Y446784D01*
X488824Y446796D01*
X488916Y446900D01*
X489011Y447001D01*
X489021Y447019D01*
X489034Y447034D01*
X489098Y447158D01*
X489165Y447280D01*
X489170Y447299D01*
X489179Y447317D01*
X489209Y447453D01*
X489244Y447588D01*
X489246Y447616D01*
X489248Y447628D01*
X489248Y447648D01*
X489254Y447748D01*
X489254Y462385D01*
X490445Y463576D01*
X495129Y463576D01*
X496331Y462374D01*
X496339Y462311D01*
X496356Y462160D01*
X496359Y462153D01*
X496360Y462147D01*
X496416Y462005D01*
X496470Y461863D01*
X496474Y461857D01*
X496477Y461851D01*
X496566Y461728D01*
X496654Y461603D01*
X496659Y461599D01*
X496663Y461594D01*
X496781Y461496D01*
X496897Y461398D01*
X496903Y461395D01*
X496908Y461391D01*
X497046Y461326D01*
X497183Y461259D01*
X497190Y461258D01*
X497196Y461255D01*
X497344Y461227D01*
X497495Y461196D01*
X497502Y461197D01*
X497508Y461195D01*
X497659Y461205D01*
X497813Y461213D01*
X497819Y461215D01*
X497826Y461215D01*
X497969Y461262D01*
X498116Y461308D01*
X498122Y461311D01*
X498128Y461313D01*
X498257Y461395D01*
X498387Y461475D01*
X498391Y461480D01*
X498397Y461483D01*
X498502Y461595D01*
X498607Y461704D01*
X498610Y461710D01*
X498615Y461715D01*
X498689Y461849D01*
X498764Y461981D01*
X498766Y461990D01*
X498769Y461994D01*
X498771Y462004D01*
X498815Y462134D01*
X498919Y462524D01*
X499254Y463103D01*
X499727Y463576D01*
X500306Y463910D01*
X500952Y464084D01*
X501518Y464084D01*
X501518Y455043D01*
X501532Y454925D01*
X501540Y454806D01*
X501552Y454768D01*
X501557Y454728D01*
X501601Y454617D01*
X501638Y454504D01*
X501660Y454470D01*
X501674Y454432D01*
X501744Y454336D01*
X501808Y454235D01*
X501809Y454235D01*
X501838Y454207D01*
X501861Y454175D01*
X501862Y454174D01*
X501953Y454098D01*
X502040Y454017D01*
X502076Y453997D01*
X502107Y453971D01*
X502214Y453921D01*
X502319Y453863D01*
X502358Y453853D01*
X502394Y453836D01*
X502511Y453813D01*
X502627Y453784D01*
X502687Y453780D01*
X502707Y453776D01*
X502727Y453777D01*
X502787Y453773D01*
X506828Y453773D01*
X506828Y448314D01*
X506843Y448195D01*
X506850Y448077D01*
X506862Y448038D01*
X506868Y447998D01*
X506911Y447887D01*
X506948Y447774D01*
X506970Y447740D01*
X506985Y447702D01*
X507054Y447606D01*
X507118Y447505D01*
X507148Y447478D01*
X507171Y447445D01*
X507263Y447369D01*
X507350Y447287D01*
X507385Y447268D01*
X507416Y447242D01*
X507524Y447191D01*
X507628Y447134D01*
X507668Y447124D01*
X507704Y447107D01*
X507821Y447084D01*
X507936Y447055D01*
X507996Y447051D01*
X508016Y447047D01*
X508037Y447048D01*
X508097Y447044D01*
X537279Y447044D01*
X548387Y435936D01*
X548411Y435918D01*
X548430Y435895D01*
X548536Y435821D01*
X548639Y435741D01*
X548666Y435729D01*
X548690Y435712D01*
X548811Y435666D01*
X548931Y435615D01*
X548960Y435610D01*
X548987Y435599D01*
X549116Y435585D01*
X549245Y435565D01*
X549274Y435567D01*
X549303Y435564D01*
X549432Y435582D01*
X549561Y435595D01*
X549589Y435605D01*
X549618Y435609D01*
X549771Y435661D01*
X552716Y436881D01*
X557264Y436881D01*
X561465Y435141D01*
X564680Y431925D01*
X566320Y427966D01*
X566384Y427854D01*
X566443Y427739D01*
X566463Y427716D01*
X566478Y427690D01*
X566568Y427597D01*
X566653Y427500D01*
X566678Y427483D01*
X566699Y427462D01*
X566809Y427394D01*
X566916Y427321D01*
X566944Y427311D01*
X566970Y427295D01*
X567094Y427257D01*
X567215Y427214D01*
X567245Y427211D01*
X567274Y427202D01*
X567403Y427196D01*
X567532Y427183D01*
X567562Y427188D01*
X567592Y427187D01*
X567718Y427213D01*
X567846Y427233D01*
X567873Y427245D01*
X567903Y427251D01*
X568019Y427308D01*
X568138Y427359D01*
X568162Y427377D01*
X568189Y427391D01*
X568287Y427475D01*
X568389Y427554D01*
X568408Y427577D01*
X568431Y427597D01*
X568505Y427703D01*
X568584Y427805D01*
X568596Y427832D01*
X568614Y427857D01*
X568660Y427978D01*
X568711Y428097D01*
X568720Y428138D01*
X568726Y428154D01*
X568729Y428176D01*
X568743Y428241D01*
X569326Y430033D01*
X570179Y431707D01*
X571283Y433228D01*
X572612Y434556D01*
X574133Y435661D01*
X575807Y436514D01*
X577594Y437095D01*
X577851Y437135D01*
X577851Y426720D01*
X577865Y426602D01*
X577873Y426483D01*
X577885Y426445D01*
X577890Y426405D01*
X577934Y426294D01*
X577971Y426181D01*
X577993Y426147D01*
X578007Y426109D01*
X578077Y426013D01*
X578141Y425912D01*
X578170Y425884D01*
X578194Y425852D01*
X578286Y425776D01*
X578373Y425694D01*
X578408Y425675D01*
X578439Y425649D01*
X578547Y425598D01*
X578651Y425541D01*
X578690Y425530D01*
X578727Y425513D01*
X578844Y425491D01*
X578959Y425461D01*
X579019Y425457D01*
X579039Y425453D01*
X579060Y425455D01*
X579120Y425451D01*
X580391Y425451D01*
X580391Y425449D01*
X579120Y425449D01*
X579002Y425434D01*
X578883Y425427D01*
X578844Y425414D01*
X578804Y425409D01*
X578693Y425365D01*
X578580Y425329D01*
X578546Y425307D01*
X578509Y425292D01*
X578412Y425222D01*
X578312Y425159D01*
X578284Y425129D01*
X578251Y425105D01*
X578175Y425014D01*
X578094Y424927D01*
X578074Y424892D01*
X578048Y424860D01*
X577998Y424753D01*
X577940Y424648D01*
X577930Y424609D01*
X577913Y424573D01*
X577891Y424456D01*
X577861Y424341D01*
X577857Y424280D01*
X577853Y424260D01*
X577854Y424240D01*
X577851Y424180D01*
X577851Y413765D01*
X577594Y413805D01*
X575807Y414386D01*
X574133Y415239D01*
X572612Y416344D01*
X571283Y417672D01*
X570179Y419193D01*
X569326Y420867D01*
X568735Y422684D01*
X568710Y422770D01*
X568680Y422896D01*
X568666Y422923D01*
X568658Y422952D01*
X568592Y423063D01*
X568531Y423177D01*
X568511Y423200D01*
X568496Y423226D01*
X568404Y423317D01*
X568317Y423413D01*
X568292Y423429D01*
X568271Y423450D01*
X568160Y423516D01*
X568052Y423587D01*
X568023Y423597D01*
X567997Y423613D01*
X567873Y423649D01*
X567751Y423691D01*
X567721Y423693D01*
X567692Y423701D01*
X567563Y423706D01*
X567434Y423716D01*
X567404Y423711D01*
X567374Y423712D01*
X567248Y423684D01*
X567121Y423661D01*
X567093Y423649D01*
X567064Y423643D01*
X566949Y423584D01*
X566831Y423531D01*
X566807Y423512D01*
X566780Y423498D01*
X566683Y423413D01*
X566582Y423332D01*
X566564Y423308D01*
X566541Y423288D01*
X566469Y423182D01*
X566391Y423078D01*
X566372Y423040D01*
X566362Y423026D01*
X566355Y423005D01*
X566320Y422934D01*
X565431Y420788D01*
X565423Y420759D01*
X565410Y420733D01*
X565381Y420606D01*
X565347Y420481D01*
X565347Y420451D01*
X565340Y420423D01*
X565344Y420293D01*
X565342Y420163D01*
X565349Y420134D01*
X565350Y420105D01*
X565386Y419980D01*
X565416Y419854D01*
X565430Y419827D01*
X565438Y419799D01*
X565504Y419687D01*
X565565Y419572D01*
X565585Y419551D01*
X565600Y419525D01*
X565706Y419404D01*
X574803Y410308D01*
X574803Y394044D01*
X574811Y393975D01*
X574810Y393905D01*
X574831Y393818D01*
X574843Y393729D01*
X574868Y393664D01*
X574885Y393596D01*
X574927Y393517D01*
X574960Y393433D01*
X575001Y393377D01*
X575033Y393315D01*
X575094Y393248D01*
X575146Y393176D01*
X575200Y393131D01*
X575247Y393080D01*
X575322Y393030D01*
X575391Y392973D01*
X575455Y392943D01*
X575513Y392905D01*
X575598Y392876D01*
X575679Y392837D01*
X575748Y392824D01*
X575814Y392802D01*
X575903Y392794D01*
X575991Y392778D01*
X576061Y392782D01*
X576131Y392776D01*
X576219Y392792D01*
X576309Y392797D01*
X576375Y392819D01*
X576444Y392831D01*
X576526Y392868D01*
X576611Y392895D01*
X576670Y392933D01*
X576734Y392961D01*
X576804Y393017D01*
X576880Y393066D01*
X576928Y393116D01*
X576982Y393160D01*
X577037Y393232D01*
X577098Y393297D01*
X577132Y393358D01*
X577174Y393414D01*
X577245Y393559D01*
X578141Y395724D01*
X579777Y397360D01*
X581914Y398245D01*
X584228Y398245D01*
X586365Y397360D01*
X587620Y396104D01*
X587698Y396044D01*
X587770Y395976D01*
X587823Y395947D01*
X587871Y395910D01*
X587962Y395870D01*
X588049Y395822D01*
X588107Y395807D01*
X588163Y395783D01*
X588261Y395768D01*
X588357Y395743D01*
X588457Y395737D01*
X588477Y395733D01*
X588489Y395735D01*
X588517Y395733D01*
X609134Y395733D01*
X666986Y337880D01*
X667042Y337837D01*
X667090Y337787D01*
X667167Y337740D01*
X667238Y337685D01*
X667302Y337657D01*
X667361Y337621D01*
X667447Y337594D01*
X667530Y337559D01*
X667599Y337548D01*
X667665Y337527D01*
X667755Y337523D01*
X667844Y337509D01*
X667913Y337515D01*
X667983Y337512D01*
X668071Y337530D01*
X668160Y337539D01*
X668226Y337562D01*
X668294Y337576D01*
X668375Y337616D01*
X668460Y337646D01*
X668517Y337685D01*
X668580Y337716D01*
X668648Y337774D01*
X668723Y337825D01*
X668769Y337877D01*
X668822Y337922D01*
X668874Y337996D01*
X668933Y338063D01*
X668965Y338125D01*
X669005Y338182D01*
X669037Y338266D01*
X669078Y338346D01*
X669093Y338415D01*
X669118Y338480D01*
X669128Y338569D01*
X669147Y338657D01*
X669145Y338726D01*
X669153Y338796D01*
X669141Y338885D01*
X669138Y338975D01*
X669118Y339042D01*
X669109Y339111D01*
X669057Y339263D01*
X668555Y340473D01*
X668555Y342787D01*
X669440Y344924D01*
X671076Y346560D01*
X673213Y347445D01*
X675527Y347445D01*
X677664Y346560D01*
X679300Y344924D01*
X680185Y342787D01*
X680185Y341012D01*
X680197Y340914D01*
X680200Y340815D01*
X680217Y340756D01*
X680225Y340696D01*
X680261Y340604D01*
X680289Y340509D01*
X680319Y340457D01*
X680342Y340401D01*
X680400Y340321D01*
X680450Y340235D01*
X680516Y340160D01*
X680528Y340143D01*
X680538Y340135D01*
X680556Y340114D01*
X703073Y317598D01*
X703073Y299488D01*
X703076Y299459D01*
X703074Y299429D01*
X703096Y299301D01*
X703113Y299173D01*
X703123Y299145D01*
X703128Y299116D01*
X703182Y298997D01*
X703230Y298877D01*
X703247Y298853D01*
X703259Y298826D01*
X703340Y298725D01*
X703416Y298620D01*
X703439Y298601D01*
X703458Y298578D01*
X703561Y298500D01*
X703661Y298417D01*
X703688Y298404D01*
X703712Y298386D01*
X703856Y298315D01*
X705238Y297743D01*
X707763Y295218D01*
X707872Y295133D01*
X707979Y295045D01*
X707998Y295036D01*
X708014Y295024D01*
X708142Y294968D01*
X708267Y294909D01*
X708287Y294905D01*
X708306Y294897D01*
X708444Y294875D01*
X708580Y294849D01*
X708600Y294851D01*
X708620Y294847D01*
X708759Y294860D01*
X708897Y294869D01*
X708916Y294875D01*
X708936Y294877D01*
X709068Y294924D01*
X709199Y294967D01*
X709217Y294978D01*
X709236Y294985D01*
X709351Y295063D01*
X709468Y295137D01*
X709482Y295152D01*
X709499Y295163D01*
X709591Y295268D01*
X709686Y295369D01*
X709696Y295387D01*
X709709Y295402D01*
X709773Y295526D01*
X709840Y295647D01*
X709845Y295667D01*
X709854Y295685D01*
X709884Y295821D01*
X709919Y295955D01*
X709921Y295983D01*
X709924Y295995D01*
X709923Y296016D01*
X709929Y296116D01*
X709929Y319924D01*
X709917Y320022D01*
X709914Y320121D01*
X709897Y320180D01*
X709889Y320240D01*
X709853Y320332D01*
X709825Y320427D01*
X709795Y320479D01*
X709772Y320535D01*
X709714Y320615D01*
X709664Y320701D01*
X709598Y320776D01*
X709586Y320793D01*
X709576Y320801D01*
X709558Y320822D01*
X687577Y342802D01*
X687577Y347304D01*
X687565Y347402D01*
X687562Y347501D01*
X687545Y347559D01*
X687537Y347619D01*
X687501Y347711D01*
X687473Y347806D01*
X687443Y347859D01*
X687420Y347915D01*
X687362Y347995D01*
X687312Y348080D01*
X687246Y348156D01*
X687234Y348172D01*
X687224Y348180D01*
X687206Y348201D01*
X685950Y349456D01*
X685065Y351593D01*
X685065Y353907D01*
X685950Y356044D01*
X687586Y357680D01*
X689723Y358565D01*
X692037Y358565D01*
X694174Y357680D01*
X695810Y356044D01*
X696695Y353907D01*
X696695Y351593D01*
X695810Y349456D01*
X694554Y348201D01*
X694494Y348123D01*
X694426Y348051D01*
X694397Y347998D01*
X694360Y347950D01*
X694320Y347859D01*
X694272Y347772D01*
X694257Y347714D01*
X694233Y347658D01*
X694218Y347560D01*
X694193Y347464D01*
X694187Y347364D01*
X694183Y347344D01*
X694185Y347332D01*
X694183Y347304D01*
X694183Y346064D01*
X694195Y345966D01*
X694198Y345867D01*
X694215Y345808D01*
X694223Y345748D01*
X694259Y345656D01*
X694287Y345561D01*
X694317Y345509D01*
X694340Y345453D01*
X694398Y345373D01*
X694448Y345287D01*
X694514Y345212D01*
X694526Y345195D01*
X694536Y345187D01*
X694554Y345166D01*
X715773Y323948D01*
X715773Y321212D01*
X715382Y320822D01*
X715322Y320743D01*
X715254Y320671D01*
X715225Y320618D01*
X715188Y320570D01*
X715148Y320479D01*
X715100Y320393D01*
X715085Y320334D01*
X715061Y320279D01*
X715046Y320181D01*
X715021Y320085D01*
X715015Y319985D01*
X715011Y319964D01*
X715013Y319952D01*
X715011Y319924D01*
X715011Y296116D01*
X715028Y295979D01*
X715041Y295840D01*
X715048Y295820D01*
X715051Y295800D01*
X715102Y295672D01*
X715149Y295540D01*
X715160Y295524D01*
X715168Y295505D01*
X715249Y295392D01*
X715327Y295277D01*
X715343Y295264D01*
X715354Y295247D01*
X715462Y295159D01*
X715566Y295067D01*
X715584Y295058D01*
X715599Y295045D01*
X715725Y294985D01*
X715849Y294922D01*
X715869Y294918D01*
X715887Y294909D01*
X716023Y294883D01*
X716159Y294852D01*
X716180Y294853D01*
X716199Y294849D01*
X716338Y294858D01*
X716477Y294862D01*
X716497Y294868D01*
X716517Y294869D01*
X716649Y294912D01*
X716783Y294951D01*
X716800Y294961D01*
X716819Y294967D01*
X716937Y295042D01*
X717057Y295112D01*
X717078Y295131D01*
X717088Y295137D01*
X717102Y295152D01*
X717177Y295218D01*
X719702Y297743D01*
X723250Y299213D01*
X727090Y299213D01*
X728472Y298640D01*
X728500Y298633D01*
X728526Y298619D01*
X728653Y298591D01*
X728778Y298557D01*
X728808Y298556D01*
X728837Y298550D01*
X728966Y298554D01*
X729096Y298551D01*
X729125Y298558D01*
X729155Y298559D01*
X729279Y298595D01*
X729406Y298626D01*
X729432Y298639D01*
X729460Y298648D01*
X729572Y298714D01*
X729687Y298774D01*
X729709Y298794D01*
X729734Y298809D01*
X729855Y298916D01*
X767216Y336276D01*
X767276Y336355D01*
X767344Y336427D01*
X767373Y336480D01*
X767410Y336528D01*
X767450Y336619D01*
X767498Y336705D01*
X767513Y336764D01*
X767537Y336819D01*
X767552Y336917D01*
X767577Y337013D01*
X767583Y337113D01*
X767587Y337133D01*
X767585Y337146D01*
X767587Y337174D01*
X767587Y341264D01*
X767575Y341362D01*
X767572Y341461D01*
X767555Y341519D01*
X767547Y341579D01*
X767511Y341671D01*
X767483Y341766D01*
X767453Y341819D01*
X767430Y341875D01*
X767372Y341955D01*
X767322Y342040D01*
X767256Y342116D01*
X767244Y342132D01*
X767234Y342140D01*
X767216Y342161D01*
X765960Y343416D01*
X765075Y345553D01*
X765075Y347867D01*
X765960Y350004D01*
X767596Y351640D01*
X769733Y352525D01*
X772047Y352525D01*
X774184Y351640D01*
X775820Y350004D01*
X776705Y347867D01*
X776705Y345553D01*
X775820Y343416D01*
X774564Y342161D01*
X774504Y342083D01*
X774436Y342011D01*
X774407Y341958D01*
X774370Y341910D01*
X774330Y341819D01*
X774282Y341732D01*
X774267Y341674D01*
X774243Y341618D01*
X774228Y341520D01*
X774203Y341424D01*
X774197Y341324D01*
X774193Y341304D01*
X774195Y341292D01*
X774193Y341264D01*
X774193Y333912D01*
X771887Y331606D01*
X771886Y331606D01*
X734526Y294245D01*
X734507Y294221D01*
X734485Y294202D01*
X734410Y294096D01*
X734331Y293994D01*
X734319Y293966D01*
X734302Y293942D01*
X734256Y293821D01*
X734204Y293702D01*
X734200Y293673D01*
X734189Y293645D01*
X734175Y293516D01*
X734154Y293388D01*
X734157Y293358D01*
X734154Y293329D01*
X734172Y293200D01*
X734184Y293071D01*
X734194Y293043D01*
X734198Y293014D01*
X734250Y292862D01*
X734823Y291480D01*
X734823Y287640D01*
X733353Y284092D01*
X730638Y281377D01*
X727090Y279907D01*
X723250Y279907D01*
X719702Y281377D01*
X717177Y283902D01*
X717068Y283987D01*
X716961Y284075D01*
X716942Y284084D01*
X716926Y284096D01*
X716798Y284152D01*
X716673Y284211D01*
X716653Y284215D01*
X716634Y284223D01*
X716496Y284245D01*
X716360Y284271D01*
X716340Y284269D01*
X716320Y284273D01*
X716181Y284260D01*
X716043Y284251D01*
X716024Y284245D01*
X716004Y284243D01*
X715872Y284196D01*
X715741Y284153D01*
X715723Y284142D01*
X715704Y284135D01*
X715589Y284057D01*
X715472Y283983D01*
X715458Y283968D01*
X715441Y283957D01*
X715349Y283852D01*
X715254Y283751D01*
X715244Y283733D01*
X715231Y283718D01*
X715167Y283594D01*
X715100Y283473D01*
X715095Y283453D01*
X715086Y283435D01*
X715056Y283299D01*
X715021Y283165D01*
X715019Y283137D01*
X715016Y283125D01*
X715017Y283104D01*
X715011Y283004D01*
X715011Y274436D01*
X715023Y274338D01*
X715026Y274239D01*
X715043Y274180D01*
X715051Y274120D01*
X715087Y274028D01*
X715115Y273933D01*
X715145Y273881D01*
X715168Y273825D01*
X715226Y273745D01*
X715276Y273659D01*
X715342Y273584D01*
X715354Y273567D01*
X715364Y273559D01*
X715382Y273538D01*
X717242Y271678D01*
X717337Y271605D01*
X717426Y271527D01*
X717462Y271508D01*
X717494Y271483D01*
X717603Y271436D01*
X717709Y271382D01*
X717748Y271373D01*
X717786Y271357D01*
X717903Y271338D01*
X718019Y271312D01*
X718060Y271314D01*
X718100Y271307D01*
X718218Y271318D01*
X718337Y271322D01*
X718376Y271333D01*
X718416Y271337D01*
X718528Y271377D01*
X718643Y271410D01*
X718677Y271431D01*
X718716Y271445D01*
X718814Y271512D01*
X718917Y271572D01*
X718962Y271612D01*
X718979Y271623D01*
X718992Y271639D01*
X719037Y271678D01*
X719702Y272343D01*
X723250Y273813D01*
X727090Y273813D01*
X730638Y272343D01*
X733353Y269628D01*
X734823Y266080D01*
X734823Y262240D01*
X733353Y258692D01*
X730638Y255977D01*
X727090Y254507D01*
X723250Y254507D01*
X719702Y255977D01*
X716987Y258692D01*
X715517Y262240D01*
X715517Y263536D01*
X715505Y263634D01*
X715502Y263733D01*
X715485Y263792D01*
X715477Y263852D01*
X715441Y263944D01*
X715413Y264039D01*
X715383Y264091D01*
X715360Y264147D01*
X715302Y264227D01*
X715252Y264313D01*
X715186Y264388D01*
X715174Y264405D01*
X715164Y264413D01*
X715146Y264434D01*
X711052Y268527D01*
X710997Y268570D01*
X710949Y268620D01*
X710872Y268667D01*
X710801Y268722D01*
X710737Y268750D01*
X710677Y268786D01*
X710592Y268813D01*
X710509Y268848D01*
X710440Y268859D01*
X710373Y268880D01*
X710284Y268884D01*
X710195Y268898D01*
X710125Y268892D01*
X710056Y268895D01*
X709968Y268877D01*
X709878Y268868D01*
X709813Y268845D01*
X709744Y268831D01*
X709664Y268791D01*
X709579Y268761D01*
X709521Y268721D01*
X709459Y268691D01*
X709390Y268633D01*
X709316Y268582D01*
X709270Y268530D01*
X709217Y268485D01*
X709165Y268411D01*
X709105Y268344D01*
X709074Y268281D01*
X709034Y268224D01*
X709002Y268141D01*
X708961Y268060D01*
X708946Y267992D01*
X708921Y267927D01*
X708911Y267838D01*
X708891Y267750D01*
X708893Y267680D01*
X708886Y267611D01*
X708898Y267522D01*
X708901Y267432D01*
X708920Y267365D01*
X708930Y267296D01*
X708982Y267144D01*
X709423Y266080D01*
X709423Y262240D01*
X707953Y258692D01*
X705238Y255977D01*
X701690Y254507D01*
X697850Y254507D01*
X694302Y255977D01*
X691587Y258692D01*
X690117Y262240D01*
X690117Y266080D01*
X690690Y267462D01*
X690697Y267490D01*
X690711Y267516D01*
X690739Y267643D01*
X690773Y267768D01*
X690774Y267798D01*
X690780Y267827D01*
X690776Y267956D01*
X690779Y268086D01*
X690772Y268115D01*
X690771Y268145D01*
X690735Y268269D01*
X690704Y268396D01*
X690691Y268422D01*
X690682Y268450D01*
X690617Y268562D01*
X690556Y268677D01*
X690536Y268699D01*
X690521Y268724D01*
X690414Y268845D01*
X683767Y275492D01*
X683767Y278228D01*
X684158Y278618D01*
X684218Y278697D01*
X684286Y278769D01*
X684315Y278822D01*
X684352Y278870D01*
X684392Y278961D01*
X684440Y279047D01*
X684455Y279106D01*
X684479Y279161D01*
X684494Y279259D01*
X684519Y279355D01*
X684525Y279455D01*
X684529Y279476D01*
X684527Y279488D01*
X684529Y279516D01*
X684529Y283004D01*
X684512Y283141D01*
X684499Y283280D01*
X684492Y283300D01*
X684489Y283320D01*
X684438Y283448D01*
X684391Y283580D01*
X684380Y283596D01*
X684372Y283615D01*
X684291Y283728D01*
X684213Y283843D01*
X684197Y283856D01*
X684186Y283873D01*
X684078Y283961D01*
X683974Y284053D01*
X683956Y284062D01*
X683941Y284075D01*
X683815Y284135D01*
X683691Y284198D01*
X683671Y284202D01*
X683653Y284211D01*
X683517Y284237D01*
X683381Y284268D01*
X683360Y284267D01*
X683341Y284271D01*
X683202Y284262D01*
X683063Y284258D01*
X683043Y284252D01*
X683023Y284251D01*
X682891Y284208D01*
X682757Y284169D01*
X682740Y284159D01*
X682721Y284153D01*
X682603Y284078D01*
X682483Y284008D01*
X682462Y283989D01*
X682452Y283983D01*
X682438Y283968D01*
X682363Y283902D01*
X679838Y281377D01*
X676290Y279907D01*
X672450Y279907D01*
X668902Y281377D01*
X666377Y283902D01*
X666268Y283987D01*
X666161Y284075D01*
X666142Y284084D01*
X666126Y284096D01*
X665998Y284152D01*
X665873Y284211D01*
X665853Y284215D01*
X665834Y284223D01*
X665696Y284245D01*
X665560Y284271D01*
X665540Y284269D01*
X665520Y284273D01*
X665381Y284260D01*
X665243Y284251D01*
X665224Y284245D01*
X665204Y284243D01*
X665072Y284196D01*
X664941Y284153D01*
X664923Y284142D01*
X664904Y284135D01*
X664789Y284057D01*
X664672Y283983D01*
X664658Y283968D01*
X664641Y283957D01*
X664549Y283852D01*
X664454Y283751D01*
X664444Y283733D01*
X664431Y283718D01*
X664367Y283594D01*
X664300Y283473D01*
X664295Y283453D01*
X664286Y283435D01*
X664256Y283299D01*
X664221Y283165D01*
X664219Y283137D01*
X664216Y283125D01*
X664217Y283104D01*
X664211Y283004D01*
X664211Y275156D01*
X664223Y275058D01*
X664226Y274959D01*
X664243Y274900D01*
X664251Y274840D01*
X664287Y274748D01*
X664315Y274653D01*
X664345Y274601D01*
X664368Y274545D01*
X664426Y274465D01*
X664476Y274379D01*
X664542Y274304D01*
X664554Y274287D01*
X664564Y274279D01*
X664582Y274258D01*
X666802Y272038D01*
X666897Y271965D01*
X666986Y271887D01*
X667022Y271868D01*
X667054Y271843D01*
X667163Y271796D01*
X667269Y271742D01*
X667308Y271733D01*
X667346Y271717D01*
X667463Y271698D01*
X667579Y271672D01*
X667620Y271674D01*
X667660Y271667D01*
X667779Y271678D01*
X667897Y271682D01*
X667936Y271693D01*
X667976Y271697D01*
X668088Y271737D01*
X668203Y271770D01*
X668237Y271791D01*
X668276Y271805D01*
X668374Y271872D01*
X668477Y271932D01*
X668522Y271972D01*
X668539Y271983D01*
X668552Y271999D01*
X668597Y272038D01*
X668902Y272343D01*
X672450Y273813D01*
X676290Y273813D01*
X679838Y272343D01*
X682553Y269628D01*
X684023Y266080D01*
X684023Y262240D01*
X682553Y258692D01*
X679838Y255977D01*
X676290Y254507D01*
X672450Y254507D01*
X668902Y255977D01*
X666187Y258692D01*
X664717Y262240D01*
X664717Y264256D01*
X664705Y264354D01*
X664702Y264453D01*
X664685Y264512D01*
X664677Y264572D01*
X664641Y264664D01*
X664613Y264759D01*
X664583Y264811D01*
X664560Y264867D01*
X664502Y264947D01*
X664452Y265033D01*
X664386Y265108D01*
X664374Y265125D01*
X664364Y265133D01*
X664346Y265154D01*
X659743Y269756D01*
X659688Y269799D01*
X659639Y269849D01*
X659563Y269896D01*
X659492Y269951D01*
X659428Y269979D01*
X659368Y270015D01*
X659283Y270042D01*
X659200Y270077D01*
X659131Y270088D01*
X659064Y270109D01*
X658975Y270113D01*
X658886Y270127D01*
X658816Y270121D01*
X658747Y270124D01*
X658659Y270106D01*
X658569Y270097D01*
X658504Y270074D01*
X658435Y270060D01*
X658354Y270020D01*
X658270Y269990D01*
X658212Y269951D01*
X658150Y269920D01*
X658081Y269862D01*
X658007Y269811D01*
X657961Y269759D01*
X657908Y269714D01*
X657856Y269640D01*
X657796Y269573D01*
X657765Y269511D01*
X657724Y269454D01*
X657693Y269370D01*
X657652Y269290D01*
X657637Y269222D01*
X657612Y269156D01*
X657602Y269067D01*
X657582Y268979D01*
X657584Y268910D01*
X657577Y268840D01*
X657589Y268751D01*
X657592Y268661D01*
X657611Y268594D01*
X657621Y268525D01*
X657673Y268373D01*
X658623Y266080D01*
X658623Y262240D01*
X657153Y258692D01*
X654438Y255977D01*
X650890Y254507D01*
X647050Y254507D01*
X643502Y255977D01*
X640787Y258692D01*
X639317Y262240D01*
X639317Y266080D01*
X639890Y267462D01*
X639897Y267490D01*
X639911Y267516D01*
X639939Y267643D01*
X639973Y267768D01*
X639974Y267798D01*
X639980Y267827D01*
X639976Y267956D01*
X639979Y268086D01*
X639972Y268115D01*
X639971Y268145D01*
X639935Y268269D01*
X639904Y268396D01*
X639891Y268422D01*
X639882Y268450D01*
X639816Y268562D01*
X639756Y268677D01*
X639736Y268699D01*
X639721Y268724D01*
X639614Y268845D01*
X637786Y270674D01*
X637707Y270734D01*
X637635Y270802D01*
X637582Y270831D01*
X637534Y270868D01*
X637443Y270908D01*
X637357Y270956D01*
X637298Y270971D01*
X637243Y270995D01*
X637145Y271010D01*
X637049Y271035D01*
X636949Y271041D01*
X636928Y271045D01*
X636916Y271043D01*
X636888Y271045D01*
X636383Y271045D01*
X634246Y271930D01*
X632610Y273566D01*
X631725Y275703D01*
X631725Y278017D01*
X632610Y280154D01*
X634246Y281790D01*
X636383Y282675D01*
X638697Y282675D01*
X639097Y282509D01*
X639232Y282472D01*
X639364Y282431D01*
X639385Y282430D01*
X639404Y282425D01*
X639544Y282423D01*
X639682Y282416D01*
X639702Y282420D01*
X639722Y282420D01*
X639858Y282452D01*
X639994Y282480D01*
X640012Y282489D01*
X640031Y282494D01*
X640154Y282559D01*
X640279Y282620D01*
X640295Y282633D01*
X640313Y282643D01*
X640415Y282736D01*
X640521Y282826D01*
X640533Y282843D01*
X640548Y282856D01*
X640624Y282973D01*
X640704Y283086D01*
X640712Y283105D01*
X640723Y283122D01*
X640768Y283254D01*
X640817Y283384D01*
X640819Y283404D01*
X640826Y283423D01*
X640837Y283562D01*
X640852Y283700D01*
X640849Y283720D01*
X640851Y283740D01*
X640827Y283876D01*
X640808Y284015D01*
X640799Y284041D01*
X640797Y284053D01*
X640788Y284072D01*
X640756Y284167D01*
X639317Y287640D01*
X639317Y291480D01*
X640787Y295028D01*
X640817Y295058D01*
X640890Y295152D01*
X640968Y295241D01*
X640987Y295277D01*
X641012Y295309D01*
X641059Y295418D01*
X641113Y295524D01*
X641122Y295564D01*
X641138Y295601D01*
X641157Y295718D01*
X641183Y295834D01*
X641181Y295875D01*
X641188Y295915D01*
X641177Y296033D01*
X641173Y296152D01*
X641162Y296191D01*
X641158Y296231D01*
X641118Y296344D01*
X641085Y296458D01*
X641064Y296493D01*
X641050Y296531D01*
X640983Y296629D01*
X640923Y296732D01*
X640883Y296777D01*
X640872Y296794D01*
X640856Y296807D01*
X640817Y296853D01*
X625114Y312556D01*
X622807Y314862D01*
X622807Y348908D01*
X622795Y349007D01*
X622792Y349106D01*
X622775Y349164D01*
X622767Y349224D01*
X622731Y349316D01*
X622703Y349411D01*
X622673Y349463D01*
X622650Y349520D01*
X622592Y349600D01*
X622542Y349685D01*
X622476Y349760D01*
X622464Y349777D01*
X622454Y349785D01*
X622436Y349806D01*
X596186Y376056D01*
X596108Y376116D01*
X596035Y376184D01*
X595982Y376213D01*
X595935Y376251D01*
X595844Y376290D01*
X595757Y376338D01*
X595698Y376353D01*
X595643Y376377D01*
X595545Y376392D01*
X595449Y376417D01*
X595349Y376424D01*
X595329Y376427D01*
X595316Y376426D01*
X595288Y376427D01*
X588517Y376427D01*
X588419Y376415D01*
X588320Y376412D01*
X588262Y376395D01*
X588202Y376387D01*
X588110Y376351D01*
X588015Y376324D01*
X587962Y376293D01*
X587906Y376270D01*
X587826Y376212D01*
X587741Y376162D01*
X587665Y376095D01*
X587649Y376084D01*
X587641Y376074D01*
X587620Y376056D01*
X586365Y374800D01*
X584533Y374042D01*
X584412Y373973D01*
X584289Y373908D01*
X584274Y373894D01*
X584256Y373884D01*
X584157Y373787D01*
X584054Y373694D01*
X584043Y373677D01*
X584028Y373663D01*
X583955Y373544D01*
X583879Y373428D01*
X583872Y373409D01*
X583862Y373392D01*
X583821Y373259D01*
X583776Y373127D01*
X583774Y373107D01*
X583768Y373088D01*
X583762Y372949D01*
X583751Y372810D01*
X583754Y372790D01*
X583753Y372770D01*
X583781Y372634D01*
X583805Y372497D01*
X583813Y372479D01*
X583817Y372459D01*
X583879Y372334D01*
X583936Y372207D01*
X583948Y372191D01*
X583957Y372173D01*
X584047Y372067D01*
X584134Y371959D01*
X584150Y371946D01*
X584163Y371931D01*
X584277Y371851D01*
X584388Y371767D01*
X584413Y371755D01*
X584423Y371748D01*
X584443Y371741D01*
X584533Y371696D01*
X585941Y371113D01*
X587577Y369477D01*
X588462Y367340D01*
X588462Y365027D01*
X587577Y362890D01*
X586322Y361635D01*
X586261Y361556D01*
X586193Y361484D01*
X586164Y361431D01*
X586127Y361383D01*
X586088Y361292D01*
X586040Y361206D01*
X586025Y361147D01*
X586001Y361092D01*
X585985Y360994D01*
X585961Y360898D01*
X585954Y360798D01*
X585951Y360777D01*
X585952Y360765D01*
X585950Y360737D01*
X585950Y346346D01*
X585963Y346248D01*
X585966Y346149D01*
X585983Y346091D01*
X585990Y346031D01*
X586027Y345939D01*
X586054Y345843D01*
X586085Y345791D01*
X586107Y345735D01*
X586165Y345655D01*
X586216Y345570D01*
X586282Y345494D01*
X586294Y345478D01*
X586303Y345470D01*
X586322Y345449D01*
X614173Y317598D01*
X614173Y314862D01*
X613783Y314472D01*
X613722Y314394D01*
X613654Y314321D01*
X613625Y314268D01*
X613588Y314220D01*
X613548Y314130D01*
X613500Y314043D01*
X613485Y313984D01*
X613461Y313929D01*
X613446Y313831D01*
X613421Y313735D01*
X613415Y313635D01*
X613411Y313615D01*
X613413Y313602D01*
X613411Y313574D01*
X613411Y296770D01*
X613421Y296691D01*
X613421Y296611D01*
X613441Y296534D01*
X613451Y296454D01*
X613480Y296380D01*
X613500Y296303D01*
X613538Y296233D01*
X613568Y296159D01*
X613614Y296094D01*
X613653Y296024D01*
X613707Y295966D01*
X613754Y295901D01*
X613816Y295850D01*
X613870Y295792D01*
X613938Y295749D01*
X613999Y295698D01*
X614072Y295664D01*
X614139Y295622D01*
X614215Y295597D01*
X614287Y295563D01*
X614365Y295548D01*
X614441Y295523D01*
X614521Y295518D01*
X614599Y295503D01*
X614679Y295508D01*
X614759Y295503D01*
X614837Y295518D01*
X614917Y295523D01*
X614993Y295547D01*
X615071Y295562D01*
X615143Y295596D01*
X615219Y295621D01*
X615287Y295664D01*
X615359Y295697D01*
X615421Y295748D01*
X615488Y295791D01*
X615543Y295849D01*
X615604Y295900D01*
X615705Y296022D01*
X615706Y296023D01*
X615707Y296024D01*
X615820Y296179D01*
X616951Y297310D01*
X618245Y298250D01*
X619670Y298976D01*
X621031Y299419D01*
X621031Y290830D01*
X621046Y290712D01*
X621053Y290593D01*
X621066Y290555D01*
X621071Y290515D01*
X621114Y290404D01*
X621151Y290291D01*
X621173Y290256D01*
X621188Y290219D01*
X621258Y290123D01*
X621321Y290022D01*
X621351Y289994D01*
X621375Y289962D01*
X621466Y289886D01*
X621553Y289804D01*
X621588Y289785D01*
X621619Y289759D01*
X621727Y289708D01*
X621831Y289651D01*
X621871Y289640D01*
X621907Y289623D01*
X622024Y289601D01*
X622139Y289571D01*
X622200Y289567D01*
X622220Y289563D01*
X622240Y289565D01*
X622300Y289561D01*
X623571Y289561D01*
X623571Y289559D01*
X622300Y289559D01*
X622182Y289544D01*
X622063Y289537D01*
X622025Y289524D01*
X621985Y289519D01*
X621874Y289475D01*
X621761Y289439D01*
X621726Y289417D01*
X621689Y289402D01*
X621593Y289332D01*
X621492Y289269D01*
X621464Y289239D01*
X621431Y289215D01*
X621356Y289124D01*
X621274Y289037D01*
X621254Y289002D01*
X621229Y288970D01*
X621178Y288863D01*
X621120Y288759D01*
X621110Y288719D01*
X621093Y288683D01*
X621071Y288566D01*
X621041Y288451D01*
X621037Y288390D01*
X621033Y288370D01*
X621035Y288350D01*
X621031Y288290D01*
X621031Y279701D01*
X619670Y280144D01*
X618245Y280870D01*
X616951Y281810D01*
X615820Y282941D01*
X615707Y283096D01*
X615652Y283154D01*
X615606Y283219D01*
X615544Y283270D01*
X615489Y283328D01*
X615422Y283371D01*
X615361Y283422D01*
X615288Y283456D01*
X615221Y283499D01*
X615145Y283523D01*
X615073Y283557D01*
X614994Y283572D01*
X614918Y283597D01*
X614839Y283602D01*
X614760Y283617D01*
X614681Y283612D01*
X614601Y283617D01*
X614523Y283602D01*
X614443Y283597D01*
X614367Y283573D01*
X614288Y283558D01*
X614216Y283524D01*
X614141Y283499D01*
X614073Y283456D01*
X614001Y283422D01*
X613939Y283372D01*
X613872Y283329D01*
X613817Y283271D01*
X613755Y283220D01*
X613709Y283155D01*
X613654Y283097D01*
X613615Y283027D01*
X613568Y282963D01*
X613539Y282889D01*
X613500Y282819D01*
X613480Y282742D01*
X613451Y282667D01*
X613441Y282588D01*
X613421Y282511D01*
X613411Y282353D01*
X613411Y282352D01*
X613411Y282351D01*
X613411Y282350D01*
X613411Y279516D01*
X613423Y279418D01*
X613426Y279319D01*
X613443Y279260D01*
X613451Y279200D01*
X613487Y279108D01*
X613515Y279013D01*
X613545Y278961D01*
X613568Y278905D01*
X613626Y278825D01*
X613676Y278739D01*
X613742Y278664D01*
X613754Y278647D01*
X613764Y278639D01*
X613782Y278618D01*
X618885Y273516D01*
X618908Y273498D01*
X618928Y273475D01*
X619034Y273400D01*
X619136Y273321D01*
X619164Y273309D01*
X619188Y273292D01*
X619309Y273246D01*
X619428Y273194D01*
X619457Y273190D01*
X619485Y273179D01*
X619614Y273165D01*
X619742Y273144D01*
X619772Y273147D01*
X619801Y273144D01*
X619930Y273162D01*
X620059Y273174D01*
X620087Y273184D01*
X620116Y273188D01*
X620268Y273240D01*
X621650Y273813D01*
X625490Y273813D01*
X629038Y272343D01*
X631753Y269628D01*
X633223Y266080D01*
X633223Y262240D01*
X631753Y258692D01*
X629038Y255977D01*
X625490Y254507D01*
X621650Y254507D01*
X618102Y255977D01*
X615387Y258692D01*
X613917Y262240D01*
X613917Y266080D01*
X614490Y267462D01*
X614497Y267490D01*
X614511Y267516D01*
X614539Y267643D01*
X614573Y267768D01*
X614574Y267798D01*
X614580Y267827D01*
X614576Y267956D01*
X614579Y268086D01*
X614572Y268115D01*
X614571Y268145D01*
X614535Y268269D01*
X614504Y268396D01*
X614491Y268422D01*
X614482Y268450D01*
X614416Y268562D01*
X614356Y268677D01*
X614336Y268699D01*
X614321Y268724D01*
X614214Y268845D01*
X607567Y275492D01*
X607567Y278228D01*
X607958Y278618D01*
X608018Y278697D01*
X608086Y278769D01*
X608115Y278822D01*
X608152Y278870D01*
X608192Y278961D01*
X608240Y279047D01*
X608255Y279106D01*
X608279Y279161D01*
X608294Y279259D01*
X608319Y279355D01*
X608325Y279455D01*
X608329Y279476D01*
X608327Y279488D01*
X608329Y279516D01*
X608329Y283004D01*
X608312Y283141D01*
X608299Y283280D01*
X608292Y283300D01*
X608289Y283320D01*
X608238Y283448D01*
X608191Y283580D01*
X608180Y283596D01*
X608172Y283615D01*
X608091Y283728D01*
X608013Y283843D01*
X607997Y283856D01*
X607986Y283873D01*
X607878Y283961D01*
X607774Y284053D01*
X607756Y284062D01*
X607741Y284075D01*
X607615Y284135D01*
X607491Y284198D01*
X607471Y284202D01*
X607453Y284211D01*
X607317Y284237D01*
X607181Y284268D01*
X607160Y284267D01*
X607141Y284271D01*
X607002Y284262D01*
X606863Y284258D01*
X606843Y284252D01*
X606823Y284251D01*
X606691Y284208D01*
X606557Y284169D01*
X606540Y284159D01*
X606521Y284153D01*
X606403Y284078D01*
X606283Y284008D01*
X606262Y283989D01*
X606252Y283983D01*
X606238Y283968D01*
X606163Y283902D01*
X603638Y281377D01*
X600090Y279907D01*
X596250Y279907D01*
X592702Y281377D01*
X589987Y284092D01*
X588517Y287640D01*
X588517Y291480D01*
X589987Y295028D01*
X592702Y297743D01*
X596250Y299213D01*
X600090Y299213D01*
X603638Y297743D01*
X606163Y295218D01*
X606272Y295133D01*
X606379Y295045D01*
X606398Y295036D01*
X606414Y295024D01*
X606542Y294968D01*
X606667Y294909D01*
X606687Y294905D01*
X606706Y294897D01*
X606844Y294875D01*
X606980Y294849D01*
X607000Y294851D01*
X607020Y294847D01*
X607159Y294860D01*
X607297Y294869D01*
X607316Y294875D01*
X607336Y294877D01*
X607468Y294924D01*
X607599Y294967D01*
X607617Y294978D01*
X607636Y294985D01*
X607751Y295063D01*
X607868Y295137D01*
X607882Y295152D01*
X607899Y295163D01*
X607991Y295268D01*
X608086Y295369D01*
X608096Y295387D01*
X608109Y295402D01*
X608173Y295526D01*
X608240Y295647D01*
X608245Y295667D01*
X608254Y295685D01*
X608284Y295821D01*
X608319Y295955D01*
X608321Y295983D01*
X608324Y295995D01*
X608323Y296016D01*
X608329Y296116D01*
X608329Y313574D01*
X608317Y313672D01*
X608314Y313771D01*
X608297Y313830D01*
X608289Y313890D01*
X608253Y313982D01*
X608225Y314077D01*
X608195Y314129D01*
X608172Y314185D01*
X608114Y314265D01*
X608064Y314351D01*
X607998Y314426D01*
X607986Y314443D01*
X607976Y314451D01*
X607958Y314472D01*
X581651Y340778D01*
X579345Y343084D01*
X579345Y360737D01*
X579332Y360835D01*
X579329Y360934D01*
X579313Y360993D01*
X579305Y361053D01*
X579269Y361145D01*
X579241Y361240D01*
X579210Y361292D01*
X579188Y361348D01*
X579130Y361428D01*
X579079Y361514D01*
X579013Y361589D01*
X579001Y361606D01*
X578992Y361613D01*
X578973Y361635D01*
X577718Y362890D01*
X577245Y364033D01*
X577210Y364093D01*
X577184Y364158D01*
X577132Y364231D01*
X577087Y364309D01*
X577039Y364359D01*
X576998Y364416D01*
X576928Y364473D01*
X576866Y364537D01*
X576806Y364574D01*
X576753Y364618D01*
X576671Y364657D01*
X576595Y364704D01*
X576528Y364724D01*
X576465Y364754D01*
X576377Y364771D01*
X576291Y364797D01*
X576221Y364801D01*
X576152Y364814D01*
X576063Y364808D01*
X575973Y364812D01*
X575905Y364798D01*
X575835Y364794D01*
X575750Y364766D01*
X575662Y364748D01*
X575599Y364717D01*
X575533Y364696D01*
X575457Y364648D01*
X575376Y364608D01*
X575323Y364563D01*
X575264Y364526D01*
X575202Y364460D01*
X575134Y364402D01*
X575094Y364345D01*
X575046Y364294D01*
X575003Y364215D01*
X574951Y364142D01*
X574926Y364077D01*
X574892Y364016D01*
X574870Y363929D01*
X574838Y363845D01*
X574830Y363775D01*
X574813Y363708D01*
X574803Y363547D01*
X574803Y337481D01*
X574815Y337382D01*
X574818Y337283D01*
X574835Y337225D01*
X574843Y337165D01*
X574879Y337073D01*
X574907Y336978D01*
X574937Y336926D01*
X574960Y336869D01*
X575018Y336789D01*
X575068Y336704D01*
X575134Y336629D01*
X575146Y336612D01*
X575156Y336604D01*
X575158Y336602D01*
X576045Y334461D01*
X576045Y332148D01*
X575160Y330011D01*
X573524Y328375D01*
X571387Y327490D01*
X569073Y327490D01*
X566936Y328375D01*
X565539Y329772D01*
X565430Y329857D01*
X565323Y329946D01*
X565304Y329954D01*
X565288Y329967D01*
X565160Y330022D01*
X565035Y330081D01*
X565015Y330085D01*
X564996Y330093D01*
X564858Y330115D01*
X564722Y330141D01*
X564702Y330140D01*
X564682Y330143D01*
X564543Y330130D01*
X564405Y330121D01*
X564386Y330115D01*
X564366Y330113D01*
X564234Y330066D01*
X564103Y330023D01*
X564085Y330012D01*
X564066Y330005D01*
X563951Y329927D01*
X563834Y329853D01*
X563820Y329838D01*
X563803Y329827D01*
X563711Y329722D01*
X563616Y329621D01*
X563606Y329604D01*
X563593Y329588D01*
X563529Y329464D01*
X563462Y329343D01*
X563457Y329323D01*
X563448Y329305D01*
X563418Y329169D01*
X563383Y329035D01*
X563381Y329007D01*
X563378Y328995D01*
X563379Y328974D01*
X563373Y328874D01*
X563373Y314862D01*
X562982Y314472D01*
X562922Y314393D01*
X562854Y314321D01*
X562825Y314268D01*
X562788Y314220D01*
X562748Y314129D01*
X562700Y314043D01*
X562685Y313984D01*
X562661Y313929D01*
X562646Y313831D01*
X562621Y313735D01*
X562615Y313635D01*
X562611Y313614D01*
X562613Y313602D01*
X562611Y313574D01*
X562611Y296116D01*
X562628Y295979D01*
X562641Y295840D01*
X562648Y295820D01*
X562651Y295800D01*
X562702Y295672D01*
X562749Y295540D01*
X562760Y295524D01*
X562768Y295505D01*
X562849Y295392D01*
X562927Y295277D01*
X562943Y295264D01*
X562954Y295247D01*
X563062Y295159D01*
X563166Y295067D01*
X563184Y295058D01*
X563199Y295045D01*
X563325Y294985D01*
X563449Y294922D01*
X563469Y294918D01*
X563487Y294909D01*
X563623Y294883D01*
X563759Y294852D01*
X563780Y294853D01*
X563799Y294849D01*
X563938Y294858D01*
X564077Y294862D01*
X564097Y294868D01*
X564117Y294869D01*
X564249Y294912D01*
X564383Y294951D01*
X564400Y294961D01*
X564419Y294967D01*
X564537Y295042D01*
X564657Y295112D01*
X564678Y295131D01*
X564688Y295137D01*
X564702Y295152D01*
X564777Y295218D01*
X567302Y297743D01*
X570850Y299213D01*
X574690Y299213D01*
X578238Y297743D01*
X580953Y295028D01*
X582423Y291480D01*
X582423Y287640D01*
X580953Y284092D01*
X578238Y281377D01*
X574690Y279907D01*
X570850Y279907D01*
X567302Y281377D01*
X564777Y283902D01*
X564668Y283987D01*
X564561Y284075D01*
X564542Y284084D01*
X564526Y284096D01*
X564398Y284152D01*
X564273Y284211D01*
X564253Y284215D01*
X564234Y284223D01*
X564096Y284245D01*
X563960Y284271D01*
X563940Y284269D01*
X563920Y284273D01*
X563781Y284260D01*
X563643Y284251D01*
X563624Y284245D01*
X563604Y284243D01*
X563472Y284196D01*
X563341Y284153D01*
X563323Y284142D01*
X563304Y284135D01*
X563189Y284057D01*
X563072Y283983D01*
X563058Y283968D01*
X563041Y283957D01*
X562949Y283852D01*
X562854Y283751D01*
X562844Y283733D01*
X562831Y283718D01*
X562767Y283594D01*
X562700Y283473D01*
X562695Y283453D01*
X562686Y283435D01*
X562656Y283299D01*
X562621Y283165D01*
X562619Y283137D01*
X562616Y283125D01*
X562617Y283104D01*
X562611Y283004D01*
X562611Y279516D01*
X562623Y279418D01*
X562626Y279319D01*
X562643Y279260D01*
X562651Y279200D01*
X562687Y279108D01*
X562715Y279013D01*
X562745Y278961D01*
X562768Y278905D01*
X562826Y278825D01*
X562876Y278739D01*
X562942Y278664D01*
X562954Y278647D01*
X562964Y278639D01*
X562982Y278618D01*
X563373Y278228D01*
X563373Y275492D01*
X556726Y268845D01*
X556708Y268822D01*
X556685Y268802D01*
X556610Y268696D01*
X556531Y268594D01*
X556519Y268566D01*
X556502Y268542D01*
X556456Y268421D01*
X556404Y268302D01*
X556400Y268273D01*
X556389Y268245D01*
X556375Y268116D01*
X556354Y267988D01*
X556357Y267958D01*
X556354Y267929D01*
X556372Y267800D01*
X556384Y267671D01*
X556394Y267643D01*
X556398Y267614D01*
X556450Y267462D01*
X557023Y266080D01*
X557023Y262240D01*
X555553Y258692D01*
X552838Y255977D01*
X549290Y254507D01*
X545450Y254507D01*
X541902Y255977D01*
X539187Y258692D01*
X537717Y262240D01*
X537717Y266080D01*
X539187Y269628D01*
X541902Y272343D01*
X545450Y273813D01*
X549290Y273813D01*
X550672Y273240D01*
X550700Y273233D01*
X550726Y273219D01*
X550853Y273191D01*
X550978Y273157D01*
X551008Y273156D01*
X551037Y273150D01*
X551166Y273154D01*
X551296Y273151D01*
X551325Y273158D01*
X551355Y273159D01*
X551479Y273195D01*
X551606Y273226D01*
X551632Y273239D01*
X551660Y273248D01*
X551772Y273314D01*
X551887Y273374D01*
X551909Y273394D01*
X551934Y273409D01*
X552055Y273516D01*
X557158Y278618D01*
X557218Y278697D01*
X557286Y278769D01*
X557315Y278822D01*
X557352Y278870D01*
X557392Y278961D01*
X557440Y279047D01*
X557455Y279106D01*
X557479Y279161D01*
X557494Y279259D01*
X557519Y279355D01*
X557525Y279455D01*
X557529Y279476D01*
X557527Y279488D01*
X557529Y279516D01*
X557529Y283004D01*
X557512Y283141D01*
X557499Y283280D01*
X557492Y283300D01*
X557489Y283320D01*
X557438Y283448D01*
X557391Y283580D01*
X557380Y283596D01*
X557372Y283615D01*
X557291Y283728D01*
X557213Y283843D01*
X557197Y283856D01*
X557186Y283873D01*
X557078Y283961D01*
X556974Y284053D01*
X556956Y284062D01*
X556941Y284075D01*
X556815Y284135D01*
X556691Y284198D01*
X556671Y284202D01*
X556653Y284211D01*
X556517Y284237D01*
X556381Y284268D01*
X556360Y284267D01*
X556341Y284271D01*
X556202Y284262D01*
X556063Y284258D01*
X556043Y284252D01*
X556023Y284251D01*
X555891Y284208D01*
X555757Y284169D01*
X555740Y284159D01*
X555721Y284153D01*
X555603Y284078D01*
X555483Y284008D01*
X555462Y283989D01*
X555452Y283983D01*
X555438Y283968D01*
X555363Y283902D01*
X552838Y281377D01*
X549290Y279907D01*
X545450Y279907D01*
X541902Y281377D01*
X539377Y283902D01*
X539268Y283987D01*
X539161Y284075D01*
X539142Y284084D01*
X539126Y284096D01*
X538998Y284152D01*
X538873Y284211D01*
X538853Y284215D01*
X538834Y284223D01*
X538696Y284245D01*
X538560Y284271D01*
X538540Y284269D01*
X538520Y284273D01*
X538381Y284260D01*
X538243Y284251D01*
X538224Y284245D01*
X538204Y284243D01*
X538072Y284196D01*
X537941Y284153D01*
X537923Y284142D01*
X537904Y284135D01*
X537789Y284057D01*
X537672Y283983D01*
X537658Y283968D01*
X537641Y283957D01*
X537549Y283852D01*
X537454Y283751D01*
X537444Y283733D01*
X537431Y283718D01*
X537367Y283594D01*
X537300Y283473D01*
X537295Y283453D01*
X537286Y283435D01*
X537256Y283299D01*
X537221Y283165D01*
X537219Y283137D01*
X537216Y283125D01*
X537217Y283104D01*
X537211Y283004D01*
X537211Y279516D01*
X537223Y279418D01*
X537226Y279319D01*
X537243Y279260D01*
X537251Y279200D01*
X537287Y279108D01*
X537315Y279013D01*
X537345Y278961D01*
X537368Y278905D01*
X537426Y278825D01*
X537476Y278739D01*
X537542Y278664D01*
X537554Y278647D01*
X537564Y278639D01*
X537582Y278618D01*
X537973Y278228D01*
X537973Y275492D01*
X531326Y268845D01*
X531307Y268821D01*
X531285Y268802D01*
X531210Y268696D01*
X531131Y268594D01*
X531119Y268566D01*
X531102Y268542D01*
X531056Y268421D01*
X531004Y268302D01*
X531000Y268273D01*
X530989Y268245D01*
X530975Y268116D01*
X530954Y267988D01*
X530957Y267958D01*
X530954Y267929D01*
X530972Y267800D01*
X530984Y267671D01*
X530994Y267643D01*
X530998Y267614D01*
X531050Y267462D01*
X531623Y266080D01*
X531623Y262240D01*
X530153Y258692D01*
X527438Y255977D01*
X523890Y254507D01*
X520050Y254507D01*
G37*
%LPD*%
%LPC*%
G36*
X393050Y254507D02*
X393050Y254507D01*
X389502Y255977D01*
X386787Y258692D01*
X385317Y262240D01*
X385317Y266080D01*
X385890Y267462D01*
X385897Y267490D01*
X385911Y267516D01*
X385939Y267643D01*
X385973Y267768D01*
X385974Y267798D01*
X385980Y267827D01*
X385976Y267956D01*
X385979Y268086D01*
X385972Y268115D01*
X385971Y268145D01*
X385935Y268269D01*
X385904Y268396D01*
X385891Y268422D01*
X385882Y268450D01*
X385817Y268562D01*
X385756Y268677D01*
X385736Y268699D01*
X385721Y268724D01*
X385614Y268845D01*
X378967Y275492D01*
X378967Y278228D01*
X379358Y278618D01*
X379418Y278697D01*
X379486Y278769D01*
X379515Y278822D01*
X379552Y278870D01*
X379592Y278961D01*
X379640Y279047D01*
X379655Y279106D01*
X379679Y279161D01*
X379694Y279259D01*
X379719Y279355D01*
X379725Y279455D01*
X379729Y279476D01*
X379727Y279488D01*
X379729Y279516D01*
X379729Y283004D01*
X379712Y283141D01*
X379699Y283280D01*
X379692Y283300D01*
X379689Y283320D01*
X379638Y283448D01*
X379591Y283580D01*
X379580Y283596D01*
X379572Y283615D01*
X379491Y283728D01*
X379413Y283843D01*
X379397Y283856D01*
X379386Y283873D01*
X379278Y283961D01*
X379174Y284053D01*
X379156Y284062D01*
X379141Y284075D01*
X379015Y284135D01*
X378891Y284198D01*
X378871Y284202D01*
X378853Y284211D01*
X378717Y284237D01*
X378581Y284268D01*
X378560Y284267D01*
X378541Y284271D01*
X378402Y284262D01*
X378263Y284258D01*
X378243Y284252D01*
X378223Y284251D01*
X378091Y284208D01*
X377957Y284169D01*
X377940Y284159D01*
X377921Y284153D01*
X377803Y284078D01*
X377683Y284008D01*
X377662Y283989D01*
X377652Y283983D01*
X377638Y283968D01*
X377563Y283902D01*
X375038Y281377D01*
X371490Y279907D01*
X367650Y279907D01*
X364102Y281377D01*
X361387Y284092D01*
X359917Y287640D01*
X359917Y291480D01*
X361387Y295028D01*
X364102Y297743D01*
X367650Y299213D01*
X371490Y299213D01*
X375038Y297743D01*
X377563Y295218D01*
X377672Y295133D01*
X377779Y295045D01*
X377798Y295036D01*
X377814Y295024D01*
X377942Y294968D01*
X378067Y294909D01*
X378087Y294905D01*
X378106Y294897D01*
X378244Y294875D01*
X378380Y294849D01*
X378400Y294851D01*
X378420Y294847D01*
X378559Y294860D01*
X378697Y294869D01*
X378716Y294875D01*
X378736Y294877D01*
X378868Y294924D01*
X378999Y294967D01*
X379017Y294978D01*
X379036Y294985D01*
X379151Y295063D01*
X379268Y295137D01*
X379282Y295152D01*
X379299Y295163D01*
X379391Y295268D01*
X379486Y295369D01*
X379496Y295387D01*
X379509Y295402D01*
X379573Y295526D01*
X379640Y295647D01*
X379645Y295667D01*
X379654Y295685D01*
X379684Y295821D01*
X379719Y295955D01*
X379721Y295983D01*
X379724Y295995D01*
X379723Y296016D01*
X379729Y296116D01*
X379729Y308494D01*
X379717Y308592D01*
X379714Y308691D01*
X379697Y308750D01*
X379689Y308810D01*
X379653Y308902D01*
X379625Y308997D01*
X379595Y309049D01*
X379572Y309105D01*
X379514Y309185D01*
X379464Y309271D01*
X379398Y309346D01*
X379386Y309363D01*
X379376Y309371D01*
X379358Y309392D01*
X348226Y340524D01*
X348147Y340584D01*
X348075Y340652D01*
X348022Y340681D01*
X347974Y340718D01*
X347883Y340758D01*
X347797Y340806D01*
X347738Y340821D01*
X347683Y340845D01*
X347585Y340860D01*
X347489Y340885D01*
X347389Y340891D01*
X347368Y340895D01*
X347356Y340893D01*
X347328Y340895D01*
X345553Y340895D01*
X343416Y341780D01*
X341780Y343416D01*
X340895Y345553D01*
X340895Y347867D01*
X341780Y350004D01*
X343416Y351640D01*
X345553Y352525D01*
X347867Y352525D01*
X350004Y351640D01*
X351640Y350004D01*
X352525Y347867D01*
X352525Y346092D01*
X352537Y345994D01*
X352540Y345895D01*
X352557Y345836D01*
X352565Y345776D01*
X352601Y345684D01*
X352629Y345589D01*
X352659Y345537D01*
X352682Y345481D01*
X352740Y345401D01*
X352790Y345315D01*
X352856Y345240D01*
X352868Y345223D01*
X352878Y345215D01*
X352896Y345194D01*
X385573Y312518D01*
X385573Y309782D01*
X385182Y309392D01*
X385122Y309313D01*
X385054Y309241D01*
X385025Y309188D01*
X384988Y309140D01*
X384948Y309049D01*
X384900Y308963D01*
X384885Y308904D01*
X384861Y308849D01*
X384846Y308751D01*
X384821Y308655D01*
X384815Y308555D01*
X384811Y308534D01*
X384813Y308522D01*
X384811Y308494D01*
X384811Y296116D01*
X384828Y295979D01*
X384841Y295840D01*
X384848Y295820D01*
X384851Y295800D01*
X384902Y295672D01*
X384949Y295540D01*
X384960Y295524D01*
X384968Y295505D01*
X385049Y295392D01*
X385127Y295277D01*
X385143Y295264D01*
X385154Y295247D01*
X385262Y295159D01*
X385366Y295067D01*
X385384Y295058D01*
X385399Y295045D01*
X385525Y294985D01*
X385649Y294922D01*
X385669Y294918D01*
X385687Y294909D01*
X385823Y294883D01*
X385959Y294852D01*
X385980Y294853D01*
X385999Y294849D01*
X386138Y294858D01*
X386277Y294862D01*
X386297Y294868D01*
X386317Y294869D01*
X386449Y294912D01*
X386583Y294951D01*
X386600Y294961D01*
X386619Y294967D01*
X386737Y295042D01*
X386857Y295112D01*
X386878Y295131D01*
X386888Y295137D01*
X386902Y295152D01*
X386977Y295218D01*
X389502Y297743D01*
X391646Y298631D01*
X391671Y298646D01*
X391699Y298655D01*
X391809Y298724D01*
X391922Y298789D01*
X391943Y298809D01*
X391968Y298825D01*
X392057Y298920D01*
X392150Y299010D01*
X392166Y299035D01*
X392186Y299057D01*
X392249Y299170D01*
X392317Y299281D01*
X392325Y299309D01*
X392340Y299335D01*
X392372Y299461D01*
X392410Y299585D01*
X392412Y299614D01*
X392419Y299643D01*
X392429Y299804D01*
X392429Y309764D01*
X392417Y309862D01*
X392414Y309961D01*
X392397Y310020D01*
X392389Y310080D01*
X392353Y310172D01*
X392325Y310267D01*
X392295Y310319D01*
X392272Y310375D01*
X392214Y310455D01*
X392164Y310541D01*
X392098Y310616D01*
X392086Y310633D01*
X392076Y310641D01*
X392058Y310662D01*
X391667Y311052D01*
X391667Y360971D01*
X391666Y360983D01*
X391667Y360995D01*
X391654Y361155D01*
X391499Y362208D01*
X391573Y362338D01*
X391574Y362344D01*
X391578Y362350D01*
X391615Y362497D01*
X391655Y362645D01*
X391655Y362652D01*
X391657Y362658D01*
X391657Y362663D01*
X392399Y363404D01*
X392406Y363413D01*
X392415Y363421D01*
X392520Y363544D01*
X401656Y375823D01*
X401660Y375829D01*
X401664Y375834D01*
X401737Y375966D01*
X401813Y376100D01*
X401814Y376107D01*
X401818Y376112D01*
X401855Y376259D01*
X401895Y376407D01*
X401895Y376414D01*
X401897Y376420D01*
X401907Y376581D01*
X401907Y387732D01*
X403168Y388992D01*
X403241Y389087D01*
X403320Y389176D01*
X403338Y389212D01*
X403363Y389244D01*
X403410Y389353D01*
X403464Y389459D01*
X403473Y389498D01*
X403489Y389536D01*
X403508Y389653D01*
X403534Y389769D01*
X403533Y389810D01*
X403539Y389850D01*
X403528Y389968D01*
X403524Y390087D01*
X403513Y390126D01*
X403509Y390166D01*
X403469Y390279D01*
X403436Y390393D01*
X403415Y390427D01*
X403402Y390466D01*
X403335Y390564D01*
X403274Y390667D01*
X403234Y390712D01*
X403223Y390729D01*
X403208Y390742D01*
X403168Y390787D01*
X401907Y392048D01*
X401907Y400226D01*
X401895Y400324D01*
X401892Y400423D01*
X401875Y400482D01*
X401867Y400542D01*
X401831Y400634D01*
X401803Y400729D01*
X401773Y400781D01*
X401750Y400837D01*
X401692Y400917D01*
X401642Y401003D01*
X401576Y401078D01*
X401564Y401095D01*
X401554Y401103D01*
X401536Y401124D01*
X386180Y416480D01*
X386086Y416553D01*
X385996Y416631D01*
X385960Y416650D01*
X385928Y416674D01*
X385819Y416722D01*
X385713Y416776D01*
X385674Y416785D01*
X385637Y416801D01*
X385519Y416819D01*
X385403Y416846D01*
X385363Y416844D01*
X385323Y416851D01*
X385204Y416839D01*
X385085Y416836D01*
X385046Y416825D01*
X385006Y416821D01*
X384894Y416781D01*
X384779Y416747D01*
X384745Y416727D01*
X384707Y416713D01*
X384608Y416646D01*
X384506Y416586D01*
X384460Y416546D01*
X384443Y416535D01*
X384430Y416519D01*
X384385Y416479D01*
X383665Y415759D01*
X379464Y414019D01*
X374916Y414019D01*
X370715Y415759D01*
X367499Y418975D01*
X365759Y423176D01*
X365759Y427724D01*
X367499Y431925D01*
X370715Y435141D01*
X374916Y436881D01*
X379464Y436881D01*
X383665Y435141D01*
X386880Y431925D01*
X388620Y427724D01*
X388620Y423906D01*
X388633Y423808D01*
X388636Y423709D01*
X388653Y423651D01*
X388660Y423590D01*
X388697Y423498D01*
X388724Y423403D01*
X388755Y423351D01*
X388777Y423295D01*
X388835Y423215D01*
X388886Y423129D01*
X388952Y423054D01*
X388964Y423037D01*
X388974Y423030D01*
X388992Y423009D01*
X388992Y423008D01*
X389102Y422923D01*
X389209Y422835D01*
X389228Y422826D01*
X389244Y422814D01*
X389372Y422758D01*
X389497Y422699D01*
X389517Y422695D01*
X389535Y422687D01*
X389673Y422665D01*
X389809Y422639D01*
X389829Y422641D01*
X389849Y422637D01*
X389989Y422650D01*
X390127Y422659D01*
X390146Y422665D01*
X390166Y422667D01*
X390297Y422714D01*
X390429Y422757D01*
X390446Y422768D01*
X390465Y422775D01*
X390580Y422853D01*
X390698Y422927D01*
X390712Y422942D01*
X390729Y422953D01*
X390820Y423057D01*
X390916Y423159D01*
X390926Y423177D01*
X390939Y423192D01*
X391002Y423316D01*
X391069Y423437D01*
X391074Y423457D01*
X391084Y423475D01*
X391114Y423611D01*
X391149Y423745D01*
X391151Y423773D01*
X391153Y423785D01*
X391153Y423806D01*
X391159Y423906D01*
X391159Y427724D01*
X392899Y431925D01*
X396115Y435141D01*
X399277Y436450D01*
X399285Y436455D01*
X399294Y436457D01*
X399422Y436533D01*
X399553Y436608D01*
X399560Y436614D01*
X399568Y436619D01*
X399689Y436725D01*
X401909Y438946D01*
X420547Y457584D01*
X427985Y457584D01*
X428103Y457598D01*
X428222Y457606D01*
X428260Y457618D01*
X428301Y457623D01*
X428411Y457667D01*
X428524Y457704D01*
X428559Y457726D01*
X428596Y457740D01*
X428692Y457810D01*
X428793Y457874D01*
X428821Y457904D01*
X428854Y457927D01*
X428929Y458019D01*
X429011Y458106D01*
X429031Y458141D01*
X429056Y458172D01*
X429107Y458280D01*
X429165Y458384D01*
X429175Y458423D01*
X429192Y458460D01*
X429214Y458577D01*
X429244Y458692D01*
X429248Y458752D01*
X429252Y458772D01*
X429250Y458793D01*
X429254Y458853D01*
X429254Y462385D01*
X430445Y463576D01*
X435129Y463576D01*
X436320Y462385D01*
X436320Y447701D01*
X435129Y446510D01*
X430445Y446510D01*
X429254Y447701D01*
X429254Y451233D01*
X429239Y451351D01*
X429232Y451470D01*
X429219Y451508D01*
X429214Y451548D01*
X429171Y451659D01*
X429134Y451772D01*
X429112Y451806D01*
X429097Y451844D01*
X429027Y451940D01*
X428964Y452041D01*
X428934Y452069D01*
X428911Y452101D01*
X428819Y452177D01*
X428732Y452259D01*
X428697Y452278D01*
X428666Y452304D01*
X428558Y452355D01*
X428454Y452412D01*
X428414Y452423D01*
X428378Y452440D01*
X428261Y452462D01*
X428146Y452492D01*
X428085Y452496D01*
X428065Y452500D01*
X428045Y452498D01*
X427985Y452502D01*
X423177Y452502D01*
X423079Y452490D01*
X422980Y452487D01*
X422922Y452470D01*
X422862Y452462D01*
X422770Y452426D01*
X422675Y452398D01*
X422622Y452367D01*
X422566Y452345D01*
X422486Y452287D01*
X422401Y452237D01*
X422325Y452170D01*
X422309Y452158D01*
X422301Y452149D01*
X422280Y452130D01*
X407739Y437589D01*
X407708Y437550D01*
X407672Y437517D01*
X407611Y437425D01*
X407544Y437338D01*
X407524Y437292D01*
X407497Y437251D01*
X407461Y437147D01*
X407417Y437046D01*
X407410Y436997D01*
X407394Y436950D01*
X407385Y436841D01*
X407368Y436732D01*
X407372Y436682D01*
X407368Y436633D01*
X407387Y436525D01*
X407397Y436415D01*
X407414Y436369D01*
X407423Y436320D01*
X407468Y436220D01*
X407505Y436116D01*
X407533Y436075D01*
X407553Y436030D01*
X407622Y435944D01*
X407684Y435853D01*
X407721Y435820D01*
X407752Y435781D01*
X407840Y435715D01*
X407922Y435643D01*
X407966Y435620D01*
X408006Y435590D01*
X408151Y435519D01*
X409065Y435141D01*
X412280Y431925D01*
X414020Y427724D01*
X414020Y423176D01*
X413031Y420788D01*
X413023Y420759D01*
X413010Y420733D01*
X412981Y420606D01*
X412947Y420481D01*
X412947Y420451D01*
X412940Y420422D01*
X412944Y420293D01*
X412942Y420163D01*
X412949Y420134D01*
X412950Y420105D01*
X412986Y419980D01*
X413016Y419854D01*
X413030Y419827D01*
X413038Y419799D01*
X413104Y419687D01*
X413165Y419572D01*
X413185Y419551D01*
X413200Y419525D01*
X413306Y419404D01*
X424753Y407958D01*
X427059Y405651D01*
X427059Y369038D01*
X427072Y368940D01*
X427075Y368841D01*
X427092Y368783D01*
X427099Y368722D01*
X427136Y368630D01*
X427163Y368535D01*
X427194Y368483D01*
X427216Y368427D01*
X427274Y368347D01*
X427325Y368261D01*
X427391Y368186D01*
X427403Y368169D01*
X427412Y368162D01*
X427431Y368140D01*
X459466Y336105D01*
X461773Y333799D01*
X461773Y311052D01*
X461383Y310662D01*
X461322Y310584D01*
X461254Y310511D01*
X461225Y310458D01*
X461188Y310410D01*
X461148Y310320D01*
X461100Y310233D01*
X461085Y310174D01*
X461061Y310119D01*
X461046Y310021D01*
X461021Y309925D01*
X461015Y309825D01*
X461011Y309805D01*
X461013Y309792D01*
X461011Y309764D01*
X461011Y296116D01*
X461028Y295979D01*
X461041Y295840D01*
X461048Y295820D01*
X461051Y295800D01*
X461102Y295672D01*
X461149Y295540D01*
X461160Y295524D01*
X461168Y295505D01*
X461249Y295392D01*
X461327Y295277D01*
X461343Y295264D01*
X461354Y295247D01*
X461462Y295159D01*
X461566Y295067D01*
X461584Y295058D01*
X461599Y295045D01*
X461725Y294985D01*
X461849Y294922D01*
X461869Y294918D01*
X461887Y294909D01*
X462023Y294883D01*
X462159Y294852D01*
X462180Y294853D01*
X462199Y294849D01*
X462338Y294858D01*
X462477Y294862D01*
X462497Y294868D01*
X462517Y294869D01*
X462649Y294912D01*
X462783Y294951D01*
X462800Y294961D01*
X462819Y294967D01*
X462937Y295042D01*
X463057Y295112D01*
X463078Y295131D01*
X463088Y295137D01*
X463102Y295152D01*
X463177Y295218D01*
X465702Y297743D01*
X467846Y298631D01*
X467871Y298646D01*
X467899Y298655D01*
X468009Y298724D01*
X468122Y298789D01*
X468143Y298809D01*
X468168Y298825D01*
X468257Y298920D01*
X468350Y299010D01*
X468366Y299035D01*
X468386Y299057D01*
X468449Y299170D01*
X468517Y299281D01*
X468525Y299309D01*
X468540Y299335D01*
X468572Y299461D01*
X468610Y299585D01*
X468612Y299614D01*
X468619Y299643D01*
X468629Y299804D01*
X468629Y308494D01*
X468617Y308592D01*
X468614Y308691D01*
X468597Y308750D01*
X468589Y308810D01*
X468553Y308902D01*
X468525Y308997D01*
X468495Y309049D01*
X468472Y309105D01*
X468414Y309185D01*
X468364Y309271D01*
X468298Y309346D01*
X468286Y309363D01*
X468276Y309371D01*
X468258Y309392D01*
X467867Y309782D01*
X467867Y351043D01*
X467855Y351141D01*
X467852Y351240D01*
X467835Y351298D01*
X467827Y351358D01*
X467791Y351450D01*
X467763Y351546D01*
X467733Y351598D01*
X467710Y351654D01*
X467652Y351734D01*
X467602Y351819D01*
X467536Y351895D01*
X467524Y351911D01*
X467514Y351919D01*
X467496Y351940D01*
X466120Y353315D01*
X465235Y355452D01*
X465235Y357766D01*
X466120Y359903D01*
X467756Y361539D01*
X469893Y362424D01*
X472207Y362424D01*
X474344Y361539D01*
X475980Y359903D01*
X476865Y357766D01*
X476865Y355452D01*
X475980Y353315D01*
X474844Y352180D01*
X474784Y352102D01*
X474716Y352030D01*
X474687Y351977D01*
X474650Y351929D01*
X474610Y351838D01*
X474562Y351751D01*
X474547Y351693D01*
X474523Y351637D01*
X474508Y351539D01*
X474483Y351443D01*
X474477Y351343D01*
X474473Y351323D01*
X474475Y351311D01*
X474473Y351283D01*
X474473Y309782D01*
X474082Y309392D01*
X474022Y309313D01*
X473954Y309241D01*
X473925Y309188D01*
X473888Y309140D01*
X473848Y309049D01*
X473800Y308963D01*
X473785Y308904D01*
X473761Y308849D01*
X473746Y308751D01*
X473721Y308655D01*
X473715Y308555D01*
X473711Y308534D01*
X473713Y308522D01*
X473711Y308494D01*
X473711Y299804D01*
X473714Y299774D01*
X473712Y299745D01*
X473734Y299617D01*
X473751Y299488D01*
X473761Y299461D01*
X473766Y299432D01*
X473820Y299313D01*
X473868Y299192D01*
X473885Y299169D01*
X473897Y299142D01*
X473978Y299040D01*
X474054Y298935D01*
X474077Y298916D01*
X474096Y298893D01*
X474199Y298815D01*
X474299Y298732D01*
X474326Y298720D01*
X474350Y298702D01*
X474494Y298631D01*
X476638Y297743D01*
X479163Y295218D01*
X479272Y295133D01*
X479379Y295045D01*
X479398Y295036D01*
X479414Y295024D01*
X479542Y294968D01*
X479667Y294909D01*
X479687Y294905D01*
X479706Y294897D01*
X479844Y294875D01*
X479980Y294849D01*
X480000Y294851D01*
X480020Y294847D01*
X480159Y294860D01*
X480297Y294869D01*
X480316Y294875D01*
X480336Y294877D01*
X480468Y294924D01*
X480599Y294967D01*
X480617Y294978D01*
X480636Y294985D01*
X480751Y295063D01*
X480868Y295137D01*
X480882Y295152D01*
X480899Y295163D01*
X480991Y295268D01*
X481086Y295369D01*
X481096Y295387D01*
X481109Y295402D01*
X481173Y295526D01*
X481240Y295647D01*
X481245Y295667D01*
X481254Y295685D01*
X481284Y295821D01*
X481319Y295955D01*
X481321Y295983D01*
X481324Y295995D01*
X481323Y296016D01*
X481329Y296116D01*
X481329Y308494D01*
X481317Y308592D01*
X481314Y308691D01*
X481297Y308750D01*
X481289Y308810D01*
X481253Y308902D01*
X481225Y308997D01*
X481195Y309049D01*
X481172Y309105D01*
X481114Y309185D01*
X481064Y309271D01*
X480998Y309346D01*
X480986Y309363D01*
X480976Y309371D01*
X480958Y309392D01*
X480567Y309782D01*
X480567Y371909D01*
X480555Y372007D01*
X480552Y372106D01*
X480535Y372165D01*
X480527Y372225D01*
X480491Y372317D01*
X480463Y372412D01*
X480443Y372446D01*
X480440Y372455D01*
X480429Y372472D01*
X480410Y372520D01*
X480352Y372600D01*
X480302Y372686D01*
X480275Y372717D01*
X480270Y372724D01*
X480260Y372734D01*
X480236Y372761D01*
X480224Y372778D01*
X480214Y372785D01*
X480196Y372807D01*
X450087Y402915D01*
X450087Y413597D01*
X450083Y413627D01*
X450086Y413656D01*
X450063Y413784D01*
X450047Y413913D01*
X450036Y413940D01*
X450031Y413969D01*
X449978Y414088D01*
X449930Y414209D01*
X449913Y414233D01*
X449901Y414259D01*
X449820Y414361D01*
X449743Y414466D01*
X449721Y414485D01*
X449702Y414508D01*
X449598Y414586D01*
X449498Y414669D01*
X449472Y414681D01*
X449448Y414699D01*
X449303Y414770D01*
X446915Y415759D01*
X443699Y418975D01*
X441959Y423176D01*
X441959Y427724D01*
X443699Y431925D01*
X446915Y435141D01*
X450065Y436446D01*
X450091Y436460D01*
X450119Y436469D01*
X450229Y436539D01*
X450342Y436603D01*
X450363Y436624D01*
X450388Y436639D01*
X450477Y436734D01*
X450570Y436824D01*
X450586Y436850D01*
X450606Y436871D01*
X450668Y436985D01*
X450736Y437096D01*
X450745Y437124D01*
X450759Y437150D01*
X450792Y437275D01*
X450830Y437399D01*
X450831Y437429D01*
X450839Y437458D01*
X450849Y437618D01*
X450849Y445580D01*
X450837Y445678D01*
X450834Y445778D01*
X450817Y445836D01*
X450809Y445896D01*
X450773Y445988D01*
X450745Y446083D01*
X450714Y446135D01*
X450692Y446192D01*
X450634Y446272D01*
X450584Y446357D01*
X450517Y446432D01*
X450505Y446449D01*
X450496Y446457D01*
X450477Y446478D01*
X449254Y447701D01*
X449254Y462385D01*
X450445Y463576D01*
X455129Y463576D01*
X456320Y462385D01*
X456320Y447701D01*
X456302Y447683D01*
X456242Y447605D01*
X456174Y447533D01*
X456149Y447488D01*
X456144Y447482D01*
X456141Y447475D01*
X456107Y447432D01*
X456068Y447341D01*
X456020Y447254D01*
X456005Y447196D01*
X455981Y447140D01*
X455965Y447042D01*
X455941Y446947D01*
X455934Y446847D01*
X455931Y446826D01*
X455932Y446814D01*
X455930Y446786D01*
X455930Y437618D01*
X455934Y437589D01*
X455932Y437559D01*
X455954Y437431D01*
X455970Y437303D01*
X455981Y437275D01*
X455986Y437246D01*
X456040Y437128D01*
X456087Y437007D01*
X456105Y436983D01*
X456117Y436956D01*
X456198Y436855D01*
X456274Y436750D01*
X456297Y436731D01*
X456315Y436708D01*
X456419Y436630D01*
X456519Y436547D01*
X456546Y436534D01*
X456569Y436516D01*
X456714Y436446D01*
X459865Y435141D01*
X463080Y431925D01*
X464820Y427724D01*
X464820Y423176D01*
X463080Y418975D01*
X459865Y415759D01*
X457476Y414770D01*
X457450Y414755D01*
X457422Y414746D01*
X457313Y414677D01*
X457200Y414613D01*
X457179Y414592D01*
X457154Y414576D01*
X457065Y414482D01*
X456971Y414391D01*
X456956Y414366D01*
X456936Y414345D01*
X456873Y414231D01*
X456805Y414120D01*
X456796Y414092D01*
X456782Y414066D01*
X456750Y413940D01*
X456711Y413816D01*
X456710Y413787D01*
X456703Y413758D01*
X456692Y413597D01*
X456692Y406177D01*
X456705Y406079D01*
X456708Y405980D01*
X456714Y405958D01*
X456715Y405949D01*
X456725Y405916D01*
X456732Y405861D01*
X456769Y405769D01*
X456796Y405674D01*
X456813Y405646D01*
X456814Y405644D01*
X456827Y405622D01*
X456849Y405566D01*
X456907Y405486D01*
X456958Y405400D01*
X457024Y405325D01*
X457036Y405308D01*
X457046Y405301D01*
X457064Y405279D01*
X487173Y375171D01*
X487173Y309782D01*
X486782Y309392D01*
X486722Y309313D01*
X486654Y309241D01*
X486625Y309188D01*
X486588Y309140D01*
X486548Y309049D01*
X486500Y308963D01*
X486485Y308904D01*
X486461Y308849D01*
X486446Y308751D01*
X486421Y308655D01*
X486415Y308555D01*
X486411Y308534D01*
X486413Y308522D01*
X486411Y308494D01*
X486411Y296116D01*
X486428Y295979D01*
X486441Y295840D01*
X486448Y295820D01*
X486451Y295800D01*
X486502Y295672D01*
X486549Y295540D01*
X486560Y295524D01*
X486568Y295505D01*
X486649Y295392D01*
X486727Y295277D01*
X486743Y295264D01*
X486754Y295247D01*
X486862Y295159D01*
X486966Y295067D01*
X486984Y295058D01*
X486999Y295045D01*
X487125Y294985D01*
X487249Y294922D01*
X487269Y294918D01*
X487287Y294909D01*
X487423Y294883D01*
X487559Y294852D01*
X487580Y294853D01*
X487599Y294849D01*
X487738Y294858D01*
X487877Y294862D01*
X487897Y294868D01*
X487917Y294869D01*
X488049Y294912D01*
X488183Y294951D01*
X488200Y294961D01*
X488219Y294967D01*
X488337Y295042D01*
X488457Y295112D01*
X488478Y295131D01*
X488488Y295137D01*
X488502Y295152D01*
X488577Y295218D01*
X491102Y297743D01*
X494650Y299213D01*
X498490Y299213D01*
X502038Y297743D01*
X504753Y295028D01*
X506223Y291480D01*
X506223Y287640D01*
X504753Y284092D01*
X502038Y281377D01*
X498490Y279907D01*
X494650Y279907D01*
X491102Y281377D01*
X488577Y283902D01*
X488468Y283987D01*
X488361Y284075D01*
X488342Y284084D01*
X488326Y284096D01*
X488198Y284152D01*
X488073Y284211D01*
X488053Y284215D01*
X488034Y284223D01*
X487896Y284245D01*
X487760Y284271D01*
X487740Y284269D01*
X487720Y284273D01*
X487581Y284260D01*
X487443Y284251D01*
X487424Y284245D01*
X487404Y284243D01*
X487272Y284196D01*
X487141Y284153D01*
X487123Y284142D01*
X487104Y284135D01*
X486989Y284057D01*
X486872Y283983D01*
X486858Y283968D01*
X486841Y283957D01*
X486749Y283852D01*
X486654Y283751D01*
X486644Y283733D01*
X486631Y283718D01*
X486567Y283594D01*
X486500Y283473D01*
X486495Y283453D01*
X486486Y283435D01*
X486456Y283299D01*
X486421Y283165D01*
X486419Y283137D01*
X486416Y283125D01*
X486417Y283104D01*
X486411Y283004D01*
X486411Y275156D01*
X486423Y275058D01*
X486426Y274959D01*
X486443Y274900D01*
X486451Y274840D01*
X486487Y274748D01*
X486515Y274653D01*
X486545Y274601D01*
X486568Y274545D01*
X486626Y274465D01*
X486676Y274379D01*
X486742Y274304D01*
X486754Y274287D01*
X486764Y274279D01*
X486782Y274258D01*
X489002Y272038D01*
X489097Y271965D01*
X489186Y271887D01*
X489222Y271868D01*
X489254Y271843D01*
X489363Y271796D01*
X489469Y271742D01*
X489508Y271733D01*
X489545Y271717D01*
X489663Y271698D01*
X489779Y271672D01*
X489820Y271674D01*
X489860Y271667D01*
X489978Y271678D01*
X490097Y271682D01*
X490136Y271693D01*
X490176Y271697D01*
X490288Y271737D01*
X490403Y271770D01*
X490437Y271791D01*
X490475Y271805D01*
X490574Y271872D01*
X490677Y271932D01*
X490722Y271972D01*
X490739Y271983D01*
X490752Y271999D01*
X490797Y272038D01*
X491102Y272343D01*
X494650Y273813D01*
X498490Y273813D01*
X502038Y272343D01*
X504753Y269628D01*
X506223Y266080D01*
X506223Y262240D01*
X504753Y258692D01*
X502038Y255977D01*
X498490Y254507D01*
X494650Y254507D01*
X491102Y255977D01*
X488387Y258692D01*
X486917Y262240D01*
X486917Y264256D01*
X486905Y264354D01*
X486902Y264453D01*
X486885Y264512D01*
X486877Y264572D01*
X486841Y264664D01*
X486813Y264759D01*
X486783Y264811D01*
X486760Y264867D01*
X486702Y264947D01*
X486652Y265033D01*
X486586Y265108D01*
X486574Y265125D01*
X486564Y265133D01*
X486546Y265154D01*
X481943Y269756D01*
X481888Y269799D01*
X481839Y269849D01*
X481763Y269896D01*
X481692Y269951D01*
X481628Y269979D01*
X481568Y270015D01*
X481483Y270042D01*
X481400Y270077D01*
X481331Y270088D01*
X481264Y270109D01*
X481175Y270113D01*
X481086Y270127D01*
X481016Y270121D01*
X480947Y270124D01*
X480859Y270106D01*
X480769Y270097D01*
X480704Y270074D01*
X480635Y270060D01*
X480554Y270020D01*
X480470Y269990D01*
X480412Y269951D01*
X480350Y269920D01*
X480281Y269862D01*
X480207Y269811D01*
X480161Y269759D01*
X480108Y269714D01*
X480056Y269640D01*
X479996Y269573D01*
X479965Y269511D01*
X479924Y269454D01*
X479893Y269370D01*
X479852Y269290D01*
X479837Y269222D01*
X479812Y269156D01*
X479802Y269067D01*
X479782Y268979D01*
X479784Y268910D01*
X479777Y268840D01*
X479789Y268751D01*
X479792Y268661D01*
X479811Y268594D01*
X479821Y268525D01*
X479873Y268373D01*
X480823Y266080D01*
X480823Y262240D01*
X479353Y258692D01*
X476638Y255977D01*
X473090Y254507D01*
X469250Y254507D01*
X465702Y255977D01*
X462987Y258692D01*
X461517Y262240D01*
X461517Y264256D01*
X461505Y264354D01*
X461502Y264453D01*
X461485Y264512D01*
X461477Y264572D01*
X461441Y264664D01*
X461413Y264759D01*
X461383Y264811D01*
X461360Y264867D01*
X461302Y264947D01*
X461252Y265033D01*
X461186Y265108D01*
X461174Y265125D01*
X461164Y265133D01*
X461146Y265154D01*
X456543Y269756D01*
X456488Y269799D01*
X456439Y269849D01*
X456363Y269896D01*
X456292Y269951D01*
X456228Y269979D01*
X456168Y270015D01*
X456083Y270042D01*
X456000Y270077D01*
X455931Y270088D01*
X455864Y270109D01*
X455775Y270113D01*
X455686Y270127D01*
X455616Y270121D01*
X455547Y270124D01*
X455459Y270106D01*
X455369Y270097D01*
X455304Y270074D01*
X455235Y270060D01*
X455154Y270020D01*
X455070Y269990D01*
X455012Y269951D01*
X454950Y269920D01*
X454881Y269862D01*
X454807Y269811D01*
X454761Y269759D01*
X454708Y269714D01*
X454656Y269640D01*
X454596Y269573D01*
X454565Y269511D01*
X454524Y269454D01*
X454493Y269370D01*
X454452Y269290D01*
X454437Y269222D01*
X454412Y269156D01*
X454402Y269067D01*
X454382Y268979D01*
X454384Y268910D01*
X454377Y268840D01*
X454389Y268751D01*
X454392Y268661D01*
X454411Y268594D01*
X454421Y268525D01*
X454473Y268373D01*
X455423Y266080D01*
X455423Y262240D01*
X453953Y258692D01*
X451238Y255977D01*
X447690Y254507D01*
X443850Y254507D01*
X440302Y255977D01*
X437587Y258692D01*
X436117Y262240D01*
X436117Y266080D01*
X436690Y267462D01*
X436697Y267490D01*
X436711Y267516D01*
X436739Y267643D01*
X436773Y267768D01*
X436774Y267798D01*
X436780Y267827D01*
X436776Y267956D01*
X436779Y268086D01*
X436772Y268115D01*
X436771Y268145D01*
X436735Y268269D01*
X436704Y268396D01*
X436691Y268422D01*
X436682Y268450D01*
X436616Y268562D01*
X436556Y268677D01*
X436536Y268699D01*
X436521Y268724D01*
X436414Y268845D01*
X429393Y275866D01*
X429393Y278602D01*
X429784Y278992D01*
X429844Y279071D01*
X429912Y279143D01*
X429941Y279196D01*
X429978Y279244D01*
X430018Y279335D01*
X430066Y279421D01*
X430081Y279480D01*
X430105Y279535D01*
X430120Y279633D01*
X430145Y279729D01*
X430151Y279829D01*
X430155Y279850D01*
X430153Y279862D01*
X430155Y279890D01*
X430155Y282630D01*
X430138Y282767D01*
X430125Y282906D01*
X430118Y282926D01*
X430115Y282946D01*
X430064Y283074D01*
X430017Y283206D01*
X430006Y283222D01*
X429998Y283241D01*
X429917Y283354D01*
X429839Y283469D01*
X429823Y283482D01*
X429812Y283499D01*
X429704Y283587D01*
X429600Y283679D01*
X429582Y283688D01*
X429567Y283701D01*
X429441Y283761D01*
X429317Y283824D01*
X429297Y283828D01*
X429279Y283837D01*
X429143Y283863D01*
X429007Y283894D01*
X428986Y283893D01*
X428967Y283897D01*
X428828Y283888D01*
X428689Y283884D01*
X428669Y283878D01*
X428649Y283877D01*
X428517Y283834D01*
X428383Y283795D01*
X428366Y283785D01*
X428347Y283779D01*
X428229Y283704D01*
X428109Y283634D01*
X428088Y283615D01*
X428078Y283609D01*
X428064Y283594D01*
X427989Y283528D01*
X425838Y281377D01*
X422290Y279907D01*
X418450Y279907D01*
X414902Y281377D01*
X412377Y283902D01*
X412268Y283987D01*
X412161Y284075D01*
X412142Y284084D01*
X412126Y284096D01*
X411998Y284152D01*
X411873Y284211D01*
X411853Y284215D01*
X411834Y284223D01*
X411696Y284245D01*
X411560Y284271D01*
X411540Y284269D01*
X411520Y284273D01*
X411381Y284260D01*
X411243Y284251D01*
X411224Y284245D01*
X411204Y284243D01*
X411072Y284196D01*
X410941Y284153D01*
X410923Y284142D01*
X410904Y284135D01*
X410789Y284057D01*
X410672Y283983D01*
X410658Y283968D01*
X410641Y283957D01*
X410549Y283852D01*
X410454Y283751D01*
X410444Y283733D01*
X410431Y283718D01*
X410367Y283594D01*
X410300Y283473D01*
X410295Y283453D01*
X410286Y283435D01*
X410256Y283299D01*
X410221Y283165D01*
X410219Y283137D01*
X410216Y283125D01*
X410217Y283104D01*
X410211Y283004D01*
X410211Y279516D01*
X410223Y279418D01*
X410226Y279319D01*
X410243Y279260D01*
X410251Y279200D01*
X410287Y279108D01*
X410315Y279013D01*
X410345Y278961D01*
X410368Y278905D01*
X410426Y278825D01*
X410476Y278739D01*
X410542Y278664D01*
X410554Y278647D01*
X410564Y278639D01*
X410582Y278618D01*
X415685Y273516D01*
X415709Y273497D01*
X415728Y273475D01*
X415834Y273400D01*
X415936Y273321D01*
X415964Y273309D01*
X415988Y273292D01*
X416109Y273246D01*
X416228Y273194D01*
X416257Y273190D01*
X416285Y273179D01*
X416414Y273165D01*
X416542Y273144D01*
X416572Y273147D01*
X416601Y273144D01*
X416730Y273162D01*
X416859Y273174D01*
X416887Y273184D01*
X416916Y273188D01*
X417068Y273240D01*
X418450Y273813D01*
X422290Y273813D01*
X425838Y272343D01*
X428553Y269628D01*
X430023Y266080D01*
X430023Y262240D01*
X428553Y258692D01*
X425838Y255977D01*
X422290Y254507D01*
X418450Y254507D01*
X414902Y255977D01*
X412187Y258692D01*
X410717Y262240D01*
X410717Y266080D01*
X411290Y267462D01*
X411297Y267490D01*
X411311Y267516D01*
X411339Y267643D01*
X411373Y267768D01*
X411374Y267798D01*
X411380Y267827D01*
X411376Y267956D01*
X411379Y268086D01*
X411372Y268115D01*
X411371Y268145D01*
X411335Y268269D01*
X411304Y268396D01*
X411291Y268422D01*
X411282Y268450D01*
X411217Y268562D01*
X411156Y268677D01*
X411136Y268699D01*
X411121Y268724D01*
X411014Y268845D01*
X404367Y275492D01*
X404367Y278228D01*
X404758Y278618D01*
X404818Y278697D01*
X404886Y278769D01*
X404915Y278822D01*
X404952Y278870D01*
X404992Y278961D01*
X405040Y279047D01*
X405055Y279106D01*
X405079Y279161D01*
X405094Y279259D01*
X405119Y279355D01*
X405125Y279455D01*
X405129Y279476D01*
X405127Y279488D01*
X405129Y279516D01*
X405129Y283004D01*
X405112Y283141D01*
X405099Y283280D01*
X405092Y283300D01*
X405089Y283320D01*
X405038Y283448D01*
X404991Y283580D01*
X404980Y283596D01*
X404972Y283615D01*
X404891Y283728D01*
X404813Y283843D01*
X404797Y283856D01*
X404786Y283873D01*
X404678Y283961D01*
X404574Y284053D01*
X404556Y284062D01*
X404541Y284075D01*
X404415Y284135D01*
X404291Y284198D01*
X404271Y284202D01*
X404253Y284211D01*
X404117Y284237D01*
X403981Y284268D01*
X403960Y284267D01*
X403941Y284271D01*
X403802Y284262D01*
X403663Y284258D01*
X403643Y284252D01*
X403623Y284251D01*
X403491Y284208D01*
X403357Y284169D01*
X403340Y284159D01*
X403321Y284153D01*
X403203Y284078D01*
X403083Y284008D01*
X403062Y283989D01*
X403052Y283983D01*
X403038Y283968D01*
X402963Y283902D01*
X400438Y281377D01*
X396890Y279907D01*
X393050Y279907D01*
X389502Y281377D01*
X386977Y283902D01*
X386868Y283987D01*
X386761Y284075D01*
X386742Y284084D01*
X386726Y284096D01*
X386598Y284152D01*
X386473Y284211D01*
X386453Y284215D01*
X386434Y284223D01*
X386296Y284245D01*
X386160Y284271D01*
X386140Y284269D01*
X386120Y284273D01*
X385981Y284260D01*
X385843Y284251D01*
X385824Y284245D01*
X385804Y284243D01*
X385672Y284196D01*
X385541Y284153D01*
X385523Y284142D01*
X385504Y284135D01*
X385389Y284057D01*
X385272Y283983D01*
X385258Y283968D01*
X385241Y283957D01*
X385149Y283852D01*
X385054Y283751D01*
X385044Y283733D01*
X385031Y283718D01*
X384967Y283594D01*
X384900Y283473D01*
X384895Y283453D01*
X384886Y283435D01*
X384856Y283299D01*
X384821Y283165D01*
X384819Y283137D01*
X384816Y283125D01*
X384817Y283104D01*
X384811Y283004D01*
X384811Y279516D01*
X384823Y279418D01*
X384826Y279319D01*
X384843Y279260D01*
X384851Y279200D01*
X384887Y279108D01*
X384915Y279013D01*
X384945Y278961D01*
X384968Y278905D01*
X385026Y278825D01*
X385076Y278739D01*
X385142Y278664D01*
X385154Y278647D01*
X385164Y278639D01*
X385182Y278618D01*
X390285Y273516D01*
X390309Y273497D01*
X390328Y273475D01*
X390434Y273400D01*
X390536Y273321D01*
X390564Y273309D01*
X390588Y273292D01*
X390709Y273246D01*
X390828Y273194D01*
X390857Y273190D01*
X390885Y273179D01*
X391014Y273165D01*
X391142Y273144D01*
X391172Y273147D01*
X391201Y273144D01*
X391330Y273162D01*
X391459Y273174D01*
X391487Y273184D01*
X391516Y273188D01*
X391668Y273240D01*
X393050Y273813D01*
X396890Y273813D01*
X400438Y272343D01*
X403153Y269628D01*
X404623Y266080D01*
X404623Y262240D01*
X403153Y258692D01*
X400438Y255977D01*
X396890Y254507D01*
X393050Y254507D01*
G37*
%LPD*%
%LPC*%
G36*
X34810Y145541D02*
X34810Y145541D01*
X30609Y147281D01*
X27393Y150497D01*
X25653Y154698D01*
X25653Y159246D01*
X27393Y163447D01*
X30609Y166663D01*
X33204Y167737D01*
X33324Y167806D01*
X33448Y167871D01*
X33463Y167885D01*
X33480Y167895D01*
X33580Y167992D01*
X33683Y168085D01*
X33694Y168102D01*
X33709Y168116D01*
X33781Y168234D01*
X33858Y168351D01*
X33864Y168370D01*
X33875Y168387D01*
X33916Y168520D01*
X33961Y168652D01*
X33963Y168672D01*
X33968Y168691D01*
X33975Y168830D01*
X33986Y168969D01*
X33983Y168989D01*
X33984Y169009D01*
X33956Y169145D01*
X33932Y169282D01*
X33923Y169300D01*
X33919Y169320D01*
X33858Y169446D01*
X33801Y169572D01*
X33789Y169588D01*
X33780Y169606D01*
X33689Y169712D01*
X33603Y169820D01*
X33587Y169833D01*
X33573Y169848D01*
X33459Y169928D01*
X33348Y170012D01*
X33323Y170024D01*
X33313Y170031D01*
X33294Y170038D01*
X33204Y170083D01*
X30609Y171157D01*
X27393Y174373D01*
X25653Y178574D01*
X25653Y183122D01*
X27393Y187323D01*
X30609Y190539D01*
X34810Y192279D01*
X39358Y192279D01*
X43559Y190539D01*
X46775Y187323D01*
X48515Y183122D01*
X48515Y178574D01*
X46775Y174373D01*
X43559Y171157D01*
X40964Y170083D01*
X40844Y170014D01*
X40720Y169949D01*
X40705Y169935D01*
X40688Y169925D01*
X40588Y169829D01*
X40485Y169735D01*
X40474Y169718D01*
X40459Y169704D01*
X40387Y169585D01*
X40310Y169469D01*
X40304Y169450D01*
X40293Y169433D01*
X40252Y169300D01*
X40207Y169168D01*
X40205Y169148D01*
X40200Y169129D01*
X40193Y168990D01*
X40182Y168851D01*
X40185Y168831D01*
X40184Y168811D01*
X40212Y168676D01*
X40236Y168538D01*
X40245Y168519D01*
X40249Y168500D01*
X40310Y168375D01*
X40367Y168248D01*
X40379Y168232D01*
X40388Y168214D01*
X40479Y168108D01*
X40565Y168000D01*
X40582Y167987D01*
X40595Y167972D01*
X40708Y167892D01*
X40820Y167808D01*
X40845Y167796D01*
X40855Y167789D01*
X40874Y167782D01*
X40964Y167737D01*
X43559Y166663D01*
X45363Y164859D01*
X45457Y164786D01*
X45546Y164707D01*
X45582Y164689D01*
X45614Y164664D01*
X45724Y164616D01*
X45829Y164562D01*
X45869Y164553D01*
X45906Y164537D01*
X46024Y164519D01*
X46140Y164493D01*
X46180Y164494D01*
X46220Y164487D01*
X46339Y164499D01*
X46458Y164502D01*
X46496Y164514D01*
X46537Y164517D01*
X46649Y164558D01*
X46763Y164591D01*
X46798Y164611D01*
X46836Y164625D01*
X46935Y164692D01*
X47037Y164752D01*
X47082Y164792D01*
X47099Y164803D01*
X47113Y164819D01*
X47158Y164859D01*
X59826Y177526D01*
X59886Y177605D01*
X59954Y177677D01*
X59983Y177730D01*
X60020Y177778D01*
X60060Y177869D01*
X60108Y177955D01*
X60123Y178014D01*
X60147Y178069D01*
X60162Y178167D01*
X60187Y178263D01*
X60193Y178363D01*
X60197Y178384D01*
X60195Y178396D01*
X60197Y178424D01*
X60197Y278879D01*
X60180Y279016D01*
X60167Y279155D01*
X60160Y279174D01*
X60157Y279194D01*
X60106Y279323D01*
X60059Y279454D01*
X60048Y279471D01*
X60040Y279490D01*
X59959Y279603D01*
X59881Y279718D01*
X59865Y279731D01*
X59854Y279747D01*
X59746Y279836D01*
X59642Y279928D01*
X59624Y279937D01*
X59609Y279950D01*
X59483Y280009D01*
X59359Y280073D01*
X59339Y280077D01*
X59321Y280086D01*
X59184Y280112D01*
X59049Y280142D01*
X59028Y280142D01*
X59009Y280146D01*
X58870Y280137D01*
X58731Y280133D01*
X58711Y280127D01*
X58691Y280126D01*
X58559Y280083D01*
X58425Y280044D01*
X58408Y280034D01*
X58389Y280028D01*
X58271Y279953D01*
X58151Y279883D01*
X58130Y279864D01*
X58120Y279858D01*
X58106Y279843D01*
X58031Y279776D01*
X56341Y278087D01*
X53570Y276939D01*
X50570Y276939D01*
X47799Y278087D01*
X45677Y280209D01*
X44529Y282980D01*
X44529Y285980D01*
X45677Y288751D01*
X47799Y290873D01*
X50570Y292021D01*
X53570Y292021D01*
X56341Y290873D01*
X58031Y289184D01*
X58140Y289098D01*
X58247Y289010D01*
X58266Y289001D01*
X58282Y288989D01*
X58410Y288933D01*
X58535Y288874D01*
X58555Y288870D01*
X58574Y288862D01*
X58712Y288840D01*
X58848Y288814D01*
X58868Y288816D01*
X58888Y288813D01*
X59027Y288826D01*
X59165Y288834D01*
X59184Y288840D01*
X59204Y288842D01*
X59336Y288890D01*
X59467Y288932D01*
X59485Y288943D01*
X59504Y288950D01*
X59619Y289028D01*
X59736Y289102D01*
X59750Y289117D01*
X59767Y289129D01*
X59859Y289233D01*
X59954Y289334D01*
X59964Y289352D01*
X59977Y289367D01*
X60041Y289491D01*
X60108Y289613D01*
X60113Y289632D01*
X60122Y289650D01*
X60152Y289786D01*
X60187Y289920D01*
X60189Y289949D01*
X60192Y289960D01*
X60191Y289981D01*
X60197Y290081D01*
X60197Y313788D01*
X62503Y316094D01*
X62504Y316094D01*
X97926Y351516D01*
X100232Y353823D01*
X163206Y353823D01*
X163304Y353835D01*
X163403Y353838D01*
X163462Y353855D01*
X163522Y353863D01*
X163614Y353899D01*
X163709Y353927D01*
X163761Y353957D01*
X163817Y353980D01*
X163897Y354038D01*
X163983Y354088D01*
X164058Y354154D01*
X164075Y354166D01*
X164083Y354176D01*
X164104Y354194D01*
X205642Y395733D01*
X375554Y395733D01*
X375652Y395745D01*
X375751Y395748D01*
X375809Y395765D01*
X375869Y395773D01*
X375961Y395809D01*
X376056Y395837D01*
X376109Y395867D01*
X376165Y395890D01*
X376245Y395948D01*
X376330Y395998D01*
X376406Y396064D01*
X376422Y396076D01*
X376430Y396086D01*
X376451Y396104D01*
X377706Y397360D01*
X379843Y398245D01*
X382157Y398245D01*
X384294Y397360D01*
X385930Y395724D01*
X386815Y393587D01*
X386815Y391273D01*
X385930Y389136D01*
X384294Y387500D01*
X382157Y386615D01*
X379843Y386615D01*
X377706Y387500D01*
X376451Y388756D01*
X376373Y388816D01*
X376301Y388884D01*
X376248Y388913D01*
X376200Y388950D01*
X376109Y388990D01*
X376022Y389038D01*
X375964Y389053D01*
X375908Y389077D01*
X375810Y389092D01*
X375714Y389117D01*
X375614Y389123D01*
X375594Y389127D01*
X375582Y389125D01*
X375554Y389127D01*
X208904Y389127D01*
X208806Y389115D01*
X208707Y389112D01*
X208648Y389095D01*
X208588Y389087D01*
X208496Y389051D01*
X208401Y389023D01*
X208349Y388993D01*
X208293Y388970D01*
X208213Y388912D01*
X208127Y388862D01*
X208052Y388796D01*
X208035Y388784D01*
X208027Y388774D01*
X208006Y388756D01*
X204450Y385199D01*
X204365Y385090D01*
X204276Y384983D01*
X204268Y384964D01*
X204255Y384948D01*
X204200Y384820D01*
X204141Y384695D01*
X204137Y384675D01*
X204129Y384656D01*
X204107Y384518D01*
X204081Y384382D01*
X204082Y384362D01*
X204079Y384342D01*
X204092Y384203D01*
X204101Y384065D01*
X204107Y384046D01*
X204109Y384026D01*
X204156Y383894D01*
X204199Y383763D01*
X204210Y383745D01*
X204217Y383726D01*
X204295Y383611D01*
X204369Y383494D01*
X204384Y383480D01*
X204395Y383463D01*
X204499Y383371D01*
X204601Y383276D01*
X204618Y383266D01*
X204634Y383253D01*
X204758Y383189D01*
X204879Y383122D01*
X204899Y383117D01*
X204917Y383108D01*
X205053Y383078D01*
X205187Y383043D01*
X205215Y383041D01*
X205227Y383038D01*
X205248Y383039D01*
X205348Y383033D01*
X384444Y383033D01*
X384542Y383045D01*
X384641Y383048D01*
X384699Y383065D01*
X384759Y383073D01*
X384851Y383109D01*
X384946Y383137D01*
X384999Y383167D01*
X385055Y383190D01*
X385135Y383248D01*
X385220Y383298D01*
X385296Y383364D01*
X385312Y383376D01*
X385320Y383386D01*
X385341Y383404D01*
X386596Y384660D01*
X388733Y385545D01*
X391047Y385545D01*
X393184Y384660D01*
X394820Y383024D01*
X395705Y380887D01*
X395705Y378573D01*
X394820Y376436D01*
X393184Y374800D01*
X391047Y373915D01*
X388733Y373915D01*
X386596Y374800D01*
X385341Y376056D01*
X385263Y376116D01*
X385191Y376184D01*
X385138Y376213D01*
X385090Y376250D01*
X384999Y376290D01*
X384912Y376338D01*
X384854Y376353D01*
X384798Y376377D01*
X384700Y376392D01*
X384604Y376417D01*
X384504Y376423D01*
X384484Y376427D01*
X384472Y376425D01*
X384444Y376427D01*
X226603Y376427D01*
X226534Y376419D01*
X226464Y376420D01*
X226377Y376399D01*
X226288Y376387D01*
X226223Y376362D01*
X226155Y376345D01*
X226076Y376303D01*
X225992Y376270D01*
X225936Y376229D01*
X225874Y376197D01*
X225807Y376136D01*
X225735Y376084D01*
X225690Y376030D01*
X225639Y375983D01*
X225589Y375908D01*
X225532Y375839D01*
X225502Y375775D01*
X225464Y375717D01*
X225435Y375632D01*
X225396Y375551D01*
X225383Y375482D01*
X225361Y375416D01*
X225354Y375327D01*
X225337Y375239D01*
X225341Y375169D01*
X225335Y375099D01*
X225351Y375011D01*
X225356Y374921D01*
X225378Y374855D01*
X225390Y374786D01*
X225427Y374704D01*
X225454Y374619D01*
X225492Y374560D01*
X225520Y374496D01*
X225577Y374426D01*
X225625Y374350D01*
X225675Y374302D01*
X225719Y374248D01*
X225791Y374193D01*
X225856Y374132D01*
X225917Y374098D01*
X225973Y374056D01*
X226118Y373985D01*
X227943Y373230D01*
X229578Y371594D01*
X230464Y369457D01*
X230464Y367143D01*
X229636Y365145D01*
X229628Y365117D01*
X229615Y365091D01*
X229586Y364964D01*
X229552Y364839D01*
X229551Y364809D01*
X229545Y364780D01*
X229549Y364650D01*
X229547Y364521D01*
X229554Y364492D01*
X229555Y364462D01*
X229591Y364338D01*
X229621Y364211D01*
X229635Y364185D01*
X229643Y364157D01*
X229709Y364045D01*
X229770Y363930D01*
X229790Y363908D01*
X229805Y363883D01*
X229911Y363762D01*
X269959Y323714D01*
X270037Y323654D01*
X270109Y323586D01*
X270162Y323557D01*
X270210Y323520D01*
X270301Y323480D01*
X270388Y323432D01*
X270446Y323417D01*
X270502Y323393D01*
X270600Y323378D01*
X270695Y323353D01*
X270796Y323347D01*
X270816Y323343D01*
X270828Y323345D01*
X270856Y323343D01*
X299354Y323343D01*
X299452Y323355D01*
X299551Y323358D01*
X299609Y323375D01*
X299669Y323383D01*
X299761Y323419D01*
X299856Y323447D01*
X299909Y323477D01*
X299965Y323500D01*
X300045Y323558D01*
X300130Y323608D01*
X300206Y323674D01*
X300222Y323686D01*
X300230Y323696D01*
X300251Y323714D01*
X301506Y324970D01*
X303643Y325855D01*
X305957Y325855D01*
X308094Y324970D01*
X309730Y323334D01*
X310615Y321197D01*
X310615Y318883D01*
X309730Y316746D01*
X308094Y315110D01*
X305957Y314225D01*
X303643Y314225D01*
X301506Y315110D01*
X300251Y316366D01*
X300173Y316426D01*
X300101Y316494D01*
X300048Y316523D01*
X300000Y316560D01*
X299909Y316600D01*
X299822Y316648D01*
X299764Y316663D01*
X299708Y316687D01*
X299610Y316702D01*
X299514Y316727D01*
X299414Y316733D01*
X299394Y316737D01*
X299382Y316735D01*
X299354Y316737D01*
X268848Y316737D01*
X268710Y316720D01*
X268571Y316707D01*
X268552Y316700D01*
X268532Y316697D01*
X268403Y316646D01*
X268272Y316599D01*
X268255Y316588D01*
X268237Y316580D01*
X268124Y316499D01*
X268009Y316421D01*
X267996Y316405D01*
X267979Y316394D01*
X267890Y316286D01*
X267798Y316182D01*
X267789Y316164D01*
X267776Y316149D01*
X267717Y316023D01*
X267654Y315899D01*
X267649Y315879D01*
X267641Y315861D01*
X267615Y315724D01*
X267584Y315589D01*
X267585Y315568D01*
X267581Y315549D01*
X267590Y315410D01*
X267594Y315271D01*
X267600Y315251D01*
X267601Y315231D01*
X267644Y315099D01*
X267682Y314965D01*
X267693Y314948D01*
X267699Y314929D01*
X267773Y314811D01*
X267844Y314691D01*
X267862Y314670D01*
X267869Y314660D01*
X267884Y314646D01*
X267950Y314571D01*
X268966Y313555D01*
X268966Y313554D01*
X271273Y311248D01*
X271273Y299488D01*
X271276Y299459D01*
X271274Y299429D01*
X271296Y299301D01*
X271313Y299173D01*
X271323Y299145D01*
X271328Y299116D01*
X271382Y298997D01*
X271430Y298877D01*
X271447Y298853D01*
X271459Y298826D01*
X271540Y298725D01*
X271616Y298620D01*
X271639Y298601D01*
X271658Y298578D01*
X271761Y298500D01*
X271861Y298417D01*
X271888Y298404D01*
X271912Y298386D01*
X272056Y298315D01*
X273438Y297743D01*
X276153Y295028D01*
X276725Y293646D01*
X276740Y293621D01*
X276749Y293593D01*
X276819Y293483D01*
X276883Y293370D01*
X276904Y293349D01*
X276919Y293324D01*
X277014Y293235D01*
X277104Y293142D01*
X277129Y293126D01*
X277151Y293106D01*
X277265Y293043D01*
X277375Y292975D01*
X277404Y292967D01*
X277429Y292952D01*
X277555Y292920D01*
X277679Y292882D01*
X277709Y292880D01*
X277737Y292873D01*
X277898Y292863D01*
X283442Y292863D01*
X283471Y292866D01*
X283501Y292864D01*
X283629Y292886D01*
X283757Y292903D01*
X283785Y292913D01*
X283814Y292918D01*
X283933Y292972D01*
X284053Y293020D01*
X284077Y293037D01*
X284104Y293049D01*
X284205Y293130D01*
X284310Y293206D01*
X284329Y293229D01*
X284352Y293248D01*
X284430Y293351D01*
X284513Y293451D01*
X284526Y293478D01*
X284544Y293502D01*
X284615Y293646D01*
X285187Y295028D01*
X287902Y297743D01*
X291450Y299213D01*
X295290Y299213D01*
X298838Y297743D01*
X301553Y295028D01*
X303023Y291480D01*
X303023Y287640D01*
X301553Y284092D01*
X298838Y281377D01*
X295290Y279907D01*
X291450Y279907D01*
X287902Y281377D01*
X285187Y284092D01*
X284615Y285474D01*
X284600Y285499D01*
X284591Y285527D01*
X284521Y285637D01*
X284457Y285750D01*
X284436Y285771D01*
X284421Y285796D01*
X284326Y285885D01*
X284236Y285978D01*
X284211Y285994D01*
X284189Y286014D01*
X284075Y286077D01*
X283965Y286145D01*
X283936Y286153D01*
X283911Y286168D01*
X283785Y286200D01*
X283661Y286238D01*
X283631Y286240D01*
X283603Y286247D01*
X283442Y286257D01*
X277898Y286257D01*
X277869Y286254D01*
X277839Y286256D01*
X277711Y286234D01*
X277583Y286217D01*
X277555Y286207D01*
X277526Y286202D01*
X277407Y286148D01*
X277287Y286100D01*
X277263Y286083D01*
X277236Y286071D01*
X277135Y285990D01*
X277030Y285914D01*
X277011Y285891D01*
X276988Y285872D01*
X276910Y285769D01*
X276827Y285669D01*
X276814Y285642D01*
X276796Y285618D01*
X276725Y285474D01*
X276153Y284092D01*
X273438Y281377D01*
X269890Y279907D01*
X266050Y279907D01*
X262502Y281377D01*
X259787Y284092D01*
X258317Y287640D01*
X258317Y291480D01*
X259787Y295028D01*
X262502Y297743D01*
X263884Y298315D01*
X263909Y298330D01*
X263937Y298339D01*
X264047Y298409D01*
X264160Y298473D01*
X264181Y298494D01*
X264206Y298509D01*
X264295Y298604D01*
X264388Y298694D01*
X264404Y298719D01*
X264424Y298741D01*
X264487Y298855D01*
X264555Y298965D01*
X264563Y298994D01*
X264578Y299019D01*
X264610Y299145D01*
X264648Y299269D01*
X264650Y299299D01*
X264657Y299327D01*
X264667Y299488D01*
X264667Y307986D01*
X264655Y308084D01*
X264652Y308183D01*
X264635Y308242D01*
X264627Y308302D01*
X264591Y308394D01*
X264563Y308489D01*
X264533Y308541D01*
X264510Y308597D01*
X264452Y308677D01*
X264402Y308763D01*
X264336Y308838D01*
X264324Y308855D01*
X264314Y308863D01*
X264296Y308884D01*
X260624Y312556D01*
X260545Y312616D01*
X260473Y312684D01*
X260420Y312713D01*
X260372Y312750D01*
X260281Y312790D01*
X260195Y312838D01*
X260136Y312853D01*
X260081Y312877D01*
X259983Y312892D01*
X259887Y312917D01*
X259787Y312923D01*
X259766Y312927D01*
X259754Y312925D01*
X259726Y312927D01*
X143002Y312927D01*
X142884Y312912D01*
X142765Y312905D01*
X142727Y312892D01*
X142686Y312887D01*
X142576Y312844D01*
X142463Y312807D01*
X142428Y312785D01*
X142391Y312770D01*
X142295Y312701D01*
X142194Y312637D01*
X142166Y312607D01*
X142133Y312584D01*
X142057Y312492D01*
X141976Y312405D01*
X141956Y312370D01*
X141931Y312339D01*
X141880Y312231D01*
X141822Y312127D01*
X141812Y312087D01*
X141795Y312051D01*
X141773Y311934D01*
X141743Y311819D01*
X141739Y311759D01*
X141735Y311739D01*
X141737Y311718D01*
X141733Y311658D01*
X141733Y306690D01*
X140263Y303142D01*
X137548Y300427D01*
X134000Y298957D01*
X130160Y298957D01*
X126612Y300427D01*
X123897Y303142D01*
X122427Y306690D01*
X122427Y325770D01*
X123897Y329318D01*
X126612Y332033D01*
X130160Y333503D01*
X134000Y333503D01*
X137548Y332033D01*
X140263Y329318D01*
X141733Y325770D01*
X141733Y320802D01*
X141748Y320684D01*
X141755Y320565D01*
X141768Y320527D01*
X141773Y320486D01*
X141816Y320376D01*
X141853Y320263D01*
X141875Y320228D01*
X141890Y320191D01*
X141959Y320095D01*
X142023Y319994D01*
X142053Y319966D01*
X142076Y319933D01*
X142168Y319857D01*
X142255Y319776D01*
X142290Y319756D01*
X142321Y319731D01*
X142429Y319680D01*
X142533Y319622D01*
X142573Y319612D01*
X142609Y319595D01*
X142726Y319573D01*
X142841Y319543D01*
X142901Y319539D01*
X142921Y319535D01*
X142942Y319537D01*
X143002Y319533D01*
X261735Y319533D01*
X261872Y319550D01*
X262011Y319563D01*
X262030Y319570D01*
X262050Y319573D01*
X262179Y319624D01*
X262310Y319671D01*
X262327Y319682D01*
X262346Y319690D01*
X262458Y319771D01*
X262573Y319849D01*
X262587Y319865D01*
X262603Y319876D01*
X262692Y319984D01*
X262784Y320088D01*
X262793Y320106D01*
X262806Y320121D01*
X262865Y320247D01*
X262928Y320371D01*
X262933Y320391D01*
X262942Y320409D01*
X262968Y320545D01*
X262998Y320681D01*
X262998Y320702D01*
X263001Y320721D01*
X262993Y320860D01*
X262988Y320999D01*
X262983Y321019D01*
X262982Y321039D01*
X262939Y321171D01*
X262900Y321305D01*
X262890Y321322D01*
X262884Y321341D01*
X262809Y321459D01*
X262739Y321579D01*
X262720Y321600D01*
X262713Y321610D01*
X262699Y321624D01*
X262632Y321699D01*
X223652Y360679D01*
X221332Y362999D01*
X221331Y363051D01*
X221314Y363109D01*
X221306Y363169D01*
X221270Y363261D01*
X221242Y363356D01*
X221211Y363409D01*
X221189Y363465D01*
X221131Y363545D01*
X221081Y363630D01*
X221014Y363706D01*
X221002Y363722D01*
X220993Y363730D01*
X220974Y363751D01*
X219719Y365006D01*
X218834Y367143D01*
X218834Y369457D01*
X219719Y371594D01*
X221355Y373230D01*
X223180Y373985D01*
X223241Y374020D01*
X223305Y374046D01*
X223378Y374098D01*
X223456Y374143D01*
X223506Y374191D01*
X223563Y374232D01*
X223620Y374302D01*
X223685Y374364D01*
X223721Y374424D01*
X223766Y374477D01*
X223804Y374559D01*
X223851Y374635D01*
X223871Y374702D01*
X223901Y374765D01*
X223918Y374853D01*
X223944Y374939D01*
X223948Y375009D01*
X223961Y375078D01*
X223955Y375167D01*
X223960Y375257D01*
X223945Y375325D01*
X223941Y375395D01*
X223913Y375480D01*
X223895Y375568D01*
X223865Y375631D01*
X223843Y375697D01*
X223795Y375773D01*
X223756Y375854D01*
X223710Y375907D01*
X223673Y375966D01*
X223608Y376028D01*
X223549Y376096D01*
X223492Y376136D01*
X223441Y376184D01*
X223363Y376227D01*
X223289Y376279D01*
X223224Y376304D01*
X223163Y376338D01*
X223076Y376360D01*
X222992Y376392D01*
X222922Y376400D01*
X222855Y376417D01*
X222694Y376427D01*
X208904Y376427D01*
X208806Y376415D01*
X208707Y376412D01*
X208648Y376395D01*
X208588Y376387D01*
X208496Y376351D01*
X208401Y376323D01*
X208349Y376293D01*
X208293Y376270D01*
X208213Y376212D01*
X208127Y376162D01*
X208052Y376096D01*
X208035Y376084D01*
X208027Y376074D01*
X208006Y376056D01*
X170278Y338327D01*
X107304Y338327D01*
X107206Y338315D01*
X107107Y338312D01*
X107048Y338295D01*
X106988Y338287D01*
X106896Y338251D01*
X106801Y338223D01*
X106749Y338193D01*
X106693Y338170D01*
X106613Y338112D01*
X106527Y338062D01*
X106452Y337996D01*
X106435Y337984D01*
X106427Y337974D01*
X106406Y337956D01*
X104120Y335669D01*
X104035Y335560D01*
X103946Y335453D01*
X103938Y335434D01*
X103925Y335418D01*
X103870Y335290D01*
X103811Y335165D01*
X103807Y335145D01*
X103799Y335126D01*
X103777Y334988D01*
X103751Y334852D01*
X103752Y334832D01*
X103749Y334812D01*
X103762Y334673D01*
X103771Y334535D01*
X103777Y334516D01*
X103779Y334496D01*
X103826Y334364D01*
X103869Y334233D01*
X103880Y334215D01*
X103887Y334196D01*
X103965Y334081D01*
X104039Y333964D01*
X104054Y333950D01*
X104065Y333933D01*
X104169Y333841D01*
X104271Y333746D01*
X104288Y333736D01*
X104304Y333723D01*
X104428Y333659D01*
X104549Y333592D01*
X104569Y333587D01*
X104587Y333578D01*
X104723Y333548D01*
X104857Y333513D01*
X104885Y333511D01*
X104897Y333508D01*
X104918Y333509D01*
X105018Y333503D01*
X106060Y333503D01*
X109608Y332033D01*
X112323Y329318D01*
X113793Y325770D01*
X113793Y306690D01*
X112323Y303142D01*
X109608Y300427D01*
X106060Y298957D01*
X102220Y298957D01*
X98672Y300427D01*
X95957Y303142D01*
X94487Y306690D01*
X94487Y322972D01*
X94470Y323110D01*
X94457Y323249D01*
X94450Y323268D01*
X94447Y323288D01*
X94396Y323417D01*
X94349Y323548D01*
X94338Y323565D01*
X94330Y323583D01*
X94249Y323696D01*
X94171Y323811D01*
X94155Y323824D01*
X94144Y323841D01*
X94036Y323929D01*
X93932Y324022D01*
X93914Y324031D01*
X93899Y324044D01*
X93773Y324103D01*
X93649Y324166D01*
X93629Y324171D01*
X93611Y324179D01*
X93475Y324205D01*
X93339Y324236D01*
X93318Y324235D01*
X93299Y324239D01*
X93160Y324230D01*
X93021Y324226D01*
X93001Y324220D01*
X92981Y324219D01*
X92849Y324176D01*
X92715Y324138D01*
X92698Y324127D01*
X92679Y324121D01*
X92561Y324047D01*
X92441Y323976D01*
X92420Y323958D01*
X92410Y323951D01*
X92396Y323936D01*
X92321Y323870D01*
X83684Y315234D01*
X83624Y315155D01*
X83556Y315083D01*
X83527Y315030D01*
X83490Y314982D01*
X83450Y314891D01*
X83402Y314805D01*
X83387Y314746D01*
X83363Y314691D01*
X83348Y314593D01*
X83323Y314497D01*
X83317Y314397D01*
X83313Y314376D01*
X83315Y314364D01*
X83313Y314336D01*
X83313Y258572D01*
X83328Y258454D01*
X83335Y258335D01*
X83348Y258297D01*
X83353Y258256D01*
X83396Y258146D01*
X83433Y258033D01*
X83455Y257998D01*
X83470Y257961D01*
X83539Y257865D01*
X83603Y257764D01*
X83633Y257736D01*
X83656Y257703D01*
X83748Y257627D01*
X83835Y257546D01*
X83870Y257526D01*
X83901Y257501D01*
X84009Y257450D01*
X84113Y257392D01*
X84153Y257382D01*
X84189Y257365D01*
X84306Y257343D01*
X84421Y257313D01*
X84481Y257309D01*
X84501Y257305D01*
X84522Y257307D01*
X84568Y257304D01*
X88771Y255563D01*
X91987Y252347D01*
X93727Y248146D01*
X93727Y243598D01*
X91987Y239397D01*
X88771Y236181D01*
X84570Y234441D01*
X80022Y234441D01*
X75821Y236181D01*
X72605Y239397D01*
X70865Y243598D01*
X70865Y248146D01*
X72605Y252347D01*
X75821Y255562D01*
X75924Y255605D01*
X75949Y255620D01*
X75977Y255629D01*
X76087Y255698D01*
X76200Y255763D01*
X76221Y255783D01*
X76246Y255799D01*
X76335Y255894D01*
X76428Y255984D01*
X76444Y256009D01*
X76464Y256031D01*
X76527Y256144D01*
X76595Y256255D01*
X76603Y256283D01*
X76618Y256309D01*
X76650Y256435D01*
X76688Y256559D01*
X76690Y256588D01*
X76697Y256617D01*
X76707Y256778D01*
X76707Y317892D01*
X76690Y318030D01*
X76677Y318169D01*
X76670Y318188D01*
X76667Y318208D01*
X76616Y318337D01*
X76569Y318468D01*
X76558Y318485D01*
X76550Y318503D01*
X76469Y318616D01*
X76391Y318731D01*
X76375Y318744D01*
X76364Y318761D01*
X76256Y318850D01*
X76152Y318942D01*
X76134Y318951D01*
X76119Y318964D01*
X75993Y319023D01*
X75869Y319086D01*
X75849Y319091D01*
X75831Y319099D01*
X75695Y319125D01*
X75559Y319156D01*
X75538Y319155D01*
X75519Y319159D01*
X75380Y319150D01*
X75241Y319146D01*
X75221Y319140D01*
X75201Y319139D01*
X75069Y319096D01*
X74935Y319058D01*
X74918Y319047D01*
X74899Y319041D01*
X74781Y318967D01*
X74661Y318896D01*
X74640Y318878D01*
X74630Y318871D01*
X74616Y318856D01*
X74541Y318790D01*
X67174Y311424D01*
X67114Y311345D01*
X67046Y311273D01*
X67017Y311220D01*
X66980Y311172D01*
X66940Y311081D01*
X66892Y310995D01*
X66877Y310936D01*
X66853Y310881D01*
X66838Y310783D01*
X66813Y310687D01*
X66807Y310587D01*
X66803Y310567D01*
X66805Y310554D01*
X66803Y310526D01*
X66803Y174400D01*
X64868Y172465D01*
X64632Y172465D01*
X64534Y172453D01*
X64435Y172450D01*
X64376Y172433D01*
X64316Y172425D01*
X64224Y172389D01*
X64129Y172361D01*
X64077Y172331D01*
X64021Y172308D01*
X63941Y172250D01*
X63855Y172200D01*
X63780Y172134D01*
X63763Y172122D01*
X63755Y172112D01*
X63734Y172094D01*
X48886Y157246D01*
X48826Y157167D01*
X48758Y157095D01*
X48729Y157042D01*
X48692Y156994D01*
X48652Y156903D01*
X48604Y156817D01*
X48589Y156758D01*
X48565Y156703D01*
X48550Y156604D01*
X48525Y156509D01*
X48519Y156409D01*
X48515Y156388D01*
X48517Y156376D01*
X48515Y156348D01*
X48515Y154698D01*
X46775Y150497D01*
X43559Y147281D01*
X39358Y145541D01*
X34810Y145541D01*
G37*
%LPD*%
%LPC*%
G36*
X791364Y322207D02*
X791364Y322207D01*
X791269Y322280D01*
X791180Y322359D01*
X791144Y322378D01*
X791112Y322402D01*
X791003Y322450D01*
X790897Y322504D01*
X790858Y322513D01*
X790821Y322529D01*
X790703Y322547D01*
X790587Y322573D01*
X790546Y322572D01*
X790506Y322579D01*
X790388Y322567D01*
X790269Y322564D01*
X790230Y322552D01*
X790190Y322549D01*
X790078Y322508D01*
X789963Y322475D01*
X789929Y322455D01*
X789891Y322441D01*
X789792Y322374D01*
X789689Y322314D01*
X789644Y322274D01*
X789627Y322263D01*
X789614Y322247D01*
X789569Y322207D01*
X788670Y321309D01*
X788669Y321310D01*
X789567Y322209D01*
X789640Y322303D01*
X789719Y322392D01*
X789737Y322428D01*
X789762Y322460D01*
X789810Y322569D01*
X789864Y322675D01*
X789873Y322715D01*
X789889Y322752D01*
X789907Y322870D01*
X789933Y322985D01*
X789932Y323026D01*
X789939Y323066D01*
X789927Y323184D01*
X789924Y323303D01*
X789912Y323342D01*
X789909Y323382D01*
X789868Y323495D01*
X789835Y323609D01*
X789815Y323644D01*
X789801Y323682D01*
X789734Y323780D01*
X789674Y323883D01*
X789634Y323928D01*
X789623Y323945D01*
X789607Y323958D01*
X789567Y324004D01*
X782203Y331368D01*
X782413Y331521D01*
X784087Y332374D01*
X785874Y332955D01*
X787730Y333249D01*
X789610Y333249D01*
X791466Y332955D01*
X793253Y332374D01*
X794956Y331507D01*
X795034Y331463D01*
X795144Y331396D01*
X795173Y331387D01*
X795199Y331372D01*
X795325Y331340D01*
X795448Y331302D01*
X795478Y331301D01*
X795507Y331293D01*
X795637Y331293D01*
X795766Y331287D01*
X795795Y331293D01*
X795825Y331293D01*
X795951Y331325D01*
X796077Y331351D01*
X796104Y331365D01*
X796133Y331372D01*
X796247Y331434D01*
X796363Y331491D01*
X796386Y331511D01*
X796412Y331525D01*
X796506Y331613D01*
X796605Y331697D01*
X796622Y331722D01*
X796644Y331743D01*
X796714Y331852D01*
X796788Y331957D01*
X796799Y331986D01*
X796815Y332011D01*
X796855Y332134D01*
X796901Y332255D01*
X796904Y332285D01*
X796913Y332313D01*
X796922Y332442D01*
X796936Y332571D01*
X796932Y332601D01*
X796934Y332631D01*
X796910Y332755D01*
X796907Y332806D01*
X796900Y332828D01*
X796892Y332886D01*
X796878Y332927D01*
X796874Y332943D01*
X796865Y332963D01*
X796839Y333038D01*
X795200Y336997D01*
X795200Y341544D01*
X796198Y343953D01*
X796205Y343982D01*
X796219Y344008D01*
X796247Y344135D01*
X796282Y344260D01*
X796282Y344290D01*
X796289Y344319D01*
X796285Y344448D01*
X796287Y344578D01*
X796280Y344607D01*
X796279Y344636D01*
X796243Y344761D01*
X796213Y344887D01*
X796199Y344914D01*
X796191Y344942D01*
X796125Y345054D01*
X796064Y345169D01*
X796044Y345190D01*
X796029Y345216D01*
X795923Y345337D01*
X777934Y363326D01*
X777855Y363386D01*
X777783Y363454D01*
X777730Y363483D01*
X777682Y363520D01*
X777591Y363560D01*
X777505Y363608D01*
X777446Y363623D01*
X777391Y363647D01*
X777293Y363662D01*
X777197Y363687D01*
X777097Y363693D01*
X777077Y363697D01*
X777064Y363695D01*
X777036Y363697D01*
X772364Y363697D01*
X772266Y363685D01*
X772167Y363682D01*
X772108Y363665D01*
X772048Y363657D01*
X771956Y363621D01*
X771861Y363593D01*
X771809Y363563D01*
X771753Y363540D01*
X771672Y363482D01*
X771587Y363432D01*
X771512Y363366D01*
X771495Y363354D01*
X771487Y363344D01*
X771466Y363326D01*
X766554Y358414D01*
X764434Y356294D01*
X764374Y356215D01*
X764306Y356143D01*
X764277Y356090D01*
X764240Y356042D01*
X764200Y355951D01*
X764152Y355865D01*
X764137Y355806D01*
X764113Y355751D01*
X764098Y355653D01*
X764073Y355557D01*
X764067Y355457D01*
X764063Y355436D01*
X764065Y355424D01*
X764063Y355396D01*
X764063Y353568D01*
X762872Y352377D01*
X750188Y352377D01*
X748927Y353638D01*
X748833Y353711D01*
X748744Y353790D01*
X748708Y353808D01*
X748676Y353833D01*
X748567Y353880D01*
X748461Y353934D01*
X748422Y353943D01*
X748384Y353959D01*
X748267Y353978D01*
X748151Y354004D01*
X748110Y354003D01*
X748070Y354009D01*
X747952Y353998D01*
X747833Y353994D01*
X747794Y353983D01*
X747754Y353979D01*
X747642Y353939D01*
X747527Y353906D01*
X747492Y353885D01*
X747454Y353872D01*
X747356Y353805D01*
X747253Y353744D01*
X747208Y353704D01*
X747191Y353693D01*
X747178Y353678D01*
X747132Y353638D01*
X745872Y352377D01*
X744102Y352377D01*
X743984Y352362D01*
X743865Y352355D01*
X743827Y352342D01*
X743786Y352337D01*
X743676Y352294D01*
X743563Y352257D01*
X743528Y352235D01*
X743491Y352220D01*
X743395Y352151D01*
X743294Y352087D01*
X743266Y352057D01*
X743233Y352034D01*
X743157Y351942D01*
X743076Y351855D01*
X743056Y351820D01*
X743031Y351789D01*
X742980Y351681D01*
X742922Y351577D01*
X742912Y351537D01*
X742895Y351501D01*
X742873Y351384D01*
X742843Y351269D01*
X742839Y351208D01*
X742835Y351189D01*
X742837Y351168D01*
X742833Y351108D01*
X742833Y348662D01*
X742848Y348544D01*
X742855Y348425D01*
X742868Y348387D01*
X742873Y348346D01*
X742916Y348236D01*
X742953Y348123D01*
X742975Y348088D01*
X742990Y348051D01*
X743059Y347955D01*
X743123Y347854D01*
X743153Y347826D01*
X743176Y347793D01*
X743268Y347717D01*
X743355Y347636D01*
X743390Y347616D01*
X743421Y347591D01*
X743529Y347540D01*
X743633Y347482D01*
X743673Y347472D01*
X743709Y347455D01*
X743826Y347433D01*
X743941Y347403D01*
X744001Y347399D01*
X744021Y347395D01*
X744042Y347397D01*
X744102Y347393D01*
X747632Y347393D01*
X748823Y346202D01*
X748823Y334518D01*
X747632Y333327D01*
X734948Y333327D01*
X733964Y334312D01*
X733864Y334389D01*
X733769Y334471D01*
X733739Y334486D01*
X733712Y334507D01*
X733597Y334557D01*
X733484Y334613D01*
X733451Y334620D01*
X733420Y334633D01*
X733296Y334653D01*
X733173Y334679D01*
X733140Y334678D01*
X733106Y334683D01*
X732981Y334671D01*
X732856Y334666D01*
X732823Y334656D01*
X732790Y334653D01*
X732671Y334611D01*
X732551Y334574D01*
X732522Y334557D01*
X732490Y334546D01*
X732386Y334475D01*
X732279Y334410D01*
X732255Y334386D01*
X732227Y334367D01*
X732144Y334273D01*
X732056Y334183D01*
X732029Y334142D01*
X732017Y334129D01*
X732007Y334109D01*
X731967Y334049D01*
X731823Y333800D01*
X731350Y333327D01*
X730771Y332992D01*
X730124Y332819D01*
X726789Y332819D01*
X726789Y339130D01*
X726774Y339248D01*
X726767Y339367D01*
X726754Y339405D01*
X726749Y339445D01*
X726706Y339556D01*
X726669Y339669D01*
X726647Y339703D01*
X726632Y339741D01*
X726563Y339837D01*
X726499Y339938D01*
X726469Y339966D01*
X726446Y339998D01*
X726354Y340074D01*
X726267Y340156D01*
X726232Y340175D01*
X726201Y340201D01*
X726093Y340252D01*
X725989Y340309D01*
X725949Y340319D01*
X725913Y340337D01*
X725806Y340357D01*
X725836Y340361D01*
X725946Y340405D01*
X726059Y340441D01*
X726094Y340463D01*
X726131Y340478D01*
X726227Y340548D01*
X726328Y340611D01*
X726356Y340641D01*
X726389Y340665D01*
X726465Y340756D01*
X726546Y340843D01*
X726566Y340878D01*
X726591Y340910D01*
X726642Y341017D01*
X726700Y341122D01*
X726710Y341161D01*
X726727Y341197D01*
X726749Y341314D01*
X726779Y341430D01*
X726783Y341490D01*
X726787Y341510D01*
X726785Y341530D01*
X726789Y341590D01*
X726789Y347901D01*
X730124Y347901D01*
X730771Y347728D01*
X731350Y347393D01*
X731823Y346920D01*
X731967Y346671D01*
X732043Y346571D01*
X732113Y346467D01*
X732139Y346445D01*
X732159Y346418D01*
X732258Y346340D01*
X732352Y346256D01*
X732382Y346241D01*
X732408Y346220D01*
X732523Y346169D01*
X732635Y346112D01*
X732668Y346104D01*
X732699Y346091D01*
X732823Y346070D01*
X732945Y346042D01*
X732979Y346043D01*
X733012Y346038D01*
X733138Y346048D01*
X733263Y346052D01*
X733296Y346061D01*
X733329Y346064D01*
X733448Y346105D01*
X733569Y346140D01*
X733598Y346157D01*
X733630Y346168D01*
X733734Y346238D01*
X733843Y346302D01*
X733879Y346334D01*
X733895Y346344D01*
X733909Y346360D01*
X733964Y346408D01*
X734948Y347393D01*
X734958Y347393D01*
X735076Y347408D01*
X735195Y347415D01*
X735233Y347428D01*
X735274Y347433D01*
X735384Y347476D01*
X735497Y347513D01*
X735532Y347535D01*
X735569Y347550D01*
X735665Y347619D01*
X735766Y347683D01*
X735794Y347713D01*
X735827Y347736D01*
X735903Y347828D01*
X735984Y347915D01*
X736004Y347950D01*
X736029Y347981D01*
X736080Y348089D01*
X736138Y348193D01*
X736148Y348233D01*
X736165Y348269D01*
X736187Y348386D01*
X736217Y348501D01*
X736221Y348561D01*
X736225Y348581D01*
X736223Y348602D01*
X736227Y348662D01*
X736227Y351108D01*
X736212Y351226D01*
X736205Y351345D01*
X736192Y351383D01*
X736187Y351424D01*
X736144Y351534D01*
X736107Y351647D01*
X736085Y351682D01*
X736070Y351719D01*
X736001Y351815D01*
X735937Y351916D01*
X735907Y351944D01*
X735884Y351977D01*
X735792Y352053D01*
X735705Y352134D01*
X735670Y352154D01*
X735639Y352179D01*
X735531Y352230D01*
X735427Y352288D01*
X735387Y352298D01*
X735351Y352315D01*
X735234Y352337D01*
X735119Y352367D01*
X735059Y352371D01*
X735039Y352375D01*
X735018Y352373D01*
X734958Y352377D01*
X733188Y352377D01*
X731997Y353568D01*
X731997Y354838D01*
X731982Y354956D01*
X731975Y355075D01*
X731962Y355113D01*
X731957Y355154D01*
X731914Y355264D01*
X731877Y355377D01*
X731855Y355412D01*
X731840Y355449D01*
X731771Y355545D01*
X731707Y355646D01*
X731677Y355674D01*
X731654Y355707D01*
X731562Y355783D01*
X731475Y355864D01*
X731440Y355884D01*
X731409Y355909D01*
X731301Y355960D01*
X731197Y356018D01*
X731157Y356028D01*
X731121Y356045D01*
X731004Y356067D01*
X730889Y356097D01*
X730829Y356101D01*
X730809Y356105D01*
X730788Y356103D01*
X730728Y356107D01*
X721762Y356107D01*
X714044Y363826D01*
X713965Y363886D01*
X713893Y363954D01*
X713840Y363983D01*
X713792Y364020D01*
X713701Y364060D01*
X713615Y364108D01*
X713556Y364123D01*
X713501Y364147D01*
X713403Y364162D01*
X713307Y364187D01*
X713207Y364193D01*
X713186Y364197D01*
X713174Y364195D01*
X713146Y364197D01*
X706968Y364197D01*
X705777Y365388D01*
X705777Y375072D01*
X706968Y376263D01*
X717652Y376263D01*
X718843Y375072D01*
X718843Y368894D01*
X718855Y368796D01*
X718858Y368697D01*
X718875Y368638D01*
X718883Y368578D01*
X718919Y368486D01*
X718947Y368391D01*
X718977Y368339D01*
X719000Y368283D01*
X719058Y368203D01*
X719108Y368117D01*
X719174Y368042D01*
X719186Y368025D01*
X719196Y368017D01*
X719214Y367996D01*
X724126Y363084D01*
X724205Y363024D01*
X724277Y362956D01*
X724330Y362927D01*
X724378Y362890D01*
X724469Y362850D01*
X724555Y362802D01*
X724614Y362787D01*
X724669Y362763D01*
X724767Y362748D01*
X724863Y362723D01*
X724963Y362717D01*
X724984Y362713D01*
X724996Y362715D01*
X725024Y362713D01*
X730728Y362713D01*
X730846Y362728D01*
X730965Y362735D01*
X731003Y362748D01*
X731044Y362753D01*
X731154Y362796D01*
X731267Y362833D01*
X731302Y362855D01*
X731339Y362870D01*
X731435Y362939D01*
X731536Y363003D01*
X731564Y363033D01*
X731597Y363056D01*
X731673Y363148D01*
X731754Y363235D01*
X731774Y363270D01*
X731799Y363301D01*
X731850Y363409D01*
X731908Y363513D01*
X731918Y363553D01*
X731935Y363589D01*
X731957Y363706D01*
X731987Y363821D01*
X731991Y363881D01*
X731995Y363901D01*
X731993Y363922D01*
X731997Y363982D01*
X731997Y365252D01*
X733188Y366443D01*
X745872Y366443D01*
X747132Y365182D01*
X747227Y365109D01*
X747316Y365030D01*
X747352Y365012D01*
X747384Y364987D01*
X747493Y364940D01*
X747599Y364886D01*
X747638Y364877D01*
X747676Y364861D01*
X747793Y364842D01*
X747909Y364816D01*
X747950Y364817D01*
X747990Y364811D01*
X748108Y364822D01*
X748227Y364826D01*
X748266Y364837D01*
X748306Y364841D01*
X748419Y364881D01*
X748533Y364914D01*
X748567Y364935D01*
X748606Y364948D01*
X748704Y365015D01*
X748807Y365076D01*
X748852Y365116D01*
X748869Y365127D01*
X748882Y365142D01*
X748927Y365182D01*
X750188Y366443D01*
X762872Y366443D01*
X763159Y366155D01*
X763253Y366082D01*
X763343Y366003D01*
X763379Y365985D01*
X763411Y365960D01*
X763520Y365913D01*
X763626Y365859D01*
X763665Y365850D01*
X763703Y365834D01*
X763820Y365815D01*
X763936Y365789D01*
X763977Y365790D01*
X764017Y365784D01*
X764135Y365795D01*
X764254Y365799D01*
X764293Y365810D01*
X764333Y365814D01*
X764445Y365854D01*
X764560Y365887D01*
X764595Y365908D01*
X764633Y365922D01*
X764731Y365988D01*
X764834Y366049D01*
X764879Y366089D01*
X764896Y366100D01*
X764909Y366115D01*
X764954Y366155D01*
X767296Y368496D01*
X767356Y368575D01*
X767424Y368647D01*
X767449Y368692D01*
X767453Y368697D01*
X767456Y368703D01*
X767490Y368748D01*
X767530Y368839D01*
X767578Y368925D01*
X767593Y368984D01*
X767617Y369039D01*
X767632Y369137D01*
X767657Y369233D01*
X767663Y369333D01*
X767667Y369353D01*
X767665Y369366D01*
X767667Y369394D01*
X767667Y377572D01*
X768928Y378832D01*
X769001Y378927D01*
X769080Y379016D01*
X769098Y379052D01*
X769123Y379084D01*
X769170Y379193D01*
X769224Y379299D01*
X769233Y379338D01*
X769249Y379376D01*
X769268Y379493D01*
X769294Y379609D01*
X769293Y379650D01*
X769299Y379690D01*
X769288Y379808D01*
X769284Y379927D01*
X769273Y379966D01*
X769269Y380006D01*
X769229Y380119D01*
X769196Y380233D01*
X769175Y380267D01*
X769162Y380306D01*
X769095Y380404D01*
X769034Y380507D01*
X768994Y380552D01*
X768983Y380569D01*
X768968Y380582D01*
X768928Y380627D01*
X767667Y381888D01*
X767667Y387858D01*
X767652Y387976D01*
X767645Y388095D01*
X767632Y388133D01*
X767627Y388174D01*
X767584Y388284D01*
X767547Y388397D01*
X767525Y388432D01*
X767510Y388469D01*
X767441Y388565D01*
X767377Y388666D01*
X767347Y388694D01*
X767324Y388727D01*
X767232Y388803D01*
X767145Y388884D01*
X767110Y388904D01*
X767079Y388929D01*
X766971Y388980D01*
X766867Y389038D01*
X766827Y389048D01*
X766791Y389065D01*
X766674Y389087D01*
X766559Y389117D01*
X766499Y389121D01*
X766479Y389125D01*
X766458Y389123D01*
X766398Y389127D01*
X757712Y389127D01*
X757594Y389112D01*
X757475Y389105D01*
X757437Y389092D01*
X757396Y389087D01*
X757286Y389044D01*
X757173Y389007D01*
X757138Y388985D01*
X757101Y388970D01*
X757005Y388901D01*
X756904Y388837D01*
X756876Y388807D01*
X756843Y388784D01*
X756767Y388692D01*
X756686Y388605D01*
X756666Y388570D01*
X756641Y388539D01*
X756590Y388431D01*
X756532Y388327D01*
X756522Y388287D01*
X756505Y388251D01*
X756483Y388134D01*
X756453Y388019D01*
X756449Y387959D01*
X756445Y387939D01*
X756447Y387918D01*
X756443Y387858D01*
X756443Y386588D01*
X755252Y385397D01*
X742568Y385397D01*
X741308Y386658D01*
X741213Y386731D01*
X741124Y386810D01*
X741088Y386828D01*
X741056Y386853D01*
X740947Y386900D01*
X740841Y386954D01*
X740802Y386963D01*
X740764Y386979D01*
X740647Y386998D01*
X740531Y387024D01*
X740490Y387023D01*
X740450Y387029D01*
X740332Y387018D01*
X740213Y387014D01*
X740174Y387003D01*
X740134Y386999D01*
X740021Y386959D01*
X739907Y386926D01*
X739873Y386905D01*
X739834Y386892D01*
X739736Y386825D01*
X739633Y386764D01*
X739588Y386724D01*
X739571Y386713D01*
X739558Y386698D01*
X739513Y386658D01*
X738252Y385397D01*
X725568Y385397D01*
X724377Y386588D01*
X724377Y387858D01*
X724362Y387976D01*
X724355Y388095D01*
X724342Y388133D01*
X724337Y388174D01*
X724294Y388284D01*
X724257Y388397D01*
X724235Y388432D01*
X724220Y388469D01*
X724151Y388565D01*
X724087Y388666D01*
X724057Y388694D01*
X724034Y388727D01*
X723942Y388803D01*
X723855Y388884D01*
X723820Y388904D01*
X723789Y388929D01*
X723681Y388980D01*
X723577Y389038D01*
X723537Y389048D01*
X723501Y389065D01*
X723384Y389087D01*
X723269Y389117D01*
X723209Y389121D01*
X723189Y389125D01*
X723168Y389123D01*
X723108Y389127D01*
X720112Y389127D01*
X719994Y389112D01*
X719875Y389105D01*
X719837Y389092D01*
X719796Y389087D01*
X719686Y389044D01*
X719573Y389007D01*
X719538Y388985D01*
X719501Y388970D01*
X719405Y388901D01*
X719304Y388837D01*
X719276Y388807D01*
X719243Y388784D01*
X719167Y388692D01*
X719086Y388605D01*
X719066Y388570D01*
X719041Y388539D01*
X718990Y388431D01*
X718932Y388327D01*
X718922Y388287D01*
X718905Y388251D01*
X718883Y388134D01*
X718853Y388019D01*
X718849Y387959D01*
X718845Y387939D01*
X718847Y387918D01*
X718843Y387858D01*
X718843Y384388D01*
X717652Y383197D01*
X706968Y383197D01*
X705777Y384388D01*
X705777Y394072D01*
X706968Y395263D01*
X713146Y395263D01*
X713244Y395275D01*
X713343Y395278D01*
X713402Y395295D01*
X713462Y395303D01*
X713554Y395339D01*
X713649Y395367D01*
X713701Y395397D01*
X713757Y395420D01*
X713837Y395478D01*
X713923Y395528D01*
X713998Y395594D01*
X714015Y395606D01*
X714023Y395616D01*
X714044Y395634D01*
X714142Y395733D01*
X720872Y395733D01*
X721010Y395750D01*
X721149Y395763D01*
X721168Y395770D01*
X721188Y395773D01*
X721317Y395824D01*
X721448Y395871D01*
X721465Y395882D01*
X721483Y395890D01*
X721596Y395971D01*
X721711Y396049D01*
X721724Y396065D01*
X721741Y396076D01*
X721830Y396184D01*
X721922Y396288D01*
X721931Y396306D01*
X721944Y396321D01*
X722003Y396447D01*
X722066Y396571D01*
X722071Y396591D01*
X722079Y396609D01*
X722105Y396745D01*
X722136Y396881D01*
X722135Y396902D01*
X722139Y396921D01*
X722130Y397060D01*
X722126Y397199D01*
X722120Y397219D01*
X722119Y397239D01*
X722076Y397371D01*
X722038Y397505D01*
X722027Y397522D01*
X722021Y397541D01*
X721947Y397659D01*
X721876Y397779D01*
X721858Y397800D01*
X721851Y397810D01*
X721836Y397824D01*
X721770Y397900D01*
X721607Y398062D01*
X721607Y403528D01*
X721592Y403646D01*
X721585Y403765D01*
X721572Y403803D01*
X721567Y403844D01*
X721524Y403954D01*
X721487Y404067D01*
X721465Y404102D01*
X721450Y404139D01*
X721381Y404235D01*
X721317Y404336D01*
X721287Y404364D01*
X721264Y404397D01*
X721172Y404473D01*
X721085Y404554D01*
X721050Y404574D01*
X721019Y404599D01*
X720911Y404650D01*
X720807Y404708D01*
X720767Y404718D01*
X720731Y404735D01*
X720614Y404757D01*
X720499Y404787D01*
X720439Y404791D01*
X720419Y404795D01*
X720398Y404793D01*
X720338Y404797D01*
X716568Y404797D01*
X715377Y405988D01*
X715377Y429672D01*
X716568Y430863D01*
X733252Y430863D01*
X734443Y429672D01*
X734443Y405988D01*
X733252Y404797D01*
X729482Y404797D01*
X729364Y404782D01*
X729245Y404775D01*
X729207Y404762D01*
X729166Y404757D01*
X729056Y404714D01*
X728943Y404677D01*
X728908Y404655D01*
X728871Y404640D01*
X728775Y404571D01*
X728674Y404507D01*
X728646Y404477D01*
X728613Y404454D01*
X728537Y404362D01*
X728456Y404275D01*
X728436Y404240D01*
X728411Y404209D01*
X728360Y404101D01*
X728302Y403997D01*
X728292Y403957D01*
X728275Y403921D01*
X728253Y403804D01*
X728223Y403689D01*
X728219Y403629D01*
X728215Y403609D01*
X728217Y403588D01*
X728213Y403528D01*
X728213Y401324D01*
X728225Y401226D01*
X728228Y401127D01*
X728245Y401068D01*
X728253Y401008D01*
X728289Y400916D01*
X728317Y400821D01*
X728347Y400769D01*
X728370Y400713D01*
X728428Y400633D01*
X728478Y400547D01*
X728544Y400472D01*
X728556Y400455D01*
X728566Y400447D01*
X728584Y400426D01*
X729176Y399834D01*
X729255Y399774D01*
X729327Y399706D01*
X729380Y399677D01*
X729428Y399640D01*
X729519Y399600D01*
X729605Y399552D01*
X729664Y399537D01*
X729719Y399513D01*
X729817Y399498D01*
X729913Y399473D01*
X730013Y399467D01*
X730034Y399463D01*
X730046Y399465D01*
X730074Y399463D01*
X738252Y399463D01*
X739513Y398202D01*
X739607Y398129D01*
X739696Y398050D01*
X739732Y398032D01*
X739764Y398007D01*
X739873Y397960D01*
X739979Y397906D01*
X740018Y397897D01*
X740056Y397881D01*
X740173Y397862D01*
X740289Y397836D01*
X740330Y397837D01*
X740370Y397831D01*
X740488Y397842D01*
X740607Y397846D01*
X740646Y397857D01*
X740686Y397861D01*
X740798Y397901D01*
X740913Y397934D01*
X740948Y397955D01*
X740986Y397968D01*
X741084Y398035D01*
X741187Y398096D01*
X741232Y398136D01*
X741249Y398147D01*
X741262Y398162D01*
X741308Y398202D01*
X742568Y399463D01*
X750746Y399463D01*
X750844Y399475D01*
X750943Y399478D01*
X751002Y399495D01*
X751062Y399503D01*
X751154Y399539D01*
X751249Y399567D01*
X751301Y399597D01*
X751357Y399620D01*
X751437Y399678D01*
X751523Y399728D01*
X751598Y399794D01*
X751615Y399806D01*
X751623Y399816D01*
X751644Y399834D01*
X752236Y400426D01*
X752296Y400505D01*
X752364Y400577D01*
X752393Y400630D01*
X752430Y400678D01*
X752470Y400769D01*
X752518Y400855D01*
X752533Y400914D01*
X752557Y400969D01*
X752572Y401067D01*
X752597Y401163D01*
X752603Y401263D01*
X752607Y401284D01*
X752605Y401296D01*
X752607Y401324D01*
X752607Y403528D01*
X752592Y403646D01*
X752585Y403765D01*
X752572Y403803D01*
X752567Y403844D01*
X752524Y403954D01*
X752487Y404067D01*
X752465Y404102D01*
X752450Y404139D01*
X752381Y404235D01*
X752317Y404336D01*
X752287Y404364D01*
X752264Y404397D01*
X752172Y404473D01*
X752085Y404554D01*
X752050Y404574D01*
X752019Y404599D01*
X751911Y404650D01*
X751807Y404708D01*
X751767Y404718D01*
X751731Y404735D01*
X751614Y404757D01*
X751499Y404787D01*
X751439Y404791D01*
X751419Y404795D01*
X751398Y404793D01*
X751338Y404797D01*
X747568Y404797D01*
X746377Y405988D01*
X746377Y429672D01*
X747568Y430863D01*
X764252Y430863D01*
X765443Y429672D01*
X765443Y405988D01*
X764252Y404797D01*
X760482Y404797D01*
X760364Y404782D01*
X760245Y404775D01*
X760207Y404762D01*
X760166Y404757D01*
X760056Y404714D01*
X759943Y404677D01*
X759908Y404655D01*
X759871Y404640D01*
X759775Y404571D01*
X759674Y404507D01*
X759646Y404477D01*
X759613Y404454D01*
X759537Y404362D01*
X759456Y404275D01*
X759436Y404240D01*
X759411Y404209D01*
X759360Y404101D01*
X759302Y403997D01*
X759292Y403957D01*
X759275Y403921D01*
X759253Y403804D01*
X759223Y403689D01*
X759219Y403629D01*
X759215Y403609D01*
X759217Y403588D01*
X759213Y403528D01*
X759213Y398062D01*
X759050Y397900D01*
X758965Y397790D01*
X758876Y397683D01*
X758868Y397664D01*
X758855Y397648D01*
X758800Y397520D01*
X758741Y397395D01*
X758737Y397375D01*
X758729Y397356D01*
X758707Y397218D01*
X758681Y397082D01*
X758682Y397062D01*
X758679Y397042D01*
X758692Y396903D01*
X758701Y396765D01*
X758707Y396746D01*
X758709Y396726D01*
X758756Y396595D01*
X758799Y396463D01*
X758810Y396445D01*
X758817Y396426D01*
X758894Y396312D01*
X758969Y396194D01*
X758984Y396180D01*
X758995Y396163D01*
X759099Y396071D01*
X759201Y395976D01*
X759218Y395966D01*
X759234Y395953D01*
X759357Y395890D01*
X759479Y395822D01*
X759499Y395817D01*
X759517Y395808D01*
X759653Y395778D01*
X759787Y395743D01*
X759815Y395741D01*
X759827Y395738D01*
X759848Y395739D01*
X759948Y395733D01*
X768302Y395733D01*
X768400Y395745D01*
X768499Y395748D01*
X768550Y395763D01*
X780542Y395763D01*
X781733Y394572D01*
X781733Y381888D01*
X780472Y380627D01*
X780399Y380533D01*
X780320Y380444D01*
X780302Y380408D01*
X780277Y380376D01*
X780230Y380267D01*
X780176Y380161D01*
X780167Y380122D01*
X780151Y380084D01*
X780132Y379967D01*
X780106Y379851D01*
X780107Y379810D01*
X780101Y379770D01*
X780112Y379652D01*
X780116Y379533D01*
X780127Y379494D01*
X780131Y379454D01*
X780171Y379342D01*
X780204Y379227D01*
X780225Y379192D01*
X780238Y379154D01*
X780305Y379056D01*
X780366Y378953D01*
X780406Y378908D01*
X780417Y378891D01*
X780432Y378878D01*
X780472Y378832D01*
X781733Y377572D01*
X781733Y369394D01*
X781745Y369296D01*
X781748Y369197D01*
X781765Y369138D01*
X781773Y369078D01*
X781809Y368986D01*
X781837Y368891D01*
X781867Y368839D01*
X781890Y368783D01*
X781948Y368703D01*
X781998Y368617D01*
X782038Y368571D01*
X782040Y368569D01*
X782043Y368566D01*
X782064Y368542D01*
X782076Y368525D01*
X782086Y368517D01*
X782104Y368496D01*
X800605Y349995D01*
X800629Y349977D01*
X800648Y349955D01*
X800754Y349880D01*
X800857Y349800D01*
X800884Y349789D01*
X800908Y349772D01*
X801029Y349726D01*
X801148Y349674D01*
X801178Y349670D01*
X801205Y349659D01*
X801334Y349645D01*
X801463Y349624D01*
X801492Y349627D01*
X801521Y349624D01*
X801650Y349642D01*
X801779Y349654D01*
X801807Y349664D01*
X801836Y349668D01*
X801989Y349720D01*
X804357Y350701D01*
X808904Y350701D01*
X813105Y348961D01*
X816321Y345745D01*
X818061Y341544D01*
X818061Y336997D01*
X816321Y332796D01*
X813105Y329580D01*
X808904Y327840D01*
X804357Y327840D01*
X800398Y329479D01*
X800273Y329514D01*
X800150Y329554D01*
X800120Y329555D01*
X800091Y329563D01*
X799962Y329565D01*
X799833Y329574D01*
X799804Y329568D01*
X799773Y329568D01*
X799648Y329538D01*
X799521Y329514D01*
X799493Y329501D01*
X799464Y329494D01*
X799350Y329434D01*
X799233Y329379D01*
X799210Y329360D01*
X799183Y329346D01*
X799087Y329259D01*
X798988Y329176D01*
X798970Y329152D01*
X798948Y329132D01*
X798877Y329023D01*
X798801Y328919D01*
X798790Y328891D01*
X798773Y328866D01*
X798731Y328744D01*
X798683Y328623D01*
X798680Y328594D01*
X798670Y328565D01*
X798660Y328436D01*
X798643Y328308D01*
X798647Y328278D01*
X798645Y328248D01*
X798667Y328120D01*
X798683Y327992D01*
X798694Y327965D01*
X798699Y327935D01*
X798752Y327817D01*
X798800Y327697D01*
X798823Y327660D01*
X798830Y327645D01*
X798843Y327628D01*
X798879Y327572D01*
X799734Y325893D01*
X800315Y324106D01*
X800609Y322250D01*
X800609Y320370D01*
X800315Y318514D01*
X799734Y316727D01*
X798881Y315053D01*
X798728Y314843D01*
X791364Y322207D01*
G37*
%LPD*%
G36*
X436655Y294483D02*
X436655Y294483D01*
X436743Y294488D01*
X436810Y294510D01*
X436881Y294522D01*
X436961Y294559D01*
X437045Y294586D01*
X437105Y294624D01*
X437170Y294654D01*
X437239Y294709D01*
X437314Y294756D01*
X437363Y294808D01*
X437418Y294853D01*
X437438Y294879D01*
X440302Y297743D01*
X443850Y299213D01*
X447690Y299213D01*
X451238Y297743D01*
X453763Y295218D01*
X453872Y295133D01*
X453979Y295045D01*
X453998Y295036D01*
X454014Y295024D01*
X454142Y294968D01*
X454267Y294909D01*
X454287Y294905D01*
X454306Y294897D01*
X454444Y294875D01*
X454580Y294849D01*
X454600Y294851D01*
X454620Y294847D01*
X454759Y294860D01*
X454897Y294869D01*
X454916Y294875D01*
X454936Y294877D01*
X455068Y294924D01*
X455199Y294967D01*
X455217Y294978D01*
X455236Y294985D01*
X455351Y295063D01*
X455468Y295137D01*
X455482Y295152D01*
X455499Y295163D01*
X455591Y295268D01*
X455686Y295369D01*
X455696Y295387D01*
X455709Y295402D01*
X455773Y295526D01*
X455840Y295647D01*
X455845Y295667D01*
X455854Y295685D01*
X455884Y295821D01*
X455919Y295955D01*
X455921Y295983D01*
X455924Y295995D01*
X455923Y296016D01*
X455929Y296116D01*
X455929Y309764D01*
X455917Y309862D01*
X455914Y309961D01*
X455897Y310020D01*
X455889Y310080D01*
X455853Y310172D01*
X455825Y310267D01*
X455795Y310319D01*
X455772Y310375D01*
X455714Y310456D01*
X455664Y310541D01*
X455598Y310616D01*
X455586Y310633D01*
X455576Y310641D01*
X455557Y310662D01*
X455167Y311052D01*
X455167Y330537D01*
X455155Y330635D01*
X455152Y330734D01*
X455135Y330792D01*
X455127Y330853D01*
X455091Y330945D01*
X455063Y331040D01*
X455033Y331092D01*
X455010Y331148D01*
X454952Y331228D01*
X454902Y331314D01*
X454836Y331389D01*
X454824Y331406D01*
X454814Y331413D01*
X454796Y331435D01*
X422760Y363470D01*
X420454Y365776D01*
X420454Y402389D01*
X420441Y402488D01*
X420438Y402587D01*
X420432Y402609D01*
X420432Y402615D01*
X420421Y402646D01*
X420414Y402705D01*
X420378Y402797D01*
X420350Y402892D01*
X420319Y402944D01*
X420297Y403001D01*
X420239Y403081D01*
X420189Y403166D01*
X420122Y403241D01*
X420110Y403258D01*
X420101Y403266D01*
X420082Y403287D01*
X418139Y405230D01*
X418030Y405315D01*
X417923Y405403D01*
X417904Y405412D01*
X417888Y405424D01*
X417760Y405480D01*
X417635Y405539D01*
X417615Y405543D01*
X417596Y405551D01*
X417458Y405573D01*
X417322Y405599D01*
X417302Y405597D01*
X417282Y405601D01*
X417143Y405588D01*
X417005Y405579D01*
X416986Y405573D01*
X416966Y405571D01*
X416834Y405524D01*
X416703Y405481D01*
X416685Y405470D01*
X416666Y405463D01*
X416551Y405385D01*
X416434Y405311D01*
X416420Y405296D01*
X416403Y405285D01*
X416311Y405181D01*
X416216Y405079D01*
X416206Y405061D01*
X416193Y405046D01*
X416129Y404922D01*
X416062Y404801D01*
X416057Y404781D01*
X416048Y404763D01*
X416018Y404627D01*
X415983Y404493D01*
X415981Y404465D01*
X415978Y404453D01*
X415979Y404432D01*
X415973Y404332D01*
X415973Y392048D01*
X414712Y390787D01*
X414639Y390693D01*
X414560Y390604D01*
X414542Y390568D01*
X414517Y390536D01*
X414470Y390427D01*
X414416Y390321D01*
X414407Y390282D01*
X414391Y390244D01*
X414372Y390127D01*
X414346Y390011D01*
X414347Y389970D01*
X414341Y389930D01*
X414352Y389812D01*
X414356Y389693D01*
X414367Y389654D01*
X414371Y389614D01*
X414411Y389502D01*
X414444Y389387D01*
X414465Y389352D01*
X414478Y389314D01*
X414545Y389216D01*
X414606Y389113D01*
X414646Y389068D01*
X414657Y389051D01*
X414672Y389038D01*
X414712Y388992D01*
X415973Y387732D01*
X415973Y375048D01*
X414782Y373857D01*
X409065Y373857D01*
X409033Y373853D01*
X409000Y373856D01*
X408875Y373833D01*
X408749Y373817D01*
X408719Y373806D01*
X408687Y373800D01*
X408572Y373747D01*
X408453Y373700D01*
X408427Y373681D01*
X408398Y373668D01*
X408299Y373588D01*
X408196Y373514D01*
X408175Y373489D01*
X408150Y373469D01*
X408046Y373346D01*
X398524Y360548D01*
X398520Y360542D01*
X398516Y360537D01*
X398442Y360403D01*
X398367Y360271D01*
X398366Y360264D01*
X398362Y360259D01*
X398325Y360112D01*
X398285Y359964D01*
X398285Y359957D01*
X398283Y359951D01*
X398273Y359790D01*
X398273Y311052D01*
X397882Y310662D01*
X397822Y310583D01*
X397754Y310511D01*
X397725Y310458D01*
X397688Y310410D01*
X397648Y310319D01*
X397600Y310233D01*
X397585Y310174D01*
X397561Y310119D01*
X397546Y310021D01*
X397521Y309925D01*
X397515Y309825D01*
X397511Y309804D01*
X397513Y309792D01*
X397511Y309764D01*
X397511Y299804D01*
X397514Y299774D01*
X397512Y299745D01*
X397534Y299617D01*
X397551Y299488D01*
X397561Y299461D01*
X397566Y299432D01*
X397620Y299313D01*
X397668Y299192D01*
X397685Y299169D01*
X397697Y299142D01*
X397778Y299040D01*
X397854Y298935D01*
X397877Y298916D01*
X397896Y298893D01*
X397999Y298815D01*
X398099Y298732D01*
X398126Y298720D01*
X398150Y298702D01*
X398294Y298631D01*
X400438Y297743D01*
X402963Y295218D01*
X403072Y295133D01*
X403179Y295045D01*
X403198Y295036D01*
X403214Y295024D01*
X403342Y294968D01*
X403467Y294909D01*
X403487Y294905D01*
X403506Y294897D01*
X403644Y294875D01*
X403780Y294849D01*
X403800Y294851D01*
X403820Y294847D01*
X403959Y294860D01*
X404097Y294869D01*
X404116Y294875D01*
X404136Y294877D01*
X404268Y294924D01*
X404399Y294967D01*
X404417Y294978D01*
X404436Y294985D01*
X404551Y295063D01*
X404668Y295137D01*
X404682Y295152D01*
X404699Y295163D01*
X404791Y295268D01*
X404886Y295369D01*
X404896Y295387D01*
X404909Y295402D01*
X404973Y295526D01*
X405040Y295647D01*
X405045Y295667D01*
X405054Y295685D01*
X405084Y295821D01*
X405119Y295955D01*
X405121Y295983D01*
X405124Y295995D01*
X405123Y296016D01*
X405129Y296116D01*
X405129Y308494D01*
X405117Y308592D01*
X405114Y308691D01*
X405097Y308750D01*
X405089Y308810D01*
X405053Y308902D01*
X405025Y308997D01*
X404995Y309049D01*
X404972Y309105D01*
X404914Y309185D01*
X404864Y309271D01*
X404798Y309346D01*
X404786Y309363D01*
X404776Y309371D01*
X404758Y309392D01*
X404367Y309782D01*
X404367Y347332D01*
X404355Y347430D01*
X404352Y347529D01*
X404335Y347587D01*
X404327Y347647D01*
X404291Y347739D01*
X404263Y347834D01*
X404233Y347886D01*
X404210Y347943D01*
X404152Y348023D01*
X404102Y348108D01*
X404036Y348184D01*
X404024Y348200D01*
X404014Y348208D01*
X403996Y348229D01*
X402740Y349484D01*
X401855Y351621D01*
X401855Y353934D01*
X402740Y356072D01*
X404376Y357707D01*
X406513Y358593D01*
X408827Y358593D01*
X410964Y357707D01*
X412600Y356072D01*
X413485Y353934D01*
X413485Y351621D01*
X412600Y349484D01*
X411344Y348229D01*
X411284Y348151D01*
X411216Y348079D01*
X411187Y348026D01*
X411150Y347978D01*
X411110Y347887D01*
X411062Y347800D01*
X411047Y347742D01*
X411023Y347686D01*
X411008Y347588D01*
X410983Y347492D01*
X410977Y347392D01*
X410973Y347372D01*
X410975Y347360D01*
X410973Y347332D01*
X410973Y309782D01*
X410582Y309392D01*
X410522Y309313D01*
X410454Y309241D01*
X410425Y309188D01*
X410388Y309140D01*
X410348Y309049D01*
X410300Y308963D01*
X410285Y308904D01*
X410261Y308849D01*
X410246Y308751D01*
X410221Y308655D01*
X410215Y308555D01*
X410211Y308534D01*
X410213Y308522D01*
X410211Y308494D01*
X410211Y296116D01*
X410228Y295979D01*
X410241Y295840D01*
X410248Y295820D01*
X410251Y295800D01*
X410302Y295672D01*
X410349Y295540D01*
X410360Y295524D01*
X410368Y295505D01*
X410449Y295392D01*
X410527Y295277D01*
X410543Y295264D01*
X410554Y295247D01*
X410662Y295159D01*
X410766Y295067D01*
X410784Y295058D01*
X410799Y295045D01*
X410925Y294985D01*
X411049Y294922D01*
X411069Y294918D01*
X411087Y294909D01*
X411223Y294883D01*
X411359Y294852D01*
X411380Y294853D01*
X411399Y294849D01*
X411538Y294858D01*
X411677Y294862D01*
X411697Y294868D01*
X411717Y294869D01*
X411849Y294912D01*
X411983Y294951D01*
X412000Y294961D01*
X412019Y294967D01*
X412137Y295042D01*
X412257Y295112D01*
X412278Y295131D01*
X412288Y295137D01*
X412302Y295152D01*
X412377Y295218D01*
X414902Y297743D01*
X418450Y299213D01*
X422290Y299213D01*
X425838Y297743D01*
X427989Y295592D01*
X428098Y295507D01*
X428205Y295419D01*
X428224Y295410D01*
X428240Y295398D01*
X428368Y295342D01*
X428493Y295283D01*
X428513Y295279D01*
X428532Y295271D01*
X428670Y295249D01*
X428806Y295223D01*
X428826Y295225D01*
X428846Y295221D01*
X428985Y295234D01*
X429123Y295243D01*
X429142Y295249D01*
X429162Y295251D01*
X429294Y295298D01*
X429425Y295341D01*
X429443Y295352D01*
X429462Y295359D01*
X429577Y295437D01*
X429694Y295511D01*
X429708Y295526D01*
X429725Y295537D01*
X429817Y295642D01*
X429912Y295743D01*
X429922Y295761D01*
X429935Y295776D01*
X429999Y295900D01*
X430066Y296021D01*
X430071Y296041D01*
X430080Y296059D01*
X430110Y296195D01*
X430145Y296329D01*
X430147Y296357D01*
X430150Y296369D01*
X430149Y296390D01*
X430155Y296490D01*
X430155Y300874D01*
X430143Y300972D01*
X430140Y301071D01*
X430123Y301130D01*
X430115Y301190D01*
X430079Y301282D01*
X430051Y301377D01*
X430021Y301429D01*
X429998Y301485D01*
X429940Y301565D01*
X429890Y301651D01*
X429824Y301726D01*
X429812Y301743D01*
X429802Y301751D01*
X429784Y301772D01*
X429393Y302162D01*
X429393Y323858D01*
X429381Y323956D01*
X429378Y324055D01*
X429361Y324113D01*
X429353Y324173D01*
X429317Y324265D01*
X429289Y324360D01*
X429259Y324413D01*
X429236Y324469D01*
X429178Y324549D01*
X429128Y324634D01*
X429062Y324710D01*
X429050Y324726D01*
X429040Y324734D01*
X429022Y324755D01*
X428140Y325636D01*
X427255Y327773D01*
X427255Y330087D01*
X428140Y332224D01*
X429776Y333860D01*
X431913Y334745D01*
X434227Y334745D01*
X436364Y333860D01*
X438000Y332224D01*
X438885Y330087D01*
X438885Y327773D01*
X438000Y325636D01*
X436370Y324007D01*
X436310Y323929D01*
X436242Y323857D01*
X436213Y323804D01*
X436176Y323756D01*
X436136Y323665D01*
X436088Y323578D01*
X436073Y323520D01*
X436049Y323464D01*
X436034Y323366D01*
X436009Y323270D01*
X436003Y323170D01*
X435999Y323150D01*
X436001Y323138D01*
X435999Y323110D01*
X435999Y302162D01*
X435608Y301772D01*
X435548Y301693D01*
X435480Y301621D01*
X435451Y301568D01*
X435414Y301520D01*
X435374Y301429D01*
X435326Y301343D01*
X435311Y301284D01*
X435287Y301229D01*
X435272Y301131D01*
X435247Y301035D01*
X435241Y300935D01*
X435237Y300914D01*
X435239Y300902D01*
X435237Y300874D01*
X435237Y295735D01*
X435246Y295665D01*
X435245Y295593D01*
X435258Y295538D01*
X435259Y295524D01*
X435266Y295502D01*
X435277Y295420D01*
X435303Y295353D01*
X435319Y295284D01*
X435361Y295206D01*
X435394Y295124D01*
X435435Y295066D01*
X435469Y295004D01*
X435528Y294938D01*
X435580Y294867D01*
X435635Y294821D01*
X435683Y294769D01*
X435757Y294720D01*
X435825Y294664D01*
X435890Y294633D01*
X435949Y294595D01*
X436033Y294566D01*
X436113Y294528D01*
X436183Y294515D01*
X436250Y294492D01*
X436339Y294485D01*
X436425Y294468D01*
X436497Y294473D01*
X436567Y294467D01*
X436655Y294483D01*
G37*
G36*
X556359Y294860D02*
X556359Y294860D01*
X556497Y294869D01*
X556516Y294875D01*
X556536Y294877D01*
X556668Y294924D01*
X556799Y294967D01*
X556817Y294978D01*
X556836Y294985D01*
X556951Y295063D01*
X557068Y295137D01*
X557082Y295152D01*
X557099Y295163D01*
X557191Y295268D01*
X557286Y295369D01*
X557296Y295387D01*
X557309Y295402D01*
X557373Y295526D01*
X557440Y295647D01*
X557445Y295667D01*
X557454Y295685D01*
X557484Y295821D01*
X557519Y295955D01*
X557521Y295983D01*
X557524Y295995D01*
X557523Y296016D01*
X557529Y296116D01*
X557529Y313574D01*
X557517Y313672D01*
X557514Y313771D01*
X557497Y313830D01*
X557489Y313890D01*
X557453Y313982D01*
X557425Y314077D01*
X557395Y314129D01*
X557372Y314185D01*
X557314Y314265D01*
X557264Y314351D01*
X557198Y314426D01*
X557186Y314443D01*
X557176Y314451D01*
X557158Y314472D01*
X556767Y314862D01*
X556767Y393076D01*
X556755Y393174D01*
X556752Y393273D01*
X556735Y393331D01*
X556727Y393391D01*
X556691Y393484D01*
X556663Y393579D01*
X556633Y393631D01*
X556610Y393687D01*
X556552Y393767D01*
X556502Y393853D01*
X556436Y393928D01*
X556424Y393945D01*
X556414Y393952D01*
X556396Y393973D01*
X535635Y414734D01*
X535612Y414752D01*
X535593Y414774D01*
X535527Y414821D01*
X535520Y414827D01*
X535509Y414833D01*
X535487Y414849D01*
X535384Y414929D01*
X535357Y414940D01*
X535333Y414957D01*
X535212Y415003D01*
X535092Y415055D01*
X535063Y415059D01*
X535036Y415070D01*
X534907Y415084D01*
X534778Y415105D01*
X534749Y415102D01*
X534719Y415105D01*
X534591Y415087D01*
X534462Y415075D01*
X534434Y415065D01*
X534405Y415061D01*
X534252Y415009D01*
X531864Y414019D01*
X527316Y414019D01*
X523115Y415759D01*
X519899Y418975D01*
X518159Y423176D01*
X518159Y427724D01*
X519464Y430874D01*
X519472Y430903D01*
X519485Y430929D01*
X519514Y431056D01*
X519548Y431181D01*
X519548Y431211D01*
X519555Y431239D01*
X519551Y431369D01*
X519553Y431499D01*
X519546Y431528D01*
X519545Y431557D01*
X519509Y431682D01*
X519479Y431808D01*
X519465Y431835D01*
X519457Y431863D01*
X519391Y431975D01*
X519330Y432090D01*
X519310Y432111D01*
X519295Y432137D01*
X519189Y432258D01*
X513669Y437778D01*
X513591Y437838D01*
X513519Y437906D01*
X513466Y437935D01*
X513418Y437972D01*
X513327Y438012D01*
X513240Y438060D01*
X513182Y438075D01*
X513126Y438099D01*
X513028Y438114D01*
X512932Y438139D01*
X512832Y438145D01*
X512812Y438149D01*
X512800Y438147D01*
X512772Y438149D01*
X509782Y438149D01*
X509713Y438141D01*
X509643Y438142D01*
X509555Y438121D01*
X509466Y438109D01*
X509401Y438084D01*
X509334Y438067D01*
X509254Y438025D01*
X509171Y437992D01*
X509114Y437951D01*
X509052Y437919D01*
X508986Y437858D01*
X508913Y437806D01*
X508869Y437752D01*
X508817Y437705D01*
X508768Y437630D01*
X508710Y437561D01*
X508681Y437497D01*
X508642Y437439D01*
X508613Y437354D01*
X508575Y437273D01*
X508562Y437204D01*
X508539Y437138D01*
X508532Y437049D01*
X508515Y436961D01*
X508520Y436891D01*
X508514Y436821D01*
X508529Y436733D01*
X508535Y436643D01*
X508556Y436577D01*
X508568Y436508D01*
X508605Y436426D01*
X508633Y436341D01*
X508670Y436282D01*
X508699Y436218D01*
X508755Y436148D01*
X508803Y436072D01*
X508854Y436024D01*
X508898Y435970D01*
X508969Y435915D01*
X509035Y435854D01*
X509096Y435820D01*
X509152Y435778D01*
X509296Y435707D01*
X510665Y435141D01*
X513880Y431925D01*
X515620Y427724D01*
X515620Y423176D01*
X514631Y420788D01*
X514623Y420759D01*
X514610Y420733D01*
X514581Y420606D01*
X514547Y420481D01*
X514547Y420451D01*
X514540Y420422D01*
X514544Y420293D01*
X514542Y420163D01*
X514549Y420134D01*
X514550Y420105D01*
X514586Y419980D01*
X514616Y419854D01*
X514630Y419827D01*
X514638Y419799D01*
X514704Y419687D01*
X514765Y419572D01*
X514785Y419551D01*
X514800Y419525D01*
X514906Y419404D01*
X540464Y393846D01*
X542771Y391540D01*
X542771Y362034D01*
X542783Y361936D01*
X542786Y361837D01*
X542803Y361779D01*
X542810Y361719D01*
X542847Y361626D01*
X542874Y361531D01*
X542905Y361479D01*
X542927Y361423D01*
X542986Y361343D01*
X543036Y361257D01*
X543102Y361182D01*
X543114Y361166D01*
X543124Y361158D01*
X543142Y361137D01*
X544397Y359882D01*
X545283Y357744D01*
X545283Y355431D01*
X544397Y353294D01*
X542762Y351658D01*
X540624Y350773D01*
X538311Y350773D01*
X536174Y351658D01*
X534538Y353294D01*
X533653Y355431D01*
X533653Y357744D01*
X534538Y359882D01*
X535793Y361137D01*
X535854Y361215D01*
X535922Y361287D01*
X535951Y361340D01*
X535988Y361388D01*
X536028Y361479D01*
X536075Y361565D01*
X536091Y361624D01*
X536115Y361680D01*
X536130Y361778D01*
X536155Y361873D01*
X536161Y361973D01*
X536164Y361994D01*
X536163Y362006D01*
X536165Y362034D01*
X536165Y388278D01*
X536153Y388376D01*
X536150Y388475D01*
X536133Y388534D01*
X536125Y388594D01*
X536089Y388686D01*
X536061Y388781D01*
X536030Y388833D01*
X536008Y388889D01*
X535950Y388969D01*
X535900Y389055D01*
X535833Y389130D01*
X535821Y389147D01*
X535812Y389154D01*
X535793Y389176D01*
X510235Y414734D01*
X510212Y414752D01*
X510193Y414774D01*
X510127Y414821D01*
X510120Y414827D01*
X510109Y414833D01*
X510087Y414849D01*
X509984Y414929D01*
X509957Y414940D01*
X509933Y414957D01*
X509812Y415003D01*
X509692Y415055D01*
X509663Y415059D01*
X509636Y415070D01*
X509507Y415084D01*
X509378Y415105D01*
X509349Y415102D01*
X509319Y415105D01*
X509191Y415087D01*
X509062Y415075D01*
X509034Y415065D01*
X509005Y415061D01*
X508852Y415009D01*
X506464Y414019D01*
X501916Y414019D01*
X497715Y415759D01*
X494499Y418975D01*
X492759Y423176D01*
X492759Y427724D01*
X494064Y430874D01*
X494072Y430903D01*
X494085Y430929D01*
X494114Y431056D01*
X494148Y431181D01*
X494148Y431211D01*
X494155Y431239D01*
X494151Y431369D01*
X494153Y431499D01*
X494146Y431528D01*
X494145Y431557D01*
X494109Y431682D01*
X494079Y431808D01*
X494065Y431835D01*
X494057Y431863D01*
X493991Y431975D01*
X493930Y432090D01*
X493910Y432111D01*
X493895Y432137D01*
X493789Y432258D01*
X492926Y433121D01*
X492847Y433182D01*
X492775Y433249D01*
X492722Y433279D01*
X492674Y433316D01*
X492583Y433355D01*
X492497Y433403D01*
X492438Y433418D01*
X492383Y433442D01*
X492285Y433458D01*
X492189Y433482D01*
X492089Y433489D01*
X492068Y433492D01*
X492056Y433491D01*
X492028Y433493D01*
X489730Y433493D01*
X489681Y433486D01*
X489632Y433489D01*
X489524Y433467D01*
X489415Y433453D01*
X489369Y433435D01*
X489320Y433424D01*
X489221Y433376D01*
X489119Y433336D01*
X489079Y433307D01*
X489034Y433285D01*
X488951Y433213D01*
X488862Y433149D01*
X488830Y433111D01*
X488792Y433078D01*
X488729Y432989D01*
X488659Y432904D01*
X488638Y432859D01*
X488609Y432818D01*
X488570Y432716D01*
X488524Y432616D01*
X488514Y432568D01*
X488497Y432521D01*
X488484Y432412D01*
X488464Y432304D01*
X488467Y432254D01*
X488461Y432205D01*
X488477Y432096D01*
X488484Y431987D01*
X488499Y431939D01*
X488506Y431890D01*
X488558Y431738D01*
X490220Y427724D01*
X490220Y423176D01*
X489231Y420788D01*
X489223Y420759D01*
X489210Y420733D01*
X489181Y420606D01*
X489147Y420481D01*
X489147Y420451D01*
X489140Y420423D01*
X489144Y420293D01*
X489142Y420163D01*
X489149Y420134D01*
X489150Y420105D01*
X489186Y419980D01*
X489216Y419854D01*
X489230Y419827D01*
X489238Y419799D01*
X489304Y419687D01*
X489365Y419572D01*
X489385Y419551D01*
X489400Y419525D01*
X489506Y419404D01*
X526543Y382368D01*
X526543Y341689D01*
X526555Y341591D01*
X526558Y341492D01*
X526575Y341434D01*
X526583Y341374D01*
X526619Y341282D01*
X526647Y341187D01*
X526677Y341134D01*
X526700Y341078D01*
X526758Y340998D01*
X526808Y340913D01*
X526874Y340837D01*
X526886Y340821D01*
X526896Y340813D01*
X526914Y340792D01*
X550673Y317034D01*
X550673Y299488D01*
X550676Y299459D01*
X550674Y299429D01*
X550696Y299301D01*
X550713Y299173D01*
X550723Y299145D01*
X550728Y299116D01*
X550782Y298997D01*
X550830Y298877D01*
X550847Y298853D01*
X550859Y298826D01*
X550940Y298725D01*
X551016Y298620D01*
X551039Y298601D01*
X551058Y298578D01*
X551161Y298500D01*
X551261Y298417D01*
X551288Y298404D01*
X551312Y298386D01*
X551456Y298315D01*
X552838Y297743D01*
X555363Y295218D01*
X555472Y295133D01*
X555579Y295045D01*
X555598Y295036D01*
X555614Y295024D01*
X555742Y294968D01*
X555867Y294909D01*
X555887Y294905D01*
X555906Y294897D01*
X556044Y294875D01*
X556180Y294849D01*
X556200Y294851D01*
X556220Y294847D01*
X556359Y294860D01*
G37*
%LPC*%
G36*
X330454Y399315D02*
X330454Y399315D01*
X328317Y400200D01*
X327062Y401456D01*
X326984Y401516D01*
X326912Y401584D01*
X326859Y401613D01*
X326811Y401650D01*
X326720Y401690D01*
X326633Y401738D01*
X326575Y401753D01*
X326519Y401777D01*
X326421Y401792D01*
X326325Y401817D01*
X326225Y401823D01*
X326205Y401827D01*
X326193Y401825D01*
X326165Y401827D01*
X204616Y401827D01*
X151235Y455208D01*
X151212Y455226D01*
X151193Y455248D01*
X151087Y455323D01*
X150984Y455403D01*
X150957Y455414D01*
X150933Y455431D01*
X150812Y455477D01*
X150692Y455529D01*
X150663Y455534D01*
X150635Y455544D01*
X150506Y455558D01*
X150378Y455579D01*
X150349Y455576D01*
X150319Y455579D01*
X150191Y455561D01*
X150062Y455549D01*
X150034Y455539D01*
X150004Y455535D01*
X149852Y455483D01*
X148471Y454911D01*
X144630Y454911D01*
X141083Y456380D01*
X127591Y469872D01*
X126122Y473419D01*
X126122Y477260D01*
X127591Y480807D01*
X130306Y483523D01*
X133854Y484992D01*
X137694Y484992D01*
X141242Y483523D01*
X154734Y470031D01*
X156203Y466483D01*
X156203Y462643D01*
X155631Y461262D01*
X155623Y461233D01*
X155610Y461207D01*
X155581Y461080D01*
X155547Y460955D01*
X155547Y460925D01*
X155540Y460897D01*
X155544Y460767D01*
X155542Y460637D01*
X155549Y460608D01*
X155550Y460579D01*
X155586Y460454D01*
X155616Y460328D01*
X155630Y460302D01*
X155638Y460273D01*
X155704Y460161D01*
X155765Y460047D01*
X155785Y460025D01*
X155800Y459999D01*
X155835Y459959D01*
X155838Y459955D01*
X155843Y459950D01*
X155906Y459878D01*
X206980Y408804D01*
X207058Y408744D01*
X207131Y408676D01*
X207184Y408647D01*
X207231Y408610D01*
X207322Y408570D01*
X207409Y408522D01*
X207468Y408507D01*
X207523Y408483D01*
X207621Y408468D01*
X207717Y408443D01*
X207817Y408437D01*
X207837Y408433D01*
X207850Y408435D01*
X207878Y408433D01*
X326165Y408433D01*
X326263Y408445D01*
X326362Y408448D01*
X326420Y408465D01*
X326480Y408473D01*
X326572Y408509D01*
X326667Y408537D01*
X326720Y408567D01*
X326776Y408590D01*
X326856Y408648D01*
X326941Y408698D01*
X327017Y408764D01*
X327033Y408776D01*
X327041Y408786D01*
X327062Y408804D01*
X328317Y410060D01*
X330454Y410945D01*
X332768Y410945D01*
X334905Y410060D01*
X336540Y408424D01*
X337426Y406287D01*
X337426Y403973D01*
X336540Y401836D01*
X334905Y400200D01*
X332768Y399315D01*
X330454Y399315D01*
G37*
%LPD*%
%LPC*%
G36*
X425716Y414019D02*
X425716Y414019D01*
X421515Y415759D01*
X418299Y418975D01*
X416559Y423176D01*
X416559Y427724D01*
X418299Y431925D01*
X421515Y435141D01*
X425716Y436881D01*
X430264Y436881D01*
X433414Y435576D01*
X433443Y435568D01*
X433469Y435554D01*
X433596Y435526D01*
X433721Y435492D01*
X433750Y435491D01*
X433779Y435485D01*
X433909Y435489D01*
X434039Y435487D01*
X434068Y435494D01*
X434097Y435494D01*
X434222Y435530D01*
X434348Y435561D01*
X434374Y435575D01*
X434403Y435583D01*
X434514Y435649D01*
X434629Y435710D01*
X434651Y435729D01*
X434677Y435744D01*
X434797Y435851D01*
X439874Y440928D01*
X439935Y441006D01*
X440003Y441078D01*
X440032Y441131D01*
X440069Y441179D01*
X440109Y441270D01*
X440157Y441357D01*
X440172Y441415D01*
X440196Y441471D01*
X440211Y441569D01*
X440236Y441665D01*
X440242Y441765D01*
X440246Y441785D01*
X440244Y441797D01*
X440246Y441825D01*
X440246Y446183D01*
X440234Y446281D01*
X440231Y446380D01*
X440214Y446439D01*
X440206Y446499D01*
X440170Y446591D01*
X440142Y446686D01*
X440112Y446738D01*
X440089Y446794D01*
X440031Y446874D01*
X439981Y446960D01*
X439915Y447035D01*
X439903Y447052D01*
X439893Y447059D01*
X439874Y447081D01*
X439254Y447701D01*
X439254Y462385D01*
X440445Y463576D01*
X445129Y463576D01*
X446320Y462385D01*
X446320Y447701D01*
X445699Y447081D01*
X445639Y447002D01*
X445571Y446930D01*
X445542Y446877D01*
X445505Y446829D01*
X445465Y446738D01*
X445417Y446652D01*
X445402Y446593D01*
X445378Y446537D01*
X445363Y446439D01*
X445338Y446344D01*
X445332Y446244D01*
X445328Y446223D01*
X445329Y446211D01*
X445328Y446183D01*
X445328Y439195D01*
X438391Y432258D01*
X438372Y432234D01*
X438350Y432215D01*
X438275Y432109D01*
X438196Y432006D01*
X438184Y431979D01*
X438167Y431955D01*
X438121Y431834D01*
X438069Y431715D01*
X438065Y431685D01*
X438054Y431658D01*
X438040Y431529D01*
X438019Y431400D01*
X438022Y431371D01*
X438019Y431342D01*
X438037Y431213D01*
X438049Y431084D01*
X438059Y431056D01*
X438063Y431027D01*
X438115Y430874D01*
X439420Y427724D01*
X439420Y423176D01*
X437680Y418975D01*
X434465Y415759D01*
X430264Y414019D01*
X425716Y414019D01*
G37*
%LPD*%
%LPC*%
G36*
X102220Y260857D02*
X102220Y260857D01*
X98672Y262327D01*
X95957Y265042D01*
X94487Y268590D01*
X94487Y287670D01*
X95957Y291218D01*
X98672Y293933D01*
X102220Y295403D01*
X106060Y295403D01*
X109608Y293933D01*
X112323Y291218D01*
X113793Y287670D01*
X113793Y268590D01*
X112323Y265042D01*
X109608Y262327D01*
X106060Y260857D01*
X102220Y260857D01*
G37*
%LPD*%
%LPC*%
G36*
X771510Y436823D02*
X771510Y436823D01*
X767962Y438292D01*
X765247Y441008D01*
X763777Y444556D01*
X763777Y448396D01*
X765247Y451943D01*
X767962Y454659D01*
X771510Y456128D01*
X790590Y456128D01*
X794138Y454659D01*
X796853Y451943D01*
X798323Y448396D01*
X798323Y444556D01*
X796853Y441008D01*
X794138Y438292D01*
X790590Y436823D01*
X771510Y436823D01*
G37*
%LPD*%
%LPC*%
G36*
X82295Y156971D02*
X82295Y156971D01*
X82295Y158242D01*
X82280Y158360D01*
X82273Y158479D01*
X82260Y158517D01*
X82255Y158557D01*
X82211Y158668D01*
X82175Y158781D01*
X82153Y158816D01*
X82138Y158853D01*
X82068Y158949D01*
X82005Y159050D01*
X81975Y159078D01*
X81951Y159111D01*
X81860Y159186D01*
X81773Y159268D01*
X81738Y159288D01*
X81706Y159313D01*
X81599Y159364D01*
X81494Y159422D01*
X81455Y159432D01*
X81419Y159449D01*
X81302Y159471D01*
X81187Y159501D01*
X81126Y159505D01*
X81106Y159509D01*
X81086Y159507D01*
X81026Y159511D01*
X70611Y159511D01*
X70651Y159768D01*
X71232Y161555D01*
X72085Y163229D01*
X73190Y164750D01*
X74518Y166078D01*
X76039Y167183D01*
X77791Y168076D01*
X77865Y168126D01*
X77944Y168168D01*
X77996Y168215D01*
X78054Y168254D01*
X78113Y168321D01*
X78179Y168382D01*
X78218Y168440D01*
X78264Y168493D01*
X78305Y168573D01*
X78354Y168647D01*
X78377Y168714D01*
X78409Y168776D01*
X78428Y168863D01*
X78457Y168948D01*
X78463Y169018D01*
X78478Y169086D01*
X78475Y169176D01*
X78482Y169265D01*
X78470Y169334D01*
X78468Y169404D01*
X78443Y169490D01*
X78428Y169579D01*
X78399Y169642D01*
X78380Y169710D01*
X78334Y169787D01*
X78297Y169869D01*
X78254Y169923D01*
X78218Y169984D01*
X78155Y170047D01*
X78099Y170117D01*
X78043Y170159D01*
X77993Y170209D01*
X77916Y170254D01*
X77845Y170308D01*
X77732Y170363D01*
X77720Y170371D01*
X77713Y170373D01*
X77700Y170379D01*
X75821Y171157D01*
X72605Y174373D01*
X70865Y178574D01*
X70865Y183122D01*
X72605Y187323D01*
X75821Y190539D01*
X80022Y192279D01*
X84570Y192279D01*
X88771Y190539D01*
X91987Y187323D01*
X93727Y183122D01*
X93727Y178574D01*
X91987Y174373D01*
X88771Y171157D01*
X86892Y170379D01*
X86814Y170335D01*
X86732Y170299D01*
X86677Y170256D01*
X86616Y170222D01*
X86551Y170159D01*
X86481Y170104D01*
X86438Y170049D01*
X86387Y170000D01*
X86340Y169924D01*
X86285Y169853D01*
X86258Y169789D01*
X86221Y169729D01*
X86195Y169644D01*
X86159Y169561D01*
X86148Y169492D01*
X86127Y169425D01*
X86123Y169336D01*
X86109Y169247D01*
X86116Y169178D01*
X86112Y169108D01*
X86130Y169020D01*
X86139Y168931D01*
X86162Y168865D01*
X86176Y168796D01*
X86216Y168715D01*
X86246Y168631D01*
X86285Y168574D01*
X86316Y168510D01*
X86374Y168442D01*
X86424Y168368D01*
X86477Y168322D01*
X86523Y168268D01*
X86596Y168217D01*
X86663Y168158D01*
X86770Y168094D01*
X86783Y168085D01*
X86789Y168083D01*
X86801Y168076D01*
X88553Y167183D01*
X90074Y166078D01*
X91402Y164750D01*
X92507Y163229D01*
X93360Y161555D01*
X93941Y159768D01*
X93981Y159511D01*
X83566Y159511D01*
X83448Y159496D01*
X83329Y159489D01*
X83291Y159476D01*
X83251Y159471D01*
X83140Y159428D01*
X83027Y159391D01*
X82993Y159369D01*
X82955Y159354D01*
X82859Y159284D01*
X82758Y159221D01*
X82730Y159191D01*
X82698Y159167D01*
X82622Y159076D01*
X82540Y158989D01*
X82521Y158954D01*
X82495Y158923D01*
X82444Y158815D01*
X82387Y158711D01*
X82376Y158671D01*
X82359Y158635D01*
X82337Y158518D01*
X82307Y158403D01*
X82303Y158342D01*
X82299Y158322D01*
X82301Y158302D01*
X82297Y158242D01*
X82297Y156971D01*
X82295Y156971D01*
G37*
%LPD*%
%LPC*%
G36*
X748650Y279907D02*
X748650Y279907D01*
X745102Y281377D01*
X742387Y284092D01*
X740917Y287640D01*
X740917Y291480D01*
X742387Y295028D01*
X745102Y297743D01*
X748650Y299213D01*
X752490Y299213D01*
X753872Y298640D01*
X753900Y298633D01*
X753926Y298619D01*
X754053Y298591D01*
X754178Y298557D01*
X754208Y298556D01*
X754237Y298550D01*
X754366Y298554D01*
X754496Y298551D01*
X754525Y298558D01*
X754555Y298559D01*
X754679Y298595D01*
X754806Y298626D01*
X754832Y298639D01*
X754860Y298648D01*
X754972Y298714D01*
X755087Y298774D01*
X755109Y298794D01*
X755134Y298809D01*
X755255Y298916D01*
X764676Y308336D01*
X764736Y308415D01*
X764804Y308487D01*
X764833Y308540D01*
X764870Y308588D01*
X764910Y308679D01*
X764958Y308765D01*
X764973Y308824D01*
X764997Y308879D01*
X765012Y308977D01*
X765037Y309073D01*
X765043Y309173D01*
X765047Y309194D01*
X765045Y309206D01*
X765047Y309234D01*
X765047Y310784D01*
X765035Y310882D01*
X765032Y310981D01*
X765015Y311039D01*
X765007Y311099D01*
X764971Y311191D01*
X764943Y311286D01*
X764913Y311339D01*
X764890Y311395D01*
X764832Y311475D01*
X764782Y311560D01*
X764716Y311636D01*
X764704Y311652D01*
X764694Y311660D01*
X764676Y311681D01*
X763420Y312936D01*
X762535Y315073D01*
X762535Y317387D01*
X763420Y319524D01*
X765056Y321160D01*
X767193Y322045D01*
X769507Y322045D01*
X771644Y321160D01*
X773280Y319524D01*
X774165Y317387D01*
X774165Y315073D01*
X773280Y312936D01*
X772024Y311681D01*
X771964Y311603D01*
X771896Y311531D01*
X771867Y311478D01*
X771830Y311430D01*
X771790Y311339D01*
X771742Y311252D01*
X771727Y311194D01*
X771703Y311138D01*
X771688Y311040D01*
X771663Y310944D01*
X771657Y310844D01*
X771653Y310824D01*
X771655Y310812D01*
X771653Y310784D01*
X771653Y305972D01*
X759926Y294245D01*
X759908Y294222D01*
X759885Y294202D01*
X759810Y294096D01*
X759731Y293994D01*
X759719Y293966D01*
X759702Y293942D01*
X759656Y293821D01*
X759604Y293702D01*
X759600Y293673D01*
X759589Y293645D01*
X759575Y293516D01*
X759554Y293388D01*
X759557Y293358D01*
X759554Y293329D01*
X759572Y293200D01*
X759584Y293071D01*
X759594Y293043D01*
X759598Y293014D01*
X759650Y292862D01*
X760223Y291480D01*
X760223Y287640D01*
X758753Y284092D01*
X756038Y281377D01*
X752490Y279907D01*
X748650Y279907D01*
G37*
%LPD*%
%LPC*%
G36*
X517261Y475272D02*
X517261Y475272D01*
X516516Y476016D01*
X516516Y499069D01*
X517261Y499814D01*
X536313Y499814D01*
X537058Y499069D01*
X537058Y476016D01*
X536313Y475272D01*
X517261Y475272D01*
G37*
%LPD*%
%LPC*%
G36*
X399261Y475272D02*
X399261Y475272D01*
X398516Y476016D01*
X398516Y499069D01*
X399261Y499814D01*
X418313Y499814D01*
X419058Y499069D01*
X419058Y476016D01*
X418313Y475272D01*
X399261Y475272D01*
G37*
%LPD*%
%LPC*%
G36*
X34810Y80517D02*
X34810Y80517D01*
X30609Y82257D01*
X27393Y85473D01*
X25653Y89674D01*
X25653Y94222D01*
X27393Y98423D01*
X30609Y101639D01*
X34810Y103379D01*
X39358Y103379D01*
X43559Y101639D01*
X46775Y98423D01*
X48515Y94222D01*
X48515Y89674D01*
X46775Y85473D01*
X43559Y82257D01*
X39358Y80517D01*
X34810Y80517D01*
G37*
%LPD*%
%LPC*%
G36*
X349516Y414019D02*
X349516Y414019D01*
X345315Y415759D01*
X342099Y418975D01*
X340359Y423176D01*
X340359Y427724D01*
X342099Y431925D01*
X345315Y435141D01*
X349516Y436881D01*
X354064Y436881D01*
X358265Y435141D01*
X361480Y431925D01*
X363220Y427724D01*
X363220Y423176D01*
X361480Y418975D01*
X358265Y415759D01*
X354064Y414019D01*
X349516Y414019D01*
G37*
%LPD*%
%LPC*%
G36*
X80022Y80517D02*
X80022Y80517D01*
X75821Y82257D01*
X72605Y85473D01*
X70865Y89674D01*
X70865Y94222D01*
X72605Y98423D01*
X75821Y101639D01*
X80022Y103379D01*
X84570Y103379D01*
X88771Y101639D01*
X91987Y98423D01*
X93727Y94222D01*
X93727Y89674D01*
X91987Y85473D01*
X88771Y82257D01*
X84570Y80517D01*
X80022Y80517D01*
G37*
%LPD*%
%LPC*%
G36*
X259508Y254507D02*
X259508Y254507D01*
X258317Y255698D01*
X258317Y272622D01*
X259508Y273813D01*
X276432Y273813D01*
X277623Y272622D01*
X277623Y255698D01*
X276432Y254507D01*
X259508Y254507D01*
G37*
%LPD*%
%LPC*%
G36*
X367650Y254507D02*
X367650Y254507D01*
X364102Y255977D01*
X361387Y258692D01*
X359917Y262240D01*
X359917Y266080D01*
X361387Y269628D01*
X364102Y272343D01*
X367650Y273813D01*
X371490Y273813D01*
X375038Y272343D01*
X377753Y269628D01*
X379223Y266080D01*
X379223Y262240D01*
X377753Y258692D01*
X375038Y255977D01*
X371490Y254507D01*
X367650Y254507D01*
G37*
%LPD*%
%LPC*%
G36*
X748650Y254507D02*
X748650Y254507D01*
X745102Y255977D01*
X742387Y258692D01*
X740917Y262240D01*
X740917Y266080D01*
X742387Y269628D01*
X745102Y272343D01*
X748650Y273813D01*
X752490Y273813D01*
X756038Y272343D01*
X758753Y269628D01*
X760223Y266080D01*
X760223Y262240D01*
X758753Y258692D01*
X756038Y255977D01*
X752490Y254507D01*
X748650Y254507D01*
G37*
%LPD*%
%LPC*%
G36*
X596250Y254507D02*
X596250Y254507D01*
X592702Y255977D01*
X589987Y258692D01*
X588517Y262240D01*
X588517Y266080D01*
X589987Y269628D01*
X592702Y272343D01*
X596250Y273813D01*
X600090Y273813D01*
X603638Y272343D01*
X606353Y269628D01*
X607823Y266080D01*
X607823Y262240D01*
X606353Y258692D01*
X603638Y255977D01*
X600090Y254507D01*
X596250Y254507D01*
G37*
%LPD*%
%LPC*%
G36*
X291450Y254507D02*
X291450Y254507D01*
X287902Y255977D01*
X285187Y258692D01*
X283717Y262240D01*
X283717Y266080D01*
X285187Y269628D01*
X287902Y272343D01*
X291450Y273813D01*
X295290Y273813D01*
X298838Y272343D01*
X301553Y269628D01*
X303023Y266080D01*
X303023Y262240D01*
X301553Y258692D01*
X298838Y255977D01*
X295290Y254507D01*
X291450Y254507D01*
G37*
%LPD*%
%LPC*%
G36*
X570850Y254507D02*
X570850Y254507D01*
X567302Y255977D01*
X564587Y258692D01*
X563117Y262240D01*
X563117Y266080D01*
X564587Y269628D01*
X567302Y272343D01*
X570850Y273813D01*
X574690Y273813D01*
X578238Y272343D01*
X580953Y269628D01*
X582423Y266080D01*
X582423Y262240D01*
X580953Y258692D01*
X578238Y255977D01*
X574690Y254507D01*
X570850Y254507D01*
G37*
%LPD*%
%LPC*%
G36*
X316850Y254507D02*
X316850Y254507D01*
X313302Y255977D01*
X310587Y258692D01*
X309117Y262240D01*
X309117Y266080D01*
X310587Y269628D01*
X313302Y272343D01*
X316850Y273813D01*
X320690Y273813D01*
X324238Y272343D01*
X326953Y269628D01*
X328423Y266080D01*
X328423Y262240D01*
X326953Y258692D01*
X324238Y255977D01*
X320690Y254507D01*
X316850Y254507D01*
G37*
%LPD*%
%LPC*%
G36*
X342250Y279907D02*
X342250Y279907D01*
X338702Y281377D01*
X335987Y284092D01*
X334517Y287640D01*
X334517Y291480D01*
X335987Y295028D01*
X338702Y297743D01*
X342250Y299213D01*
X346090Y299213D01*
X349638Y297743D01*
X352353Y295028D01*
X353823Y291480D01*
X353823Y287640D01*
X352353Y284092D01*
X349638Y281377D01*
X346090Y279907D01*
X342250Y279907D01*
G37*
%LPD*%
%LPC*%
G36*
X342250Y254507D02*
X342250Y254507D01*
X338702Y255977D01*
X335987Y258692D01*
X334517Y262240D01*
X334517Y266080D01*
X335987Y269628D01*
X338702Y272343D01*
X342250Y273813D01*
X346090Y273813D01*
X349638Y272343D01*
X352353Y269628D01*
X353823Y266080D01*
X353823Y262240D01*
X352353Y258692D01*
X349638Y255977D01*
X346090Y254507D01*
X342250Y254507D01*
G37*
%LPD*%
%LPC*%
G36*
X305840Y495379D02*
X305840Y495379D01*
X303069Y496527D01*
X300947Y498649D01*
X299799Y501420D01*
X299799Y504420D01*
X300947Y507191D01*
X303069Y509313D01*
X305840Y510461D01*
X308840Y510461D01*
X311611Y509313D01*
X313733Y507191D01*
X314881Y504420D01*
X314881Y501420D01*
X313733Y498649D01*
X311611Y496527D01*
X308840Y495379D01*
X305840Y495379D01*
G37*
%LPD*%
%LPC*%
G36*
X49300Y495379D02*
X49300Y495379D01*
X46529Y496527D01*
X44407Y498649D01*
X43259Y501420D01*
X43259Y504420D01*
X44407Y507191D01*
X46529Y509313D01*
X49300Y510461D01*
X52300Y510461D01*
X55071Y509313D01*
X57193Y507191D01*
X58341Y504420D01*
X58341Y501420D01*
X57193Y498649D01*
X55071Y496527D01*
X52300Y495379D01*
X49300Y495379D01*
G37*
%LPD*%
%LPC*%
G36*
X595400Y495379D02*
X595400Y495379D01*
X592629Y496527D01*
X590507Y498649D01*
X589359Y501420D01*
X589359Y504420D01*
X590507Y507191D01*
X592629Y509313D01*
X595400Y510461D01*
X598400Y510461D01*
X601171Y509313D01*
X603293Y507191D01*
X604441Y504420D01*
X604441Y501420D01*
X603293Y498649D01*
X601171Y496527D01*
X598400Y495379D01*
X595400Y495379D01*
G37*
%LPD*%
%LPC*%
G36*
X783589Y476955D02*
X783589Y476955D01*
X783589Y484576D01*
X789470Y484576D01*
X791049Y484326D01*
X792570Y483832D01*
X793995Y483106D01*
X795289Y482166D01*
X796420Y481035D01*
X797360Y479741D01*
X798086Y478316D01*
X798529Y476955D01*
X783589Y476955D01*
G37*
%LPD*%
%LPC*%
G36*
X134619Y280669D02*
X134619Y280669D01*
X134619Y295609D01*
X135980Y295166D01*
X137405Y294440D01*
X138699Y293500D01*
X139830Y292369D01*
X140770Y291075D01*
X141496Y289650D01*
X141991Y288129D01*
X142241Y286550D01*
X142241Y280669D01*
X134619Y280669D01*
G37*
%LPD*%
%LPC*%
G36*
X763571Y476955D02*
X763571Y476955D01*
X764014Y478316D01*
X764740Y479741D01*
X765680Y481035D01*
X766811Y482166D01*
X768105Y483106D01*
X769530Y483832D01*
X771051Y484326D01*
X772630Y484576D01*
X778511Y484576D01*
X778511Y476955D01*
X763571Y476955D01*
G37*
%LPD*%
%LPC*%
G36*
X134619Y275591D02*
X134619Y275591D01*
X142241Y275591D01*
X142241Y269710D01*
X141991Y268131D01*
X141496Y266610D01*
X140770Y265185D01*
X139830Y263891D01*
X138699Y262760D01*
X137405Y261820D01*
X135980Y261094D01*
X134619Y260651D01*
X134619Y275591D01*
G37*
%LPD*%
%LPC*%
G36*
X783589Y464255D02*
X783589Y464255D01*
X783589Y471876D01*
X798529Y471876D01*
X798086Y470515D01*
X797360Y469090D01*
X796420Y467796D01*
X795289Y466665D01*
X793995Y465725D01*
X792570Y464999D01*
X791049Y464505D01*
X789470Y464255D01*
X783589Y464255D01*
G37*
%LPD*%
%LPC*%
G36*
X121919Y280669D02*
X121919Y280669D01*
X121919Y286550D01*
X122169Y288129D01*
X122664Y289650D01*
X123390Y291075D01*
X124330Y292369D01*
X125461Y293500D01*
X126755Y294440D01*
X128180Y295166D01*
X129541Y295609D01*
X129541Y280669D01*
X121919Y280669D01*
G37*
%LPD*%
%LPC*%
G36*
X128180Y261094D02*
X128180Y261094D01*
X126755Y261820D01*
X125461Y262760D01*
X124330Y263891D01*
X123390Y265185D01*
X122664Y266610D01*
X122169Y268131D01*
X121919Y269710D01*
X121919Y275591D01*
X129541Y275591D01*
X129541Y260651D01*
X128180Y261094D01*
G37*
%LPD*%
%LPC*%
G36*
X772630Y464255D02*
X772630Y464255D01*
X771051Y464505D01*
X769530Y464999D01*
X768105Y465725D01*
X766811Y466665D01*
X765680Y467796D01*
X764740Y469090D01*
X764014Y470515D01*
X763571Y471876D01*
X778511Y471876D01*
X778511Y464255D01*
X772630Y464255D01*
G37*
%LPD*%
%LPC*%
G36*
X110842Y464350D02*
X110842Y464350D01*
X112117Y464999D01*
X113638Y465494D01*
X115218Y465744D01*
X116817Y465744D01*
X118397Y465494D01*
X119918Y464999D01*
X121343Y464273D01*
X122637Y463333D01*
X126795Y459175D01*
X121406Y453786D01*
X110842Y464350D01*
G37*
%LPD*%
%LPC*%
G36*
X124997Y450195D02*
X124997Y450195D01*
X130386Y455584D01*
X134544Y451426D01*
X135484Y450132D01*
X136210Y448707D01*
X136705Y447186D01*
X136955Y445606D01*
X136955Y444007D01*
X136705Y442427D01*
X136210Y440906D01*
X135561Y439631D01*
X124997Y450195D01*
G37*
%LPD*%
%LPC*%
G36*
X125994Y434646D02*
X125994Y434646D01*
X124415Y434896D01*
X122894Y435390D01*
X121469Y436117D01*
X120175Y437057D01*
X116017Y441215D01*
X121406Y446604D01*
X131970Y436040D01*
X130694Y435390D01*
X129173Y434896D01*
X127594Y434646D01*
X125994Y434646D01*
G37*
%LPD*%
%LPC*%
G36*
X108267Y448964D02*
X108267Y448964D01*
X107327Y450258D01*
X106601Y451683D01*
X106107Y453204D01*
X105857Y454783D01*
X105857Y456383D01*
X106107Y457962D01*
X106601Y459483D01*
X107251Y460759D01*
X117815Y450195D01*
X112426Y444806D01*
X108267Y448964D01*
G37*
%LPD*%
%LPC*%
G36*
X39623Y248411D02*
X39623Y248411D01*
X39623Y257557D01*
X39880Y257517D01*
X41667Y256936D01*
X43341Y256083D01*
X44862Y254978D01*
X46190Y253650D01*
X47295Y252129D01*
X48148Y250455D01*
X48729Y248668D01*
X48769Y248411D01*
X39623Y248411D01*
G37*
%LPD*%
%LPC*%
G36*
X582929Y427989D02*
X582929Y427989D01*
X582929Y437135D01*
X583185Y437095D01*
X584973Y436514D01*
X586647Y435661D01*
X588167Y434556D01*
X589496Y433228D01*
X590601Y431707D01*
X591454Y430033D01*
X592035Y428246D01*
X592075Y427989D01*
X582929Y427989D01*
G37*
%LPD*%
%LPC*%
G36*
X582929Y422911D02*
X582929Y422911D01*
X592075Y422911D01*
X592035Y422654D01*
X591454Y420867D01*
X590601Y419193D01*
X589496Y417672D01*
X588167Y416344D01*
X586647Y415239D01*
X584973Y414386D01*
X583185Y413805D01*
X582929Y413765D01*
X582929Y422911D01*
G37*
%LPD*%
%LPC*%
G36*
X84835Y154433D02*
X84835Y154433D01*
X93981Y154433D01*
X93941Y154176D01*
X93360Y152389D01*
X92507Y150715D01*
X91402Y149194D01*
X90074Y147866D01*
X88553Y146761D01*
X86879Y145908D01*
X85092Y145327D01*
X84835Y145287D01*
X84835Y154433D01*
G37*
%LPD*%
%LPC*%
G36*
X39623Y243333D02*
X39623Y243333D01*
X48769Y243333D01*
X48729Y243076D01*
X48148Y241289D01*
X47295Y239615D01*
X46190Y238094D01*
X44862Y236766D01*
X43341Y235661D01*
X41667Y234808D01*
X39880Y234227D01*
X39623Y234187D01*
X39623Y243333D01*
G37*
%LPD*%
%LPC*%
G36*
X25399Y248411D02*
X25399Y248411D01*
X25439Y248668D01*
X26020Y250455D01*
X26873Y252129D01*
X27978Y253650D01*
X29306Y254978D01*
X30827Y256083D01*
X32501Y256936D01*
X34288Y257517D01*
X34545Y257557D01*
X34545Y248411D01*
X25399Y248411D01*
G37*
%LPD*%
%LPC*%
G36*
X79500Y145327D02*
X79500Y145327D01*
X77713Y145908D01*
X76039Y146761D01*
X74518Y147866D01*
X73190Y149194D01*
X72085Y150715D01*
X71232Y152389D01*
X70651Y154176D01*
X70611Y154433D01*
X79757Y154433D01*
X79757Y145287D01*
X79500Y145327D01*
G37*
%LPD*%
%LPC*%
G36*
X34288Y234227D02*
X34288Y234227D01*
X32501Y234808D01*
X30827Y235661D01*
X29306Y236766D01*
X27978Y238094D01*
X26873Y239615D01*
X26020Y241289D01*
X25439Y243076D01*
X25399Y243333D01*
X34545Y243333D01*
X34545Y234187D01*
X34288Y234227D01*
G37*
%LPD*%
%LPC*%
G36*
X787730Y309371D02*
X787730Y309371D01*
X785874Y309665D01*
X784087Y310246D01*
X782413Y311099D01*
X782203Y311252D01*
X788670Y317719D01*
X795137Y311252D01*
X794927Y311099D01*
X793253Y310246D01*
X791466Y309665D01*
X789610Y309371D01*
X787730Y309371D01*
G37*
%LPD*%
%LPC*%
G36*
X778459Y315053D02*
X778459Y315053D01*
X777606Y316727D01*
X777025Y318514D01*
X776731Y320370D01*
X776731Y322250D01*
X777025Y324106D01*
X777606Y325893D01*
X778459Y327567D01*
X778612Y327777D01*
X785079Y321310D01*
X778612Y314843D01*
X778459Y315053D01*
G37*
%LPD*%
%LPC*%
G36*
X321309Y292099D02*
X321309Y292099D01*
X321309Y299419D01*
X322670Y298976D01*
X324095Y298250D01*
X325389Y297310D01*
X326520Y296179D01*
X327460Y294885D01*
X328186Y293460D01*
X328629Y292099D01*
X321309Y292099D01*
G37*
%LPD*%
%LPC*%
G36*
X626109Y292099D02*
X626109Y292099D01*
X626109Y299419D01*
X627470Y298976D01*
X628895Y298250D01*
X630189Y297310D01*
X631320Y296179D01*
X632260Y294885D01*
X632986Y293460D01*
X633429Y292099D01*
X626109Y292099D01*
G37*
%LPD*%
%LPC*%
G36*
X308911Y292099D02*
X308911Y292099D01*
X309354Y293460D01*
X310080Y294885D01*
X311020Y296179D01*
X312151Y297310D01*
X313445Y298250D01*
X314870Y298976D01*
X316231Y299419D01*
X316231Y292099D01*
X308911Y292099D01*
G37*
%LPD*%
%LPC*%
G36*
X626109Y287021D02*
X626109Y287021D01*
X633429Y287021D01*
X632986Y285660D01*
X632260Y284235D01*
X631320Y282941D01*
X630189Y281810D01*
X628895Y280870D01*
X627470Y280144D01*
X626109Y279701D01*
X626109Y287021D01*
G37*
%LPD*%
%LPC*%
G36*
X321309Y287021D02*
X321309Y287021D01*
X328629Y287021D01*
X328186Y285660D01*
X327460Y284235D01*
X326520Y282941D01*
X325389Y281810D01*
X324095Y280870D01*
X322670Y280144D01*
X321309Y279701D01*
X321309Y287021D01*
G37*
%LPD*%
%LPC*%
G36*
X314870Y280144D02*
X314870Y280144D01*
X313445Y280870D01*
X312151Y281810D01*
X311020Y282941D01*
X310080Y284235D01*
X309354Y285660D01*
X308911Y287021D01*
X316231Y287021D01*
X316231Y279701D01*
X314870Y280144D01*
G37*
%LPD*%
%LPC*%
G36*
X716249Y342859D02*
X716249Y342859D01*
X716249Y345694D01*
X716422Y346341D01*
X716757Y346920D01*
X717230Y347393D01*
X717809Y347728D01*
X718456Y347901D01*
X721791Y347901D01*
X721791Y342859D01*
X716249Y342859D01*
G37*
%LPD*%
%LPC*%
G36*
X718456Y332819D02*
X718456Y332819D01*
X717809Y332992D01*
X717230Y333327D01*
X716757Y333800D01*
X716422Y334379D01*
X716249Y335026D01*
X716249Y337861D01*
X721791Y337861D01*
X721791Y332819D01*
X718456Y332819D01*
G37*
%LPD*%
%LPC*%
G36*
X693309Y381729D02*
X693309Y381729D01*
X693309Y386271D01*
X696144Y386271D01*
X696791Y386098D01*
X697370Y385763D01*
X697843Y385290D01*
X698178Y384711D01*
X698351Y384064D01*
X698351Y381729D01*
X693309Y381729D01*
G37*
%LPD*%
%LPC*%
G36*
X684269Y381729D02*
X684269Y381729D01*
X684269Y384064D01*
X684442Y384711D01*
X684777Y385290D01*
X685250Y385763D01*
X685829Y386098D01*
X686476Y386271D01*
X689311Y386271D01*
X689311Y381729D01*
X684269Y381729D01*
G37*
%LPD*%
%LPC*%
G36*
X693309Y373189D02*
X693309Y373189D01*
X693309Y377731D01*
X698351Y377731D01*
X698351Y375396D01*
X698178Y374749D01*
X697843Y374170D01*
X697370Y373697D01*
X696791Y373362D01*
X696144Y373189D01*
X693309Y373189D01*
G37*
%LPD*%
%LPC*%
G36*
X686476Y373189D02*
X686476Y373189D01*
X685829Y373362D01*
X685250Y373697D01*
X684777Y374170D01*
X684442Y374749D01*
X684269Y375396D01*
X684269Y377731D01*
X689311Y377731D01*
X689311Y373189D01*
X686476Y373189D01*
G37*
%LPD*%
%LPC*%
G36*
X504056Y456312D02*
X504056Y456312D01*
X504056Y464084D01*
X504621Y464084D01*
X505268Y463910D01*
X505847Y463576D01*
X506320Y463103D01*
X506655Y462524D01*
X506828Y461877D01*
X506828Y456312D01*
X504056Y456312D01*
G37*
%LPD*%
%LPC*%
G36*
X37083Y245871D02*
X37083Y245871D01*
X37083Y245873D01*
X37085Y245873D01*
X37085Y245871D01*
X37083Y245871D01*
G37*
%LPD*%
%LPC*%
G36*
X781049Y474415D02*
X781049Y474415D01*
X781049Y474416D01*
X781051Y474416D01*
X781051Y474415D01*
X781049Y474415D01*
G37*
%LPD*%
%LPC*%
G36*
X132079Y278129D02*
X132079Y278129D01*
X132079Y278131D01*
X132081Y278131D01*
X132081Y278129D01*
X132079Y278129D01*
G37*
%LPD*%
%LPC*%
G36*
X121405Y450195D02*
X121405Y450195D01*
X121406Y450196D01*
X121407Y450195D01*
X121406Y450194D01*
X121405Y450195D01*
G37*
%LPD*%
%LPC*%
G36*
X318769Y289559D02*
X318769Y289559D01*
X318769Y289561D01*
X318771Y289561D01*
X318771Y289559D01*
X318769Y289559D01*
G37*
%LPD*%
D10*
X580390Y425450D03*
X554990Y425450D03*
X529590Y425450D03*
X504190Y425450D03*
X478790Y425450D03*
X453390Y425450D03*
X427990Y425450D03*
X402590Y425450D03*
X377190Y425450D03*
X351790Y425450D03*
D11*
X132080Y323850D02*
X132080Y308610D01*
X104140Y308610D02*
X104140Y323850D01*
X132080Y285750D02*
X132080Y270510D01*
X104140Y270510D02*
X104140Y285750D01*
X773430Y474416D02*
X788670Y474416D01*
X788670Y446476D02*
X773430Y446476D01*
X146551Y464563D02*
X135774Y475340D01*
X116018Y455583D02*
X126794Y444807D01*
D12*
X408940Y381390D03*
X408940Y398390D03*
D10*
X82296Y156972D03*
X82296Y91948D03*
X37084Y156972D03*
X37084Y91948D03*
X82296Y245872D03*
X82296Y180848D03*
X37084Y245872D03*
X37084Y180848D03*
X788670Y321310D03*
X806631Y339271D03*
D12*
X774700Y371230D03*
X774700Y388230D03*
D13*
X731910Y392430D03*
X748910Y392430D03*
X739530Y359410D03*
X756530Y359410D03*
X724290Y340360D03*
X741290Y340360D03*
D14*
X712310Y389230D03*
X712310Y370230D03*
X691310Y379730D03*
D15*
X755910Y417830D03*
X724910Y417830D03*
D16*
X267970Y264160D03*
D17*
X293370Y264160D03*
X318770Y264160D03*
X344170Y264160D03*
X369570Y264160D03*
X394970Y264160D03*
X420370Y264160D03*
X445770Y264160D03*
X471170Y264160D03*
X496570Y264160D03*
X521970Y264160D03*
X547370Y264160D03*
X572770Y264160D03*
X598170Y264160D03*
X623570Y264160D03*
X648970Y264160D03*
X674370Y264160D03*
X699770Y264160D03*
X725170Y264160D03*
X750570Y264160D03*
X267970Y289560D03*
X293370Y289560D03*
X318770Y289560D03*
X344170Y289560D03*
X369570Y289560D03*
X394970Y289560D03*
X420370Y289560D03*
X445770Y289560D03*
X471170Y289560D03*
X496570Y289560D03*
X521970Y289560D03*
X547370Y289560D03*
X572770Y289560D03*
X598170Y289560D03*
X623570Y289560D03*
X648970Y289560D03*
X674370Y289560D03*
X699770Y289560D03*
X725170Y289560D03*
X750570Y289560D03*
D18*
X432787Y455043D03*
X442787Y455043D03*
X452787Y455043D03*
X462787Y455043D03*
X472787Y455043D03*
X482787Y455043D03*
X492787Y455043D03*
X502787Y455043D03*
D19*
X526787Y487543D03*
X408787Y487543D03*
D20*
X377190Y425450D02*
X378850Y423790D01*
D21*
X377190Y425450D02*
X381880Y425450D01*
X408940Y398390D01*
D22*
X377190Y425450D02*
X377190Y428978D01*
D23*
X476532Y400558D03*
D21*
X534670Y276860D02*
X521970Y264160D01*
D20*
X534670Y276860D02*
X534670Y317923D01*
D21*
X508282Y375864D02*
X483588Y400558D01*
X476532Y400558D01*
X508282Y375864D02*
X508282Y344311D01*
X534670Y317923D01*
D20*
X427990Y425450D02*
X442787Y440247D01*
X442787Y455043D01*
X483870Y311150D02*
X483870Y272500D01*
X492210Y264160D02*
X496570Y264160D01*
D21*
X492210Y264160D02*
X483870Y272500D01*
X453390Y404283D02*
X453390Y425450D01*
X453390Y404283D02*
X483870Y373803D01*
X483870Y311150D01*
D22*
X453390Y425450D02*
X452866Y425450D01*
D20*
X453390Y425450D02*
X453390Y454440D01*
X452787Y455043D01*
D21*
X478790Y425450D02*
X523240Y381000D01*
X523240Y339796D01*
X547370Y315666D01*
X547370Y289560D01*
D20*
X478790Y425450D02*
X462787Y441453D01*
X462787Y455043D01*
D23*
X471050Y356609D03*
D20*
X471170Y311150D02*
X471170Y289560D01*
D23*
X539468Y356588D03*
D21*
X539468Y390172D02*
X504190Y425450D01*
X539468Y390172D02*
X539468Y356588D01*
X471170Y356489D02*
X471050Y356609D01*
X471170Y356489D02*
X471170Y311150D01*
D20*
X472787Y450510D02*
X472787Y455043D01*
X487264Y436033D02*
X493606Y436033D01*
X504190Y425450D01*
X487264Y436033D02*
X472787Y450510D01*
X560070Y316230D02*
X560070Y276860D01*
D21*
X547370Y264160D01*
X560070Y394970D02*
X529590Y425450D01*
X560070Y394970D02*
X560070Y316230D01*
D20*
X482787Y447558D02*
X482787Y455043D01*
X482787Y447558D02*
X489655Y440690D01*
X514350Y440690D01*
X529590Y425450D01*
D21*
X554990Y425450D02*
X571500Y408940D01*
X571500Y333304D01*
D20*
X570230Y333304D01*
D23*
X570230Y333304D03*
X499110Y332034D03*
D21*
X499110Y312420D01*
X521970Y289560D01*
D20*
X492787Y449137D02*
X492787Y455043D01*
X492787Y449137D02*
X497421Y444504D01*
X536227Y444504D01*
X554990Y425740D01*
D21*
X554990Y425450D01*
X691310Y373340D02*
X724290Y340360D01*
X691310Y373340D02*
X691310Y379730D01*
D23*
X433070Y344734D03*
X539750Y344170D03*
X455087Y356308D03*
D20*
X458470Y312420D02*
X458470Y272500D01*
X466810Y264160D02*
X471170Y264160D01*
D21*
X466810Y264160D02*
X458470Y272500D01*
X458470Y332431D02*
X423757Y367144D01*
X423757Y404283D02*
X402590Y425450D01*
X423757Y404283D02*
X423757Y367144D01*
X458470Y332431D02*
X458470Y312420D01*
D20*
X402590Y436033D02*
X421599Y455043D01*
X402590Y436033D02*
X402590Y425450D01*
X421599Y455043D02*
X432787Y455043D01*
X661670Y306070D02*
X661670Y272500D01*
X670010Y264160D02*
X674370Y264160D01*
D21*
X670010Y264160D02*
X661670Y272500D01*
D23*
X647700Y320040D03*
D21*
X661670Y306070D01*
D23*
X304800Y320040D03*
D21*
X268962Y320040D01*
X224649Y364354D01*
X224649Y368300D01*
D23*
X224649Y368300D03*
D21*
X382270Y276860D02*
X394970Y264160D01*
D20*
X382270Y276860D02*
X382270Y311150D01*
D23*
X346710Y346710D03*
D21*
X382270Y311150D01*
D23*
X407670Y352778D03*
D21*
X407670Y311150D01*
X407670Y276860D02*
X420370Y264160D01*
D20*
X407670Y276860D02*
X407670Y311150D01*
X432696Y303530D02*
X432696Y277234D01*
D23*
X433070Y328930D03*
D21*
X432696Y277234D02*
X445770Y264160D01*
X432696Y328556D02*
X433070Y328930D01*
X432696Y328556D02*
X432696Y303530D01*
D20*
X637540Y276860D02*
X637540Y275590D01*
D23*
X637540Y276860D03*
D21*
X637540Y275590D02*
X648970Y264160D01*
X750570Y289560D02*
X768350Y307340D01*
X768350Y316230D01*
D23*
X768350Y316230D03*
D21*
X770890Y335280D02*
X725170Y289560D01*
X770890Y335280D02*
X770890Y346710D01*
D23*
X770890Y346710D03*
D21*
X699770Y316230D02*
X699770Y289560D01*
D23*
X674370Y341630D03*
D21*
X699770Y316230D01*
D23*
X690880Y352750D03*
D21*
X690880Y344170D02*
X712470Y322580D01*
X690880Y344170D02*
X690880Y352750D01*
D20*
X712470Y322580D02*
X712470Y271780D01*
D21*
X720090Y264160D01*
D20*
X725170Y264160D01*
X756530Y359410D02*
X756530Y363220D01*
D21*
X762880Y359410D02*
X774700Y371230D01*
X762880Y359410D02*
X756530Y359410D01*
X774700Y371230D02*
X806631Y339300D01*
X806631Y339271D01*
D20*
X748910Y388620D02*
X748910Y392430D01*
D21*
X770500Y392430D02*
X774700Y388230D01*
X770500Y392430D02*
X748910Y392430D01*
X753110Y396630D01*
X755910Y399430D02*
X748910Y392430D01*
X755910Y399430D02*
X755910Y417830D01*
X739530Y359410D02*
X723130Y359410D01*
X712310Y370230D01*
X739530Y342120D02*
X741290Y340360D01*
X739530Y342120D02*
X739530Y359410D01*
X712310Y389230D02*
X715510Y392430D01*
X731910Y392430D01*
X727710Y396630D01*
X724910Y399430D02*
X731910Y392430D01*
X724910Y399430D02*
X724910Y417830D01*
D23*
X582648Y366183D03*
D20*
X610870Y316230D02*
X610870Y276860D01*
D21*
X623570Y264160D01*
X582648Y344452D02*
X582648Y366183D01*
X582648Y344452D02*
X610870Y316230D01*
D23*
X331611Y405130D03*
D21*
X205984Y405130D01*
X141162Y469951D01*
D20*
X394970Y312420D02*
X394970Y289560D01*
D21*
X408940Y380080D02*
X408940Y381390D01*
X408940Y380080D02*
X394970Y361304D01*
X394970Y312420D01*
X101600Y350520D02*
X63500Y312420D01*
X101600Y350520D02*
X165100Y350520D01*
X207010Y392430D01*
X381000Y392430D01*
D23*
X381000Y392430D03*
X583071Y392430D03*
D21*
X687070Y276860D02*
X699770Y264160D01*
D20*
X687070Y292808D02*
X687070Y313126D01*
X687070Y292808D02*
X687070Y276860D01*
D21*
X607766Y392430D02*
X583071Y392430D01*
X607766Y392430D02*
X687070Y313126D01*
X63500Y312420D02*
X63500Y176530D01*
X63500Y175768D01*
X43942Y156972D02*
X37084Y156972D01*
X43942Y156972D02*
X63500Y176530D01*
X267970Y289560D02*
X293370Y289560D01*
X267970Y309880D02*
X261620Y316230D01*
X132080Y316230D01*
X267970Y309880D02*
X267970Y289560D01*
D23*
X583071Y379730D03*
X389890Y379730D03*
D21*
X207010Y379730D01*
X168910Y341630D01*
X105410Y341630D01*
X80010Y316230D01*
X583071Y379730D02*
X597182Y379730D01*
X626110Y350802D01*
X626110Y316230D01*
X648970Y293370D01*
X648970Y289560D01*
X82296Y245872D02*
X80010Y248158D01*
X80010Y316230D01*
D23*
X402170Y134057D03*
X409226Y141112D03*
X423337Y137584D03*
X433920Y137584D03*
X448031Y134057D03*
X458615Y134057D03*
X469198Y134057D03*
X384531Y123473D03*
M02*
