G04 EAGLE Gerber RS-274X export*
G75*
%MOMM*%
%FSLAX34Y34*%
%LPD*%
%INSilkscreen Top*%
%IPPOS*%
%AMOC8*
5,1,8,0,0,1.08239X$1,22.5*%
G01*
%ADD10C,0.076200*%
%ADD11C,0.127000*%
%ADD12C,0.203200*%
%ADD13C,0.101600*%

G36*
X399036Y61196D02*
X399036Y61196D01*
X399135Y61203D01*
X399175Y61218D01*
X399218Y61225D01*
X399308Y61267D01*
X399402Y61301D01*
X399436Y61327D01*
X399475Y61345D01*
X399550Y61411D01*
X399631Y61470D01*
X399653Y61501D01*
X399689Y61532D01*
X399787Y61684D01*
X399828Y61741D01*
X401828Y65741D01*
X401831Y65749D01*
X401836Y65756D01*
X401876Y65885D01*
X401918Y66011D01*
X401919Y66019D01*
X401921Y66027D01*
X401925Y66162D01*
X401930Y66295D01*
X401928Y66303D01*
X401929Y66312D01*
X401895Y66441D01*
X401863Y66571D01*
X401859Y66578D01*
X401857Y66587D01*
X401789Y66701D01*
X401722Y66818D01*
X401716Y66824D01*
X401712Y66831D01*
X401614Y66923D01*
X401518Y67016D01*
X401511Y67020D01*
X401504Y67026D01*
X401385Y67087D01*
X401267Y67149D01*
X401259Y67151D01*
X401251Y67155D01*
X401199Y67164D01*
X400989Y67208D01*
X400951Y67205D01*
X400920Y67210D01*
X396920Y67210D01*
X396912Y67209D01*
X396903Y67210D01*
X396771Y67189D01*
X396639Y67171D01*
X396631Y67167D01*
X396622Y67166D01*
X396501Y67109D01*
X396379Y67054D01*
X396373Y67049D01*
X396365Y67045D01*
X396264Y66957D01*
X396162Y66871D01*
X396158Y66864D01*
X396151Y66858D01*
X396079Y66745D01*
X396005Y66634D01*
X396002Y66626D01*
X395997Y66619D01*
X395959Y66490D01*
X395919Y66363D01*
X395919Y66355D01*
X395916Y66346D01*
X395915Y66212D01*
X395912Y66079D01*
X395914Y66071D01*
X395914Y66062D01*
X395929Y66011D01*
X395983Y65804D01*
X396003Y65771D01*
X396012Y65741D01*
X398012Y61741D01*
X398069Y61659D01*
X398118Y61573D01*
X398149Y61543D01*
X398174Y61507D01*
X398251Y61444D01*
X398322Y61375D01*
X398360Y61354D01*
X398394Y61327D01*
X398485Y61288D01*
X398573Y61241D01*
X398615Y61232D01*
X398655Y61215D01*
X398754Y61203D01*
X398851Y61182D01*
X398894Y61185D01*
X398937Y61180D01*
X399036Y61196D01*
G37*
D10*
X117729Y88011D02*
X108331Y88011D01*
X108331Y90622D01*
X108333Y90723D01*
X108339Y90824D01*
X108349Y90925D01*
X108362Y91025D01*
X108380Y91125D01*
X108401Y91224D01*
X108427Y91322D01*
X108456Y91419D01*
X108488Y91515D01*
X108525Y91609D01*
X108565Y91702D01*
X108609Y91794D01*
X108656Y91883D01*
X108707Y91971D01*
X108761Y92057D01*
X108818Y92140D01*
X108878Y92222D01*
X108942Y92300D01*
X109008Y92377D01*
X109078Y92450D01*
X109150Y92521D01*
X109225Y92589D01*
X109303Y92654D01*
X109383Y92716D01*
X109465Y92775D01*
X109550Y92831D01*
X109637Y92883D01*
X109725Y92932D01*
X109816Y92978D01*
X109908Y93019D01*
X110002Y93058D01*
X110097Y93092D01*
X110193Y93123D01*
X110291Y93150D01*
X110389Y93174D01*
X110489Y93193D01*
X110589Y93209D01*
X110689Y93221D01*
X110790Y93229D01*
X110891Y93233D01*
X110993Y93233D01*
X111094Y93229D01*
X111195Y93221D01*
X111295Y93209D01*
X111395Y93193D01*
X111495Y93174D01*
X111593Y93150D01*
X111691Y93123D01*
X111787Y93092D01*
X111882Y93058D01*
X111976Y93019D01*
X112068Y92978D01*
X112159Y92932D01*
X112248Y92883D01*
X112334Y92831D01*
X112419Y92775D01*
X112501Y92716D01*
X112581Y92654D01*
X112659Y92589D01*
X112734Y92521D01*
X112806Y92450D01*
X112876Y92377D01*
X112942Y92300D01*
X113006Y92222D01*
X113066Y92140D01*
X113123Y92057D01*
X113177Y91971D01*
X113228Y91883D01*
X113275Y91794D01*
X113319Y91702D01*
X113359Y91609D01*
X113396Y91515D01*
X113428Y91419D01*
X113457Y91322D01*
X113483Y91224D01*
X113504Y91125D01*
X113522Y91025D01*
X113535Y90925D01*
X113545Y90824D01*
X113551Y90723D01*
X113553Y90622D01*
X113552Y90622D02*
X113552Y88011D01*
X117729Y98198D02*
X117729Y100808D01*
X117729Y98198D02*
X117727Y98121D01*
X117721Y98045D01*
X117712Y97968D01*
X117699Y97892D01*
X117682Y97817D01*
X117662Y97743D01*
X117637Y97670D01*
X117610Y97599D01*
X117579Y97528D01*
X117544Y97460D01*
X117506Y97393D01*
X117465Y97328D01*
X117421Y97265D01*
X117374Y97205D01*
X117323Y97146D01*
X117270Y97091D01*
X117215Y97038D01*
X117156Y96987D01*
X117096Y96940D01*
X117033Y96896D01*
X116968Y96855D01*
X116901Y96817D01*
X116833Y96782D01*
X116762Y96751D01*
X116691Y96724D01*
X116618Y96699D01*
X116544Y96679D01*
X116469Y96662D01*
X116393Y96649D01*
X116316Y96640D01*
X116240Y96634D01*
X116163Y96632D01*
X116163Y96631D02*
X113552Y96631D01*
X113552Y96632D02*
X113462Y96634D01*
X113373Y96640D01*
X113283Y96649D01*
X113194Y96663D01*
X113106Y96680D01*
X113019Y96701D01*
X112932Y96726D01*
X112847Y96755D01*
X112763Y96787D01*
X112681Y96822D01*
X112600Y96862D01*
X112521Y96904D01*
X112444Y96950D01*
X112369Y97000D01*
X112296Y97052D01*
X112225Y97108D01*
X112157Y97166D01*
X112092Y97228D01*
X112029Y97292D01*
X111969Y97359D01*
X111912Y97428D01*
X111858Y97500D01*
X111807Y97574D01*
X111759Y97650D01*
X111715Y97728D01*
X111674Y97808D01*
X111636Y97890D01*
X111602Y97973D01*
X111572Y98058D01*
X111545Y98144D01*
X111522Y98230D01*
X111503Y98318D01*
X111488Y98407D01*
X111476Y98496D01*
X111468Y98585D01*
X111464Y98675D01*
X111464Y98765D01*
X111468Y98855D01*
X111476Y98944D01*
X111488Y99033D01*
X111503Y99122D01*
X111522Y99210D01*
X111545Y99296D01*
X111572Y99382D01*
X111602Y99467D01*
X111636Y99550D01*
X111674Y99632D01*
X111715Y99712D01*
X111759Y99790D01*
X111807Y99866D01*
X111858Y99940D01*
X111912Y100012D01*
X111969Y100081D01*
X112029Y100148D01*
X112092Y100212D01*
X112157Y100274D01*
X112225Y100332D01*
X112296Y100388D01*
X112369Y100440D01*
X112444Y100490D01*
X112521Y100536D01*
X112600Y100578D01*
X112681Y100618D01*
X112763Y100653D01*
X112847Y100685D01*
X112932Y100714D01*
X113019Y100739D01*
X113106Y100760D01*
X113194Y100777D01*
X113283Y100791D01*
X113373Y100800D01*
X113462Y100806D01*
X113552Y100808D01*
X114596Y100808D01*
X114596Y96631D01*
X111464Y103788D02*
X111464Y106920D01*
X108331Y104832D02*
X116163Y104832D01*
X116240Y104834D01*
X116316Y104840D01*
X116393Y104849D01*
X116469Y104862D01*
X116544Y104879D01*
X116618Y104899D01*
X116691Y104924D01*
X116762Y104951D01*
X116833Y104982D01*
X116901Y105017D01*
X116968Y105055D01*
X117033Y105096D01*
X117096Y105140D01*
X117156Y105187D01*
X117215Y105238D01*
X117270Y105291D01*
X117323Y105346D01*
X117374Y105405D01*
X117421Y105465D01*
X117465Y105528D01*
X117506Y105593D01*
X117544Y105660D01*
X117579Y105728D01*
X117610Y105799D01*
X117637Y105870D01*
X117662Y105943D01*
X117682Y106017D01*
X117699Y106092D01*
X117712Y106168D01*
X117721Y106245D01*
X117727Y106321D01*
X117729Y106398D01*
X117729Y106920D01*
X117729Y110704D02*
X111464Y110704D01*
X111464Y113836D01*
X112508Y113836D01*
X108331Y122148D02*
X117729Y122148D01*
X114074Y122148D02*
X108331Y127370D01*
X111986Y124237D02*
X117729Y127370D01*
X117729Y131125D02*
X111464Y131125D01*
X111464Y134258D01*
X112508Y134258D01*
X111464Y137124D02*
X117729Y137124D01*
X108853Y136863D02*
X108331Y136863D01*
X108331Y137386D01*
X108853Y137386D01*
X108853Y136863D01*
X114074Y141610D02*
X115118Y144221D01*
X114074Y141610D02*
X114046Y141544D01*
X114013Y141479D01*
X113978Y141416D01*
X113939Y141355D01*
X113897Y141296D01*
X113852Y141240D01*
X113804Y141186D01*
X113753Y141135D01*
X113700Y141086D01*
X113643Y141041D01*
X113585Y140998D01*
X113525Y140959D01*
X113462Y140922D01*
X113397Y140890D01*
X113331Y140861D01*
X113264Y140835D01*
X113195Y140813D01*
X113125Y140795D01*
X113054Y140780D01*
X112983Y140769D01*
X112911Y140762D01*
X112839Y140759D01*
X112767Y140760D01*
X112694Y140765D01*
X112623Y140773D01*
X112551Y140785D01*
X112481Y140801D01*
X112412Y140821D01*
X112343Y140845D01*
X112276Y140872D01*
X112211Y140902D01*
X112147Y140936D01*
X112085Y140974D01*
X112025Y141014D01*
X111968Y141058D01*
X111913Y141105D01*
X111860Y141155D01*
X111811Y141207D01*
X111764Y141262D01*
X111720Y141319D01*
X111679Y141379D01*
X111642Y141441D01*
X111607Y141505D01*
X111577Y141570D01*
X111549Y141637D01*
X111526Y141705D01*
X111506Y141775D01*
X111490Y141845D01*
X111477Y141916D01*
X111469Y141988D01*
X111464Y142060D01*
X111463Y142132D01*
X111464Y142133D02*
X111468Y142284D01*
X111476Y142435D01*
X111487Y142586D01*
X111503Y142737D01*
X111523Y142887D01*
X111546Y143037D01*
X111573Y143186D01*
X111604Y143334D01*
X111639Y143482D01*
X111677Y143628D01*
X111720Y143774D01*
X111766Y143918D01*
X111815Y144061D01*
X111868Y144203D01*
X111925Y144343D01*
X111986Y144482D01*
X115118Y144221D02*
X115146Y144287D01*
X115179Y144352D01*
X115214Y144415D01*
X115253Y144476D01*
X115295Y144535D01*
X115340Y144591D01*
X115388Y144645D01*
X115439Y144696D01*
X115492Y144745D01*
X115549Y144791D01*
X115607Y144833D01*
X115667Y144872D01*
X115730Y144909D01*
X115795Y144941D01*
X115861Y144970D01*
X115928Y144996D01*
X115997Y145018D01*
X116067Y145036D01*
X116138Y145051D01*
X116209Y145062D01*
X116281Y145069D01*
X116353Y145072D01*
X116425Y145071D01*
X116498Y145066D01*
X116569Y145058D01*
X116641Y145046D01*
X116711Y145030D01*
X116780Y145010D01*
X116849Y144986D01*
X116916Y144959D01*
X116981Y144929D01*
X117045Y144895D01*
X117107Y144857D01*
X117167Y144817D01*
X117224Y144773D01*
X117279Y144726D01*
X117332Y144676D01*
X117381Y144624D01*
X117428Y144569D01*
X117472Y144512D01*
X117513Y144452D01*
X117550Y144390D01*
X117585Y144326D01*
X117615Y144261D01*
X117643Y144194D01*
X117666Y144126D01*
X117686Y144056D01*
X117702Y143986D01*
X117715Y143915D01*
X117723Y143843D01*
X117728Y143771D01*
X117729Y143699D01*
X117724Y143489D01*
X117713Y143280D01*
X117698Y143071D01*
X117678Y142863D01*
X117652Y142655D01*
X117622Y142448D01*
X117587Y142241D01*
X117547Y142036D01*
X117503Y141831D01*
X117453Y141628D01*
X117399Y141425D01*
X117339Y141224D01*
X117276Y141025D01*
X117207Y140827D01*
X111464Y147983D02*
X111464Y151116D01*
X108331Y149028D02*
X116163Y149028D01*
X116240Y149030D01*
X116316Y149036D01*
X116393Y149045D01*
X116469Y149058D01*
X116544Y149075D01*
X116618Y149095D01*
X116691Y149120D01*
X116762Y149147D01*
X116833Y149178D01*
X116901Y149213D01*
X116968Y149251D01*
X117033Y149292D01*
X117096Y149336D01*
X117156Y149383D01*
X117215Y149434D01*
X117270Y149487D01*
X117323Y149542D01*
X117374Y149601D01*
X117421Y149661D01*
X117465Y149724D01*
X117506Y149789D01*
X117544Y149856D01*
X117579Y149924D01*
X117610Y149995D01*
X117637Y150066D01*
X117662Y150139D01*
X117682Y150213D01*
X117699Y150288D01*
X117712Y150364D01*
X117721Y150441D01*
X117727Y150517D01*
X117729Y150594D01*
X117729Y151116D01*
X114074Y156325D02*
X114074Y158674D01*
X114075Y156325D02*
X114077Y156241D01*
X114083Y156156D01*
X114093Y156073D01*
X114106Y155989D01*
X114124Y155907D01*
X114145Y155825D01*
X114170Y155744D01*
X114198Y155665D01*
X114231Y155587D01*
X114267Y155511D01*
X114306Y155436D01*
X114349Y155363D01*
X114395Y155292D01*
X114444Y155224D01*
X114496Y155158D01*
X114552Y155094D01*
X114610Y155033D01*
X114671Y154975D01*
X114735Y154919D01*
X114801Y154867D01*
X114869Y154818D01*
X114940Y154772D01*
X115013Y154729D01*
X115088Y154690D01*
X115164Y154654D01*
X115242Y154621D01*
X115321Y154593D01*
X115402Y154568D01*
X115484Y154547D01*
X115566Y154529D01*
X115650Y154516D01*
X115733Y154506D01*
X115818Y154500D01*
X115902Y154498D01*
X115986Y154500D01*
X116071Y154506D01*
X116154Y154516D01*
X116238Y154529D01*
X116320Y154547D01*
X116402Y154568D01*
X116483Y154593D01*
X116562Y154621D01*
X116640Y154654D01*
X116716Y154690D01*
X116791Y154729D01*
X116864Y154772D01*
X116935Y154818D01*
X117003Y154867D01*
X117069Y154919D01*
X117133Y154975D01*
X117194Y155033D01*
X117252Y155094D01*
X117308Y155158D01*
X117360Y155224D01*
X117409Y155292D01*
X117455Y155363D01*
X117498Y155436D01*
X117537Y155511D01*
X117573Y155587D01*
X117606Y155665D01*
X117634Y155744D01*
X117659Y155825D01*
X117680Y155907D01*
X117698Y155989D01*
X117711Y156073D01*
X117721Y156156D01*
X117727Y156241D01*
X117729Y156325D01*
X117729Y158674D01*
X113030Y158674D01*
X112953Y158672D01*
X112877Y158666D01*
X112800Y158657D01*
X112724Y158644D01*
X112649Y158627D01*
X112575Y158607D01*
X112502Y158582D01*
X112431Y158555D01*
X112360Y158524D01*
X112292Y158489D01*
X112225Y158451D01*
X112160Y158410D01*
X112097Y158366D01*
X112037Y158319D01*
X111978Y158268D01*
X111923Y158215D01*
X111870Y158160D01*
X111819Y158101D01*
X111772Y158041D01*
X111728Y157978D01*
X111687Y157913D01*
X111649Y157846D01*
X111614Y157778D01*
X111583Y157707D01*
X111556Y157636D01*
X111531Y157563D01*
X111511Y157489D01*
X111494Y157414D01*
X111481Y157338D01*
X111472Y157261D01*
X111466Y157185D01*
X111464Y157108D01*
X111464Y155020D01*
X111464Y163077D02*
X117729Y163077D01*
X111464Y163077D02*
X111464Y165688D01*
X111466Y165765D01*
X111472Y165841D01*
X111481Y165918D01*
X111494Y165994D01*
X111511Y166069D01*
X111531Y166143D01*
X111556Y166216D01*
X111583Y166287D01*
X111614Y166358D01*
X111649Y166426D01*
X111687Y166493D01*
X111728Y166558D01*
X111772Y166621D01*
X111819Y166681D01*
X111870Y166740D01*
X111923Y166795D01*
X111978Y166848D01*
X112037Y166899D01*
X112097Y166946D01*
X112160Y166990D01*
X112225Y167031D01*
X112292Y167069D01*
X112360Y167104D01*
X112431Y167135D01*
X112502Y167162D01*
X112575Y167187D01*
X112649Y167207D01*
X112724Y167224D01*
X112800Y167237D01*
X112876Y167246D01*
X112953Y167252D01*
X113030Y167254D01*
X117729Y167254D01*
X114074Y176359D02*
X114074Y182624D01*
X112508Y191947D02*
X112508Y194558D01*
X112507Y194558D02*
X112509Y194659D01*
X112515Y194760D01*
X112525Y194861D01*
X112538Y194961D01*
X112556Y195061D01*
X112577Y195160D01*
X112603Y195258D01*
X112632Y195355D01*
X112664Y195451D01*
X112701Y195545D01*
X112741Y195638D01*
X112785Y195730D01*
X112832Y195819D01*
X112883Y195907D01*
X112937Y195993D01*
X112994Y196076D01*
X113054Y196158D01*
X113118Y196236D01*
X113184Y196313D01*
X113254Y196386D01*
X113326Y196457D01*
X113401Y196525D01*
X113479Y196590D01*
X113559Y196652D01*
X113641Y196711D01*
X113726Y196767D01*
X113813Y196819D01*
X113901Y196868D01*
X113992Y196914D01*
X114084Y196955D01*
X114178Y196994D01*
X114273Y197028D01*
X114369Y197059D01*
X114467Y197086D01*
X114565Y197110D01*
X114665Y197129D01*
X114765Y197145D01*
X114865Y197157D01*
X114966Y197165D01*
X115067Y197169D01*
X115169Y197169D01*
X115270Y197165D01*
X115371Y197157D01*
X115471Y197145D01*
X115571Y197129D01*
X115671Y197110D01*
X115769Y197086D01*
X115867Y197059D01*
X115963Y197028D01*
X116058Y196994D01*
X116152Y196955D01*
X116244Y196914D01*
X116335Y196868D01*
X116424Y196819D01*
X116510Y196767D01*
X116595Y196711D01*
X116677Y196652D01*
X116757Y196590D01*
X116835Y196525D01*
X116910Y196457D01*
X116982Y196386D01*
X117052Y196313D01*
X117118Y196236D01*
X117182Y196158D01*
X117242Y196076D01*
X117299Y195993D01*
X117353Y195907D01*
X117404Y195819D01*
X117451Y195730D01*
X117495Y195638D01*
X117535Y195545D01*
X117572Y195451D01*
X117604Y195355D01*
X117633Y195258D01*
X117659Y195160D01*
X117680Y195061D01*
X117698Y194961D01*
X117711Y194861D01*
X117721Y194760D01*
X117727Y194659D01*
X117729Y194558D01*
X117729Y191947D01*
X108331Y191947D01*
X108331Y194558D01*
X108333Y194648D01*
X108339Y194737D01*
X108348Y194827D01*
X108362Y194916D01*
X108379Y195004D01*
X108400Y195091D01*
X108425Y195178D01*
X108454Y195263D01*
X108486Y195347D01*
X108521Y195429D01*
X108561Y195510D01*
X108603Y195589D01*
X108649Y195666D01*
X108699Y195741D01*
X108751Y195814D01*
X108807Y195885D01*
X108865Y195953D01*
X108927Y196018D01*
X108991Y196081D01*
X109058Y196141D01*
X109127Y196198D01*
X109199Y196252D01*
X109273Y196303D01*
X109349Y196351D01*
X109427Y196395D01*
X109507Y196436D01*
X109589Y196474D01*
X109672Y196508D01*
X109757Y196538D01*
X109843Y196565D01*
X109929Y196588D01*
X110017Y196607D01*
X110106Y196622D01*
X110195Y196634D01*
X110284Y196642D01*
X110374Y196646D01*
X110464Y196646D01*
X110554Y196642D01*
X110643Y196634D01*
X110732Y196622D01*
X110821Y196607D01*
X110909Y196588D01*
X110995Y196565D01*
X111081Y196538D01*
X111166Y196508D01*
X111249Y196474D01*
X111331Y196436D01*
X111411Y196395D01*
X111489Y196351D01*
X111565Y196303D01*
X111639Y196252D01*
X111711Y196198D01*
X111780Y196141D01*
X111847Y196081D01*
X111911Y196018D01*
X111973Y195953D01*
X112031Y195885D01*
X112087Y195814D01*
X112139Y195741D01*
X112189Y195666D01*
X112235Y195589D01*
X112277Y195510D01*
X112317Y195429D01*
X112352Y195347D01*
X112384Y195263D01*
X112413Y195178D01*
X112438Y195091D01*
X112459Y195004D01*
X112476Y194916D01*
X112490Y194827D01*
X112499Y194737D01*
X112505Y194648D01*
X112507Y194558D01*
X115118Y200960D02*
X108331Y200960D01*
X115118Y200960D02*
X115219Y200962D01*
X115320Y200968D01*
X115421Y200978D01*
X115521Y200991D01*
X115621Y201009D01*
X115720Y201030D01*
X115818Y201056D01*
X115915Y201085D01*
X116011Y201117D01*
X116105Y201154D01*
X116198Y201194D01*
X116290Y201238D01*
X116379Y201285D01*
X116467Y201336D01*
X116553Y201390D01*
X116636Y201447D01*
X116718Y201507D01*
X116796Y201571D01*
X116873Y201637D01*
X116946Y201707D01*
X117017Y201779D01*
X117085Y201854D01*
X117150Y201932D01*
X117212Y202012D01*
X117271Y202094D01*
X117327Y202179D01*
X117379Y202265D01*
X117428Y202354D01*
X117474Y202445D01*
X117515Y202537D01*
X117554Y202631D01*
X117588Y202726D01*
X117619Y202822D01*
X117646Y202920D01*
X117670Y203018D01*
X117689Y203118D01*
X117705Y203218D01*
X117717Y203318D01*
X117725Y203419D01*
X117729Y203520D01*
X117729Y203622D01*
X117725Y203723D01*
X117717Y203824D01*
X117705Y203924D01*
X117689Y204024D01*
X117670Y204124D01*
X117646Y204222D01*
X117619Y204320D01*
X117588Y204416D01*
X117554Y204511D01*
X117515Y204605D01*
X117474Y204697D01*
X117428Y204788D01*
X117379Y204876D01*
X117327Y204963D01*
X117271Y205048D01*
X117212Y205130D01*
X117150Y205210D01*
X117085Y205288D01*
X117017Y205363D01*
X116946Y205435D01*
X116873Y205505D01*
X116796Y205571D01*
X116718Y205635D01*
X116636Y205695D01*
X116553Y205752D01*
X116467Y205806D01*
X116379Y205857D01*
X116290Y205904D01*
X116198Y205948D01*
X116105Y205988D01*
X116011Y206025D01*
X115915Y206057D01*
X115818Y206086D01*
X115720Y206112D01*
X115621Y206133D01*
X115521Y206151D01*
X115421Y206164D01*
X115320Y206174D01*
X115219Y206180D01*
X115118Y206182D01*
X115118Y206181D02*
X108331Y206181D01*
X108331Y212410D02*
X117729Y212410D01*
X108331Y209799D02*
X108331Y215020D01*
X108331Y220944D02*
X117729Y217811D01*
X117729Y224077D02*
X108331Y220944D01*
X115380Y223294D02*
X115380Y218595D01*
X112508Y227914D02*
X112508Y230524D01*
X112507Y230524D02*
X112509Y230625D01*
X112515Y230726D01*
X112525Y230827D01*
X112538Y230927D01*
X112556Y231027D01*
X112577Y231126D01*
X112603Y231224D01*
X112632Y231321D01*
X112664Y231417D01*
X112701Y231511D01*
X112741Y231604D01*
X112785Y231696D01*
X112832Y231785D01*
X112883Y231873D01*
X112937Y231959D01*
X112994Y232042D01*
X113054Y232124D01*
X113118Y232202D01*
X113184Y232279D01*
X113254Y232352D01*
X113326Y232423D01*
X113401Y232491D01*
X113479Y232556D01*
X113559Y232618D01*
X113641Y232677D01*
X113726Y232733D01*
X113813Y232785D01*
X113901Y232834D01*
X113992Y232880D01*
X114084Y232921D01*
X114178Y232960D01*
X114273Y232994D01*
X114369Y233025D01*
X114467Y233052D01*
X114565Y233076D01*
X114665Y233095D01*
X114765Y233111D01*
X114865Y233123D01*
X114966Y233131D01*
X115067Y233135D01*
X115169Y233135D01*
X115270Y233131D01*
X115371Y233123D01*
X115471Y233111D01*
X115571Y233095D01*
X115671Y233076D01*
X115769Y233052D01*
X115867Y233025D01*
X115963Y232994D01*
X116058Y232960D01*
X116152Y232921D01*
X116244Y232880D01*
X116335Y232834D01*
X116424Y232785D01*
X116510Y232733D01*
X116595Y232677D01*
X116677Y232618D01*
X116757Y232556D01*
X116835Y232491D01*
X116910Y232423D01*
X116982Y232352D01*
X117052Y232279D01*
X117118Y232202D01*
X117182Y232124D01*
X117242Y232042D01*
X117299Y231959D01*
X117353Y231873D01*
X117404Y231785D01*
X117451Y231696D01*
X117495Y231604D01*
X117535Y231511D01*
X117572Y231417D01*
X117604Y231321D01*
X117633Y231224D01*
X117659Y231126D01*
X117680Y231027D01*
X117698Y230927D01*
X117711Y230827D01*
X117721Y230726D01*
X117727Y230625D01*
X117729Y230524D01*
X117729Y227914D01*
X108331Y227914D01*
X108331Y230524D01*
X108333Y230614D01*
X108339Y230703D01*
X108348Y230793D01*
X108362Y230882D01*
X108379Y230970D01*
X108400Y231057D01*
X108425Y231144D01*
X108454Y231229D01*
X108486Y231313D01*
X108521Y231395D01*
X108561Y231476D01*
X108603Y231555D01*
X108649Y231632D01*
X108699Y231707D01*
X108751Y231780D01*
X108807Y231851D01*
X108865Y231919D01*
X108927Y231984D01*
X108991Y232047D01*
X109058Y232107D01*
X109127Y232164D01*
X109199Y232218D01*
X109273Y232269D01*
X109349Y232317D01*
X109427Y232361D01*
X109507Y232402D01*
X109589Y232440D01*
X109672Y232474D01*
X109757Y232504D01*
X109843Y232531D01*
X109929Y232554D01*
X110017Y232573D01*
X110106Y232588D01*
X110195Y232600D01*
X110284Y232608D01*
X110374Y232612D01*
X110464Y232612D01*
X110554Y232608D01*
X110643Y232600D01*
X110732Y232588D01*
X110821Y232573D01*
X110909Y232554D01*
X110995Y232531D01*
X111081Y232504D01*
X111166Y232474D01*
X111249Y232440D01*
X111331Y232402D01*
X111411Y232361D01*
X111489Y232317D01*
X111565Y232269D01*
X111639Y232218D01*
X111711Y232164D01*
X111780Y232107D01*
X111847Y232047D01*
X111911Y231984D01*
X111973Y231919D01*
X112031Y231851D01*
X112087Y231780D01*
X112139Y231707D01*
X112189Y231632D01*
X112235Y231555D01*
X112277Y231476D01*
X112317Y231395D01*
X112352Y231313D01*
X112384Y231229D01*
X112413Y231144D01*
X112438Y231057D01*
X112459Y230970D01*
X112476Y230882D01*
X112490Y230793D01*
X112499Y230703D01*
X112505Y230614D01*
X112507Y230524D01*
X117207Y236228D02*
X117729Y236228D01*
X117207Y236228D02*
X117207Y236750D01*
X117729Y236750D01*
X117729Y236228D01*
X117729Y241768D02*
X117729Y243857D01*
X117729Y241768D02*
X117727Y241691D01*
X117721Y241615D01*
X117712Y241538D01*
X117699Y241462D01*
X117682Y241387D01*
X117662Y241313D01*
X117637Y241240D01*
X117610Y241169D01*
X117579Y241098D01*
X117544Y241030D01*
X117506Y240963D01*
X117465Y240898D01*
X117421Y240835D01*
X117374Y240775D01*
X117323Y240716D01*
X117270Y240661D01*
X117215Y240608D01*
X117156Y240557D01*
X117096Y240510D01*
X117033Y240466D01*
X116968Y240425D01*
X116901Y240387D01*
X116833Y240352D01*
X116762Y240321D01*
X116691Y240294D01*
X116618Y240269D01*
X116544Y240249D01*
X116469Y240232D01*
X116393Y240219D01*
X116316Y240210D01*
X116240Y240204D01*
X116163Y240202D01*
X113030Y240202D01*
X112953Y240204D01*
X112877Y240210D01*
X112800Y240219D01*
X112724Y240232D01*
X112649Y240249D01*
X112575Y240269D01*
X112502Y240294D01*
X112431Y240321D01*
X112360Y240352D01*
X112292Y240387D01*
X112225Y240425D01*
X112160Y240466D01*
X112097Y240510D01*
X112037Y240557D01*
X111978Y240608D01*
X111923Y240661D01*
X111870Y240716D01*
X111819Y240775D01*
X111772Y240835D01*
X111728Y240898D01*
X111687Y240963D01*
X111649Y241030D01*
X111614Y241098D01*
X111583Y241169D01*
X111556Y241240D01*
X111531Y241313D01*
X111511Y241387D01*
X111494Y241462D01*
X111481Y241538D01*
X111472Y241615D01*
X111466Y241691D01*
X111464Y241768D01*
X111464Y243857D01*
X111464Y246897D02*
X111464Y251074D01*
X117729Y246897D01*
X117729Y251074D01*
D11*
X586826Y407091D02*
X586826Y410845D01*
X586825Y407091D02*
X586823Y407026D01*
X586817Y406962D01*
X586807Y406898D01*
X586794Y406834D01*
X586776Y406772D01*
X586755Y406711D01*
X586731Y406651D01*
X586702Y406593D01*
X586670Y406536D01*
X586635Y406482D01*
X586597Y406430D01*
X586555Y406380D01*
X586511Y406333D01*
X586464Y406289D01*
X586414Y406247D01*
X586362Y406209D01*
X586308Y406174D01*
X586251Y406142D01*
X586193Y406113D01*
X586133Y406089D01*
X586072Y406068D01*
X586010Y406050D01*
X585946Y406037D01*
X585882Y406027D01*
X585818Y406021D01*
X585753Y406019D01*
X585217Y406019D01*
X591248Y410845D02*
X591316Y410843D01*
X591383Y410837D01*
X591450Y410828D01*
X591517Y410815D01*
X591582Y410798D01*
X591647Y410777D01*
X591710Y410753D01*
X591772Y410725D01*
X591832Y410694D01*
X591890Y410660D01*
X591946Y410622D01*
X592001Y410582D01*
X592052Y410538D01*
X592101Y410491D01*
X592148Y410442D01*
X592192Y410391D01*
X592232Y410336D01*
X592270Y410280D01*
X592304Y410222D01*
X592335Y410162D01*
X592363Y410100D01*
X592387Y410037D01*
X592408Y409972D01*
X592425Y409907D01*
X592438Y409840D01*
X592447Y409773D01*
X592453Y409706D01*
X592455Y409638D01*
X591248Y410845D02*
X591170Y410843D01*
X591092Y410837D01*
X591015Y410827D01*
X590938Y410814D01*
X590862Y410796D01*
X590787Y410775D01*
X590713Y410750D01*
X590641Y410721D01*
X590570Y410689D01*
X590501Y410653D01*
X590433Y410614D01*
X590368Y410571D01*
X590305Y410525D01*
X590244Y410476D01*
X590186Y410424D01*
X590131Y410369D01*
X590078Y410312D01*
X590029Y410252D01*
X589982Y410189D01*
X589939Y410125D01*
X589899Y410058D01*
X589862Y409989D01*
X589829Y409918D01*
X589799Y409846D01*
X589773Y409773D01*
X592053Y408700D02*
X592102Y408749D01*
X592149Y408801D01*
X592192Y408856D01*
X592233Y408913D01*
X592271Y408972D01*
X592305Y409033D01*
X592336Y409096D01*
X592364Y409160D01*
X592388Y409226D01*
X592408Y409292D01*
X592425Y409360D01*
X592438Y409429D01*
X592447Y409498D01*
X592453Y409568D01*
X592455Y409638D01*
X592053Y408700D02*
X589774Y406019D01*
X592455Y406019D01*
D12*
X121920Y316230D02*
X114300Y316230D01*
X140970Y316230D02*
X143510Y316230D01*
X143510Y306324D01*
X140716Y303530D01*
X143510Y316230D02*
X143510Y326136D01*
X140716Y328930D01*
X95250Y316230D02*
X92710Y316230D01*
X92710Y326136D01*
X95504Y328930D01*
X92710Y316230D02*
X92710Y306324D01*
X95504Y303530D01*
D11*
X137246Y299085D02*
X137246Y295331D01*
X137244Y295266D01*
X137238Y295202D01*
X137228Y295138D01*
X137215Y295074D01*
X137197Y295012D01*
X137176Y294951D01*
X137152Y294891D01*
X137123Y294833D01*
X137091Y294776D01*
X137056Y294722D01*
X137018Y294670D01*
X136976Y294620D01*
X136932Y294573D01*
X136885Y294529D01*
X136835Y294487D01*
X136783Y294449D01*
X136729Y294414D01*
X136672Y294382D01*
X136614Y294353D01*
X136554Y294329D01*
X136493Y294308D01*
X136431Y294290D01*
X136367Y294277D01*
X136303Y294267D01*
X136239Y294261D01*
X136174Y294259D01*
X135637Y294259D01*
X140194Y294259D02*
X141534Y294259D01*
X141605Y294261D01*
X141677Y294267D01*
X141747Y294276D01*
X141817Y294289D01*
X141887Y294306D01*
X141955Y294327D01*
X142022Y294351D01*
X142088Y294379D01*
X142152Y294410D01*
X142215Y294445D01*
X142275Y294483D01*
X142334Y294524D01*
X142390Y294568D01*
X142444Y294615D01*
X142495Y294664D01*
X142543Y294717D01*
X142589Y294772D01*
X142631Y294829D01*
X142671Y294889D01*
X142707Y294950D01*
X142740Y295014D01*
X142769Y295079D01*
X142795Y295145D01*
X142818Y295213D01*
X142837Y295282D01*
X142852Y295352D01*
X142863Y295422D01*
X142871Y295493D01*
X142875Y295564D01*
X142875Y295636D01*
X142871Y295707D01*
X142863Y295778D01*
X142852Y295848D01*
X142837Y295918D01*
X142818Y295987D01*
X142795Y296055D01*
X142769Y296121D01*
X142740Y296186D01*
X142707Y296250D01*
X142671Y296311D01*
X142631Y296371D01*
X142589Y296428D01*
X142543Y296483D01*
X142495Y296536D01*
X142444Y296585D01*
X142390Y296632D01*
X142334Y296676D01*
X142275Y296717D01*
X142215Y296755D01*
X142152Y296790D01*
X142088Y296821D01*
X142022Y296849D01*
X141955Y296873D01*
X141887Y296894D01*
X141817Y296911D01*
X141747Y296924D01*
X141677Y296933D01*
X141605Y296939D01*
X141534Y296941D01*
X141803Y299085D02*
X140194Y299085D01*
X141803Y299085D02*
X141868Y299083D01*
X141932Y299077D01*
X141996Y299067D01*
X142060Y299054D01*
X142122Y299036D01*
X142183Y299015D01*
X142243Y298991D01*
X142301Y298962D01*
X142358Y298930D01*
X142412Y298895D01*
X142464Y298857D01*
X142514Y298815D01*
X142561Y298771D01*
X142605Y298724D01*
X142647Y298674D01*
X142685Y298622D01*
X142720Y298568D01*
X142752Y298511D01*
X142781Y298453D01*
X142805Y298393D01*
X142826Y298332D01*
X142844Y298270D01*
X142857Y298206D01*
X142867Y298142D01*
X142873Y298078D01*
X142875Y298013D01*
X142873Y297948D01*
X142867Y297884D01*
X142857Y297820D01*
X142844Y297756D01*
X142826Y297694D01*
X142805Y297633D01*
X142781Y297573D01*
X142752Y297515D01*
X142720Y297458D01*
X142685Y297404D01*
X142647Y297352D01*
X142605Y297302D01*
X142561Y297255D01*
X142514Y297211D01*
X142464Y297169D01*
X142412Y297131D01*
X142358Y297096D01*
X142301Y297064D01*
X142243Y297035D01*
X142183Y297011D01*
X142122Y296990D01*
X142060Y296972D01*
X141996Y296959D01*
X141932Y296949D01*
X141868Y296943D01*
X141803Y296941D01*
X141803Y296940D02*
X140730Y296940D01*
D12*
X121920Y278130D02*
X114300Y278130D01*
X140970Y278130D02*
X143510Y278130D01*
X143510Y268224D01*
X140716Y265430D01*
X143510Y278130D02*
X143510Y288036D01*
X140716Y290830D01*
X95250Y278130D02*
X92710Y278130D01*
X92710Y288036D01*
X95504Y290830D01*
X92710Y278130D02*
X92710Y268224D01*
X95504Y265430D01*
D11*
X137246Y260985D02*
X137246Y257231D01*
X137244Y257166D01*
X137238Y257102D01*
X137228Y257038D01*
X137215Y256974D01*
X137197Y256912D01*
X137176Y256851D01*
X137152Y256791D01*
X137123Y256733D01*
X137091Y256676D01*
X137056Y256622D01*
X137018Y256570D01*
X136976Y256520D01*
X136932Y256473D01*
X136885Y256429D01*
X136835Y256387D01*
X136783Y256349D01*
X136729Y256314D01*
X136672Y256282D01*
X136614Y256253D01*
X136554Y256229D01*
X136493Y256208D01*
X136431Y256190D01*
X136367Y256177D01*
X136303Y256167D01*
X136239Y256161D01*
X136174Y256159D01*
X135637Y256159D01*
X140194Y257231D02*
X141266Y260985D01*
X140194Y257231D02*
X142875Y257231D01*
X142071Y258304D02*
X142071Y256159D01*
D12*
X781050Y456636D02*
X781050Y464256D01*
X781050Y483306D02*
X781050Y485846D01*
X790956Y485846D01*
X793750Y483052D01*
X781050Y485846D02*
X771144Y485846D01*
X768350Y483052D01*
X781050Y437586D02*
X781050Y435046D01*
X771144Y435046D01*
X768350Y437840D01*
X781050Y435046D02*
X790956Y435046D01*
X793750Y437840D01*
D11*
X798195Y479582D02*
X801949Y479582D01*
X801949Y479581D02*
X802014Y479579D01*
X802078Y479573D01*
X802142Y479563D01*
X802206Y479550D01*
X802268Y479532D01*
X802329Y479511D01*
X802389Y479487D01*
X802447Y479458D01*
X802504Y479426D01*
X802558Y479391D01*
X802610Y479353D01*
X802660Y479311D01*
X802707Y479267D01*
X802751Y479220D01*
X802793Y479170D01*
X802831Y479118D01*
X802866Y479064D01*
X802898Y479007D01*
X802927Y478949D01*
X802951Y478889D01*
X802972Y478828D01*
X802990Y478766D01*
X803003Y478702D01*
X803013Y478638D01*
X803019Y478574D01*
X803021Y478509D01*
X803021Y477973D01*
X803021Y482529D02*
X803021Y484138D01*
X803019Y484203D01*
X803013Y484267D01*
X803003Y484331D01*
X802990Y484395D01*
X802972Y484457D01*
X802951Y484518D01*
X802927Y484578D01*
X802898Y484636D01*
X802866Y484693D01*
X802831Y484747D01*
X802793Y484799D01*
X802751Y484849D01*
X802707Y484896D01*
X802660Y484940D01*
X802610Y484982D01*
X802558Y485020D01*
X802504Y485055D01*
X802447Y485087D01*
X802389Y485116D01*
X802329Y485140D01*
X802268Y485161D01*
X802206Y485179D01*
X802142Y485192D01*
X802078Y485202D01*
X802014Y485208D01*
X801949Y485210D01*
X801949Y485211D02*
X801412Y485211D01*
X801412Y485210D02*
X801347Y485208D01*
X801283Y485202D01*
X801219Y485192D01*
X801155Y485179D01*
X801093Y485161D01*
X801032Y485140D01*
X800972Y485116D01*
X800914Y485087D01*
X800857Y485055D01*
X800803Y485020D01*
X800751Y484982D01*
X800701Y484940D01*
X800654Y484896D01*
X800610Y484849D01*
X800568Y484799D01*
X800530Y484747D01*
X800495Y484693D01*
X800463Y484636D01*
X800434Y484578D01*
X800410Y484518D01*
X800389Y484457D01*
X800371Y484395D01*
X800358Y484331D01*
X800348Y484267D01*
X800342Y484203D01*
X800340Y484138D01*
X800340Y482529D01*
X798195Y482529D01*
X798195Y485211D01*
D12*
X133978Y462767D02*
X128590Y457379D01*
X147449Y476238D02*
X149245Y478034D01*
X156249Y471029D01*
X156249Y467078D01*
X149245Y478034D02*
X142240Y485038D01*
X138289Y485038D01*
X115120Y443909D02*
X113324Y442113D01*
X106319Y449117D01*
X106319Y453069D01*
X113324Y442113D02*
X120328Y435108D01*
X124280Y435108D01*
D11*
X156939Y461481D02*
X159593Y458827D01*
X159592Y458826D02*
X159636Y458779D01*
X159678Y458729D01*
X159716Y458677D01*
X159751Y458623D01*
X159783Y458566D01*
X159812Y458508D01*
X159836Y458448D01*
X159857Y458387D01*
X159875Y458325D01*
X159888Y458261D01*
X159898Y458197D01*
X159904Y458133D01*
X159906Y458068D01*
X159904Y458003D01*
X159898Y457939D01*
X159888Y457875D01*
X159875Y457811D01*
X159857Y457749D01*
X159836Y457688D01*
X159812Y457628D01*
X159783Y457570D01*
X159751Y457513D01*
X159716Y457459D01*
X159678Y457407D01*
X159636Y457357D01*
X159592Y457310D01*
X159593Y457310D02*
X159214Y456931D01*
X160540Y462049D02*
X161677Y463186D01*
X161678Y463186D02*
X161725Y463230D01*
X161775Y463272D01*
X161827Y463310D01*
X161881Y463345D01*
X161938Y463377D01*
X161996Y463406D01*
X162056Y463430D01*
X162117Y463451D01*
X162179Y463469D01*
X162243Y463482D01*
X162307Y463492D01*
X162371Y463498D01*
X162436Y463500D01*
X162501Y463498D01*
X162565Y463492D01*
X162629Y463482D01*
X162693Y463469D01*
X162755Y463451D01*
X162816Y463430D01*
X162876Y463406D01*
X162934Y463377D01*
X162991Y463345D01*
X163045Y463310D01*
X163097Y463272D01*
X163147Y463230D01*
X163194Y463186D01*
X163384Y462997D01*
X163433Y462945D01*
X163480Y462891D01*
X163523Y462834D01*
X163563Y462775D01*
X163600Y462714D01*
X163634Y462651D01*
X163664Y462587D01*
X163691Y462521D01*
X163715Y462453D01*
X163734Y462385D01*
X163750Y462315D01*
X163763Y462245D01*
X163771Y462174D01*
X163776Y462103D01*
X163777Y462031D01*
X163774Y461960D01*
X163767Y461889D01*
X163757Y461818D01*
X163743Y461748D01*
X163725Y461679D01*
X163703Y461611D01*
X163678Y461544D01*
X163650Y461479D01*
X163618Y461415D01*
X163582Y461353D01*
X163544Y461293D01*
X163502Y461235D01*
X163457Y461179D01*
X163409Y461126D01*
X163359Y461076D01*
X163306Y461028D01*
X163250Y460983D01*
X163192Y460941D01*
X163132Y460903D01*
X163070Y460867D01*
X163006Y460835D01*
X162941Y460807D01*
X162874Y460782D01*
X162806Y460760D01*
X162737Y460742D01*
X162667Y460728D01*
X162596Y460718D01*
X162525Y460711D01*
X162454Y460708D01*
X162382Y460709D01*
X162311Y460714D01*
X162240Y460722D01*
X162170Y460735D01*
X162100Y460751D01*
X162032Y460770D01*
X161964Y460794D01*
X161898Y460821D01*
X161834Y460851D01*
X161771Y460885D01*
X161710Y460922D01*
X161651Y460962D01*
X161594Y461005D01*
X161540Y461052D01*
X161488Y461101D01*
X160540Y462049D01*
X160539Y462048D02*
X160476Y462114D01*
X160416Y462182D01*
X160359Y462253D01*
X160305Y462326D01*
X160254Y462402D01*
X160206Y462479D01*
X160162Y462559D01*
X160121Y462640D01*
X160083Y462723D01*
X160049Y462808D01*
X160019Y462894D01*
X159992Y462981D01*
X159969Y463069D01*
X159950Y463158D01*
X159935Y463247D01*
X159923Y463338D01*
X159915Y463428D01*
X159911Y463519D01*
X159911Y463611D01*
X159915Y463702D01*
X159923Y463792D01*
X159935Y463883D01*
X159950Y463972D01*
X159969Y464061D01*
X159992Y464149D01*
X160019Y464236D01*
X160049Y464322D01*
X160083Y464407D01*
X160121Y464490D01*
X160162Y464571D01*
X160206Y464651D01*
X160254Y464728D01*
X160305Y464804D01*
X160359Y464877D01*
X160416Y464948D01*
X160476Y465016D01*
X160539Y465082D01*
D12*
X90170Y146050D02*
X90170Y102870D01*
X29210Y102870D02*
X29210Y146050D01*
X49530Y93980D02*
X69670Y93980D01*
X69970Y154940D02*
X49530Y154940D01*
X41910Y124460D02*
X41915Y124896D01*
X41931Y125332D01*
X41958Y125768D01*
X41996Y126203D01*
X42044Y126636D01*
X42102Y127069D01*
X42172Y127500D01*
X42252Y127929D01*
X42342Y128356D01*
X42443Y128780D01*
X42554Y129202D01*
X42676Y129621D01*
X42807Y130037D01*
X42949Y130450D01*
X43101Y130859D01*
X43263Y131264D01*
X43435Y131665D01*
X43617Y132062D01*
X43808Y132454D01*
X44009Y132841D01*
X44220Y133224D01*
X44440Y133601D01*
X44669Y133972D01*
X44906Y134338D01*
X45153Y134698D01*
X45409Y135052D01*
X45673Y135399D01*
X45946Y135740D01*
X46227Y136073D01*
X46516Y136400D01*
X46813Y136720D01*
X47118Y137032D01*
X47430Y137337D01*
X47750Y137634D01*
X48077Y137923D01*
X48410Y138204D01*
X48751Y138477D01*
X49098Y138741D01*
X49452Y138997D01*
X49812Y139244D01*
X50178Y139481D01*
X50549Y139710D01*
X50926Y139930D01*
X51309Y140141D01*
X51696Y140342D01*
X52088Y140533D01*
X52485Y140715D01*
X52886Y140887D01*
X53291Y141049D01*
X53700Y141201D01*
X54113Y141343D01*
X54529Y141474D01*
X54948Y141596D01*
X55370Y141707D01*
X55794Y141808D01*
X56221Y141898D01*
X56650Y141978D01*
X57081Y142048D01*
X57514Y142106D01*
X57947Y142154D01*
X58382Y142192D01*
X58818Y142219D01*
X59254Y142235D01*
X59690Y142240D01*
X60126Y142235D01*
X60562Y142219D01*
X60998Y142192D01*
X61433Y142154D01*
X61866Y142106D01*
X62299Y142048D01*
X62730Y141978D01*
X63159Y141898D01*
X63586Y141808D01*
X64010Y141707D01*
X64432Y141596D01*
X64851Y141474D01*
X65267Y141343D01*
X65680Y141201D01*
X66089Y141049D01*
X66494Y140887D01*
X66895Y140715D01*
X67292Y140533D01*
X67684Y140342D01*
X68071Y140141D01*
X68454Y139930D01*
X68831Y139710D01*
X69202Y139481D01*
X69568Y139244D01*
X69928Y138997D01*
X70282Y138741D01*
X70629Y138477D01*
X70970Y138204D01*
X71303Y137923D01*
X71630Y137634D01*
X71950Y137337D01*
X72262Y137032D01*
X72567Y136720D01*
X72864Y136400D01*
X73153Y136073D01*
X73434Y135740D01*
X73707Y135399D01*
X73971Y135052D01*
X74227Y134698D01*
X74474Y134338D01*
X74711Y133972D01*
X74940Y133601D01*
X75160Y133224D01*
X75371Y132841D01*
X75572Y132454D01*
X75763Y132062D01*
X75945Y131665D01*
X76117Y131264D01*
X76279Y130859D01*
X76431Y130450D01*
X76573Y130037D01*
X76704Y129621D01*
X76826Y129202D01*
X76937Y128780D01*
X77038Y128356D01*
X77128Y127929D01*
X77208Y127500D01*
X77278Y127069D01*
X77336Y126636D01*
X77384Y126203D01*
X77422Y125768D01*
X77449Y125332D01*
X77465Y124896D01*
X77470Y124460D01*
X77465Y124024D01*
X77449Y123588D01*
X77422Y123152D01*
X77384Y122717D01*
X77336Y122284D01*
X77278Y121851D01*
X77208Y121420D01*
X77128Y120991D01*
X77038Y120564D01*
X76937Y120140D01*
X76826Y119718D01*
X76704Y119299D01*
X76573Y118883D01*
X76431Y118470D01*
X76279Y118061D01*
X76117Y117656D01*
X75945Y117255D01*
X75763Y116858D01*
X75572Y116466D01*
X75371Y116079D01*
X75160Y115696D01*
X74940Y115319D01*
X74711Y114948D01*
X74474Y114582D01*
X74227Y114222D01*
X73971Y113868D01*
X73707Y113521D01*
X73434Y113180D01*
X73153Y112847D01*
X72864Y112520D01*
X72567Y112200D01*
X72262Y111888D01*
X71950Y111583D01*
X71630Y111286D01*
X71303Y110997D01*
X70970Y110716D01*
X70629Y110443D01*
X70282Y110179D01*
X69928Y109923D01*
X69568Y109676D01*
X69202Y109439D01*
X68831Y109210D01*
X68454Y108990D01*
X68071Y108779D01*
X67684Y108578D01*
X67292Y108387D01*
X66895Y108205D01*
X66494Y108033D01*
X66089Y107871D01*
X65680Y107719D01*
X65267Y107577D01*
X64851Y107446D01*
X64432Y107324D01*
X64010Y107213D01*
X63586Y107112D01*
X63159Y107022D01*
X62730Y106942D01*
X62299Y106872D01*
X61866Y106814D01*
X61433Y106766D01*
X60998Y106728D01*
X60562Y106701D01*
X60126Y106685D01*
X59690Y106680D01*
X59254Y106685D01*
X58818Y106701D01*
X58382Y106728D01*
X57947Y106766D01*
X57514Y106814D01*
X57081Y106872D01*
X56650Y106942D01*
X56221Y107022D01*
X55794Y107112D01*
X55370Y107213D01*
X54948Y107324D01*
X54529Y107446D01*
X54113Y107577D01*
X53700Y107719D01*
X53291Y107871D01*
X52886Y108033D01*
X52485Y108205D01*
X52088Y108387D01*
X51696Y108578D01*
X51309Y108779D01*
X50926Y108990D01*
X50549Y109210D01*
X50178Y109439D01*
X49812Y109676D01*
X49452Y109923D01*
X49098Y110179D01*
X48751Y110443D01*
X48410Y110716D01*
X48077Y110997D01*
X47750Y111286D01*
X47430Y111583D01*
X47118Y111888D01*
X46813Y112200D01*
X46516Y112520D01*
X46227Y112847D01*
X45946Y113180D01*
X45673Y113521D01*
X45409Y113868D01*
X45153Y114222D01*
X44906Y114582D01*
X44669Y114948D01*
X44440Y115319D01*
X44220Y115696D01*
X44009Y116079D01*
X43808Y116466D01*
X43617Y116858D01*
X43435Y117255D01*
X43263Y117656D01*
X43101Y118061D01*
X42949Y118470D01*
X42807Y118883D01*
X42676Y119299D01*
X42554Y119718D01*
X42443Y120140D01*
X42342Y120564D01*
X42252Y120991D01*
X42172Y121420D01*
X42102Y121851D01*
X42044Y122284D01*
X41996Y122717D01*
X41958Y123152D01*
X41931Y123588D01*
X41915Y124024D01*
X41910Y124460D01*
D11*
X95829Y120405D02*
X95894Y120403D01*
X95958Y120397D01*
X96022Y120387D01*
X96086Y120374D01*
X96148Y120356D01*
X96209Y120335D01*
X96269Y120311D01*
X96327Y120282D01*
X96384Y120250D01*
X96438Y120215D01*
X96490Y120177D01*
X96540Y120135D01*
X96587Y120091D01*
X96631Y120044D01*
X96673Y119994D01*
X96711Y119942D01*
X96746Y119888D01*
X96778Y119831D01*
X96807Y119773D01*
X96831Y119713D01*
X96852Y119652D01*
X96870Y119590D01*
X96883Y119526D01*
X96893Y119462D01*
X96899Y119398D01*
X96901Y119333D01*
X96899Y119239D01*
X96893Y119145D01*
X96883Y119051D01*
X96870Y118958D01*
X96852Y118866D01*
X96831Y118774D01*
X96806Y118683D01*
X96777Y118593D01*
X96744Y118505D01*
X96708Y118418D01*
X96668Y118333D01*
X96625Y118249D01*
X96578Y118168D01*
X96528Y118088D01*
X96475Y118010D01*
X96418Y117935D01*
X96359Y117862D01*
X96296Y117792D01*
X96231Y117724D01*
X93147Y117859D02*
X93082Y117861D01*
X93018Y117867D01*
X92954Y117877D01*
X92890Y117890D01*
X92828Y117908D01*
X92767Y117929D01*
X92707Y117953D01*
X92649Y117982D01*
X92592Y118014D01*
X92538Y118049D01*
X92486Y118087D01*
X92436Y118129D01*
X92389Y118173D01*
X92345Y118220D01*
X92303Y118270D01*
X92265Y118322D01*
X92230Y118376D01*
X92198Y118433D01*
X92169Y118491D01*
X92145Y118551D01*
X92124Y118612D01*
X92106Y118674D01*
X92093Y118738D01*
X92083Y118802D01*
X92077Y118866D01*
X92075Y118931D01*
X92077Y119017D01*
X92082Y119103D01*
X92092Y119189D01*
X92105Y119274D01*
X92121Y119359D01*
X92141Y119443D01*
X92165Y119526D01*
X92192Y119608D01*
X92223Y119688D01*
X92257Y119768D01*
X92295Y119845D01*
X92336Y119921D01*
X92380Y119995D01*
X92427Y120068D01*
X92477Y120138D01*
X94085Y118395D02*
X94052Y118342D01*
X94015Y118291D01*
X93976Y118242D01*
X93934Y118195D01*
X93889Y118151D01*
X93842Y118110D01*
X93793Y118071D01*
X93741Y118035D01*
X93687Y118002D01*
X93632Y117973D01*
X93575Y117947D01*
X93516Y117924D01*
X93457Y117904D01*
X93396Y117888D01*
X93335Y117875D01*
X93272Y117866D01*
X93210Y117861D01*
X93147Y117859D01*
X94891Y119869D02*
X94924Y119922D01*
X94961Y119973D01*
X95000Y120022D01*
X95042Y120069D01*
X95087Y120113D01*
X95134Y120154D01*
X95183Y120193D01*
X95235Y120229D01*
X95289Y120262D01*
X95344Y120291D01*
X95401Y120317D01*
X95460Y120340D01*
X95519Y120360D01*
X95580Y120376D01*
X95641Y120389D01*
X95704Y120398D01*
X95766Y120403D01*
X95829Y120405D01*
X94890Y119869D02*
X94086Y118395D01*
X93147Y123028D02*
X92075Y124369D01*
X96901Y124369D01*
X96901Y125709D02*
X96901Y123028D01*
X94488Y128514D02*
X94368Y128516D01*
X94248Y128521D01*
X94128Y128530D01*
X94008Y128543D01*
X93889Y128559D01*
X93770Y128579D01*
X93652Y128603D01*
X93535Y128630D01*
X93419Y128660D01*
X93304Y128694D01*
X93189Y128732D01*
X93076Y128773D01*
X92965Y128817D01*
X92854Y128865D01*
X92745Y128916D01*
X92745Y128917D02*
X92688Y128938D01*
X92632Y128964D01*
X92577Y128992D01*
X92525Y129024D01*
X92474Y129060D01*
X92426Y129098D01*
X92380Y129139D01*
X92337Y129183D01*
X92297Y129229D01*
X92260Y129278D01*
X92226Y129330D01*
X92195Y129383D01*
X92167Y129438D01*
X92143Y129494D01*
X92122Y129552D01*
X92105Y129611D01*
X92092Y129671D01*
X92083Y129732D01*
X92077Y129794D01*
X92075Y129855D01*
X92077Y129916D01*
X92083Y129978D01*
X92092Y130039D01*
X92105Y130099D01*
X92122Y130158D01*
X92143Y130216D01*
X92167Y130272D01*
X92195Y130327D01*
X92226Y130380D01*
X92260Y130432D01*
X92297Y130481D01*
X92337Y130527D01*
X92380Y130571D01*
X92426Y130612D01*
X92474Y130650D01*
X92525Y130686D01*
X92577Y130718D01*
X92632Y130746D01*
X92688Y130772D01*
X92745Y130793D01*
X92854Y130844D01*
X92965Y130892D01*
X93076Y130936D01*
X93189Y130977D01*
X93304Y131015D01*
X93419Y131049D01*
X93535Y131079D01*
X93652Y131106D01*
X93770Y131130D01*
X93889Y131150D01*
X94008Y131166D01*
X94128Y131179D01*
X94248Y131188D01*
X94368Y131193D01*
X94488Y131195D01*
X94488Y128515D02*
X94608Y128517D01*
X94728Y128522D01*
X94848Y128531D01*
X94968Y128544D01*
X95087Y128560D01*
X95206Y128580D01*
X95324Y128604D01*
X95441Y128631D01*
X95557Y128661D01*
X95672Y128695D01*
X95787Y128733D01*
X95900Y128774D01*
X96011Y128818D01*
X96122Y128866D01*
X96231Y128917D01*
X96288Y128938D01*
X96344Y128964D01*
X96399Y128992D01*
X96451Y129024D01*
X96502Y129060D01*
X96550Y129098D01*
X96596Y129139D01*
X96639Y129183D01*
X96679Y129229D01*
X96716Y129278D01*
X96750Y129330D01*
X96781Y129383D01*
X96809Y129438D01*
X96833Y129494D01*
X96854Y129552D01*
X96871Y129611D01*
X96884Y129671D01*
X96893Y129732D01*
X96899Y129794D01*
X96901Y129855D01*
X96231Y130793D02*
X96122Y130844D01*
X96011Y130892D01*
X95900Y130936D01*
X95787Y130977D01*
X95672Y131015D01*
X95557Y131049D01*
X95441Y131079D01*
X95324Y131106D01*
X95206Y131130D01*
X95087Y131150D01*
X94968Y131166D01*
X94848Y131179D01*
X94728Y131188D01*
X94608Y131193D01*
X94488Y131195D01*
X96231Y130793D02*
X96288Y130772D01*
X96344Y130746D01*
X96399Y130718D01*
X96451Y130686D01*
X96502Y130650D01*
X96550Y130612D01*
X96596Y130571D01*
X96639Y130527D01*
X96679Y130480D01*
X96716Y130432D01*
X96750Y130380D01*
X96781Y130327D01*
X96809Y130272D01*
X96833Y130216D01*
X96854Y130158D01*
X96871Y130099D01*
X96884Y130039D01*
X96893Y129978D01*
X96899Y129916D01*
X96901Y129855D01*
X95829Y128782D02*
X93147Y130927D01*
D12*
X90170Y191770D02*
X90170Y234950D01*
X29210Y234950D02*
X29210Y191770D01*
X49530Y182880D02*
X69670Y182880D01*
X69970Y243840D02*
X49530Y243840D01*
X41910Y213360D02*
X41915Y213796D01*
X41931Y214232D01*
X41958Y214668D01*
X41996Y215103D01*
X42044Y215536D01*
X42102Y215969D01*
X42172Y216400D01*
X42252Y216829D01*
X42342Y217256D01*
X42443Y217680D01*
X42554Y218102D01*
X42676Y218521D01*
X42807Y218937D01*
X42949Y219350D01*
X43101Y219759D01*
X43263Y220164D01*
X43435Y220565D01*
X43617Y220962D01*
X43808Y221354D01*
X44009Y221741D01*
X44220Y222124D01*
X44440Y222501D01*
X44669Y222872D01*
X44906Y223238D01*
X45153Y223598D01*
X45409Y223952D01*
X45673Y224299D01*
X45946Y224640D01*
X46227Y224973D01*
X46516Y225300D01*
X46813Y225620D01*
X47118Y225932D01*
X47430Y226237D01*
X47750Y226534D01*
X48077Y226823D01*
X48410Y227104D01*
X48751Y227377D01*
X49098Y227641D01*
X49452Y227897D01*
X49812Y228144D01*
X50178Y228381D01*
X50549Y228610D01*
X50926Y228830D01*
X51309Y229041D01*
X51696Y229242D01*
X52088Y229433D01*
X52485Y229615D01*
X52886Y229787D01*
X53291Y229949D01*
X53700Y230101D01*
X54113Y230243D01*
X54529Y230374D01*
X54948Y230496D01*
X55370Y230607D01*
X55794Y230708D01*
X56221Y230798D01*
X56650Y230878D01*
X57081Y230948D01*
X57514Y231006D01*
X57947Y231054D01*
X58382Y231092D01*
X58818Y231119D01*
X59254Y231135D01*
X59690Y231140D01*
X60126Y231135D01*
X60562Y231119D01*
X60998Y231092D01*
X61433Y231054D01*
X61866Y231006D01*
X62299Y230948D01*
X62730Y230878D01*
X63159Y230798D01*
X63586Y230708D01*
X64010Y230607D01*
X64432Y230496D01*
X64851Y230374D01*
X65267Y230243D01*
X65680Y230101D01*
X66089Y229949D01*
X66494Y229787D01*
X66895Y229615D01*
X67292Y229433D01*
X67684Y229242D01*
X68071Y229041D01*
X68454Y228830D01*
X68831Y228610D01*
X69202Y228381D01*
X69568Y228144D01*
X69928Y227897D01*
X70282Y227641D01*
X70629Y227377D01*
X70970Y227104D01*
X71303Y226823D01*
X71630Y226534D01*
X71950Y226237D01*
X72262Y225932D01*
X72567Y225620D01*
X72864Y225300D01*
X73153Y224973D01*
X73434Y224640D01*
X73707Y224299D01*
X73971Y223952D01*
X74227Y223598D01*
X74474Y223238D01*
X74711Y222872D01*
X74940Y222501D01*
X75160Y222124D01*
X75371Y221741D01*
X75572Y221354D01*
X75763Y220962D01*
X75945Y220565D01*
X76117Y220164D01*
X76279Y219759D01*
X76431Y219350D01*
X76573Y218937D01*
X76704Y218521D01*
X76826Y218102D01*
X76937Y217680D01*
X77038Y217256D01*
X77128Y216829D01*
X77208Y216400D01*
X77278Y215969D01*
X77336Y215536D01*
X77384Y215103D01*
X77422Y214668D01*
X77449Y214232D01*
X77465Y213796D01*
X77470Y213360D01*
X77465Y212924D01*
X77449Y212488D01*
X77422Y212052D01*
X77384Y211617D01*
X77336Y211184D01*
X77278Y210751D01*
X77208Y210320D01*
X77128Y209891D01*
X77038Y209464D01*
X76937Y209040D01*
X76826Y208618D01*
X76704Y208199D01*
X76573Y207783D01*
X76431Y207370D01*
X76279Y206961D01*
X76117Y206556D01*
X75945Y206155D01*
X75763Y205758D01*
X75572Y205366D01*
X75371Y204979D01*
X75160Y204596D01*
X74940Y204219D01*
X74711Y203848D01*
X74474Y203482D01*
X74227Y203122D01*
X73971Y202768D01*
X73707Y202421D01*
X73434Y202080D01*
X73153Y201747D01*
X72864Y201420D01*
X72567Y201100D01*
X72262Y200788D01*
X71950Y200483D01*
X71630Y200186D01*
X71303Y199897D01*
X70970Y199616D01*
X70629Y199343D01*
X70282Y199079D01*
X69928Y198823D01*
X69568Y198576D01*
X69202Y198339D01*
X68831Y198110D01*
X68454Y197890D01*
X68071Y197679D01*
X67684Y197478D01*
X67292Y197287D01*
X66895Y197105D01*
X66494Y196933D01*
X66089Y196771D01*
X65680Y196619D01*
X65267Y196477D01*
X64851Y196346D01*
X64432Y196224D01*
X64010Y196113D01*
X63586Y196012D01*
X63159Y195922D01*
X62730Y195842D01*
X62299Y195772D01*
X61866Y195714D01*
X61433Y195666D01*
X60998Y195628D01*
X60562Y195601D01*
X60126Y195585D01*
X59690Y195580D01*
X59254Y195585D01*
X58818Y195601D01*
X58382Y195628D01*
X57947Y195666D01*
X57514Y195714D01*
X57081Y195772D01*
X56650Y195842D01*
X56221Y195922D01*
X55794Y196012D01*
X55370Y196113D01*
X54948Y196224D01*
X54529Y196346D01*
X54113Y196477D01*
X53700Y196619D01*
X53291Y196771D01*
X52886Y196933D01*
X52485Y197105D01*
X52088Y197287D01*
X51696Y197478D01*
X51309Y197679D01*
X50926Y197890D01*
X50549Y198110D01*
X50178Y198339D01*
X49812Y198576D01*
X49452Y198823D01*
X49098Y199079D01*
X48751Y199343D01*
X48410Y199616D01*
X48077Y199897D01*
X47750Y200186D01*
X47430Y200483D01*
X47118Y200788D01*
X46813Y201100D01*
X46516Y201420D01*
X46227Y201747D01*
X45946Y202080D01*
X45673Y202421D01*
X45409Y202768D01*
X45153Y203122D01*
X44906Y203482D01*
X44669Y203848D01*
X44440Y204219D01*
X44220Y204596D01*
X44009Y204979D01*
X43808Y205366D01*
X43617Y205758D01*
X43435Y206155D01*
X43263Y206556D01*
X43101Y206961D01*
X42949Y207370D01*
X42807Y207783D01*
X42676Y208199D01*
X42554Y208618D01*
X42443Y209040D01*
X42342Y209464D01*
X42252Y209891D01*
X42172Y210320D01*
X42102Y210751D01*
X42044Y211184D01*
X41996Y211617D01*
X41958Y212052D01*
X41931Y212488D01*
X41915Y212924D01*
X41910Y213360D01*
D11*
X95829Y212048D02*
X95894Y212046D01*
X95958Y212040D01*
X96022Y212030D01*
X96086Y212017D01*
X96148Y211999D01*
X96209Y211978D01*
X96269Y211954D01*
X96327Y211925D01*
X96384Y211893D01*
X96438Y211858D01*
X96490Y211820D01*
X96540Y211778D01*
X96587Y211734D01*
X96631Y211687D01*
X96673Y211637D01*
X96711Y211585D01*
X96746Y211531D01*
X96778Y211474D01*
X96807Y211416D01*
X96831Y211356D01*
X96852Y211295D01*
X96870Y211233D01*
X96883Y211169D01*
X96893Y211105D01*
X96899Y211041D01*
X96901Y210976D01*
X96899Y210882D01*
X96893Y210788D01*
X96883Y210694D01*
X96870Y210601D01*
X96852Y210509D01*
X96831Y210417D01*
X96806Y210326D01*
X96777Y210236D01*
X96744Y210148D01*
X96708Y210061D01*
X96668Y209976D01*
X96625Y209892D01*
X96578Y209811D01*
X96528Y209731D01*
X96475Y209653D01*
X96418Y209578D01*
X96359Y209505D01*
X96296Y209435D01*
X96231Y209367D01*
X93147Y209502D02*
X93082Y209504D01*
X93018Y209510D01*
X92954Y209520D01*
X92890Y209533D01*
X92828Y209551D01*
X92767Y209572D01*
X92707Y209596D01*
X92649Y209625D01*
X92592Y209657D01*
X92538Y209692D01*
X92486Y209730D01*
X92436Y209772D01*
X92389Y209816D01*
X92345Y209863D01*
X92303Y209913D01*
X92265Y209965D01*
X92230Y210019D01*
X92198Y210076D01*
X92169Y210134D01*
X92145Y210194D01*
X92124Y210255D01*
X92106Y210317D01*
X92093Y210381D01*
X92083Y210445D01*
X92077Y210509D01*
X92075Y210574D01*
X92077Y210660D01*
X92082Y210746D01*
X92092Y210832D01*
X92105Y210917D01*
X92121Y211002D01*
X92141Y211086D01*
X92165Y211169D01*
X92192Y211251D01*
X92223Y211331D01*
X92257Y211411D01*
X92295Y211488D01*
X92336Y211564D01*
X92380Y211638D01*
X92427Y211711D01*
X92477Y211781D01*
X94085Y210038D02*
X94052Y209985D01*
X94015Y209934D01*
X93976Y209885D01*
X93934Y209838D01*
X93889Y209794D01*
X93842Y209753D01*
X93793Y209714D01*
X93741Y209678D01*
X93687Y209645D01*
X93632Y209616D01*
X93575Y209590D01*
X93516Y209567D01*
X93457Y209547D01*
X93396Y209531D01*
X93335Y209518D01*
X93272Y209509D01*
X93210Y209504D01*
X93147Y209502D01*
X94891Y211513D02*
X94924Y211566D01*
X94961Y211617D01*
X95000Y211666D01*
X95042Y211713D01*
X95087Y211757D01*
X95134Y211798D01*
X95183Y211837D01*
X95235Y211873D01*
X95289Y211906D01*
X95344Y211935D01*
X95401Y211961D01*
X95460Y211984D01*
X95519Y212004D01*
X95580Y212020D01*
X95641Y212033D01*
X95704Y212042D01*
X95766Y212047D01*
X95829Y212049D01*
X94890Y211513D02*
X94086Y210038D01*
X94756Y215744D02*
X94756Y217352D01*
X94756Y215744D02*
X94754Y215679D01*
X94748Y215615D01*
X94738Y215551D01*
X94725Y215487D01*
X94707Y215425D01*
X94686Y215364D01*
X94662Y215304D01*
X94633Y215246D01*
X94601Y215189D01*
X94566Y215135D01*
X94528Y215083D01*
X94486Y215033D01*
X94442Y214986D01*
X94395Y214942D01*
X94345Y214900D01*
X94293Y214862D01*
X94239Y214827D01*
X94182Y214795D01*
X94124Y214766D01*
X94064Y214742D01*
X94003Y214721D01*
X93941Y214703D01*
X93877Y214690D01*
X93813Y214680D01*
X93749Y214674D01*
X93684Y214672D01*
X93684Y214671D02*
X93416Y214671D01*
X93345Y214673D01*
X93273Y214679D01*
X93203Y214688D01*
X93133Y214701D01*
X93063Y214718D01*
X92995Y214739D01*
X92928Y214763D01*
X92862Y214791D01*
X92798Y214822D01*
X92735Y214857D01*
X92675Y214895D01*
X92616Y214936D01*
X92560Y214980D01*
X92506Y215027D01*
X92455Y215076D01*
X92407Y215129D01*
X92361Y215184D01*
X92319Y215241D01*
X92279Y215301D01*
X92243Y215362D01*
X92210Y215426D01*
X92181Y215491D01*
X92155Y215557D01*
X92132Y215625D01*
X92113Y215694D01*
X92098Y215764D01*
X92087Y215834D01*
X92079Y215905D01*
X92075Y215976D01*
X92075Y216048D01*
X92079Y216119D01*
X92087Y216190D01*
X92098Y216260D01*
X92113Y216330D01*
X92132Y216399D01*
X92155Y216467D01*
X92181Y216533D01*
X92210Y216598D01*
X92243Y216662D01*
X92279Y216723D01*
X92319Y216783D01*
X92361Y216840D01*
X92407Y216895D01*
X92455Y216948D01*
X92506Y216997D01*
X92560Y217044D01*
X92616Y217088D01*
X92675Y217129D01*
X92735Y217167D01*
X92798Y217202D01*
X92862Y217233D01*
X92928Y217261D01*
X92995Y217285D01*
X93063Y217306D01*
X93133Y217323D01*
X93203Y217336D01*
X93273Y217345D01*
X93345Y217351D01*
X93416Y217353D01*
X93416Y217352D02*
X94756Y217352D01*
X94847Y217350D01*
X94938Y217344D01*
X95028Y217335D01*
X95119Y217321D01*
X95208Y217304D01*
X95296Y217283D01*
X95384Y217258D01*
X95471Y217229D01*
X95556Y217197D01*
X95640Y217162D01*
X95722Y217122D01*
X95802Y217080D01*
X95881Y217034D01*
X95957Y216984D01*
X96031Y216932D01*
X96104Y216876D01*
X96173Y216817D01*
X96240Y216756D01*
X96305Y216691D01*
X96366Y216624D01*
X96425Y216555D01*
X96481Y216482D01*
X96533Y216408D01*
X96583Y216332D01*
X96629Y216253D01*
X96671Y216173D01*
X96711Y216091D01*
X96746Y216007D01*
X96778Y215922D01*
X96807Y215835D01*
X96832Y215747D01*
X96853Y215659D01*
X96870Y215570D01*
X96884Y215479D01*
X96893Y215389D01*
X96899Y215298D01*
X96901Y215207D01*
D12*
X775200Y325800D02*
X784180Y334780D01*
X793160Y334780D01*
X802140Y325800D02*
X802140Y316820D01*
X793160Y334780D02*
X793160Y343761D01*
X802140Y352741D01*
X811121Y352741D01*
X820101Y343761D02*
X820101Y334780D01*
X811121Y325800D01*
X802140Y325800D01*
X784180Y307840D02*
X775200Y316820D01*
X775200Y325800D01*
X784180Y307840D02*
X793160Y307840D01*
X802140Y316820D01*
X820101Y343761D02*
X811121Y352741D01*
D11*
X770191Y325002D02*
X767536Y327656D01*
X770190Y325002D02*
X770234Y324955D01*
X770276Y324905D01*
X770314Y324853D01*
X770349Y324799D01*
X770381Y324742D01*
X770410Y324684D01*
X770434Y324624D01*
X770455Y324563D01*
X770473Y324501D01*
X770486Y324437D01*
X770496Y324373D01*
X770502Y324309D01*
X770504Y324244D01*
X770502Y324179D01*
X770496Y324115D01*
X770486Y324051D01*
X770473Y323987D01*
X770455Y323925D01*
X770434Y323864D01*
X770410Y323804D01*
X770381Y323746D01*
X770349Y323689D01*
X770314Y323635D01*
X770276Y323583D01*
X770234Y323533D01*
X770190Y323486D01*
X770191Y323485D02*
X769811Y323106D01*
X770000Y329361D02*
X769621Y329740D01*
X771517Y331636D01*
X773981Y327276D01*
X168868Y479227D02*
X168866Y479162D01*
X168860Y479098D01*
X168850Y479034D01*
X168837Y478970D01*
X168819Y478908D01*
X168798Y478847D01*
X168774Y478787D01*
X168745Y478729D01*
X168713Y478672D01*
X168678Y478618D01*
X168640Y478566D01*
X168598Y478516D01*
X168554Y478469D01*
X168507Y478425D01*
X168457Y478383D01*
X168405Y478345D01*
X168351Y478310D01*
X168294Y478278D01*
X168236Y478249D01*
X168176Y478225D01*
X168115Y478204D01*
X168053Y478186D01*
X167989Y478173D01*
X167925Y478163D01*
X167861Y478157D01*
X167796Y478155D01*
X167702Y478157D01*
X167608Y478163D01*
X167514Y478173D01*
X167421Y478186D01*
X167329Y478204D01*
X167237Y478225D01*
X167146Y478250D01*
X167056Y478279D01*
X166968Y478312D01*
X166881Y478348D01*
X166796Y478388D01*
X166712Y478431D01*
X166631Y478478D01*
X166551Y478528D01*
X166473Y478581D01*
X166398Y478638D01*
X166325Y478697D01*
X166255Y478760D01*
X166187Y478825D01*
X166322Y481909D02*
X166324Y481974D01*
X166330Y482038D01*
X166340Y482102D01*
X166353Y482166D01*
X166371Y482228D01*
X166392Y482289D01*
X166416Y482349D01*
X166445Y482407D01*
X166477Y482464D01*
X166512Y482518D01*
X166550Y482570D01*
X166592Y482620D01*
X166636Y482667D01*
X166683Y482711D01*
X166733Y482753D01*
X166785Y482791D01*
X166839Y482826D01*
X166896Y482858D01*
X166954Y482887D01*
X167014Y482911D01*
X167075Y482932D01*
X167137Y482950D01*
X167201Y482963D01*
X167265Y482973D01*
X167329Y482979D01*
X167394Y482981D01*
X167480Y482979D01*
X167566Y482974D01*
X167652Y482964D01*
X167737Y482951D01*
X167822Y482935D01*
X167906Y482915D01*
X167989Y482891D01*
X168071Y482864D01*
X168151Y482833D01*
X168231Y482799D01*
X168308Y482761D01*
X168384Y482720D01*
X168458Y482676D01*
X168530Y482629D01*
X168601Y482579D01*
X166858Y480971D02*
X166805Y481004D01*
X166754Y481041D01*
X166705Y481080D01*
X166658Y481122D01*
X166614Y481167D01*
X166573Y481214D01*
X166534Y481263D01*
X166498Y481315D01*
X166465Y481369D01*
X166436Y481424D01*
X166410Y481481D01*
X166387Y481540D01*
X166367Y481599D01*
X166351Y481660D01*
X166338Y481721D01*
X166329Y481784D01*
X166324Y481846D01*
X166322Y481909D01*
X168333Y480165D02*
X168386Y480132D01*
X168437Y480095D01*
X168486Y480056D01*
X168533Y480014D01*
X168577Y479969D01*
X168618Y479922D01*
X168657Y479873D01*
X168693Y479821D01*
X168726Y479767D01*
X168755Y479712D01*
X168781Y479655D01*
X168804Y479596D01*
X168824Y479537D01*
X168840Y479476D01*
X168853Y479415D01*
X168862Y479352D01*
X168867Y479290D01*
X168869Y479227D01*
X168333Y480166D02*
X166858Y480970D01*
X171491Y481909D02*
X172832Y482981D01*
X172832Y478155D01*
X174172Y478155D02*
X171491Y478155D01*
X106243Y387308D02*
X106308Y387306D01*
X106372Y387300D01*
X106436Y387290D01*
X106500Y387277D01*
X106562Y387259D01*
X106623Y387238D01*
X106683Y387214D01*
X106741Y387185D01*
X106798Y387153D01*
X106852Y387118D01*
X106904Y387080D01*
X106954Y387038D01*
X107001Y386994D01*
X107045Y386947D01*
X107087Y386897D01*
X107125Y386845D01*
X107160Y386791D01*
X107192Y386734D01*
X107221Y386676D01*
X107245Y386616D01*
X107266Y386555D01*
X107284Y386493D01*
X107297Y386429D01*
X107307Y386365D01*
X107313Y386301D01*
X107315Y386236D01*
X107313Y386142D01*
X107307Y386048D01*
X107297Y385954D01*
X107284Y385861D01*
X107266Y385769D01*
X107245Y385677D01*
X107220Y385586D01*
X107191Y385496D01*
X107158Y385408D01*
X107122Y385321D01*
X107082Y385236D01*
X107039Y385152D01*
X106992Y385071D01*
X106942Y384991D01*
X106889Y384913D01*
X106832Y384838D01*
X106773Y384765D01*
X106710Y384695D01*
X106645Y384627D01*
X103561Y384762D02*
X103496Y384764D01*
X103432Y384770D01*
X103368Y384780D01*
X103304Y384793D01*
X103242Y384811D01*
X103181Y384832D01*
X103121Y384856D01*
X103063Y384885D01*
X103006Y384917D01*
X102952Y384952D01*
X102900Y384990D01*
X102850Y385032D01*
X102803Y385076D01*
X102759Y385123D01*
X102717Y385173D01*
X102679Y385225D01*
X102644Y385279D01*
X102612Y385336D01*
X102583Y385394D01*
X102559Y385454D01*
X102538Y385515D01*
X102520Y385577D01*
X102507Y385641D01*
X102497Y385705D01*
X102491Y385769D01*
X102489Y385834D01*
X102491Y385920D01*
X102496Y386006D01*
X102506Y386092D01*
X102519Y386177D01*
X102535Y386262D01*
X102555Y386346D01*
X102579Y386429D01*
X102606Y386511D01*
X102637Y386591D01*
X102671Y386671D01*
X102709Y386748D01*
X102750Y386824D01*
X102794Y386898D01*
X102841Y386971D01*
X102891Y387041D01*
X104499Y385298D02*
X104466Y385245D01*
X104429Y385194D01*
X104390Y385145D01*
X104348Y385098D01*
X104303Y385054D01*
X104256Y385013D01*
X104207Y384974D01*
X104155Y384938D01*
X104101Y384905D01*
X104046Y384876D01*
X103989Y384850D01*
X103930Y384827D01*
X103871Y384807D01*
X103810Y384791D01*
X103749Y384778D01*
X103686Y384769D01*
X103624Y384764D01*
X103561Y384762D01*
X105305Y386773D02*
X105338Y386826D01*
X105375Y386877D01*
X105414Y386926D01*
X105456Y386973D01*
X105501Y387017D01*
X105548Y387058D01*
X105597Y387097D01*
X105649Y387133D01*
X105703Y387166D01*
X105758Y387195D01*
X105815Y387221D01*
X105874Y387244D01*
X105933Y387264D01*
X105994Y387280D01*
X106055Y387293D01*
X106118Y387302D01*
X106180Y387307D01*
X106243Y387309D01*
X105304Y386773D02*
X104500Y385298D01*
X102489Y391406D02*
X102491Y391474D01*
X102497Y391541D01*
X102506Y391608D01*
X102519Y391675D01*
X102536Y391740D01*
X102557Y391805D01*
X102581Y391868D01*
X102609Y391930D01*
X102640Y391990D01*
X102674Y392048D01*
X102712Y392104D01*
X102752Y392159D01*
X102796Y392210D01*
X102843Y392259D01*
X102892Y392306D01*
X102943Y392350D01*
X102998Y392390D01*
X103054Y392428D01*
X103112Y392462D01*
X103172Y392493D01*
X103234Y392521D01*
X103297Y392545D01*
X103362Y392566D01*
X103427Y392583D01*
X103494Y392596D01*
X103561Y392605D01*
X103628Y392611D01*
X103696Y392613D01*
X102489Y391406D02*
X102491Y391328D01*
X102497Y391250D01*
X102507Y391173D01*
X102520Y391096D01*
X102538Y391020D01*
X102559Y390945D01*
X102584Y390871D01*
X102613Y390799D01*
X102645Y390728D01*
X102681Y390659D01*
X102720Y390591D01*
X102763Y390526D01*
X102809Y390463D01*
X102858Y390402D01*
X102910Y390344D01*
X102965Y390289D01*
X103022Y390236D01*
X103082Y390187D01*
X103145Y390140D01*
X103210Y390097D01*
X103276Y390057D01*
X103345Y390020D01*
X103416Y389987D01*
X103488Y389957D01*
X103562Y389931D01*
X104634Y392210D02*
X104585Y392259D01*
X104533Y392306D01*
X104478Y392349D01*
X104421Y392390D01*
X104362Y392428D01*
X104301Y392462D01*
X104238Y392493D01*
X104174Y392521D01*
X104108Y392545D01*
X104042Y392565D01*
X103974Y392582D01*
X103905Y392595D01*
X103836Y392604D01*
X103766Y392610D01*
X103696Y392612D01*
X104634Y392210D02*
X107315Y389931D01*
X107315Y392612D01*
X203356Y370205D02*
X203421Y370207D01*
X203485Y370213D01*
X203549Y370223D01*
X203613Y370236D01*
X203675Y370254D01*
X203736Y370275D01*
X203796Y370299D01*
X203854Y370328D01*
X203911Y370360D01*
X203965Y370395D01*
X204017Y370433D01*
X204067Y370475D01*
X204114Y370519D01*
X204158Y370566D01*
X204200Y370616D01*
X204238Y370668D01*
X204273Y370722D01*
X204305Y370779D01*
X204334Y370837D01*
X204358Y370897D01*
X204379Y370958D01*
X204397Y371020D01*
X204410Y371084D01*
X204420Y371148D01*
X204426Y371212D01*
X204428Y371277D01*
X203356Y370205D02*
X203262Y370207D01*
X203168Y370213D01*
X203074Y370223D01*
X202981Y370236D01*
X202889Y370254D01*
X202797Y370275D01*
X202706Y370300D01*
X202616Y370329D01*
X202528Y370362D01*
X202441Y370398D01*
X202356Y370438D01*
X202272Y370481D01*
X202191Y370528D01*
X202111Y370578D01*
X202033Y370631D01*
X201958Y370688D01*
X201885Y370747D01*
X201815Y370810D01*
X201747Y370875D01*
X201882Y373959D02*
X201884Y374024D01*
X201890Y374088D01*
X201900Y374152D01*
X201913Y374216D01*
X201931Y374278D01*
X201952Y374339D01*
X201976Y374399D01*
X202005Y374457D01*
X202037Y374514D01*
X202072Y374568D01*
X202110Y374620D01*
X202152Y374670D01*
X202196Y374717D01*
X202243Y374761D01*
X202293Y374803D01*
X202345Y374841D01*
X202399Y374876D01*
X202456Y374908D01*
X202514Y374937D01*
X202574Y374961D01*
X202635Y374982D01*
X202697Y375000D01*
X202761Y375013D01*
X202825Y375023D01*
X202889Y375029D01*
X202954Y375031D01*
X203040Y375029D01*
X203126Y375024D01*
X203212Y375014D01*
X203297Y375001D01*
X203382Y374985D01*
X203466Y374965D01*
X203549Y374941D01*
X203631Y374914D01*
X203711Y374883D01*
X203791Y374849D01*
X203868Y374811D01*
X203944Y374770D01*
X204018Y374726D01*
X204090Y374679D01*
X204161Y374629D01*
X202418Y373021D02*
X202365Y373054D01*
X202314Y373091D01*
X202265Y373130D01*
X202218Y373172D01*
X202174Y373217D01*
X202133Y373264D01*
X202094Y373313D01*
X202058Y373365D01*
X202025Y373419D01*
X201996Y373474D01*
X201970Y373531D01*
X201947Y373590D01*
X201927Y373649D01*
X201911Y373710D01*
X201898Y373771D01*
X201889Y373834D01*
X201884Y373896D01*
X201882Y373959D01*
X203893Y372215D02*
X203946Y372182D01*
X203997Y372145D01*
X204046Y372106D01*
X204093Y372064D01*
X204137Y372019D01*
X204178Y371972D01*
X204217Y371923D01*
X204253Y371871D01*
X204286Y371817D01*
X204315Y371762D01*
X204341Y371705D01*
X204364Y371646D01*
X204384Y371587D01*
X204400Y371526D01*
X204413Y371465D01*
X204422Y371402D01*
X204427Y371340D01*
X204429Y371277D01*
X203893Y372216D02*
X202418Y373020D01*
X207051Y370205D02*
X208392Y370205D01*
X208463Y370207D01*
X208535Y370213D01*
X208605Y370222D01*
X208675Y370235D01*
X208745Y370252D01*
X208813Y370273D01*
X208880Y370297D01*
X208946Y370325D01*
X209010Y370356D01*
X209073Y370391D01*
X209133Y370429D01*
X209192Y370470D01*
X209248Y370514D01*
X209302Y370561D01*
X209353Y370610D01*
X209401Y370663D01*
X209447Y370718D01*
X209489Y370775D01*
X209529Y370835D01*
X209565Y370896D01*
X209598Y370960D01*
X209627Y371025D01*
X209653Y371091D01*
X209676Y371159D01*
X209695Y371228D01*
X209710Y371298D01*
X209721Y371368D01*
X209729Y371439D01*
X209733Y371510D01*
X209733Y371582D01*
X209729Y371653D01*
X209721Y371724D01*
X209710Y371794D01*
X209695Y371864D01*
X209676Y371933D01*
X209653Y372001D01*
X209627Y372067D01*
X209598Y372132D01*
X209565Y372196D01*
X209529Y372257D01*
X209489Y372317D01*
X209447Y372374D01*
X209401Y372429D01*
X209353Y372482D01*
X209302Y372531D01*
X209248Y372578D01*
X209192Y372622D01*
X209133Y372663D01*
X209073Y372701D01*
X209010Y372736D01*
X208946Y372767D01*
X208880Y372795D01*
X208813Y372819D01*
X208745Y372840D01*
X208675Y372857D01*
X208605Y372870D01*
X208535Y372879D01*
X208463Y372885D01*
X208392Y372887D01*
X208660Y375031D02*
X207051Y375031D01*
X208660Y375031D02*
X208725Y375029D01*
X208789Y375023D01*
X208853Y375013D01*
X208917Y375000D01*
X208979Y374982D01*
X209040Y374961D01*
X209100Y374937D01*
X209158Y374908D01*
X209215Y374876D01*
X209269Y374841D01*
X209321Y374803D01*
X209371Y374761D01*
X209418Y374717D01*
X209462Y374670D01*
X209504Y374620D01*
X209542Y374568D01*
X209577Y374514D01*
X209609Y374457D01*
X209638Y374399D01*
X209662Y374339D01*
X209683Y374278D01*
X209701Y374216D01*
X209714Y374152D01*
X209724Y374088D01*
X209730Y374024D01*
X209732Y373959D01*
X209730Y373894D01*
X209724Y373830D01*
X209714Y373766D01*
X209701Y373702D01*
X209683Y373640D01*
X209662Y373579D01*
X209638Y373519D01*
X209609Y373461D01*
X209577Y373404D01*
X209542Y373350D01*
X209504Y373298D01*
X209462Y373248D01*
X209418Y373201D01*
X209371Y373157D01*
X209321Y373115D01*
X209269Y373077D01*
X209215Y373042D01*
X209158Y373010D01*
X209100Y372981D01*
X209040Y372957D01*
X208979Y372936D01*
X208917Y372918D01*
X208853Y372905D01*
X208789Y372895D01*
X208725Y372889D01*
X208660Y372887D01*
X208660Y372886D02*
X207587Y372886D01*
X265586Y429895D02*
X265651Y429897D01*
X265715Y429903D01*
X265779Y429913D01*
X265843Y429926D01*
X265905Y429944D01*
X265966Y429965D01*
X266026Y429989D01*
X266084Y430018D01*
X266141Y430050D01*
X266195Y430085D01*
X266247Y430123D01*
X266297Y430165D01*
X266344Y430209D01*
X266388Y430256D01*
X266430Y430306D01*
X266468Y430358D01*
X266503Y430412D01*
X266535Y430469D01*
X266564Y430527D01*
X266588Y430587D01*
X266609Y430648D01*
X266627Y430710D01*
X266640Y430774D01*
X266650Y430838D01*
X266656Y430902D01*
X266658Y430967D01*
X265586Y429895D02*
X265492Y429897D01*
X265398Y429903D01*
X265304Y429913D01*
X265211Y429926D01*
X265119Y429944D01*
X265027Y429965D01*
X264936Y429990D01*
X264846Y430019D01*
X264758Y430052D01*
X264671Y430088D01*
X264586Y430128D01*
X264502Y430171D01*
X264421Y430218D01*
X264341Y430268D01*
X264263Y430321D01*
X264188Y430378D01*
X264115Y430437D01*
X264045Y430500D01*
X263977Y430565D01*
X264112Y433649D02*
X264114Y433714D01*
X264120Y433778D01*
X264130Y433842D01*
X264143Y433906D01*
X264161Y433968D01*
X264182Y434029D01*
X264206Y434089D01*
X264235Y434147D01*
X264267Y434204D01*
X264302Y434258D01*
X264340Y434310D01*
X264382Y434360D01*
X264426Y434407D01*
X264473Y434451D01*
X264523Y434493D01*
X264575Y434531D01*
X264629Y434566D01*
X264686Y434598D01*
X264744Y434627D01*
X264804Y434651D01*
X264865Y434672D01*
X264927Y434690D01*
X264991Y434703D01*
X265055Y434713D01*
X265119Y434719D01*
X265184Y434721D01*
X265270Y434719D01*
X265356Y434714D01*
X265442Y434704D01*
X265527Y434691D01*
X265612Y434675D01*
X265696Y434655D01*
X265779Y434631D01*
X265861Y434604D01*
X265941Y434573D01*
X266021Y434539D01*
X266098Y434501D01*
X266174Y434460D01*
X266248Y434416D01*
X266320Y434369D01*
X266391Y434319D01*
X264648Y432711D02*
X264595Y432744D01*
X264544Y432781D01*
X264495Y432820D01*
X264448Y432862D01*
X264404Y432907D01*
X264363Y432954D01*
X264324Y433003D01*
X264288Y433055D01*
X264255Y433109D01*
X264226Y433164D01*
X264200Y433221D01*
X264177Y433280D01*
X264157Y433339D01*
X264141Y433400D01*
X264128Y433461D01*
X264119Y433524D01*
X264114Y433586D01*
X264112Y433649D01*
X266123Y431905D02*
X266176Y431872D01*
X266227Y431835D01*
X266276Y431796D01*
X266323Y431754D01*
X266367Y431709D01*
X266408Y431662D01*
X266447Y431613D01*
X266483Y431561D01*
X266516Y431507D01*
X266545Y431452D01*
X266571Y431395D01*
X266594Y431336D01*
X266614Y431277D01*
X266630Y431216D01*
X266643Y431155D01*
X266652Y431092D01*
X266657Y431030D01*
X266659Y430967D01*
X266123Y431906D02*
X264648Y432710D01*
X269281Y430967D02*
X270354Y434721D01*
X269281Y430967D02*
X271962Y430967D01*
X271158Y432040D02*
X271158Y429895D01*
X749879Y314918D02*
X749944Y314916D01*
X750008Y314910D01*
X750072Y314900D01*
X750136Y314887D01*
X750198Y314869D01*
X750259Y314848D01*
X750319Y314824D01*
X750377Y314795D01*
X750434Y314763D01*
X750488Y314728D01*
X750540Y314690D01*
X750590Y314648D01*
X750637Y314604D01*
X750681Y314557D01*
X750723Y314507D01*
X750761Y314455D01*
X750796Y314401D01*
X750828Y314344D01*
X750857Y314286D01*
X750881Y314226D01*
X750902Y314165D01*
X750920Y314103D01*
X750933Y314039D01*
X750943Y313975D01*
X750949Y313911D01*
X750951Y313846D01*
X750949Y313752D01*
X750943Y313658D01*
X750933Y313564D01*
X750920Y313471D01*
X750902Y313379D01*
X750881Y313287D01*
X750856Y313196D01*
X750827Y313106D01*
X750794Y313018D01*
X750758Y312931D01*
X750718Y312846D01*
X750675Y312762D01*
X750628Y312681D01*
X750578Y312601D01*
X750525Y312523D01*
X750468Y312448D01*
X750409Y312375D01*
X750346Y312305D01*
X750281Y312237D01*
X747197Y312372D02*
X747132Y312374D01*
X747068Y312380D01*
X747004Y312390D01*
X746940Y312403D01*
X746878Y312421D01*
X746817Y312442D01*
X746757Y312466D01*
X746699Y312495D01*
X746642Y312527D01*
X746588Y312562D01*
X746536Y312600D01*
X746486Y312642D01*
X746439Y312686D01*
X746395Y312733D01*
X746353Y312783D01*
X746315Y312835D01*
X746280Y312889D01*
X746248Y312946D01*
X746219Y313004D01*
X746195Y313064D01*
X746174Y313125D01*
X746156Y313187D01*
X746143Y313251D01*
X746133Y313315D01*
X746127Y313379D01*
X746125Y313444D01*
X746127Y313530D01*
X746132Y313616D01*
X746142Y313702D01*
X746155Y313787D01*
X746171Y313872D01*
X746191Y313956D01*
X746215Y314039D01*
X746242Y314121D01*
X746273Y314201D01*
X746307Y314281D01*
X746345Y314358D01*
X746386Y314434D01*
X746430Y314508D01*
X746477Y314581D01*
X746527Y314651D01*
X748135Y312908D02*
X748102Y312855D01*
X748065Y312804D01*
X748026Y312755D01*
X747984Y312708D01*
X747939Y312664D01*
X747892Y312623D01*
X747843Y312584D01*
X747791Y312548D01*
X747737Y312515D01*
X747682Y312486D01*
X747625Y312460D01*
X747566Y312437D01*
X747507Y312417D01*
X747446Y312401D01*
X747385Y312388D01*
X747322Y312379D01*
X747260Y312374D01*
X747197Y312372D01*
X748941Y314383D02*
X748974Y314436D01*
X749011Y314487D01*
X749050Y314536D01*
X749092Y314583D01*
X749137Y314627D01*
X749184Y314668D01*
X749233Y314707D01*
X749285Y314743D01*
X749339Y314776D01*
X749394Y314805D01*
X749451Y314831D01*
X749510Y314854D01*
X749569Y314874D01*
X749630Y314890D01*
X749691Y314903D01*
X749754Y314912D01*
X749816Y314917D01*
X749879Y314919D01*
X748940Y314383D02*
X748136Y312908D01*
X750951Y317541D02*
X750951Y319150D01*
X750949Y319215D01*
X750943Y319279D01*
X750933Y319343D01*
X750920Y319407D01*
X750902Y319469D01*
X750881Y319530D01*
X750857Y319590D01*
X750828Y319648D01*
X750796Y319705D01*
X750761Y319759D01*
X750723Y319811D01*
X750681Y319861D01*
X750637Y319908D01*
X750590Y319952D01*
X750540Y319994D01*
X750488Y320032D01*
X750434Y320067D01*
X750377Y320099D01*
X750319Y320128D01*
X750259Y320152D01*
X750198Y320173D01*
X750136Y320191D01*
X750072Y320204D01*
X750008Y320214D01*
X749944Y320220D01*
X749879Y320222D01*
X749342Y320222D01*
X749277Y320220D01*
X749213Y320214D01*
X749149Y320204D01*
X749085Y320191D01*
X749023Y320173D01*
X748962Y320152D01*
X748902Y320128D01*
X748844Y320099D01*
X748787Y320067D01*
X748733Y320032D01*
X748681Y319994D01*
X748631Y319952D01*
X748584Y319908D01*
X748540Y319861D01*
X748498Y319811D01*
X748460Y319759D01*
X748425Y319705D01*
X748393Y319648D01*
X748364Y319590D01*
X748340Y319530D01*
X748319Y319469D01*
X748301Y319407D01*
X748288Y319343D01*
X748278Y319279D01*
X748272Y319215D01*
X748270Y319150D01*
X748270Y317541D01*
X746125Y317541D01*
X746125Y320222D01*
X826079Y389848D02*
X826144Y389846D01*
X826208Y389840D01*
X826272Y389830D01*
X826336Y389817D01*
X826398Y389799D01*
X826459Y389778D01*
X826519Y389754D01*
X826577Y389725D01*
X826634Y389693D01*
X826688Y389658D01*
X826740Y389620D01*
X826790Y389578D01*
X826837Y389534D01*
X826881Y389487D01*
X826923Y389437D01*
X826961Y389385D01*
X826996Y389331D01*
X827028Y389274D01*
X827057Y389216D01*
X827081Y389156D01*
X827102Y389095D01*
X827120Y389033D01*
X827133Y388969D01*
X827143Y388905D01*
X827149Y388841D01*
X827151Y388776D01*
X827149Y388682D01*
X827143Y388588D01*
X827133Y388494D01*
X827120Y388401D01*
X827102Y388309D01*
X827081Y388217D01*
X827056Y388126D01*
X827027Y388036D01*
X826994Y387948D01*
X826958Y387861D01*
X826918Y387776D01*
X826875Y387692D01*
X826828Y387611D01*
X826778Y387531D01*
X826725Y387453D01*
X826668Y387378D01*
X826609Y387305D01*
X826546Y387235D01*
X826481Y387167D01*
X823397Y387302D02*
X823332Y387304D01*
X823268Y387310D01*
X823204Y387320D01*
X823140Y387333D01*
X823078Y387351D01*
X823017Y387372D01*
X822957Y387396D01*
X822899Y387425D01*
X822842Y387457D01*
X822788Y387492D01*
X822736Y387530D01*
X822686Y387572D01*
X822639Y387616D01*
X822595Y387663D01*
X822553Y387713D01*
X822515Y387765D01*
X822480Y387819D01*
X822448Y387876D01*
X822419Y387934D01*
X822395Y387994D01*
X822374Y388055D01*
X822356Y388117D01*
X822343Y388181D01*
X822333Y388245D01*
X822327Y388309D01*
X822325Y388374D01*
X822327Y388460D01*
X822332Y388546D01*
X822342Y388632D01*
X822355Y388717D01*
X822371Y388802D01*
X822391Y388886D01*
X822415Y388969D01*
X822442Y389051D01*
X822473Y389131D01*
X822507Y389211D01*
X822545Y389288D01*
X822586Y389364D01*
X822630Y389438D01*
X822677Y389511D01*
X822727Y389581D01*
X824335Y387838D02*
X824302Y387785D01*
X824265Y387734D01*
X824226Y387685D01*
X824184Y387638D01*
X824139Y387594D01*
X824092Y387553D01*
X824043Y387514D01*
X823991Y387478D01*
X823937Y387445D01*
X823882Y387416D01*
X823825Y387390D01*
X823766Y387367D01*
X823707Y387347D01*
X823646Y387331D01*
X823585Y387318D01*
X823522Y387309D01*
X823460Y387304D01*
X823397Y387302D01*
X825141Y389313D02*
X825174Y389366D01*
X825211Y389417D01*
X825250Y389466D01*
X825292Y389513D01*
X825337Y389557D01*
X825384Y389598D01*
X825433Y389637D01*
X825485Y389673D01*
X825539Y389706D01*
X825594Y389735D01*
X825651Y389761D01*
X825710Y389784D01*
X825769Y389804D01*
X825830Y389820D01*
X825891Y389833D01*
X825954Y389842D01*
X826016Y389847D01*
X826079Y389849D01*
X825140Y389313D02*
X824336Y387838D01*
X824470Y392471D02*
X824470Y394080D01*
X824472Y394145D01*
X824478Y394209D01*
X824488Y394273D01*
X824501Y394337D01*
X824519Y394399D01*
X824540Y394460D01*
X824564Y394520D01*
X824593Y394578D01*
X824625Y394635D01*
X824660Y394689D01*
X824698Y394741D01*
X824740Y394791D01*
X824784Y394838D01*
X824831Y394882D01*
X824881Y394924D01*
X824933Y394962D01*
X824987Y394997D01*
X825044Y395029D01*
X825102Y395058D01*
X825162Y395082D01*
X825223Y395103D01*
X825285Y395121D01*
X825349Y395134D01*
X825413Y395144D01*
X825477Y395150D01*
X825542Y395152D01*
X825810Y395152D01*
X825810Y395153D02*
X825881Y395151D01*
X825953Y395145D01*
X826023Y395136D01*
X826093Y395123D01*
X826163Y395106D01*
X826231Y395085D01*
X826298Y395061D01*
X826364Y395033D01*
X826428Y395002D01*
X826491Y394967D01*
X826551Y394929D01*
X826610Y394888D01*
X826666Y394844D01*
X826720Y394797D01*
X826771Y394748D01*
X826819Y394695D01*
X826865Y394640D01*
X826907Y394583D01*
X826947Y394523D01*
X826983Y394462D01*
X827016Y394398D01*
X827045Y394333D01*
X827071Y394267D01*
X827094Y394199D01*
X827113Y394130D01*
X827128Y394060D01*
X827139Y393990D01*
X827147Y393919D01*
X827151Y393848D01*
X827151Y393776D01*
X827147Y393705D01*
X827139Y393634D01*
X827128Y393564D01*
X827113Y393494D01*
X827094Y393425D01*
X827071Y393357D01*
X827045Y393291D01*
X827016Y393226D01*
X826983Y393162D01*
X826947Y393101D01*
X826907Y393041D01*
X826865Y392984D01*
X826819Y392929D01*
X826771Y392876D01*
X826720Y392827D01*
X826666Y392780D01*
X826610Y392736D01*
X826551Y392695D01*
X826491Y392657D01*
X826428Y392622D01*
X826364Y392591D01*
X826298Y392563D01*
X826231Y392539D01*
X826163Y392518D01*
X826093Y392501D01*
X826023Y392488D01*
X825953Y392479D01*
X825881Y392473D01*
X825810Y392471D01*
X824470Y392471D01*
X824379Y392473D01*
X824288Y392479D01*
X824198Y392488D01*
X824107Y392502D01*
X824018Y392519D01*
X823930Y392540D01*
X823842Y392565D01*
X823755Y392594D01*
X823670Y392626D01*
X823586Y392661D01*
X823504Y392701D01*
X823424Y392743D01*
X823345Y392789D01*
X823269Y392839D01*
X823195Y392891D01*
X823122Y392947D01*
X823053Y393006D01*
X822986Y393067D01*
X822921Y393132D01*
X822860Y393199D01*
X822801Y393268D01*
X822745Y393340D01*
X822693Y393415D01*
X822643Y393491D01*
X822597Y393570D01*
X822555Y393650D01*
X822515Y393732D01*
X822480Y393816D01*
X822448Y393901D01*
X822419Y393988D01*
X822394Y394075D01*
X822373Y394164D01*
X822356Y394253D01*
X822342Y394343D01*
X822333Y394434D01*
X822327Y394525D01*
X822325Y394616D01*
X629878Y347401D02*
X629876Y347336D01*
X629870Y347272D01*
X629860Y347208D01*
X629847Y347144D01*
X629829Y347082D01*
X629808Y347021D01*
X629784Y346961D01*
X629755Y346903D01*
X629723Y346846D01*
X629688Y346792D01*
X629650Y346740D01*
X629608Y346690D01*
X629564Y346643D01*
X629517Y346599D01*
X629467Y346557D01*
X629415Y346519D01*
X629361Y346484D01*
X629304Y346452D01*
X629246Y346423D01*
X629186Y346399D01*
X629125Y346378D01*
X629063Y346360D01*
X628999Y346347D01*
X628935Y346337D01*
X628871Y346331D01*
X628806Y346329D01*
X628712Y346331D01*
X628618Y346337D01*
X628524Y346347D01*
X628431Y346360D01*
X628339Y346378D01*
X628247Y346399D01*
X628156Y346424D01*
X628066Y346453D01*
X627978Y346486D01*
X627891Y346522D01*
X627806Y346562D01*
X627722Y346605D01*
X627641Y346652D01*
X627561Y346702D01*
X627483Y346755D01*
X627408Y346812D01*
X627335Y346871D01*
X627265Y346934D01*
X627197Y346999D01*
X627332Y350083D02*
X627334Y350148D01*
X627340Y350212D01*
X627350Y350276D01*
X627363Y350340D01*
X627381Y350402D01*
X627402Y350463D01*
X627426Y350523D01*
X627455Y350581D01*
X627487Y350638D01*
X627522Y350692D01*
X627560Y350744D01*
X627602Y350794D01*
X627646Y350841D01*
X627693Y350885D01*
X627743Y350927D01*
X627795Y350965D01*
X627849Y351000D01*
X627906Y351032D01*
X627964Y351061D01*
X628024Y351085D01*
X628085Y351106D01*
X628147Y351124D01*
X628211Y351137D01*
X628275Y351147D01*
X628339Y351153D01*
X628404Y351155D01*
X628490Y351153D01*
X628576Y351148D01*
X628662Y351138D01*
X628747Y351125D01*
X628832Y351109D01*
X628916Y351089D01*
X628999Y351065D01*
X629081Y351038D01*
X629161Y351007D01*
X629241Y350973D01*
X629318Y350935D01*
X629394Y350894D01*
X629468Y350850D01*
X629540Y350803D01*
X629611Y350753D01*
X627868Y349145D02*
X627815Y349178D01*
X627764Y349215D01*
X627715Y349254D01*
X627668Y349296D01*
X627624Y349341D01*
X627583Y349388D01*
X627544Y349437D01*
X627508Y349489D01*
X627475Y349543D01*
X627446Y349598D01*
X627420Y349655D01*
X627397Y349714D01*
X627377Y349773D01*
X627361Y349834D01*
X627348Y349895D01*
X627339Y349958D01*
X627334Y350020D01*
X627332Y350083D01*
X629343Y348339D02*
X629396Y348306D01*
X629447Y348269D01*
X629496Y348230D01*
X629543Y348188D01*
X629587Y348143D01*
X629628Y348096D01*
X629667Y348047D01*
X629703Y347995D01*
X629736Y347941D01*
X629765Y347886D01*
X629791Y347829D01*
X629814Y347770D01*
X629834Y347711D01*
X629850Y347650D01*
X629863Y347589D01*
X629872Y347526D01*
X629877Y347464D01*
X629879Y347401D01*
X629343Y348340D02*
X627868Y349144D01*
X632501Y350619D02*
X632501Y351155D01*
X635182Y351155D01*
X633842Y346329D01*
X751149Y463508D02*
X751214Y463506D01*
X751278Y463500D01*
X751342Y463490D01*
X751406Y463477D01*
X751468Y463459D01*
X751529Y463438D01*
X751589Y463414D01*
X751647Y463385D01*
X751704Y463353D01*
X751758Y463318D01*
X751810Y463280D01*
X751860Y463238D01*
X751907Y463194D01*
X751951Y463147D01*
X751993Y463097D01*
X752031Y463045D01*
X752066Y462991D01*
X752098Y462934D01*
X752127Y462876D01*
X752151Y462816D01*
X752172Y462755D01*
X752190Y462693D01*
X752203Y462629D01*
X752213Y462565D01*
X752219Y462501D01*
X752221Y462436D01*
X752219Y462342D01*
X752213Y462248D01*
X752203Y462154D01*
X752190Y462061D01*
X752172Y461969D01*
X752151Y461877D01*
X752126Y461786D01*
X752097Y461696D01*
X752064Y461608D01*
X752028Y461521D01*
X751988Y461436D01*
X751945Y461352D01*
X751898Y461271D01*
X751848Y461191D01*
X751795Y461113D01*
X751738Y461038D01*
X751679Y460965D01*
X751616Y460895D01*
X751551Y460827D01*
X748467Y460962D02*
X748402Y460964D01*
X748338Y460970D01*
X748274Y460980D01*
X748210Y460993D01*
X748148Y461011D01*
X748087Y461032D01*
X748027Y461056D01*
X747969Y461085D01*
X747912Y461117D01*
X747858Y461152D01*
X747806Y461190D01*
X747756Y461232D01*
X747709Y461276D01*
X747665Y461323D01*
X747623Y461373D01*
X747585Y461425D01*
X747550Y461479D01*
X747518Y461536D01*
X747489Y461594D01*
X747465Y461654D01*
X747444Y461715D01*
X747426Y461777D01*
X747413Y461841D01*
X747403Y461905D01*
X747397Y461969D01*
X747395Y462034D01*
X747397Y462120D01*
X747402Y462206D01*
X747412Y462292D01*
X747425Y462377D01*
X747441Y462462D01*
X747461Y462546D01*
X747485Y462629D01*
X747512Y462711D01*
X747543Y462791D01*
X747577Y462871D01*
X747615Y462948D01*
X747656Y463024D01*
X747700Y463098D01*
X747747Y463171D01*
X747797Y463241D01*
X749405Y461498D02*
X749372Y461445D01*
X749335Y461394D01*
X749296Y461345D01*
X749254Y461298D01*
X749209Y461254D01*
X749162Y461213D01*
X749113Y461174D01*
X749061Y461138D01*
X749007Y461105D01*
X748952Y461076D01*
X748895Y461050D01*
X748836Y461027D01*
X748777Y461007D01*
X748716Y460991D01*
X748655Y460978D01*
X748592Y460969D01*
X748530Y460964D01*
X748467Y460962D01*
X750211Y462973D02*
X750244Y463026D01*
X750281Y463077D01*
X750320Y463126D01*
X750362Y463173D01*
X750407Y463217D01*
X750454Y463258D01*
X750503Y463297D01*
X750555Y463333D01*
X750609Y463366D01*
X750664Y463395D01*
X750721Y463421D01*
X750780Y463444D01*
X750839Y463464D01*
X750900Y463480D01*
X750961Y463493D01*
X751024Y463502D01*
X751086Y463507D01*
X751149Y463509D01*
X750210Y462973D02*
X749406Y461498D01*
X750880Y466131D02*
X750809Y466133D01*
X750737Y466139D01*
X750667Y466148D01*
X750597Y466161D01*
X750527Y466178D01*
X750459Y466199D01*
X750392Y466223D01*
X750326Y466251D01*
X750262Y466282D01*
X750199Y466317D01*
X750139Y466355D01*
X750080Y466396D01*
X750024Y466440D01*
X749970Y466487D01*
X749919Y466536D01*
X749871Y466589D01*
X749825Y466644D01*
X749783Y466701D01*
X749743Y466761D01*
X749707Y466822D01*
X749674Y466886D01*
X749645Y466951D01*
X749619Y467017D01*
X749596Y467085D01*
X749577Y467154D01*
X749562Y467224D01*
X749551Y467294D01*
X749543Y467365D01*
X749539Y467436D01*
X749539Y467508D01*
X749543Y467579D01*
X749551Y467650D01*
X749562Y467720D01*
X749577Y467790D01*
X749596Y467859D01*
X749619Y467927D01*
X749645Y467993D01*
X749674Y468058D01*
X749707Y468122D01*
X749743Y468183D01*
X749783Y468243D01*
X749825Y468300D01*
X749871Y468355D01*
X749919Y468408D01*
X749970Y468457D01*
X750024Y468504D01*
X750080Y468548D01*
X750139Y468589D01*
X750199Y468627D01*
X750262Y468662D01*
X750326Y468693D01*
X750392Y468721D01*
X750459Y468745D01*
X750527Y468766D01*
X750597Y468783D01*
X750667Y468796D01*
X750737Y468805D01*
X750809Y468811D01*
X750880Y468813D01*
X750951Y468811D01*
X751023Y468805D01*
X751093Y468796D01*
X751163Y468783D01*
X751233Y468766D01*
X751301Y468745D01*
X751368Y468721D01*
X751434Y468693D01*
X751498Y468662D01*
X751561Y468627D01*
X751621Y468589D01*
X751680Y468548D01*
X751736Y468504D01*
X751790Y468457D01*
X751841Y468408D01*
X751889Y468355D01*
X751935Y468300D01*
X751977Y468243D01*
X752017Y468183D01*
X752053Y468122D01*
X752086Y468058D01*
X752115Y467993D01*
X752141Y467927D01*
X752164Y467859D01*
X752183Y467790D01*
X752198Y467720D01*
X752209Y467650D01*
X752217Y467579D01*
X752221Y467508D01*
X752221Y467436D01*
X752217Y467365D01*
X752209Y467294D01*
X752198Y467224D01*
X752183Y467154D01*
X752164Y467085D01*
X752141Y467017D01*
X752115Y466951D01*
X752086Y466886D01*
X752053Y466822D01*
X752017Y466761D01*
X751977Y466701D01*
X751935Y466644D01*
X751889Y466589D01*
X751841Y466536D01*
X751790Y466487D01*
X751736Y466440D01*
X751680Y466396D01*
X751621Y466355D01*
X751561Y466317D01*
X751498Y466282D01*
X751434Y466251D01*
X751368Y466223D01*
X751301Y466199D01*
X751233Y466178D01*
X751163Y466161D01*
X751093Y466148D01*
X751023Y466139D01*
X750951Y466133D01*
X750880Y466131D01*
X748467Y466400D02*
X748402Y466402D01*
X748338Y466408D01*
X748274Y466418D01*
X748210Y466431D01*
X748148Y466449D01*
X748087Y466470D01*
X748027Y466494D01*
X747969Y466523D01*
X747912Y466555D01*
X747858Y466590D01*
X747806Y466628D01*
X747756Y466670D01*
X747709Y466714D01*
X747665Y466761D01*
X747623Y466811D01*
X747585Y466863D01*
X747550Y466917D01*
X747518Y466974D01*
X747489Y467032D01*
X747465Y467092D01*
X747444Y467153D01*
X747426Y467215D01*
X747413Y467279D01*
X747403Y467343D01*
X747397Y467407D01*
X747395Y467472D01*
X747397Y467537D01*
X747403Y467601D01*
X747413Y467665D01*
X747426Y467729D01*
X747444Y467791D01*
X747465Y467852D01*
X747489Y467912D01*
X747518Y467970D01*
X747550Y468027D01*
X747585Y468081D01*
X747623Y468133D01*
X747665Y468183D01*
X747709Y468230D01*
X747756Y468274D01*
X747806Y468316D01*
X747858Y468354D01*
X747912Y468389D01*
X747969Y468421D01*
X748027Y468450D01*
X748087Y468474D01*
X748148Y468495D01*
X748210Y468513D01*
X748274Y468526D01*
X748338Y468536D01*
X748402Y468542D01*
X748467Y468544D01*
X748532Y468542D01*
X748596Y468536D01*
X748660Y468526D01*
X748724Y468513D01*
X748786Y468495D01*
X748847Y468474D01*
X748907Y468450D01*
X748965Y468421D01*
X749022Y468389D01*
X749076Y468354D01*
X749128Y468316D01*
X749178Y468274D01*
X749225Y468230D01*
X749269Y468183D01*
X749311Y468133D01*
X749349Y468081D01*
X749384Y468027D01*
X749416Y467970D01*
X749445Y467912D01*
X749469Y467852D01*
X749490Y467791D01*
X749508Y467729D01*
X749521Y467665D01*
X749531Y467601D01*
X749537Y467537D01*
X749539Y467472D01*
X749537Y467407D01*
X749531Y467343D01*
X749521Y467279D01*
X749508Y467215D01*
X749490Y467153D01*
X749469Y467092D01*
X749445Y467032D01*
X749416Y466974D01*
X749384Y466917D01*
X749349Y466863D01*
X749311Y466811D01*
X749269Y466761D01*
X749225Y466714D01*
X749178Y466670D01*
X749128Y466628D01*
X749076Y466590D01*
X749022Y466555D01*
X748965Y466523D01*
X748907Y466494D01*
X748847Y466470D01*
X748786Y466449D01*
X748724Y466431D01*
X748660Y466418D01*
X748596Y466408D01*
X748532Y466402D01*
X748467Y466400D01*
D12*
X379920Y69195D02*
X376920Y69195D01*
X379920Y69195D02*
X379920Y66195D01*
X376920Y66195D01*
X376920Y59195D01*
X490920Y59195D02*
X490920Y66195D01*
X487920Y66195D01*
X487920Y69195D01*
X490920Y69195D01*
X487920Y69195D02*
X379920Y69195D01*
X376920Y59195D02*
X490920Y59195D01*
X376920Y103195D02*
X376920Y113195D01*
X393920Y113195D01*
X490920Y113195D02*
X490920Y103195D01*
X490920Y113195D02*
X473920Y113195D01*
X376920Y73195D02*
X376920Y69195D01*
X490920Y69195D02*
X490920Y73195D01*
D13*
X390241Y141337D02*
X382452Y129653D01*
X390241Y129653D02*
X382452Y141337D01*
X394531Y138741D02*
X397777Y141337D01*
X397777Y129653D01*
X401022Y129653D02*
X394531Y129653D01*
D11*
X334618Y188173D02*
X334618Y192999D01*
X335958Y192999D01*
X335958Y193000D02*
X336029Y192998D01*
X336101Y192992D01*
X336171Y192983D01*
X336241Y192970D01*
X336311Y192953D01*
X336379Y192932D01*
X336446Y192908D01*
X336512Y192880D01*
X336576Y192849D01*
X336639Y192814D01*
X336699Y192776D01*
X336758Y192735D01*
X336814Y192691D01*
X336868Y192644D01*
X336919Y192595D01*
X336967Y192542D01*
X337013Y192487D01*
X337055Y192430D01*
X337095Y192370D01*
X337131Y192309D01*
X337164Y192245D01*
X337193Y192180D01*
X337219Y192114D01*
X337242Y192046D01*
X337261Y191977D01*
X337276Y191907D01*
X337287Y191837D01*
X337295Y191766D01*
X337299Y191695D01*
X337299Y191623D01*
X337295Y191552D01*
X337287Y191481D01*
X337276Y191411D01*
X337261Y191341D01*
X337242Y191272D01*
X337219Y191204D01*
X337193Y191138D01*
X337164Y191073D01*
X337131Y191009D01*
X337095Y190948D01*
X337055Y190888D01*
X337013Y190831D01*
X336967Y190776D01*
X336919Y190723D01*
X336868Y190674D01*
X336814Y190627D01*
X336758Y190583D01*
X336699Y190542D01*
X336639Y190504D01*
X336576Y190469D01*
X336512Y190438D01*
X336446Y190410D01*
X336379Y190386D01*
X336311Y190365D01*
X336241Y190348D01*
X336171Y190335D01*
X336101Y190326D01*
X336029Y190320D01*
X335958Y190318D01*
X334618Y190318D01*
X336226Y190318D02*
X337299Y188173D01*
X340040Y190854D02*
X341649Y190854D01*
X341714Y190852D01*
X341778Y190846D01*
X341842Y190836D01*
X341906Y190823D01*
X341968Y190805D01*
X342029Y190784D01*
X342089Y190760D01*
X342147Y190731D01*
X342204Y190699D01*
X342258Y190664D01*
X342310Y190626D01*
X342360Y190584D01*
X342407Y190540D01*
X342451Y190493D01*
X342493Y190443D01*
X342531Y190391D01*
X342566Y190337D01*
X342598Y190280D01*
X342627Y190222D01*
X342651Y190162D01*
X342672Y190101D01*
X342690Y190039D01*
X342703Y189975D01*
X342713Y189911D01*
X342719Y189847D01*
X342721Y189782D01*
X342721Y189514D01*
X342722Y189514D02*
X342720Y189443D01*
X342714Y189371D01*
X342705Y189301D01*
X342692Y189231D01*
X342675Y189161D01*
X342654Y189093D01*
X342630Y189026D01*
X342602Y188960D01*
X342571Y188896D01*
X342536Y188833D01*
X342498Y188773D01*
X342457Y188714D01*
X342413Y188658D01*
X342366Y188604D01*
X342317Y188553D01*
X342264Y188505D01*
X342209Y188459D01*
X342152Y188417D01*
X342092Y188377D01*
X342031Y188341D01*
X341967Y188308D01*
X341902Y188279D01*
X341836Y188253D01*
X341768Y188230D01*
X341699Y188211D01*
X341629Y188196D01*
X341559Y188185D01*
X341488Y188177D01*
X341417Y188173D01*
X341345Y188173D01*
X341274Y188177D01*
X341203Y188185D01*
X341133Y188196D01*
X341063Y188211D01*
X340994Y188230D01*
X340926Y188253D01*
X340860Y188279D01*
X340795Y188308D01*
X340731Y188341D01*
X340670Y188377D01*
X340610Y188417D01*
X340553Y188459D01*
X340498Y188505D01*
X340445Y188553D01*
X340396Y188604D01*
X340349Y188658D01*
X340305Y188714D01*
X340264Y188773D01*
X340226Y188833D01*
X340191Y188896D01*
X340160Y188960D01*
X340132Y189026D01*
X340108Y189093D01*
X340087Y189161D01*
X340070Y189231D01*
X340057Y189301D01*
X340048Y189371D01*
X340042Y189443D01*
X340040Y189514D01*
X340040Y190854D01*
X340042Y190945D01*
X340048Y191036D01*
X340057Y191126D01*
X340071Y191217D01*
X340088Y191306D01*
X340109Y191394D01*
X340134Y191482D01*
X340163Y191569D01*
X340195Y191654D01*
X340230Y191738D01*
X340270Y191820D01*
X340312Y191900D01*
X340358Y191979D01*
X340408Y192055D01*
X340460Y192129D01*
X340516Y192202D01*
X340575Y192271D01*
X340636Y192338D01*
X340701Y192403D01*
X340768Y192464D01*
X340837Y192523D01*
X340909Y192579D01*
X340984Y192631D01*
X341060Y192681D01*
X341139Y192727D01*
X341219Y192769D01*
X341301Y192809D01*
X341385Y192844D01*
X341470Y192876D01*
X341557Y192905D01*
X341644Y192930D01*
X341733Y192951D01*
X341822Y192968D01*
X341913Y192982D01*
X342003Y192991D01*
X342094Y192997D01*
X342185Y192999D01*
M02*
