G04 EAGLE Gerber RS-274X export*
G75*
%MOMM*%
%FSLAX34Y34*%
%LPD*%
%INSilkscreen Bottom*%
%IPPOS*%
%AMOC8*
5,1,8,0,0,1.08239X$1,22.5*%
G01*
%ADD10C,0.127000*%
%ADD11C,0.203200*%
%ADD12C,0.101600*%

G36*
X434795Y508529D02*
X434795Y508529D01*
X434804Y508528D01*
X434936Y508549D01*
X435068Y508567D01*
X435076Y508571D01*
X435085Y508572D01*
X435206Y508629D01*
X435328Y508684D01*
X435334Y508689D01*
X435342Y508693D01*
X435443Y508781D01*
X435545Y508867D01*
X435550Y508874D01*
X435556Y508880D01*
X435628Y508993D01*
X435702Y509104D01*
X435705Y509112D01*
X435710Y509119D01*
X435748Y509248D01*
X435788Y509375D01*
X435788Y509383D01*
X435791Y509392D01*
X435792Y509526D01*
X435796Y509659D01*
X435793Y509667D01*
X435793Y509676D01*
X435778Y509727D01*
X435724Y509934D01*
X435704Y509967D01*
X435695Y509997D01*
X433695Y513997D01*
X433638Y514079D01*
X433589Y514165D01*
X433558Y514195D01*
X433534Y514231D01*
X433456Y514294D01*
X433385Y514363D01*
X433347Y514384D01*
X433314Y514411D01*
X433222Y514450D01*
X433134Y514497D01*
X433092Y514506D01*
X433052Y514523D01*
X432953Y514535D01*
X432856Y514556D01*
X432813Y514553D01*
X432770Y514558D01*
X432672Y514542D01*
X432572Y514535D01*
X432532Y514520D01*
X432489Y514513D01*
X432399Y514471D01*
X432306Y514437D01*
X432271Y514411D01*
X432232Y514393D01*
X432157Y514327D01*
X432077Y514268D01*
X432054Y514237D01*
X432018Y514206D01*
X431921Y514054D01*
X431879Y513997D01*
X429879Y509997D01*
X429876Y509989D01*
X429871Y509982D01*
X429831Y509853D01*
X429789Y509727D01*
X429788Y509719D01*
X429786Y509711D01*
X429782Y509576D01*
X429777Y509443D01*
X429779Y509435D01*
X429778Y509426D01*
X429812Y509297D01*
X429844Y509167D01*
X429848Y509160D01*
X429850Y509151D01*
X429918Y509037D01*
X429985Y508920D01*
X429991Y508914D01*
X429995Y508907D01*
X430093Y508815D01*
X430189Y508722D01*
X430197Y508718D01*
X430203Y508712D01*
X430322Y508651D01*
X430440Y508589D01*
X430448Y508587D01*
X430456Y508583D01*
X430508Y508574D01*
X430718Y508530D01*
X430756Y508533D01*
X430787Y508528D01*
X434787Y508528D01*
X434795Y508529D01*
G37*
G36*
X732163Y403823D02*
X732163Y403823D01*
X732165Y403823D01*
X732260Y403843D01*
X732357Y403862D01*
X732359Y403864D01*
X732361Y403864D01*
X732442Y403920D01*
X732522Y403975D01*
X732524Y403977D01*
X732526Y403979D01*
X732579Y404062D01*
X732632Y404143D01*
X732632Y404146D01*
X732633Y404148D01*
X732650Y404244D01*
X732667Y404340D01*
X732667Y404343D01*
X732667Y404345D01*
X732645Y404439D01*
X732624Y404536D01*
X732622Y404538D01*
X732621Y404541D01*
X732519Y404689D01*
X730769Y406439D01*
X730762Y406443D01*
X730758Y406449D01*
X730679Y406498D01*
X730602Y406550D01*
X730594Y406551D01*
X730587Y406555D01*
X730410Y406587D01*
X724910Y406587D01*
X724905Y406586D01*
X724900Y406587D01*
X724807Y406566D01*
X724714Y406548D01*
X724709Y406545D01*
X724704Y406544D01*
X724626Y406488D01*
X724548Y406435D01*
X724545Y406431D01*
X724541Y406428D01*
X724490Y406346D01*
X724438Y406267D01*
X724438Y406262D01*
X724435Y406257D01*
X724403Y406080D01*
X724403Y404330D01*
X724404Y404325D01*
X724403Y404320D01*
X724424Y404227D01*
X724442Y404134D01*
X724445Y404129D01*
X724446Y404124D01*
X724502Y404046D01*
X724555Y403968D01*
X724559Y403965D01*
X724562Y403961D01*
X724644Y403910D01*
X724723Y403858D01*
X724728Y403858D01*
X724733Y403855D01*
X724910Y403823D01*
X732160Y403823D01*
X732163Y403823D01*
G37*
D10*
X417195Y385838D02*
X422021Y385838D01*
X422021Y387179D01*
X422019Y387250D01*
X422013Y387322D01*
X422004Y387392D01*
X421991Y387462D01*
X421974Y387532D01*
X421953Y387600D01*
X421929Y387667D01*
X421901Y387733D01*
X421870Y387797D01*
X421835Y387860D01*
X421797Y387920D01*
X421756Y387979D01*
X421712Y388035D01*
X421665Y388089D01*
X421616Y388140D01*
X421563Y388188D01*
X421508Y388234D01*
X421451Y388276D01*
X421391Y388316D01*
X421330Y388352D01*
X421266Y388385D01*
X421201Y388414D01*
X421135Y388440D01*
X421067Y388463D01*
X420998Y388482D01*
X420928Y388497D01*
X420858Y388508D01*
X420787Y388516D01*
X420716Y388520D01*
X420644Y388520D01*
X420573Y388516D01*
X420502Y388508D01*
X420432Y388497D01*
X420362Y388482D01*
X420293Y388463D01*
X420225Y388440D01*
X420159Y388414D01*
X420094Y388385D01*
X420030Y388352D01*
X419969Y388316D01*
X419909Y388276D01*
X419852Y388234D01*
X419797Y388188D01*
X419744Y388140D01*
X419695Y388089D01*
X419648Y388035D01*
X419604Y387979D01*
X419563Y387920D01*
X419525Y387860D01*
X419490Y387797D01*
X419459Y387733D01*
X419431Y387667D01*
X419407Y387600D01*
X419386Y387532D01*
X419369Y387462D01*
X419356Y387392D01*
X419347Y387322D01*
X419341Y387250D01*
X419339Y387179D01*
X419340Y387179D02*
X419340Y385838D01*
X419340Y387447D02*
X417195Y388519D01*
X420949Y391261D02*
X422021Y392601D01*
X417195Y392601D01*
X417195Y391261D02*
X417195Y393942D01*
X782955Y375678D02*
X787781Y375678D01*
X787781Y377019D01*
X787779Y377090D01*
X787773Y377162D01*
X787764Y377232D01*
X787751Y377302D01*
X787734Y377372D01*
X787713Y377440D01*
X787689Y377507D01*
X787661Y377573D01*
X787630Y377637D01*
X787595Y377700D01*
X787557Y377760D01*
X787516Y377819D01*
X787472Y377875D01*
X787425Y377929D01*
X787376Y377980D01*
X787323Y378028D01*
X787268Y378074D01*
X787211Y378116D01*
X787151Y378156D01*
X787090Y378192D01*
X787026Y378225D01*
X786961Y378254D01*
X786895Y378280D01*
X786827Y378303D01*
X786758Y378322D01*
X786688Y378337D01*
X786618Y378348D01*
X786547Y378356D01*
X786476Y378360D01*
X786404Y378360D01*
X786333Y378356D01*
X786262Y378348D01*
X786192Y378337D01*
X786122Y378322D01*
X786053Y378303D01*
X785985Y378280D01*
X785919Y378254D01*
X785854Y378225D01*
X785790Y378192D01*
X785729Y378156D01*
X785669Y378116D01*
X785612Y378074D01*
X785557Y378028D01*
X785504Y377980D01*
X785455Y377929D01*
X785408Y377875D01*
X785364Y377819D01*
X785323Y377760D01*
X785285Y377700D01*
X785250Y377637D01*
X785219Y377573D01*
X785191Y377507D01*
X785167Y377440D01*
X785146Y377372D01*
X785129Y377302D01*
X785116Y377232D01*
X785107Y377162D01*
X785101Y377090D01*
X785099Y377019D01*
X785100Y377019D02*
X785100Y375678D01*
X785100Y377287D02*
X782955Y378359D01*
X787781Y382575D02*
X787779Y382643D01*
X787773Y382710D01*
X787764Y382777D01*
X787751Y382844D01*
X787734Y382909D01*
X787713Y382974D01*
X787689Y383037D01*
X787661Y383099D01*
X787630Y383159D01*
X787596Y383217D01*
X787558Y383273D01*
X787518Y383328D01*
X787474Y383379D01*
X787427Y383428D01*
X787378Y383475D01*
X787327Y383519D01*
X787272Y383559D01*
X787216Y383597D01*
X787158Y383631D01*
X787098Y383662D01*
X787036Y383690D01*
X786973Y383714D01*
X786908Y383735D01*
X786843Y383752D01*
X786776Y383765D01*
X786709Y383774D01*
X786642Y383780D01*
X786574Y383782D01*
X787781Y382575D02*
X787779Y382497D01*
X787773Y382419D01*
X787763Y382342D01*
X787750Y382265D01*
X787732Y382189D01*
X787711Y382114D01*
X787686Y382040D01*
X787657Y381968D01*
X787625Y381897D01*
X787589Y381828D01*
X787550Y381760D01*
X787507Y381695D01*
X787461Y381632D01*
X787412Y381571D01*
X787360Y381513D01*
X787305Y381458D01*
X787248Y381405D01*
X787188Y381356D01*
X787125Y381309D01*
X787060Y381266D01*
X786994Y381226D01*
X786925Y381189D01*
X786854Y381156D01*
X786782Y381126D01*
X786709Y381100D01*
X785636Y383380D02*
X785685Y383429D01*
X785737Y383476D01*
X785792Y383519D01*
X785849Y383560D01*
X785908Y383598D01*
X785969Y383632D01*
X786032Y383663D01*
X786096Y383691D01*
X786162Y383715D01*
X786228Y383735D01*
X786296Y383752D01*
X786365Y383765D01*
X786434Y383774D01*
X786504Y383780D01*
X786574Y383782D01*
X785636Y383380D02*
X782955Y381101D01*
X782955Y383782D01*
X744462Y384175D02*
X744462Y379349D01*
X744462Y384175D02*
X743121Y384175D01*
X743050Y384173D01*
X742978Y384167D01*
X742908Y384158D01*
X742838Y384145D01*
X742768Y384128D01*
X742700Y384107D01*
X742633Y384083D01*
X742567Y384055D01*
X742503Y384024D01*
X742440Y383989D01*
X742380Y383951D01*
X742321Y383910D01*
X742265Y383866D01*
X742211Y383819D01*
X742160Y383770D01*
X742112Y383717D01*
X742066Y383662D01*
X742024Y383605D01*
X741984Y383545D01*
X741948Y383484D01*
X741915Y383420D01*
X741886Y383355D01*
X741860Y383289D01*
X741837Y383221D01*
X741818Y383152D01*
X741803Y383082D01*
X741792Y383012D01*
X741784Y382941D01*
X741780Y382870D01*
X741780Y382798D01*
X741784Y382727D01*
X741792Y382656D01*
X741803Y382586D01*
X741818Y382516D01*
X741837Y382447D01*
X741860Y382379D01*
X741886Y382313D01*
X741915Y382248D01*
X741948Y382184D01*
X741984Y382123D01*
X742024Y382063D01*
X742066Y382006D01*
X742112Y381951D01*
X742160Y381898D01*
X742211Y381849D01*
X742265Y381802D01*
X742321Y381758D01*
X742380Y381717D01*
X742440Y381679D01*
X742503Y381644D01*
X742567Y381613D01*
X742633Y381585D01*
X742700Y381561D01*
X742768Y381540D01*
X742838Y381523D01*
X742908Y381510D01*
X742978Y381501D01*
X743050Y381495D01*
X743121Y381493D01*
X743121Y381494D02*
X744462Y381494D01*
X742853Y381494D02*
X741781Y379349D01*
X739039Y379349D02*
X737699Y379349D01*
X737628Y379351D01*
X737556Y379357D01*
X737486Y379366D01*
X737416Y379379D01*
X737346Y379396D01*
X737278Y379417D01*
X737211Y379441D01*
X737145Y379469D01*
X737081Y379500D01*
X737018Y379535D01*
X736958Y379573D01*
X736899Y379614D01*
X736843Y379658D01*
X736789Y379705D01*
X736738Y379754D01*
X736690Y379807D01*
X736644Y379862D01*
X736602Y379919D01*
X736562Y379979D01*
X736526Y380040D01*
X736493Y380104D01*
X736464Y380169D01*
X736438Y380235D01*
X736415Y380303D01*
X736396Y380372D01*
X736381Y380442D01*
X736370Y380512D01*
X736362Y380583D01*
X736358Y380654D01*
X736358Y380726D01*
X736362Y380797D01*
X736370Y380868D01*
X736381Y380938D01*
X736396Y381008D01*
X736415Y381077D01*
X736438Y381145D01*
X736464Y381211D01*
X736493Y381276D01*
X736526Y381340D01*
X736562Y381401D01*
X736602Y381461D01*
X736644Y381518D01*
X736690Y381573D01*
X736738Y381626D01*
X736789Y381675D01*
X736843Y381722D01*
X736899Y381766D01*
X736958Y381807D01*
X737018Y381845D01*
X737081Y381880D01*
X737145Y381911D01*
X737211Y381939D01*
X737278Y381963D01*
X737346Y381984D01*
X737416Y382001D01*
X737486Y382014D01*
X737556Y382023D01*
X737628Y382029D01*
X737699Y382031D01*
X737431Y384175D02*
X739039Y384175D01*
X737431Y384175D02*
X737366Y384173D01*
X737302Y384167D01*
X737238Y384157D01*
X737174Y384144D01*
X737112Y384126D01*
X737051Y384105D01*
X736991Y384081D01*
X736933Y384052D01*
X736876Y384020D01*
X736822Y383985D01*
X736770Y383947D01*
X736720Y383905D01*
X736673Y383861D01*
X736629Y383814D01*
X736587Y383764D01*
X736549Y383712D01*
X736514Y383658D01*
X736482Y383601D01*
X736453Y383543D01*
X736429Y383483D01*
X736408Y383422D01*
X736390Y383360D01*
X736377Y383296D01*
X736367Y383232D01*
X736361Y383168D01*
X736359Y383103D01*
X736361Y383038D01*
X736367Y382974D01*
X736377Y382910D01*
X736390Y382846D01*
X736408Y382784D01*
X736429Y382723D01*
X736453Y382663D01*
X736482Y382605D01*
X736514Y382548D01*
X736549Y382494D01*
X736587Y382442D01*
X736629Y382392D01*
X736673Y382345D01*
X736720Y382301D01*
X736770Y382259D01*
X736822Y382221D01*
X736876Y382186D01*
X736933Y382154D01*
X736991Y382125D01*
X737051Y382101D01*
X737112Y382080D01*
X737174Y382062D01*
X737238Y382049D01*
X737302Y382039D01*
X737366Y382033D01*
X737431Y382031D01*
X737431Y382030D02*
X738503Y382030D01*
X752082Y351155D02*
X752082Y346329D01*
X752082Y351155D02*
X750741Y351155D01*
X750670Y351153D01*
X750598Y351147D01*
X750528Y351138D01*
X750458Y351125D01*
X750388Y351108D01*
X750320Y351087D01*
X750253Y351063D01*
X750187Y351035D01*
X750123Y351004D01*
X750060Y350969D01*
X750000Y350931D01*
X749941Y350890D01*
X749885Y350846D01*
X749831Y350799D01*
X749780Y350750D01*
X749732Y350697D01*
X749686Y350642D01*
X749644Y350585D01*
X749604Y350525D01*
X749568Y350464D01*
X749535Y350400D01*
X749506Y350335D01*
X749480Y350269D01*
X749457Y350201D01*
X749438Y350132D01*
X749423Y350062D01*
X749412Y349992D01*
X749404Y349921D01*
X749400Y349850D01*
X749400Y349778D01*
X749404Y349707D01*
X749412Y349636D01*
X749423Y349566D01*
X749438Y349496D01*
X749457Y349427D01*
X749480Y349359D01*
X749506Y349293D01*
X749535Y349228D01*
X749568Y349164D01*
X749604Y349103D01*
X749644Y349043D01*
X749686Y348986D01*
X749732Y348931D01*
X749780Y348878D01*
X749831Y348829D01*
X749885Y348782D01*
X749941Y348738D01*
X750000Y348697D01*
X750060Y348659D01*
X750123Y348624D01*
X750187Y348593D01*
X750253Y348565D01*
X750320Y348541D01*
X750388Y348520D01*
X750458Y348503D01*
X750528Y348490D01*
X750598Y348481D01*
X750670Y348475D01*
X750741Y348473D01*
X750741Y348474D02*
X752082Y348474D01*
X750473Y348474D02*
X749401Y346329D01*
X746659Y347401D02*
X745587Y351155D01*
X746659Y347401D02*
X743978Y347401D01*
X744782Y348474D02*
X744782Y346329D01*
X736842Y332105D02*
X736842Y327279D01*
X736842Y332105D02*
X735501Y332105D01*
X735430Y332103D01*
X735358Y332097D01*
X735288Y332088D01*
X735218Y332075D01*
X735148Y332058D01*
X735080Y332037D01*
X735013Y332013D01*
X734947Y331985D01*
X734883Y331954D01*
X734820Y331919D01*
X734760Y331881D01*
X734701Y331840D01*
X734645Y331796D01*
X734591Y331749D01*
X734540Y331700D01*
X734492Y331647D01*
X734446Y331592D01*
X734404Y331535D01*
X734364Y331475D01*
X734328Y331414D01*
X734295Y331350D01*
X734266Y331285D01*
X734240Y331219D01*
X734217Y331151D01*
X734198Y331082D01*
X734183Y331012D01*
X734172Y330942D01*
X734164Y330871D01*
X734160Y330800D01*
X734160Y330728D01*
X734164Y330657D01*
X734172Y330586D01*
X734183Y330516D01*
X734198Y330446D01*
X734217Y330377D01*
X734240Y330309D01*
X734266Y330243D01*
X734295Y330178D01*
X734328Y330114D01*
X734364Y330053D01*
X734404Y329993D01*
X734446Y329936D01*
X734492Y329881D01*
X734540Y329828D01*
X734591Y329779D01*
X734645Y329732D01*
X734701Y329688D01*
X734760Y329647D01*
X734820Y329609D01*
X734883Y329574D01*
X734947Y329543D01*
X735013Y329515D01*
X735080Y329491D01*
X735148Y329470D01*
X735218Y329453D01*
X735288Y329440D01*
X735358Y329431D01*
X735430Y329425D01*
X735501Y329423D01*
X735501Y329424D02*
X736842Y329424D01*
X735233Y329424D02*
X734161Y327279D01*
X731419Y327279D02*
X729811Y327279D01*
X729746Y327281D01*
X729682Y327287D01*
X729618Y327297D01*
X729554Y327310D01*
X729492Y327328D01*
X729431Y327349D01*
X729371Y327373D01*
X729313Y327402D01*
X729256Y327434D01*
X729202Y327469D01*
X729150Y327507D01*
X729100Y327549D01*
X729053Y327593D01*
X729009Y327640D01*
X728967Y327690D01*
X728929Y327742D01*
X728894Y327796D01*
X728862Y327853D01*
X728833Y327911D01*
X728809Y327971D01*
X728788Y328032D01*
X728770Y328094D01*
X728757Y328158D01*
X728747Y328222D01*
X728741Y328286D01*
X728739Y328351D01*
X728738Y328351D02*
X728738Y328888D01*
X728739Y328888D02*
X728741Y328953D01*
X728747Y329017D01*
X728757Y329081D01*
X728770Y329145D01*
X728788Y329207D01*
X728809Y329268D01*
X728833Y329328D01*
X728862Y329386D01*
X728894Y329443D01*
X728929Y329497D01*
X728967Y329549D01*
X729009Y329599D01*
X729053Y329646D01*
X729100Y329690D01*
X729150Y329732D01*
X729202Y329770D01*
X729256Y329805D01*
X729313Y329837D01*
X729371Y329866D01*
X729431Y329890D01*
X729492Y329911D01*
X729554Y329929D01*
X729618Y329942D01*
X729682Y329952D01*
X729746Y329958D01*
X729811Y329960D01*
X731419Y329960D01*
X731419Y332105D01*
X728738Y332105D01*
D11*
X695310Y387730D02*
X695310Y393730D01*
X703310Y393730D01*
X695310Y371730D02*
X695310Y365730D01*
X703310Y365730D01*
D10*
X706485Y398216D02*
X706485Y401701D01*
X706486Y398216D02*
X706484Y398145D01*
X706478Y398073D01*
X706469Y398003D01*
X706456Y397933D01*
X706439Y397863D01*
X706418Y397795D01*
X706394Y397728D01*
X706366Y397662D01*
X706335Y397598D01*
X706300Y397535D01*
X706262Y397475D01*
X706221Y397416D01*
X706177Y397360D01*
X706130Y397306D01*
X706081Y397255D01*
X706028Y397207D01*
X705973Y397161D01*
X705916Y397119D01*
X705856Y397079D01*
X705795Y397043D01*
X705731Y397010D01*
X705666Y396981D01*
X705600Y396955D01*
X705532Y396932D01*
X705463Y396913D01*
X705393Y396898D01*
X705323Y396887D01*
X705252Y396879D01*
X705181Y396875D01*
X705109Y396875D01*
X705038Y396879D01*
X704967Y396887D01*
X704897Y396898D01*
X704827Y396913D01*
X704758Y396932D01*
X704690Y396955D01*
X704624Y396981D01*
X704559Y397010D01*
X704495Y397043D01*
X704434Y397079D01*
X704374Y397119D01*
X704317Y397161D01*
X704262Y397207D01*
X704209Y397255D01*
X704160Y397306D01*
X704113Y397360D01*
X704069Y397416D01*
X704028Y397475D01*
X703990Y397535D01*
X703955Y397598D01*
X703924Y397662D01*
X703896Y397728D01*
X703872Y397795D01*
X703851Y397863D01*
X703834Y397933D01*
X703821Y398003D01*
X703812Y398073D01*
X703806Y398145D01*
X703804Y398216D01*
X703804Y401701D01*
X700816Y400629D02*
X699475Y401701D01*
X699475Y396875D01*
X698135Y396875D02*
X700816Y396875D01*
D12*
X724910Y431330D02*
X755910Y431330D01*
X755910Y404330D02*
X724910Y404330D01*
X733910Y427330D02*
X734145Y427486D01*
X734384Y427635D01*
X734626Y427779D01*
X734871Y427917D01*
X735120Y428049D01*
X735372Y428175D01*
X735627Y428295D01*
X735885Y428408D01*
X736146Y428515D01*
X736409Y428616D01*
X736675Y428710D01*
X736942Y428798D01*
X737212Y428879D01*
X737484Y428954D01*
X737757Y429022D01*
X738032Y429083D01*
X738309Y429137D01*
X738586Y429185D01*
X738865Y429226D01*
X739145Y429261D01*
X739425Y429288D01*
X739706Y429309D01*
X739987Y429322D01*
X740269Y429329D01*
X740551Y429329D01*
X740833Y429322D01*
X741114Y429309D01*
X741395Y429288D01*
X741675Y429261D01*
X741955Y429226D01*
X742234Y429185D01*
X742511Y429137D01*
X742788Y429083D01*
X743063Y429022D01*
X743336Y428954D01*
X743608Y428879D01*
X743878Y428798D01*
X744145Y428710D01*
X744411Y428616D01*
X744674Y428515D01*
X744935Y428408D01*
X745193Y428295D01*
X745448Y428175D01*
X745700Y428049D01*
X745949Y427917D01*
X746194Y427779D01*
X746436Y427635D01*
X746675Y427486D01*
X746910Y427330D01*
X746910Y408330D02*
X746675Y408174D01*
X746436Y408025D01*
X746194Y407881D01*
X745949Y407743D01*
X745700Y407611D01*
X745448Y407485D01*
X745193Y407365D01*
X744935Y407252D01*
X744674Y407145D01*
X744411Y407044D01*
X744145Y406950D01*
X743878Y406862D01*
X743608Y406781D01*
X743336Y406706D01*
X743063Y406638D01*
X742788Y406577D01*
X742511Y406523D01*
X742234Y406475D01*
X741955Y406434D01*
X741675Y406399D01*
X741395Y406372D01*
X741114Y406351D01*
X740833Y406338D01*
X740551Y406331D01*
X740269Y406331D01*
X739987Y406338D01*
X739706Y406351D01*
X739425Y406372D01*
X739145Y406399D01*
X738865Y406434D01*
X738586Y406475D01*
X738309Y406523D01*
X738032Y406577D01*
X737757Y406638D01*
X737484Y406706D01*
X737212Y406781D01*
X736942Y406862D01*
X736675Y406950D01*
X736409Y407044D01*
X736146Y407145D01*
X735885Y407252D01*
X735627Y407365D01*
X735372Y407485D01*
X735120Y407611D01*
X734871Y407743D01*
X734626Y407881D01*
X734384Y408025D01*
X734145Y408174D01*
X733910Y408330D01*
X758952Y437388D02*
X758952Y449072D01*
X758952Y437388D02*
X753759Y437388D01*
X749046Y437388D02*
X743853Y437388D01*
X749046Y437388D02*
X749046Y449072D01*
X743853Y449072D01*
X745151Y443879D02*
X749046Y443879D01*
X739163Y449072D02*
X739163Y437388D01*
X739163Y449072D02*
X735917Y449072D01*
X735804Y449070D01*
X735691Y449064D01*
X735578Y449054D01*
X735465Y449040D01*
X735353Y449023D01*
X735242Y449001D01*
X735132Y448976D01*
X735022Y448946D01*
X734914Y448913D01*
X734807Y448876D01*
X734701Y448836D01*
X734597Y448791D01*
X734494Y448743D01*
X734393Y448692D01*
X734294Y448637D01*
X734197Y448579D01*
X734102Y448517D01*
X734009Y448452D01*
X733919Y448384D01*
X733831Y448313D01*
X733745Y448238D01*
X733662Y448161D01*
X733582Y448081D01*
X733505Y447998D01*
X733430Y447912D01*
X733359Y447824D01*
X733291Y447734D01*
X733226Y447641D01*
X733164Y447546D01*
X733106Y447449D01*
X733051Y447350D01*
X733000Y447249D01*
X732952Y447146D01*
X732907Y447042D01*
X732867Y446936D01*
X732830Y446829D01*
X732797Y446721D01*
X732767Y446611D01*
X732742Y446501D01*
X732720Y446390D01*
X732703Y446278D01*
X732689Y446165D01*
X732679Y446052D01*
X732673Y445939D01*
X732671Y445826D01*
X732672Y445826D02*
X732672Y440634D01*
X732671Y440634D02*
X732673Y440521D01*
X732679Y440408D01*
X732689Y440295D01*
X732703Y440182D01*
X732720Y440070D01*
X732742Y439959D01*
X732767Y439849D01*
X732797Y439739D01*
X732830Y439631D01*
X732867Y439524D01*
X732907Y439418D01*
X732952Y439314D01*
X733000Y439211D01*
X733051Y439110D01*
X733106Y439011D01*
X733164Y438914D01*
X733226Y438819D01*
X733291Y438726D01*
X733359Y438636D01*
X733430Y438548D01*
X733505Y438462D01*
X733582Y438379D01*
X733662Y438299D01*
X733745Y438222D01*
X733831Y438147D01*
X733919Y438076D01*
X734009Y438008D01*
X734102Y437943D01*
X734197Y437881D01*
X734294Y437823D01*
X734393Y437768D01*
X734494Y437717D01*
X734597Y437669D01*
X734701Y437624D01*
X734807Y437584D01*
X734914Y437547D01*
X735022Y437514D01*
X735132Y437484D01*
X735242Y437459D01*
X735353Y437437D01*
X735465Y437420D01*
X735578Y437406D01*
X735691Y437396D01*
X735804Y437390D01*
X735917Y437388D01*
X739163Y437388D01*
X727352Y446476D02*
X724106Y449072D01*
X724106Y437388D01*
X720861Y437388D02*
X727352Y437388D01*
D10*
X255150Y301830D02*
X255150Y276430D01*
X255150Y251030D01*
X264675Y251030D01*
X271025Y251030D01*
X280550Y251030D01*
X763150Y251030D01*
X763150Y301830D01*
X255150Y301830D01*
X255150Y276430D02*
X280550Y276430D01*
X280550Y251030D01*
X264675Y251030D02*
X264675Y247855D01*
X271025Y247855D01*
X271025Y251030D01*
D12*
X267723Y244807D02*
X265183Y242775D01*
X267723Y244807D02*
X267723Y235663D01*
X265183Y235663D02*
X270263Y235663D01*
D11*
X410787Y506543D02*
X413787Y506543D01*
X413787Y509543D01*
X410787Y509543D01*
X410787Y516543D01*
X524787Y516543D02*
X524787Y509543D01*
X521787Y509543D01*
X521787Y506543D01*
X524787Y506543D01*
X521787Y506543D02*
X413787Y506543D01*
X410787Y516543D02*
X524787Y516543D01*
X410787Y472543D02*
X410787Y462543D01*
X427787Y462543D01*
X524787Y462543D02*
X524787Y472543D01*
X524787Y462543D02*
X507787Y462543D01*
X410787Y502543D02*
X410787Y506543D01*
X524787Y506543D02*
X524787Y502543D01*
D12*
X434889Y434401D02*
X427100Y446085D01*
X434889Y446085D02*
X427100Y434401D01*
X416319Y443164D02*
X416321Y443271D01*
X416327Y443377D01*
X416337Y443483D01*
X416350Y443589D01*
X416368Y443695D01*
X416389Y443799D01*
X416414Y443903D01*
X416443Y444006D01*
X416475Y444107D01*
X416512Y444207D01*
X416552Y444306D01*
X416595Y444404D01*
X416642Y444500D01*
X416693Y444594D01*
X416747Y444686D01*
X416804Y444776D01*
X416864Y444864D01*
X416928Y444949D01*
X416995Y445032D01*
X417065Y445113D01*
X417137Y445191D01*
X417213Y445267D01*
X417291Y445339D01*
X417372Y445409D01*
X417455Y445476D01*
X417540Y445540D01*
X417628Y445600D01*
X417718Y445657D01*
X417810Y445711D01*
X417904Y445762D01*
X418000Y445809D01*
X418098Y445852D01*
X418197Y445892D01*
X418297Y445929D01*
X418398Y445961D01*
X418501Y445990D01*
X418605Y446015D01*
X418709Y446036D01*
X418815Y446054D01*
X418921Y446067D01*
X419027Y446077D01*
X419133Y446083D01*
X419240Y446085D01*
X419361Y446083D01*
X419482Y446077D01*
X419602Y446067D01*
X419723Y446054D01*
X419842Y446036D01*
X419962Y446015D01*
X420080Y445990D01*
X420197Y445961D01*
X420314Y445928D01*
X420429Y445892D01*
X420543Y445851D01*
X420656Y445808D01*
X420768Y445760D01*
X420877Y445709D01*
X420985Y445654D01*
X421092Y445596D01*
X421196Y445535D01*
X421298Y445470D01*
X421398Y445402D01*
X421496Y445331D01*
X421592Y445257D01*
X421685Y445180D01*
X421775Y445099D01*
X421863Y445016D01*
X421948Y444930D01*
X422031Y444841D01*
X422110Y444750D01*
X422187Y444656D01*
X422260Y444560D01*
X422330Y444462D01*
X422397Y444361D01*
X422461Y444258D01*
X422522Y444153D01*
X422579Y444046D01*
X422632Y443938D01*
X422682Y443828D01*
X422728Y443716D01*
X422771Y443603D01*
X422810Y443488D01*
X417293Y440892D02*
X417214Y440970D01*
X417138Y441050D01*
X417065Y441133D01*
X416995Y441219D01*
X416928Y441306D01*
X416864Y441397D01*
X416804Y441489D01*
X416746Y441583D01*
X416692Y441680D01*
X416642Y441778D01*
X416595Y441878D01*
X416551Y441979D01*
X416511Y442082D01*
X416475Y442187D01*
X416443Y442292D01*
X416414Y442399D01*
X416389Y442506D01*
X416367Y442615D01*
X416350Y442724D01*
X416336Y442833D01*
X416327Y442943D01*
X416321Y443054D01*
X416319Y443164D01*
X417293Y440892D02*
X422810Y434401D01*
X416319Y434401D01*
M02*
