G04 EAGLE Gerber RS-274X export*
G75*
%MOMM*%
%FSLAX34Y34*%
%LPD*%
%INSolderpaste Top*%
%IPPOS*%
%AMOC8*
5,1,8,0,0,1.08239X$1,22.5*%
G01*
%ADD10C,0.406400*%
%ADD11R,1.016000X0.508000*%
%ADD12R,0.250000X1.250000*%
%ADD13R,1.650000X2.050000*%
%ADD14R,1.100000X1.000000*%


D10*
X185420Y469900D03*
X229870Y430530D03*
X128270Y365760D03*
X167640Y410210D03*
X182880Y349250D03*
X227330Y309880D03*
X245110Y408940D03*
X289560Y369570D03*
X725170Y339090D03*
X685800Y294640D03*
X801370Y414020D03*
X762000Y369570D03*
X654050Y372110D03*
X609600Y411480D03*
X726440Y487680D03*
X687070Y443230D03*
D11*
X303391Y91723D03*
X303391Y99723D03*
X303391Y107723D03*
X303391Y115723D03*
X303391Y123723D03*
X303391Y131723D03*
X303391Y139723D03*
X303391Y147723D03*
X303391Y155723D03*
X303391Y163723D03*
X303391Y171723D03*
X303391Y179723D03*
X303391Y187723D03*
X303391Y195723D03*
X303391Y203723D03*
X303391Y211723D03*
X303391Y219723D03*
X303391Y227723D03*
D12*
X398920Y120695D03*
X408920Y120695D03*
X418920Y120695D03*
X428920Y120695D03*
X438920Y120695D03*
X448920Y120695D03*
X458920Y120695D03*
X468920Y120695D03*
D13*
X492920Y88195D03*
X374920Y88195D03*
D14*
X330169Y179918D03*
X347169Y179918D03*
M02*
