G04 EAGLE Gerber RS-274X export*
G75*
%MOMM*%
%FSLAX34Y34*%
%LPD*%
%INSoldermask Top*%
%IPPOS*%
%AMOC8*
5,1,8,0,0,1.08239X$1,22.5*%
G01*
%ADD10C,1.203200*%
%ADD11C,2.082800*%
%ADD12C,1.727200*%
%ADD13C,2.953200*%
%ADD14C,0.609600*%
%ADD15C,3.429000*%
%ADD16R,1.219200X0.711200*%
%ADD17R,0.400000X1.400000*%
%ADD18R,1.900000X2.350000*%
%ADD19R,1.303200X1.203200*%

G36*
X82375Y240824D02*
X82375Y240824D01*
X83342Y240927D01*
X83390Y240941D01*
X83481Y240958D01*
X84411Y241277D01*
X84455Y241302D01*
X84540Y241338D01*
X85376Y241857D01*
X85413Y241890D01*
X85488Y241945D01*
X86187Y242636D01*
X86216Y242678D01*
X86277Y242747D01*
X86805Y243577D01*
X86824Y243624D01*
X86867Y243705D01*
X87198Y244632D01*
X87206Y244682D01*
X87230Y244770D01*
X87343Y245723D01*
X87363Y245827D01*
X87363Y245831D01*
X87365Y245834D01*
X87371Y246022D01*
X87260Y246980D01*
X87246Y247028D01*
X87228Y247118D01*
X86907Y248027D01*
X86882Y248071D01*
X86845Y248155D01*
X86457Y248768D01*
X86330Y248970D01*
X86296Y249007D01*
X86241Y249080D01*
X85557Y249760D01*
X85516Y249789D01*
X85446Y249848D01*
X84628Y250359D01*
X84581Y250377D01*
X84500Y250420D01*
X83589Y250735D01*
X83539Y250743D01*
X83450Y250767D01*
X82492Y250872D01*
X82462Y250869D01*
X82423Y250875D01*
X82322Y250875D01*
X82295Y250870D01*
X82258Y250872D01*
X81285Y250773D01*
X81236Y250760D01*
X81146Y250743D01*
X80219Y250431D01*
X80175Y250406D01*
X80090Y250371D01*
X79256Y249860D01*
X79218Y249826D01*
X79144Y249772D01*
X78444Y249088D01*
X78415Y249047D01*
X78355Y248978D01*
X77825Y248156D01*
X77808Y248116D01*
X77796Y248102D01*
X77788Y248078D01*
X77761Y248029D01*
X77428Y247109D01*
X77419Y247060D01*
X77394Y246971D01*
X77274Y246000D01*
X77274Y245990D01*
X77274Y245988D01*
X77273Y245986D01*
X77271Y245978D01*
X77244Y245675D01*
X77249Y245625D01*
X77249Y245526D01*
X77391Y244569D01*
X77407Y244521D01*
X77412Y244499D01*
X77412Y244494D01*
X77414Y244488D01*
X77427Y244431D01*
X77779Y243529D01*
X77805Y243486D01*
X77845Y243404D01*
X78388Y242603D01*
X78424Y242567D01*
X78481Y242495D01*
X79189Y241835D01*
X79231Y241808D01*
X79303Y241751D01*
X80140Y241265D01*
X80188Y241248D01*
X80271Y241208D01*
X81195Y240921D01*
X81245Y240915D01*
X81335Y240894D01*
X82267Y240823D01*
X82296Y240819D01*
X82348Y240819D01*
X82375Y240824D01*
G37*
G36*
X37087Y240773D02*
X37087Y240773D01*
X38054Y240876D01*
X38102Y240890D01*
X38193Y240907D01*
X39123Y241226D01*
X39167Y241251D01*
X39252Y241287D01*
X40088Y241806D01*
X40125Y241839D01*
X40200Y241894D01*
X40899Y242585D01*
X40928Y242627D01*
X40989Y242696D01*
X41517Y243526D01*
X41536Y243573D01*
X41579Y243654D01*
X41910Y244581D01*
X41918Y244631D01*
X41942Y244719D01*
X42055Y245672D01*
X42075Y245776D01*
X42075Y245780D01*
X42077Y245783D01*
X42083Y245971D01*
X41972Y246929D01*
X41958Y246977D01*
X41940Y247067D01*
X41619Y247976D01*
X41594Y248020D01*
X41557Y248104D01*
X41169Y248717D01*
X41042Y248919D01*
X41008Y248956D01*
X40953Y249029D01*
X40269Y249709D01*
X40228Y249738D01*
X40158Y249797D01*
X39340Y250308D01*
X39293Y250326D01*
X39212Y250369D01*
X38301Y250684D01*
X38251Y250692D01*
X38162Y250716D01*
X37204Y250821D01*
X37174Y250818D01*
X37135Y250824D01*
X37034Y250824D01*
X37007Y250819D01*
X36970Y250821D01*
X35997Y250722D01*
X35948Y250709D01*
X35858Y250692D01*
X34931Y250380D01*
X34887Y250355D01*
X34802Y250320D01*
X33968Y249809D01*
X33930Y249775D01*
X33856Y249721D01*
X33156Y249037D01*
X33127Y248996D01*
X33067Y248927D01*
X32537Y248105D01*
X32520Y248065D01*
X32508Y248051D01*
X32500Y248027D01*
X32473Y247978D01*
X32140Y247058D01*
X32131Y247009D01*
X32106Y246920D01*
X31986Y245949D01*
X31986Y245939D01*
X31986Y245937D01*
X31985Y245935D01*
X31983Y245927D01*
X31956Y245624D01*
X31961Y245574D01*
X31961Y245475D01*
X32103Y244518D01*
X32119Y244470D01*
X32124Y244448D01*
X32124Y244443D01*
X32126Y244437D01*
X32139Y244380D01*
X32491Y243478D01*
X32517Y243435D01*
X32557Y243353D01*
X33100Y242552D01*
X33136Y242516D01*
X33193Y242444D01*
X33901Y241784D01*
X33943Y241757D01*
X34015Y241700D01*
X34852Y241214D01*
X34900Y241197D01*
X34983Y241157D01*
X35907Y240870D01*
X35957Y240864D01*
X36047Y240843D01*
X36979Y240772D01*
X37008Y240768D01*
X37060Y240768D01*
X37087Y240773D01*
G37*
G36*
X37112Y175749D02*
X37112Y175749D01*
X38079Y175852D01*
X38127Y175866D01*
X38218Y175883D01*
X39148Y176202D01*
X39192Y176227D01*
X39277Y176263D01*
X40113Y176782D01*
X40150Y176815D01*
X40225Y176870D01*
X40924Y177561D01*
X40953Y177603D01*
X41014Y177672D01*
X41542Y178502D01*
X41561Y178549D01*
X41604Y178630D01*
X41935Y179557D01*
X41943Y179607D01*
X41967Y179695D01*
X42080Y180648D01*
X42100Y180752D01*
X42100Y180756D01*
X42102Y180759D01*
X42108Y180947D01*
X41997Y181905D01*
X41983Y181953D01*
X41965Y182043D01*
X41644Y182952D01*
X41619Y182996D01*
X41582Y183080D01*
X41194Y183693D01*
X41067Y183895D01*
X41033Y183932D01*
X40978Y184005D01*
X40294Y184685D01*
X40253Y184714D01*
X40183Y184773D01*
X39365Y185284D01*
X39318Y185302D01*
X39237Y185345D01*
X38326Y185660D01*
X38276Y185668D01*
X38187Y185692D01*
X37229Y185797D01*
X37199Y185794D01*
X37160Y185800D01*
X37059Y185800D01*
X37032Y185795D01*
X36995Y185797D01*
X36022Y185698D01*
X35973Y185685D01*
X35883Y185668D01*
X34956Y185356D01*
X34912Y185331D01*
X34827Y185296D01*
X33993Y184785D01*
X33955Y184751D01*
X33881Y184697D01*
X33181Y184013D01*
X33152Y183972D01*
X33092Y183903D01*
X32562Y183081D01*
X32545Y183041D01*
X32533Y183027D01*
X32525Y183003D01*
X32498Y182954D01*
X32165Y182034D01*
X32156Y181985D01*
X32131Y181896D01*
X32011Y180925D01*
X32011Y180915D01*
X32011Y180913D01*
X32010Y180911D01*
X32008Y180903D01*
X31981Y180600D01*
X31986Y180550D01*
X31986Y180451D01*
X32128Y179494D01*
X32144Y179446D01*
X32149Y179424D01*
X32149Y179419D01*
X32151Y179413D01*
X32164Y179356D01*
X32516Y178454D01*
X32542Y178411D01*
X32582Y178329D01*
X33125Y177528D01*
X33161Y177492D01*
X33218Y177420D01*
X33926Y176760D01*
X33968Y176733D01*
X34040Y176676D01*
X34877Y176190D01*
X34925Y176173D01*
X35008Y176133D01*
X35932Y175846D01*
X35982Y175840D01*
X36072Y175819D01*
X37004Y175748D01*
X37033Y175744D01*
X37085Y175744D01*
X37112Y175749D01*
G37*
G36*
X82350Y175749D02*
X82350Y175749D01*
X83317Y175852D01*
X83365Y175866D01*
X83456Y175883D01*
X84386Y176202D01*
X84430Y176227D01*
X84515Y176263D01*
X85351Y176782D01*
X85388Y176815D01*
X85463Y176870D01*
X86162Y177561D01*
X86191Y177603D01*
X86252Y177672D01*
X86780Y178502D01*
X86799Y178549D01*
X86842Y178630D01*
X87173Y179557D01*
X87181Y179607D01*
X87205Y179695D01*
X87318Y180648D01*
X87338Y180752D01*
X87338Y180756D01*
X87340Y180759D01*
X87346Y180947D01*
X87235Y181905D01*
X87221Y181953D01*
X87203Y182043D01*
X86882Y182952D01*
X86857Y182996D01*
X86820Y183080D01*
X86432Y183693D01*
X86305Y183895D01*
X86271Y183932D01*
X86216Y184005D01*
X85532Y184685D01*
X85491Y184714D01*
X85421Y184773D01*
X84603Y185284D01*
X84556Y185302D01*
X84475Y185345D01*
X83564Y185660D01*
X83514Y185668D01*
X83425Y185692D01*
X82467Y185797D01*
X82437Y185794D01*
X82398Y185800D01*
X82297Y185800D01*
X82270Y185795D01*
X82233Y185797D01*
X81260Y185698D01*
X81211Y185685D01*
X81121Y185668D01*
X80194Y185356D01*
X80150Y185331D01*
X80065Y185296D01*
X79231Y184785D01*
X79193Y184751D01*
X79119Y184697D01*
X78419Y184013D01*
X78390Y183972D01*
X78330Y183903D01*
X77800Y183081D01*
X77783Y183041D01*
X77771Y183027D01*
X77763Y183003D01*
X77736Y182954D01*
X77403Y182034D01*
X77394Y181985D01*
X77369Y181896D01*
X77249Y180925D01*
X77249Y180915D01*
X77249Y180913D01*
X77248Y180911D01*
X77246Y180903D01*
X77219Y180600D01*
X77224Y180550D01*
X77224Y180451D01*
X77366Y179494D01*
X77382Y179446D01*
X77387Y179424D01*
X77387Y179419D01*
X77389Y179413D01*
X77402Y179356D01*
X77754Y178454D01*
X77780Y178411D01*
X77820Y178329D01*
X78363Y177528D01*
X78399Y177492D01*
X78456Y177420D01*
X79164Y176760D01*
X79206Y176733D01*
X79278Y176676D01*
X80115Y176190D01*
X80163Y176173D01*
X80246Y176133D01*
X81170Y175846D01*
X81220Y175840D01*
X81310Y175819D01*
X82242Y175748D01*
X82271Y175744D01*
X82323Y175744D01*
X82350Y175749D01*
G37*
G36*
X82375Y151924D02*
X82375Y151924D01*
X83342Y152027D01*
X83390Y152041D01*
X83481Y152058D01*
X84411Y152377D01*
X84455Y152402D01*
X84540Y152438D01*
X85376Y152957D01*
X85413Y152990D01*
X85488Y153045D01*
X86187Y153736D01*
X86216Y153778D01*
X86277Y153847D01*
X86805Y154677D01*
X86824Y154724D01*
X86867Y154805D01*
X87198Y155732D01*
X87206Y155782D01*
X87230Y155870D01*
X87343Y156823D01*
X87363Y156927D01*
X87363Y156931D01*
X87365Y156934D01*
X87371Y157122D01*
X87260Y158080D01*
X87246Y158128D01*
X87228Y158218D01*
X86907Y159127D01*
X86882Y159171D01*
X86845Y159255D01*
X86457Y159868D01*
X86330Y160070D01*
X86296Y160107D01*
X86241Y160180D01*
X85557Y160860D01*
X85516Y160889D01*
X85446Y160948D01*
X84628Y161459D01*
X84581Y161477D01*
X84500Y161520D01*
X83589Y161835D01*
X83539Y161843D01*
X83450Y161867D01*
X82492Y161972D01*
X82462Y161969D01*
X82423Y161975D01*
X82322Y161975D01*
X82295Y161970D01*
X82258Y161972D01*
X81285Y161873D01*
X81236Y161860D01*
X81146Y161843D01*
X80219Y161531D01*
X80175Y161506D01*
X80090Y161471D01*
X79256Y160960D01*
X79218Y160926D01*
X79144Y160872D01*
X78444Y160188D01*
X78415Y160147D01*
X78355Y160078D01*
X77825Y159256D01*
X77808Y159216D01*
X77796Y159202D01*
X77788Y159178D01*
X77761Y159129D01*
X77428Y158209D01*
X77419Y158160D01*
X77394Y158071D01*
X77274Y157100D01*
X77274Y157090D01*
X77274Y157088D01*
X77273Y157086D01*
X77271Y157078D01*
X77244Y156775D01*
X77249Y156725D01*
X77249Y156626D01*
X77391Y155669D01*
X77407Y155621D01*
X77412Y155599D01*
X77412Y155594D01*
X77414Y155588D01*
X77427Y155531D01*
X77779Y154629D01*
X77805Y154586D01*
X77845Y154504D01*
X78388Y153703D01*
X78424Y153667D01*
X78481Y153595D01*
X79189Y152935D01*
X79231Y152908D01*
X79303Y152851D01*
X80140Y152365D01*
X80188Y152348D01*
X80271Y152308D01*
X81195Y152021D01*
X81245Y152015D01*
X81335Y151994D01*
X82267Y151923D01*
X82296Y151919D01*
X82348Y151919D01*
X82375Y151924D01*
G37*
G36*
X37087Y151873D02*
X37087Y151873D01*
X38054Y151976D01*
X38102Y151990D01*
X38193Y152007D01*
X39123Y152326D01*
X39167Y152351D01*
X39252Y152387D01*
X40088Y152906D01*
X40125Y152939D01*
X40200Y152994D01*
X40899Y153685D01*
X40928Y153727D01*
X40989Y153796D01*
X41517Y154626D01*
X41536Y154673D01*
X41579Y154754D01*
X41910Y155681D01*
X41918Y155731D01*
X41942Y155819D01*
X42055Y156772D01*
X42075Y156876D01*
X42075Y156880D01*
X42077Y156883D01*
X42083Y157071D01*
X41972Y158029D01*
X41958Y158077D01*
X41940Y158167D01*
X41619Y159076D01*
X41594Y159120D01*
X41557Y159204D01*
X41169Y159817D01*
X41042Y160019D01*
X41008Y160056D01*
X40953Y160129D01*
X40269Y160809D01*
X40228Y160838D01*
X40158Y160897D01*
X39340Y161408D01*
X39293Y161426D01*
X39212Y161469D01*
X38301Y161784D01*
X38251Y161792D01*
X38162Y161816D01*
X37204Y161921D01*
X37174Y161918D01*
X37135Y161924D01*
X37034Y161924D01*
X37007Y161919D01*
X36970Y161921D01*
X35997Y161822D01*
X35948Y161809D01*
X35858Y161792D01*
X34931Y161480D01*
X34887Y161455D01*
X34802Y161420D01*
X33968Y160909D01*
X33930Y160875D01*
X33856Y160821D01*
X33156Y160137D01*
X33127Y160096D01*
X33067Y160027D01*
X32537Y159205D01*
X32520Y159165D01*
X32508Y159151D01*
X32500Y159127D01*
X32473Y159078D01*
X32140Y158158D01*
X32131Y158109D01*
X32106Y158020D01*
X31986Y157049D01*
X31986Y157039D01*
X31986Y157037D01*
X31985Y157035D01*
X31983Y157027D01*
X31956Y156724D01*
X31961Y156674D01*
X31961Y156575D01*
X32103Y155618D01*
X32119Y155570D01*
X32124Y155548D01*
X32124Y155543D01*
X32126Y155537D01*
X32139Y155480D01*
X32491Y154578D01*
X32517Y154535D01*
X32557Y154453D01*
X33100Y153652D01*
X33136Y153616D01*
X33193Y153544D01*
X33901Y152884D01*
X33943Y152857D01*
X34015Y152800D01*
X34852Y152314D01*
X34900Y152297D01*
X34983Y152257D01*
X35907Y151970D01*
X35957Y151964D01*
X36047Y151943D01*
X36979Y151872D01*
X37008Y151868D01*
X37060Y151868D01*
X37087Y151873D01*
G37*
G36*
X37112Y86849D02*
X37112Y86849D01*
X38079Y86952D01*
X38127Y86966D01*
X38218Y86983D01*
X39148Y87302D01*
X39192Y87327D01*
X39277Y87363D01*
X40113Y87882D01*
X40150Y87915D01*
X40225Y87970D01*
X40924Y88661D01*
X40953Y88703D01*
X41014Y88772D01*
X41542Y89602D01*
X41561Y89649D01*
X41604Y89730D01*
X41935Y90657D01*
X41943Y90707D01*
X41967Y90795D01*
X42080Y91748D01*
X42100Y91852D01*
X42100Y91856D01*
X42102Y91859D01*
X42108Y92047D01*
X41997Y93005D01*
X41983Y93053D01*
X41965Y93143D01*
X41644Y94052D01*
X41619Y94096D01*
X41582Y94180D01*
X41194Y94793D01*
X41067Y94995D01*
X41033Y95032D01*
X40978Y95105D01*
X40294Y95785D01*
X40253Y95814D01*
X40183Y95873D01*
X39365Y96384D01*
X39318Y96402D01*
X39237Y96445D01*
X38326Y96760D01*
X38276Y96768D01*
X38187Y96792D01*
X37229Y96897D01*
X37199Y96894D01*
X37160Y96900D01*
X37059Y96900D01*
X37032Y96895D01*
X36995Y96897D01*
X36022Y96798D01*
X35973Y96785D01*
X35883Y96768D01*
X34956Y96456D01*
X34912Y96431D01*
X34827Y96396D01*
X33993Y95885D01*
X33955Y95851D01*
X33881Y95797D01*
X33181Y95113D01*
X33152Y95072D01*
X33092Y95003D01*
X32562Y94181D01*
X32545Y94141D01*
X32533Y94127D01*
X32525Y94103D01*
X32498Y94054D01*
X32165Y93134D01*
X32156Y93085D01*
X32131Y92996D01*
X32011Y92025D01*
X32011Y92015D01*
X32011Y92013D01*
X32010Y92011D01*
X32008Y92003D01*
X31981Y91700D01*
X31986Y91650D01*
X31986Y91551D01*
X32128Y90594D01*
X32144Y90546D01*
X32149Y90524D01*
X32149Y90519D01*
X32151Y90513D01*
X32164Y90456D01*
X32516Y89554D01*
X32542Y89511D01*
X32582Y89429D01*
X33125Y88628D01*
X33161Y88592D01*
X33218Y88520D01*
X33926Y87860D01*
X33968Y87833D01*
X34040Y87776D01*
X34877Y87290D01*
X34925Y87273D01*
X35008Y87233D01*
X35932Y86946D01*
X35982Y86940D01*
X36072Y86919D01*
X37004Y86848D01*
X37033Y86844D01*
X37085Y86844D01*
X37112Y86849D01*
G37*
G36*
X82350Y86849D02*
X82350Y86849D01*
X83317Y86952D01*
X83365Y86966D01*
X83456Y86983D01*
X84386Y87302D01*
X84430Y87327D01*
X84515Y87363D01*
X85351Y87882D01*
X85388Y87915D01*
X85463Y87970D01*
X86162Y88661D01*
X86191Y88703D01*
X86252Y88772D01*
X86780Y89602D01*
X86799Y89649D01*
X86842Y89730D01*
X87173Y90657D01*
X87181Y90707D01*
X87205Y90795D01*
X87318Y91748D01*
X87338Y91852D01*
X87338Y91856D01*
X87340Y91859D01*
X87346Y92047D01*
X87235Y93005D01*
X87221Y93053D01*
X87203Y93143D01*
X86882Y94052D01*
X86857Y94096D01*
X86820Y94180D01*
X86432Y94793D01*
X86305Y94995D01*
X86271Y95032D01*
X86216Y95105D01*
X85532Y95785D01*
X85491Y95814D01*
X85421Y95873D01*
X84603Y96384D01*
X84556Y96402D01*
X84475Y96445D01*
X83564Y96760D01*
X83514Y96768D01*
X83425Y96792D01*
X82467Y96897D01*
X82437Y96894D01*
X82398Y96900D01*
X82297Y96900D01*
X82270Y96895D01*
X82233Y96897D01*
X81260Y96798D01*
X81211Y96785D01*
X81121Y96768D01*
X80194Y96456D01*
X80150Y96431D01*
X80065Y96396D01*
X79231Y95885D01*
X79193Y95851D01*
X79119Y95797D01*
X78419Y95113D01*
X78390Y95072D01*
X78330Y95003D01*
X77800Y94181D01*
X77783Y94141D01*
X77771Y94127D01*
X77763Y94103D01*
X77736Y94054D01*
X77403Y93134D01*
X77394Y93085D01*
X77369Y92996D01*
X77249Y92025D01*
X77249Y92015D01*
X77249Y92013D01*
X77248Y92011D01*
X77246Y92003D01*
X77219Y91700D01*
X77224Y91650D01*
X77224Y91551D01*
X77366Y90594D01*
X77382Y90546D01*
X77387Y90524D01*
X77387Y90519D01*
X77389Y90513D01*
X77402Y90456D01*
X77754Y89554D01*
X77780Y89511D01*
X77820Y89429D01*
X78363Y88628D01*
X78399Y88592D01*
X78456Y88520D01*
X79164Y87860D01*
X79206Y87833D01*
X79278Y87776D01*
X80115Y87290D01*
X80163Y87273D01*
X80246Y87233D01*
X81170Y86946D01*
X81220Y86940D01*
X81310Y86919D01*
X82242Y86848D01*
X82271Y86844D01*
X82323Y86844D01*
X82350Y86849D01*
G37*
D10*
X50800Y502920D03*
X307340Y502920D03*
X596900Y502920D03*
X52070Y284480D03*
X50800Y54610D03*
X852170Y54610D03*
X855980Y281940D03*
X853440Y504190D03*
D11*
X580390Y425450D03*
X554990Y425450D03*
X529590Y425450D03*
X504190Y425450D03*
X478790Y425450D03*
X453390Y425450D03*
X427990Y425450D03*
X402590Y425450D03*
X377190Y425450D03*
X351790Y425450D03*
D12*
X132080Y323850D02*
X132080Y308610D01*
X104140Y308610D02*
X104140Y323850D01*
X132080Y285750D02*
X132080Y270510D01*
X104140Y270510D02*
X104140Y285750D01*
X773430Y474416D02*
X788670Y474416D01*
X788670Y446476D02*
X773430Y446476D01*
X146551Y464563D02*
X135774Y475340D01*
X116018Y455583D02*
X126794Y444807D01*
D11*
X788670Y321310D03*
X806631Y339271D03*
D13*
X219150Y46430D03*
X799150Y46430D03*
D14*
X185420Y469900D03*
X229870Y430530D03*
D15*
X191262Y450850D02*
X191267Y451268D01*
X191282Y451685D01*
X191308Y452102D01*
X191344Y452518D01*
X191390Y452933D01*
X191446Y453347D01*
X191513Y453759D01*
X191589Y454170D01*
X191676Y454579D01*
X191772Y454985D01*
X191878Y455389D01*
X191995Y455790D01*
X192121Y456188D01*
X192257Y456583D01*
X192402Y456975D01*
X192557Y457363D01*
X192722Y457746D01*
X192896Y458126D01*
X193079Y458501D01*
X193271Y458872D01*
X193473Y459238D01*
X193683Y459599D01*
X193902Y459955D01*
X194130Y460305D01*
X194366Y460649D01*
X194611Y460988D01*
X194864Y461320D01*
X195125Y461646D01*
X195394Y461966D01*
X195670Y462279D01*
X195955Y462585D01*
X196246Y462884D01*
X196545Y463175D01*
X196851Y463460D01*
X197164Y463736D01*
X197484Y464005D01*
X197810Y464266D01*
X198142Y464519D01*
X198481Y464764D01*
X198825Y465000D01*
X199175Y465228D01*
X199531Y465447D01*
X199892Y465657D01*
X200258Y465859D01*
X200629Y466051D01*
X201004Y466234D01*
X201384Y466408D01*
X201767Y466573D01*
X202155Y466728D01*
X202547Y466873D01*
X202942Y467009D01*
X203340Y467135D01*
X203741Y467252D01*
X204145Y467358D01*
X204551Y467454D01*
X204960Y467541D01*
X205371Y467617D01*
X205783Y467684D01*
X206197Y467740D01*
X206612Y467786D01*
X207028Y467822D01*
X207445Y467848D01*
X207862Y467863D01*
X208280Y467868D01*
X208698Y467863D01*
X209115Y467848D01*
X209532Y467822D01*
X209948Y467786D01*
X210363Y467740D01*
X210777Y467684D01*
X211189Y467617D01*
X211600Y467541D01*
X212009Y467454D01*
X212415Y467358D01*
X212819Y467252D01*
X213220Y467135D01*
X213618Y467009D01*
X214013Y466873D01*
X214405Y466728D01*
X214793Y466573D01*
X215176Y466408D01*
X215556Y466234D01*
X215931Y466051D01*
X216302Y465859D01*
X216668Y465657D01*
X217029Y465447D01*
X217385Y465228D01*
X217735Y465000D01*
X218079Y464764D01*
X218418Y464519D01*
X218750Y464266D01*
X219076Y464005D01*
X219396Y463736D01*
X219709Y463460D01*
X220015Y463175D01*
X220314Y462884D01*
X220605Y462585D01*
X220890Y462279D01*
X221166Y461966D01*
X221435Y461646D01*
X221696Y461320D01*
X221949Y460988D01*
X222194Y460649D01*
X222430Y460305D01*
X222658Y459955D01*
X222877Y459599D01*
X223087Y459238D01*
X223289Y458872D01*
X223481Y458501D01*
X223664Y458126D01*
X223838Y457746D01*
X224003Y457363D01*
X224158Y456975D01*
X224303Y456583D01*
X224439Y456188D01*
X224565Y455790D01*
X224682Y455389D01*
X224788Y454985D01*
X224884Y454579D01*
X224971Y454170D01*
X225047Y453759D01*
X225114Y453347D01*
X225170Y452933D01*
X225216Y452518D01*
X225252Y452102D01*
X225278Y451685D01*
X225293Y451268D01*
X225298Y450850D01*
X225293Y450432D01*
X225278Y450015D01*
X225252Y449598D01*
X225216Y449182D01*
X225170Y448767D01*
X225114Y448353D01*
X225047Y447941D01*
X224971Y447530D01*
X224884Y447121D01*
X224788Y446715D01*
X224682Y446311D01*
X224565Y445910D01*
X224439Y445512D01*
X224303Y445117D01*
X224158Y444725D01*
X224003Y444337D01*
X223838Y443954D01*
X223664Y443574D01*
X223481Y443199D01*
X223289Y442828D01*
X223087Y442462D01*
X222877Y442101D01*
X222658Y441745D01*
X222430Y441395D01*
X222194Y441051D01*
X221949Y440712D01*
X221696Y440380D01*
X221435Y440054D01*
X221166Y439734D01*
X220890Y439421D01*
X220605Y439115D01*
X220314Y438816D01*
X220015Y438525D01*
X219709Y438240D01*
X219396Y437964D01*
X219076Y437695D01*
X218750Y437434D01*
X218418Y437181D01*
X218079Y436936D01*
X217735Y436700D01*
X217385Y436472D01*
X217029Y436253D01*
X216668Y436043D01*
X216302Y435841D01*
X215931Y435649D01*
X215556Y435466D01*
X215176Y435292D01*
X214793Y435127D01*
X214405Y434972D01*
X214013Y434827D01*
X213618Y434691D01*
X213220Y434565D01*
X212819Y434448D01*
X212415Y434342D01*
X212009Y434246D01*
X211600Y434159D01*
X211189Y434083D01*
X210777Y434016D01*
X210363Y433960D01*
X209948Y433914D01*
X209532Y433878D01*
X209115Y433852D01*
X208698Y433837D01*
X208280Y433832D01*
X207862Y433837D01*
X207445Y433852D01*
X207028Y433878D01*
X206612Y433914D01*
X206197Y433960D01*
X205783Y434016D01*
X205371Y434083D01*
X204960Y434159D01*
X204551Y434246D01*
X204145Y434342D01*
X203741Y434448D01*
X203340Y434565D01*
X202942Y434691D01*
X202547Y434827D01*
X202155Y434972D01*
X201767Y435127D01*
X201384Y435292D01*
X201004Y435466D01*
X200629Y435649D01*
X200258Y435841D01*
X199892Y436043D01*
X199531Y436253D01*
X199175Y436472D01*
X198825Y436700D01*
X198481Y436936D01*
X198142Y437181D01*
X197810Y437434D01*
X197484Y437695D01*
X197164Y437964D01*
X196851Y438240D01*
X196545Y438525D01*
X196246Y438816D01*
X195955Y439115D01*
X195670Y439421D01*
X195394Y439734D01*
X195125Y440054D01*
X194864Y440380D01*
X194611Y440712D01*
X194366Y441051D01*
X194130Y441395D01*
X193902Y441745D01*
X193683Y442101D01*
X193473Y442462D01*
X193271Y442828D01*
X193079Y443199D01*
X192896Y443574D01*
X192722Y443954D01*
X192557Y444337D01*
X192402Y444725D01*
X192257Y445117D01*
X192121Y445512D01*
X191995Y445910D01*
X191878Y446311D01*
X191772Y446715D01*
X191676Y447121D01*
X191589Y447530D01*
X191513Y447941D01*
X191446Y448353D01*
X191390Y448767D01*
X191344Y449182D01*
X191308Y449598D01*
X191282Y450015D01*
X191267Y450432D01*
X191262Y450850D01*
D14*
X128270Y365760D03*
X167640Y410210D03*
D15*
X130302Y388620D02*
X130307Y389038D01*
X130322Y389455D01*
X130348Y389872D01*
X130384Y390288D01*
X130430Y390703D01*
X130486Y391117D01*
X130553Y391529D01*
X130629Y391940D01*
X130716Y392349D01*
X130812Y392755D01*
X130918Y393159D01*
X131035Y393560D01*
X131161Y393958D01*
X131297Y394353D01*
X131442Y394745D01*
X131597Y395133D01*
X131762Y395516D01*
X131936Y395896D01*
X132119Y396271D01*
X132311Y396642D01*
X132513Y397008D01*
X132723Y397369D01*
X132942Y397725D01*
X133170Y398075D01*
X133406Y398419D01*
X133651Y398758D01*
X133904Y399090D01*
X134165Y399416D01*
X134434Y399736D01*
X134710Y400049D01*
X134995Y400355D01*
X135286Y400654D01*
X135585Y400945D01*
X135891Y401230D01*
X136204Y401506D01*
X136524Y401775D01*
X136850Y402036D01*
X137182Y402289D01*
X137521Y402534D01*
X137865Y402770D01*
X138215Y402998D01*
X138571Y403217D01*
X138932Y403427D01*
X139298Y403629D01*
X139669Y403821D01*
X140044Y404004D01*
X140424Y404178D01*
X140807Y404343D01*
X141195Y404498D01*
X141587Y404643D01*
X141982Y404779D01*
X142380Y404905D01*
X142781Y405022D01*
X143185Y405128D01*
X143591Y405224D01*
X144000Y405311D01*
X144411Y405387D01*
X144823Y405454D01*
X145237Y405510D01*
X145652Y405556D01*
X146068Y405592D01*
X146485Y405618D01*
X146902Y405633D01*
X147320Y405638D01*
X147738Y405633D01*
X148155Y405618D01*
X148572Y405592D01*
X148988Y405556D01*
X149403Y405510D01*
X149817Y405454D01*
X150229Y405387D01*
X150640Y405311D01*
X151049Y405224D01*
X151455Y405128D01*
X151859Y405022D01*
X152260Y404905D01*
X152658Y404779D01*
X153053Y404643D01*
X153445Y404498D01*
X153833Y404343D01*
X154216Y404178D01*
X154596Y404004D01*
X154971Y403821D01*
X155342Y403629D01*
X155708Y403427D01*
X156069Y403217D01*
X156425Y402998D01*
X156775Y402770D01*
X157119Y402534D01*
X157458Y402289D01*
X157790Y402036D01*
X158116Y401775D01*
X158436Y401506D01*
X158749Y401230D01*
X159055Y400945D01*
X159354Y400654D01*
X159645Y400355D01*
X159930Y400049D01*
X160206Y399736D01*
X160475Y399416D01*
X160736Y399090D01*
X160989Y398758D01*
X161234Y398419D01*
X161470Y398075D01*
X161698Y397725D01*
X161917Y397369D01*
X162127Y397008D01*
X162329Y396642D01*
X162521Y396271D01*
X162704Y395896D01*
X162878Y395516D01*
X163043Y395133D01*
X163198Y394745D01*
X163343Y394353D01*
X163479Y393958D01*
X163605Y393560D01*
X163722Y393159D01*
X163828Y392755D01*
X163924Y392349D01*
X164011Y391940D01*
X164087Y391529D01*
X164154Y391117D01*
X164210Y390703D01*
X164256Y390288D01*
X164292Y389872D01*
X164318Y389455D01*
X164333Y389038D01*
X164338Y388620D01*
X164333Y388202D01*
X164318Y387785D01*
X164292Y387368D01*
X164256Y386952D01*
X164210Y386537D01*
X164154Y386123D01*
X164087Y385711D01*
X164011Y385300D01*
X163924Y384891D01*
X163828Y384485D01*
X163722Y384081D01*
X163605Y383680D01*
X163479Y383282D01*
X163343Y382887D01*
X163198Y382495D01*
X163043Y382107D01*
X162878Y381724D01*
X162704Y381344D01*
X162521Y380969D01*
X162329Y380598D01*
X162127Y380232D01*
X161917Y379871D01*
X161698Y379515D01*
X161470Y379165D01*
X161234Y378821D01*
X160989Y378482D01*
X160736Y378150D01*
X160475Y377824D01*
X160206Y377504D01*
X159930Y377191D01*
X159645Y376885D01*
X159354Y376586D01*
X159055Y376295D01*
X158749Y376010D01*
X158436Y375734D01*
X158116Y375465D01*
X157790Y375204D01*
X157458Y374951D01*
X157119Y374706D01*
X156775Y374470D01*
X156425Y374242D01*
X156069Y374023D01*
X155708Y373813D01*
X155342Y373611D01*
X154971Y373419D01*
X154596Y373236D01*
X154216Y373062D01*
X153833Y372897D01*
X153445Y372742D01*
X153053Y372597D01*
X152658Y372461D01*
X152260Y372335D01*
X151859Y372218D01*
X151455Y372112D01*
X151049Y372016D01*
X150640Y371929D01*
X150229Y371853D01*
X149817Y371786D01*
X149403Y371730D01*
X148988Y371684D01*
X148572Y371648D01*
X148155Y371622D01*
X147738Y371607D01*
X147320Y371602D01*
X146902Y371607D01*
X146485Y371622D01*
X146068Y371648D01*
X145652Y371684D01*
X145237Y371730D01*
X144823Y371786D01*
X144411Y371853D01*
X144000Y371929D01*
X143591Y372016D01*
X143185Y372112D01*
X142781Y372218D01*
X142380Y372335D01*
X141982Y372461D01*
X141587Y372597D01*
X141195Y372742D01*
X140807Y372897D01*
X140424Y373062D01*
X140044Y373236D01*
X139669Y373419D01*
X139298Y373611D01*
X138932Y373813D01*
X138571Y374023D01*
X138215Y374242D01*
X137865Y374470D01*
X137521Y374706D01*
X137182Y374951D01*
X136850Y375204D01*
X136524Y375465D01*
X136204Y375734D01*
X135891Y376010D01*
X135585Y376295D01*
X135286Y376586D01*
X134995Y376885D01*
X134710Y377191D01*
X134434Y377504D01*
X134165Y377824D01*
X133904Y378150D01*
X133651Y378482D01*
X133406Y378821D01*
X133170Y379165D01*
X132942Y379515D01*
X132723Y379871D01*
X132513Y380232D01*
X132311Y380598D01*
X132119Y380969D01*
X131936Y381344D01*
X131762Y381724D01*
X131597Y382107D01*
X131442Y382495D01*
X131297Y382887D01*
X131161Y383282D01*
X131035Y383680D01*
X130918Y384081D01*
X130812Y384485D01*
X130716Y384891D01*
X130629Y385300D01*
X130553Y385711D01*
X130486Y386123D01*
X130430Y386537D01*
X130384Y386952D01*
X130348Y387368D01*
X130322Y387785D01*
X130307Y388202D01*
X130302Y388620D01*
D14*
X182880Y349250D03*
X227330Y309880D03*
D15*
X188722Y330200D02*
X188727Y330618D01*
X188742Y331035D01*
X188768Y331452D01*
X188804Y331868D01*
X188850Y332283D01*
X188906Y332697D01*
X188973Y333109D01*
X189049Y333520D01*
X189136Y333929D01*
X189232Y334335D01*
X189338Y334739D01*
X189455Y335140D01*
X189581Y335538D01*
X189717Y335933D01*
X189862Y336325D01*
X190017Y336713D01*
X190182Y337096D01*
X190356Y337476D01*
X190539Y337851D01*
X190731Y338222D01*
X190933Y338588D01*
X191143Y338949D01*
X191362Y339305D01*
X191590Y339655D01*
X191826Y339999D01*
X192071Y340338D01*
X192324Y340670D01*
X192585Y340996D01*
X192854Y341316D01*
X193130Y341629D01*
X193415Y341935D01*
X193706Y342234D01*
X194005Y342525D01*
X194311Y342810D01*
X194624Y343086D01*
X194944Y343355D01*
X195270Y343616D01*
X195602Y343869D01*
X195941Y344114D01*
X196285Y344350D01*
X196635Y344578D01*
X196991Y344797D01*
X197352Y345007D01*
X197718Y345209D01*
X198089Y345401D01*
X198464Y345584D01*
X198844Y345758D01*
X199227Y345923D01*
X199615Y346078D01*
X200007Y346223D01*
X200402Y346359D01*
X200800Y346485D01*
X201201Y346602D01*
X201605Y346708D01*
X202011Y346804D01*
X202420Y346891D01*
X202831Y346967D01*
X203243Y347034D01*
X203657Y347090D01*
X204072Y347136D01*
X204488Y347172D01*
X204905Y347198D01*
X205322Y347213D01*
X205740Y347218D01*
X206158Y347213D01*
X206575Y347198D01*
X206992Y347172D01*
X207408Y347136D01*
X207823Y347090D01*
X208237Y347034D01*
X208649Y346967D01*
X209060Y346891D01*
X209469Y346804D01*
X209875Y346708D01*
X210279Y346602D01*
X210680Y346485D01*
X211078Y346359D01*
X211473Y346223D01*
X211865Y346078D01*
X212253Y345923D01*
X212636Y345758D01*
X213016Y345584D01*
X213391Y345401D01*
X213762Y345209D01*
X214128Y345007D01*
X214489Y344797D01*
X214845Y344578D01*
X215195Y344350D01*
X215539Y344114D01*
X215878Y343869D01*
X216210Y343616D01*
X216536Y343355D01*
X216856Y343086D01*
X217169Y342810D01*
X217475Y342525D01*
X217774Y342234D01*
X218065Y341935D01*
X218350Y341629D01*
X218626Y341316D01*
X218895Y340996D01*
X219156Y340670D01*
X219409Y340338D01*
X219654Y339999D01*
X219890Y339655D01*
X220118Y339305D01*
X220337Y338949D01*
X220547Y338588D01*
X220749Y338222D01*
X220941Y337851D01*
X221124Y337476D01*
X221298Y337096D01*
X221463Y336713D01*
X221618Y336325D01*
X221763Y335933D01*
X221899Y335538D01*
X222025Y335140D01*
X222142Y334739D01*
X222248Y334335D01*
X222344Y333929D01*
X222431Y333520D01*
X222507Y333109D01*
X222574Y332697D01*
X222630Y332283D01*
X222676Y331868D01*
X222712Y331452D01*
X222738Y331035D01*
X222753Y330618D01*
X222758Y330200D01*
X222753Y329782D01*
X222738Y329365D01*
X222712Y328948D01*
X222676Y328532D01*
X222630Y328117D01*
X222574Y327703D01*
X222507Y327291D01*
X222431Y326880D01*
X222344Y326471D01*
X222248Y326065D01*
X222142Y325661D01*
X222025Y325260D01*
X221899Y324862D01*
X221763Y324467D01*
X221618Y324075D01*
X221463Y323687D01*
X221298Y323304D01*
X221124Y322924D01*
X220941Y322549D01*
X220749Y322178D01*
X220547Y321812D01*
X220337Y321451D01*
X220118Y321095D01*
X219890Y320745D01*
X219654Y320401D01*
X219409Y320062D01*
X219156Y319730D01*
X218895Y319404D01*
X218626Y319084D01*
X218350Y318771D01*
X218065Y318465D01*
X217774Y318166D01*
X217475Y317875D01*
X217169Y317590D01*
X216856Y317314D01*
X216536Y317045D01*
X216210Y316784D01*
X215878Y316531D01*
X215539Y316286D01*
X215195Y316050D01*
X214845Y315822D01*
X214489Y315603D01*
X214128Y315393D01*
X213762Y315191D01*
X213391Y314999D01*
X213016Y314816D01*
X212636Y314642D01*
X212253Y314477D01*
X211865Y314322D01*
X211473Y314177D01*
X211078Y314041D01*
X210680Y313915D01*
X210279Y313798D01*
X209875Y313692D01*
X209469Y313596D01*
X209060Y313509D01*
X208649Y313433D01*
X208237Y313366D01*
X207823Y313310D01*
X207408Y313264D01*
X206992Y313228D01*
X206575Y313202D01*
X206158Y313187D01*
X205740Y313182D01*
X205322Y313187D01*
X204905Y313202D01*
X204488Y313228D01*
X204072Y313264D01*
X203657Y313310D01*
X203243Y313366D01*
X202831Y313433D01*
X202420Y313509D01*
X202011Y313596D01*
X201605Y313692D01*
X201201Y313798D01*
X200800Y313915D01*
X200402Y314041D01*
X200007Y314177D01*
X199615Y314322D01*
X199227Y314477D01*
X198844Y314642D01*
X198464Y314816D01*
X198089Y314999D01*
X197718Y315191D01*
X197352Y315393D01*
X196991Y315603D01*
X196635Y315822D01*
X196285Y316050D01*
X195941Y316286D01*
X195602Y316531D01*
X195270Y316784D01*
X194944Y317045D01*
X194624Y317314D01*
X194311Y317590D01*
X194005Y317875D01*
X193706Y318166D01*
X193415Y318465D01*
X193130Y318771D01*
X192854Y319084D01*
X192585Y319404D01*
X192324Y319730D01*
X192071Y320062D01*
X191826Y320401D01*
X191590Y320745D01*
X191362Y321095D01*
X191143Y321451D01*
X190933Y321812D01*
X190731Y322178D01*
X190539Y322549D01*
X190356Y322924D01*
X190182Y323304D01*
X190017Y323687D01*
X189862Y324075D01*
X189717Y324467D01*
X189581Y324862D01*
X189455Y325260D01*
X189338Y325661D01*
X189232Y326065D01*
X189136Y326471D01*
X189049Y326880D01*
X188973Y327291D01*
X188906Y327703D01*
X188850Y328117D01*
X188804Y328532D01*
X188768Y328948D01*
X188742Y329365D01*
X188727Y329782D01*
X188722Y330200D01*
D14*
X245110Y408940D03*
X289560Y369570D03*
D15*
X250952Y389890D02*
X250957Y390308D01*
X250972Y390725D01*
X250998Y391142D01*
X251034Y391558D01*
X251080Y391973D01*
X251136Y392387D01*
X251203Y392799D01*
X251279Y393210D01*
X251366Y393619D01*
X251462Y394025D01*
X251568Y394429D01*
X251685Y394830D01*
X251811Y395228D01*
X251947Y395623D01*
X252092Y396015D01*
X252247Y396403D01*
X252412Y396786D01*
X252586Y397166D01*
X252769Y397541D01*
X252961Y397912D01*
X253163Y398278D01*
X253373Y398639D01*
X253592Y398995D01*
X253820Y399345D01*
X254056Y399689D01*
X254301Y400028D01*
X254554Y400360D01*
X254815Y400686D01*
X255084Y401006D01*
X255360Y401319D01*
X255645Y401625D01*
X255936Y401924D01*
X256235Y402215D01*
X256541Y402500D01*
X256854Y402776D01*
X257174Y403045D01*
X257500Y403306D01*
X257832Y403559D01*
X258171Y403804D01*
X258515Y404040D01*
X258865Y404268D01*
X259221Y404487D01*
X259582Y404697D01*
X259948Y404899D01*
X260319Y405091D01*
X260694Y405274D01*
X261074Y405448D01*
X261457Y405613D01*
X261845Y405768D01*
X262237Y405913D01*
X262632Y406049D01*
X263030Y406175D01*
X263431Y406292D01*
X263835Y406398D01*
X264241Y406494D01*
X264650Y406581D01*
X265061Y406657D01*
X265473Y406724D01*
X265887Y406780D01*
X266302Y406826D01*
X266718Y406862D01*
X267135Y406888D01*
X267552Y406903D01*
X267970Y406908D01*
X268388Y406903D01*
X268805Y406888D01*
X269222Y406862D01*
X269638Y406826D01*
X270053Y406780D01*
X270467Y406724D01*
X270879Y406657D01*
X271290Y406581D01*
X271699Y406494D01*
X272105Y406398D01*
X272509Y406292D01*
X272910Y406175D01*
X273308Y406049D01*
X273703Y405913D01*
X274095Y405768D01*
X274483Y405613D01*
X274866Y405448D01*
X275246Y405274D01*
X275621Y405091D01*
X275992Y404899D01*
X276358Y404697D01*
X276719Y404487D01*
X277075Y404268D01*
X277425Y404040D01*
X277769Y403804D01*
X278108Y403559D01*
X278440Y403306D01*
X278766Y403045D01*
X279086Y402776D01*
X279399Y402500D01*
X279705Y402215D01*
X280004Y401924D01*
X280295Y401625D01*
X280580Y401319D01*
X280856Y401006D01*
X281125Y400686D01*
X281386Y400360D01*
X281639Y400028D01*
X281884Y399689D01*
X282120Y399345D01*
X282348Y398995D01*
X282567Y398639D01*
X282777Y398278D01*
X282979Y397912D01*
X283171Y397541D01*
X283354Y397166D01*
X283528Y396786D01*
X283693Y396403D01*
X283848Y396015D01*
X283993Y395623D01*
X284129Y395228D01*
X284255Y394830D01*
X284372Y394429D01*
X284478Y394025D01*
X284574Y393619D01*
X284661Y393210D01*
X284737Y392799D01*
X284804Y392387D01*
X284860Y391973D01*
X284906Y391558D01*
X284942Y391142D01*
X284968Y390725D01*
X284983Y390308D01*
X284988Y389890D01*
X284983Y389472D01*
X284968Y389055D01*
X284942Y388638D01*
X284906Y388222D01*
X284860Y387807D01*
X284804Y387393D01*
X284737Y386981D01*
X284661Y386570D01*
X284574Y386161D01*
X284478Y385755D01*
X284372Y385351D01*
X284255Y384950D01*
X284129Y384552D01*
X283993Y384157D01*
X283848Y383765D01*
X283693Y383377D01*
X283528Y382994D01*
X283354Y382614D01*
X283171Y382239D01*
X282979Y381868D01*
X282777Y381502D01*
X282567Y381141D01*
X282348Y380785D01*
X282120Y380435D01*
X281884Y380091D01*
X281639Y379752D01*
X281386Y379420D01*
X281125Y379094D01*
X280856Y378774D01*
X280580Y378461D01*
X280295Y378155D01*
X280004Y377856D01*
X279705Y377565D01*
X279399Y377280D01*
X279086Y377004D01*
X278766Y376735D01*
X278440Y376474D01*
X278108Y376221D01*
X277769Y375976D01*
X277425Y375740D01*
X277075Y375512D01*
X276719Y375293D01*
X276358Y375083D01*
X275992Y374881D01*
X275621Y374689D01*
X275246Y374506D01*
X274866Y374332D01*
X274483Y374167D01*
X274095Y374012D01*
X273703Y373867D01*
X273308Y373731D01*
X272910Y373605D01*
X272509Y373488D01*
X272105Y373382D01*
X271699Y373286D01*
X271290Y373199D01*
X270879Y373123D01*
X270467Y373056D01*
X270053Y373000D01*
X269638Y372954D01*
X269222Y372918D01*
X268805Y372892D01*
X268388Y372877D01*
X267970Y372872D01*
X267552Y372877D01*
X267135Y372892D01*
X266718Y372918D01*
X266302Y372954D01*
X265887Y373000D01*
X265473Y373056D01*
X265061Y373123D01*
X264650Y373199D01*
X264241Y373286D01*
X263835Y373382D01*
X263431Y373488D01*
X263030Y373605D01*
X262632Y373731D01*
X262237Y373867D01*
X261845Y374012D01*
X261457Y374167D01*
X261074Y374332D01*
X260694Y374506D01*
X260319Y374689D01*
X259948Y374881D01*
X259582Y375083D01*
X259221Y375293D01*
X258865Y375512D01*
X258515Y375740D01*
X258171Y375976D01*
X257832Y376221D01*
X257500Y376474D01*
X257174Y376735D01*
X256854Y377004D01*
X256541Y377280D01*
X256235Y377565D01*
X255936Y377856D01*
X255645Y378155D01*
X255360Y378461D01*
X255084Y378774D01*
X254815Y379094D01*
X254554Y379420D01*
X254301Y379752D01*
X254056Y380091D01*
X253820Y380435D01*
X253592Y380785D01*
X253373Y381141D01*
X253163Y381502D01*
X252961Y381868D01*
X252769Y382239D01*
X252586Y382614D01*
X252412Y382994D01*
X252247Y383377D01*
X252092Y383765D01*
X251947Y384157D01*
X251811Y384552D01*
X251685Y384950D01*
X251568Y385351D01*
X251462Y385755D01*
X251366Y386161D01*
X251279Y386570D01*
X251203Y386981D01*
X251136Y387393D01*
X251080Y387807D01*
X251034Y388222D01*
X250998Y388638D01*
X250972Y389055D01*
X250957Y389472D01*
X250952Y389890D01*
D14*
X725170Y339090D03*
X685800Y294640D03*
D15*
X689102Y316230D02*
X689107Y316648D01*
X689122Y317065D01*
X689148Y317482D01*
X689184Y317898D01*
X689230Y318313D01*
X689286Y318727D01*
X689353Y319139D01*
X689429Y319550D01*
X689516Y319959D01*
X689612Y320365D01*
X689718Y320769D01*
X689835Y321170D01*
X689961Y321568D01*
X690097Y321963D01*
X690242Y322355D01*
X690397Y322743D01*
X690562Y323126D01*
X690736Y323506D01*
X690919Y323881D01*
X691111Y324252D01*
X691313Y324618D01*
X691523Y324979D01*
X691742Y325335D01*
X691970Y325685D01*
X692206Y326029D01*
X692451Y326368D01*
X692704Y326700D01*
X692965Y327026D01*
X693234Y327346D01*
X693510Y327659D01*
X693795Y327965D01*
X694086Y328264D01*
X694385Y328555D01*
X694691Y328840D01*
X695004Y329116D01*
X695324Y329385D01*
X695650Y329646D01*
X695982Y329899D01*
X696321Y330144D01*
X696665Y330380D01*
X697015Y330608D01*
X697371Y330827D01*
X697732Y331037D01*
X698098Y331239D01*
X698469Y331431D01*
X698844Y331614D01*
X699224Y331788D01*
X699607Y331953D01*
X699995Y332108D01*
X700387Y332253D01*
X700782Y332389D01*
X701180Y332515D01*
X701581Y332632D01*
X701985Y332738D01*
X702391Y332834D01*
X702800Y332921D01*
X703211Y332997D01*
X703623Y333064D01*
X704037Y333120D01*
X704452Y333166D01*
X704868Y333202D01*
X705285Y333228D01*
X705702Y333243D01*
X706120Y333248D01*
X706538Y333243D01*
X706955Y333228D01*
X707372Y333202D01*
X707788Y333166D01*
X708203Y333120D01*
X708617Y333064D01*
X709029Y332997D01*
X709440Y332921D01*
X709849Y332834D01*
X710255Y332738D01*
X710659Y332632D01*
X711060Y332515D01*
X711458Y332389D01*
X711853Y332253D01*
X712245Y332108D01*
X712633Y331953D01*
X713016Y331788D01*
X713396Y331614D01*
X713771Y331431D01*
X714142Y331239D01*
X714508Y331037D01*
X714869Y330827D01*
X715225Y330608D01*
X715575Y330380D01*
X715919Y330144D01*
X716258Y329899D01*
X716590Y329646D01*
X716916Y329385D01*
X717236Y329116D01*
X717549Y328840D01*
X717855Y328555D01*
X718154Y328264D01*
X718445Y327965D01*
X718730Y327659D01*
X719006Y327346D01*
X719275Y327026D01*
X719536Y326700D01*
X719789Y326368D01*
X720034Y326029D01*
X720270Y325685D01*
X720498Y325335D01*
X720717Y324979D01*
X720927Y324618D01*
X721129Y324252D01*
X721321Y323881D01*
X721504Y323506D01*
X721678Y323126D01*
X721843Y322743D01*
X721998Y322355D01*
X722143Y321963D01*
X722279Y321568D01*
X722405Y321170D01*
X722522Y320769D01*
X722628Y320365D01*
X722724Y319959D01*
X722811Y319550D01*
X722887Y319139D01*
X722954Y318727D01*
X723010Y318313D01*
X723056Y317898D01*
X723092Y317482D01*
X723118Y317065D01*
X723133Y316648D01*
X723138Y316230D01*
X723133Y315812D01*
X723118Y315395D01*
X723092Y314978D01*
X723056Y314562D01*
X723010Y314147D01*
X722954Y313733D01*
X722887Y313321D01*
X722811Y312910D01*
X722724Y312501D01*
X722628Y312095D01*
X722522Y311691D01*
X722405Y311290D01*
X722279Y310892D01*
X722143Y310497D01*
X721998Y310105D01*
X721843Y309717D01*
X721678Y309334D01*
X721504Y308954D01*
X721321Y308579D01*
X721129Y308208D01*
X720927Y307842D01*
X720717Y307481D01*
X720498Y307125D01*
X720270Y306775D01*
X720034Y306431D01*
X719789Y306092D01*
X719536Y305760D01*
X719275Y305434D01*
X719006Y305114D01*
X718730Y304801D01*
X718445Y304495D01*
X718154Y304196D01*
X717855Y303905D01*
X717549Y303620D01*
X717236Y303344D01*
X716916Y303075D01*
X716590Y302814D01*
X716258Y302561D01*
X715919Y302316D01*
X715575Y302080D01*
X715225Y301852D01*
X714869Y301633D01*
X714508Y301423D01*
X714142Y301221D01*
X713771Y301029D01*
X713396Y300846D01*
X713016Y300672D01*
X712633Y300507D01*
X712245Y300352D01*
X711853Y300207D01*
X711458Y300071D01*
X711060Y299945D01*
X710659Y299828D01*
X710255Y299722D01*
X709849Y299626D01*
X709440Y299539D01*
X709029Y299463D01*
X708617Y299396D01*
X708203Y299340D01*
X707788Y299294D01*
X707372Y299258D01*
X706955Y299232D01*
X706538Y299217D01*
X706120Y299212D01*
X705702Y299217D01*
X705285Y299232D01*
X704868Y299258D01*
X704452Y299294D01*
X704037Y299340D01*
X703623Y299396D01*
X703211Y299463D01*
X702800Y299539D01*
X702391Y299626D01*
X701985Y299722D01*
X701581Y299828D01*
X701180Y299945D01*
X700782Y300071D01*
X700387Y300207D01*
X699995Y300352D01*
X699607Y300507D01*
X699224Y300672D01*
X698844Y300846D01*
X698469Y301029D01*
X698098Y301221D01*
X697732Y301423D01*
X697371Y301633D01*
X697015Y301852D01*
X696665Y302080D01*
X696321Y302316D01*
X695982Y302561D01*
X695650Y302814D01*
X695324Y303075D01*
X695004Y303344D01*
X694691Y303620D01*
X694385Y303905D01*
X694086Y304196D01*
X693795Y304495D01*
X693510Y304801D01*
X693234Y305114D01*
X692965Y305434D01*
X692704Y305760D01*
X692451Y306092D01*
X692206Y306431D01*
X691970Y306775D01*
X691742Y307125D01*
X691523Y307481D01*
X691313Y307842D01*
X691111Y308208D01*
X690919Y308579D01*
X690736Y308954D01*
X690562Y309334D01*
X690397Y309717D01*
X690242Y310105D01*
X690097Y310497D01*
X689961Y310892D01*
X689835Y311290D01*
X689718Y311691D01*
X689612Y312095D01*
X689516Y312501D01*
X689429Y312910D01*
X689353Y313321D01*
X689286Y313733D01*
X689230Y314147D01*
X689184Y314562D01*
X689148Y314978D01*
X689122Y315395D01*
X689107Y315812D01*
X689102Y316230D01*
D14*
X801370Y414020D03*
X762000Y369570D03*
D15*
X765302Y391160D02*
X765307Y391578D01*
X765322Y391995D01*
X765348Y392412D01*
X765384Y392828D01*
X765430Y393243D01*
X765486Y393657D01*
X765553Y394069D01*
X765629Y394480D01*
X765716Y394889D01*
X765812Y395295D01*
X765918Y395699D01*
X766035Y396100D01*
X766161Y396498D01*
X766297Y396893D01*
X766442Y397285D01*
X766597Y397673D01*
X766762Y398056D01*
X766936Y398436D01*
X767119Y398811D01*
X767311Y399182D01*
X767513Y399548D01*
X767723Y399909D01*
X767942Y400265D01*
X768170Y400615D01*
X768406Y400959D01*
X768651Y401298D01*
X768904Y401630D01*
X769165Y401956D01*
X769434Y402276D01*
X769710Y402589D01*
X769995Y402895D01*
X770286Y403194D01*
X770585Y403485D01*
X770891Y403770D01*
X771204Y404046D01*
X771524Y404315D01*
X771850Y404576D01*
X772182Y404829D01*
X772521Y405074D01*
X772865Y405310D01*
X773215Y405538D01*
X773571Y405757D01*
X773932Y405967D01*
X774298Y406169D01*
X774669Y406361D01*
X775044Y406544D01*
X775424Y406718D01*
X775807Y406883D01*
X776195Y407038D01*
X776587Y407183D01*
X776982Y407319D01*
X777380Y407445D01*
X777781Y407562D01*
X778185Y407668D01*
X778591Y407764D01*
X779000Y407851D01*
X779411Y407927D01*
X779823Y407994D01*
X780237Y408050D01*
X780652Y408096D01*
X781068Y408132D01*
X781485Y408158D01*
X781902Y408173D01*
X782320Y408178D01*
X782738Y408173D01*
X783155Y408158D01*
X783572Y408132D01*
X783988Y408096D01*
X784403Y408050D01*
X784817Y407994D01*
X785229Y407927D01*
X785640Y407851D01*
X786049Y407764D01*
X786455Y407668D01*
X786859Y407562D01*
X787260Y407445D01*
X787658Y407319D01*
X788053Y407183D01*
X788445Y407038D01*
X788833Y406883D01*
X789216Y406718D01*
X789596Y406544D01*
X789971Y406361D01*
X790342Y406169D01*
X790708Y405967D01*
X791069Y405757D01*
X791425Y405538D01*
X791775Y405310D01*
X792119Y405074D01*
X792458Y404829D01*
X792790Y404576D01*
X793116Y404315D01*
X793436Y404046D01*
X793749Y403770D01*
X794055Y403485D01*
X794354Y403194D01*
X794645Y402895D01*
X794930Y402589D01*
X795206Y402276D01*
X795475Y401956D01*
X795736Y401630D01*
X795989Y401298D01*
X796234Y400959D01*
X796470Y400615D01*
X796698Y400265D01*
X796917Y399909D01*
X797127Y399548D01*
X797329Y399182D01*
X797521Y398811D01*
X797704Y398436D01*
X797878Y398056D01*
X798043Y397673D01*
X798198Y397285D01*
X798343Y396893D01*
X798479Y396498D01*
X798605Y396100D01*
X798722Y395699D01*
X798828Y395295D01*
X798924Y394889D01*
X799011Y394480D01*
X799087Y394069D01*
X799154Y393657D01*
X799210Y393243D01*
X799256Y392828D01*
X799292Y392412D01*
X799318Y391995D01*
X799333Y391578D01*
X799338Y391160D01*
X799333Y390742D01*
X799318Y390325D01*
X799292Y389908D01*
X799256Y389492D01*
X799210Y389077D01*
X799154Y388663D01*
X799087Y388251D01*
X799011Y387840D01*
X798924Y387431D01*
X798828Y387025D01*
X798722Y386621D01*
X798605Y386220D01*
X798479Y385822D01*
X798343Y385427D01*
X798198Y385035D01*
X798043Y384647D01*
X797878Y384264D01*
X797704Y383884D01*
X797521Y383509D01*
X797329Y383138D01*
X797127Y382772D01*
X796917Y382411D01*
X796698Y382055D01*
X796470Y381705D01*
X796234Y381361D01*
X795989Y381022D01*
X795736Y380690D01*
X795475Y380364D01*
X795206Y380044D01*
X794930Y379731D01*
X794645Y379425D01*
X794354Y379126D01*
X794055Y378835D01*
X793749Y378550D01*
X793436Y378274D01*
X793116Y378005D01*
X792790Y377744D01*
X792458Y377491D01*
X792119Y377246D01*
X791775Y377010D01*
X791425Y376782D01*
X791069Y376563D01*
X790708Y376353D01*
X790342Y376151D01*
X789971Y375959D01*
X789596Y375776D01*
X789216Y375602D01*
X788833Y375437D01*
X788445Y375282D01*
X788053Y375137D01*
X787658Y375001D01*
X787260Y374875D01*
X786859Y374758D01*
X786455Y374652D01*
X786049Y374556D01*
X785640Y374469D01*
X785229Y374393D01*
X784817Y374326D01*
X784403Y374270D01*
X783988Y374224D01*
X783572Y374188D01*
X783155Y374162D01*
X782738Y374147D01*
X782320Y374142D01*
X781902Y374147D01*
X781485Y374162D01*
X781068Y374188D01*
X780652Y374224D01*
X780237Y374270D01*
X779823Y374326D01*
X779411Y374393D01*
X779000Y374469D01*
X778591Y374556D01*
X778185Y374652D01*
X777781Y374758D01*
X777380Y374875D01*
X776982Y375001D01*
X776587Y375137D01*
X776195Y375282D01*
X775807Y375437D01*
X775424Y375602D01*
X775044Y375776D01*
X774669Y375959D01*
X774298Y376151D01*
X773932Y376353D01*
X773571Y376563D01*
X773215Y376782D01*
X772865Y377010D01*
X772521Y377246D01*
X772182Y377491D01*
X771850Y377744D01*
X771524Y378005D01*
X771204Y378274D01*
X770891Y378550D01*
X770585Y378835D01*
X770286Y379126D01*
X769995Y379425D01*
X769710Y379731D01*
X769434Y380044D01*
X769165Y380364D01*
X768904Y380690D01*
X768651Y381022D01*
X768406Y381361D01*
X768170Y381705D01*
X767942Y382055D01*
X767723Y382411D01*
X767513Y382772D01*
X767311Y383138D01*
X767119Y383509D01*
X766936Y383884D01*
X766762Y384264D01*
X766597Y384647D01*
X766442Y385035D01*
X766297Y385427D01*
X766161Y385822D01*
X766035Y386220D01*
X765918Y386621D01*
X765812Y387025D01*
X765716Y387431D01*
X765629Y387840D01*
X765553Y388251D01*
X765486Y388663D01*
X765430Y389077D01*
X765384Y389492D01*
X765348Y389908D01*
X765322Y390325D01*
X765307Y390742D01*
X765302Y391160D01*
D14*
X654050Y372110D03*
X609600Y411480D03*
D15*
X614172Y391160D02*
X614177Y391578D01*
X614192Y391995D01*
X614218Y392412D01*
X614254Y392828D01*
X614300Y393243D01*
X614356Y393657D01*
X614423Y394069D01*
X614499Y394480D01*
X614586Y394889D01*
X614682Y395295D01*
X614788Y395699D01*
X614905Y396100D01*
X615031Y396498D01*
X615167Y396893D01*
X615312Y397285D01*
X615467Y397673D01*
X615632Y398056D01*
X615806Y398436D01*
X615989Y398811D01*
X616181Y399182D01*
X616383Y399548D01*
X616593Y399909D01*
X616812Y400265D01*
X617040Y400615D01*
X617276Y400959D01*
X617521Y401298D01*
X617774Y401630D01*
X618035Y401956D01*
X618304Y402276D01*
X618580Y402589D01*
X618865Y402895D01*
X619156Y403194D01*
X619455Y403485D01*
X619761Y403770D01*
X620074Y404046D01*
X620394Y404315D01*
X620720Y404576D01*
X621052Y404829D01*
X621391Y405074D01*
X621735Y405310D01*
X622085Y405538D01*
X622441Y405757D01*
X622802Y405967D01*
X623168Y406169D01*
X623539Y406361D01*
X623914Y406544D01*
X624294Y406718D01*
X624677Y406883D01*
X625065Y407038D01*
X625457Y407183D01*
X625852Y407319D01*
X626250Y407445D01*
X626651Y407562D01*
X627055Y407668D01*
X627461Y407764D01*
X627870Y407851D01*
X628281Y407927D01*
X628693Y407994D01*
X629107Y408050D01*
X629522Y408096D01*
X629938Y408132D01*
X630355Y408158D01*
X630772Y408173D01*
X631190Y408178D01*
X631608Y408173D01*
X632025Y408158D01*
X632442Y408132D01*
X632858Y408096D01*
X633273Y408050D01*
X633687Y407994D01*
X634099Y407927D01*
X634510Y407851D01*
X634919Y407764D01*
X635325Y407668D01*
X635729Y407562D01*
X636130Y407445D01*
X636528Y407319D01*
X636923Y407183D01*
X637315Y407038D01*
X637703Y406883D01*
X638086Y406718D01*
X638466Y406544D01*
X638841Y406361D01*
X639212Y406169D01*
X639578Y405967D01*
X639939Y405757D01*
X640295Y405538D01*
X640645Y405310D01*
X640989Y405074D01*
X641328Y404829D01*
X641660Y404576D01*
X641986Y404315D01*
X642306Y404046D01*
X642619Y403770D01*
X642925Y403485D01*
X643224Y403194D01*
X643515Y402895D01*
X643800Y402589D01*
X644076Y402276D01*
X644345Y401956D01*
X644606Y401630D01*
X644859Y401298D01*
X645104Y400959D01*
X645340Y400615D01*
X645568Y400265D01*
X645787Y399909D01*
X645997Y399548D01*
X646199Y399182D01*
X646391Y398811D01*
X646574Y398436D01*
X646748Y398056D01*
X646913Y397673D01*
X647068Y397285D01*
X647213Y396893D01*
X647349Y396498D01*
X647475Y396100D01*
X647592Y395699D01*
X647698Y395295D01*
X647794Y394889D01*
X647881Y394480D01*
X647957Y394069D01*
X648024Y393657D01*
X648080Y393243D01*
X648126Y392828D01*
X648162Y392412D01*
X648188Y391995D01*
X648203Y391578D01*
X648208Y391160D01*
X648203Y390742D01*
X648188Y390325D01*
X648162Y389908D01*
X648126Y389492D01*
X648080Y389077D01*
X648024Y388663D01*
X647957Y388251D01*
X647881Y387840D01*
X647794Y387431D01*
X647698Y387025D01*
X647592Y386621D01*
X647475Y386220D01*
X647349Y385822D01*
X647213Y385427D01*
X647068Y385035D01*
X646913Y384647D01*
X646748Y384264D01*
X646574Y383884D01*
X646391Y383509D01*
X646199Y383138D01*
X645997Y382772D01*
X645787Y382411D01*
X645568Y382055D01*
X645340Y381705D01*
X645104Y381361D01*
X644859Y381022D01*
X644606Y380690D01*
X644345Y380364D01*
X644076Y380044D01*
X643800Y379731D01*
X643515Y379425D01*
X643224Y379126D01*
X642925Y378835D01*
X642619Y378550D01*
X642306Y378274D01*
X641986Y378005D01*
X641660Y377744D01*
X641328Y377491D01*
X640989Y377246D01*
X640645Y377010D01*
X640295Y376782D01*
X639939Y376563D01*
X639578Y376353D01*
X639212Y376151D01*
X638841Y375959D01*
X638466Y375776D01*
X638086Y375602D01*
X637703Y375437D01*
X637315Y375282D01*
X636923Y375137D01*
X636528Y375001D01*
X636130Y374875D01*
X635729Y374758D01*
X635325Y374652D01*
X634919Y374556D01*
X634510Y374469D01*
X634099Y374393D01*
X633687Y374326D01*
X633273Y374270D01*
X632858Y374224D01*
X632442Y374188D01*
X632025Y374162D01*
X631608Y374147D01*
X631190Y374142D01*
X630772Y374147D01*
X630355Y374162D01*
X629938Y374188D01*
X629522Y374224D01*
X629107Y374270D01*
X628693Y374326D01*
X628281Y374393D01*
X627870Y374469D01*
X627461Y374556D01*
X627055Y374652D01*
X626651Y374758D01*
X626250Y374875D01*
X625852Y375001D01*
X625457Y375137D01*
X625065Y375282D01*
X624677Y375437D01*
X624294Y375602D01*
X623914Y375776D01*
X623539Y375959D01*
X623168Y376151D01*
X622802Y376353D01*
X622441Y376563D01*
X622085Y376782D01*
X621735Y377010D01*
X621391Y377246D01*
X621052Y377491D01*
X620720Y377744D01*
X620394Y378005D01*
X620074Y378274D01*
X619761Y378550D01*
X619455Y378835D01*
X619156Y379126D01*
X618865Y379425D01*
X618580Y379731D01*
X618304Y380044D01*
X618035Y380364D01*
X617774Y380690D01*
X617521Y381022D01*
X617276Y381361D01*
X617040Y381705D01*
X616812Y382055D01*
X616593Y382411D01*
X616383Y382772D01*
X616181Y383138D01*
X615989Y383509D01*
X615806Y383884D01*
X615632Y384264D01*
X615467Y384647D01*
X615312Y385035D01*
X615167Y385427D01*
X615031Y385822D01*
X614905Y386220D01*
X614788Y386621D01*
X614682Y387025D01*
X614586Y387431D01*
X614499Y387840D01*
X614423Y388251D01*
X614356Y388663D01*
X614300Y389077D01*
X614254Y389492D01*
X614218Y389908D01*
X614192Y390325D01*
X614177Y390742D01*
X614172Y391160D01*
D14*
X726440Y487680D03*
X687070Y443230D03*
D15*
X690372Y464820D02*
X690377Y465238D01*
X690392Y465655D01*
X690418Y466072D01*
X690454Y466488D01*
X690500Y466903D01*
X690556Y467317D01*
X690623Y467729D01*
X690699Y468140D01*
X690786Y468549D01*
X690882Y468955D01*
X690988Y469359D01*
X691105Y469760D01*
X691231Y470158D01*
X691367Y470553D01*
X691512Y470945D01*
X691667Y471333D01*
X691832Y471716D01*
X692006Y472096D01*
X692189Y472471D01*
X692381Y472842D01*
X692583Y473208D01*
X692793Y473569D01*
X693012Y473925D01*
X693240Y474275D01*
X693476Y474619D01*
X693721Y474958D01*
X693974Y475290D01*
X694235Y475616D01*
X694504Y475936D01*
X694780Y476249D01*
X695065Y476555D01*
X695356Y476854D01*
X695655Y477145D01*
X695961Y477430D01*
X696274Y477706D01*
X696594Y477975D01*
X696920Y478236D01*
X697252Y478489D01*
X697591Y478734D01*
X697935Y478970D01*
X698285Y479198D01*
X698641Y479417D01*
X699002Y479627D01*
X699368Y479829D01*
X699739Y480021D01*
X700114Y480204D01*
X700494Y480378D01*
X700877Y480543D01*
X701265Y480698D01*
X701657Y480843D01*
X702052Y480979D01*
X702450Y481105D01*
X702851Y481222D01*
X703255Y481328D01*
X703661Y481424D01*
X704070Y481511D01*
X704481Y481587D01*
X704893Y481654D01*
X705307Y481710D01*
X705722Y481756D01*
X706138Y481792D01*
X706555Y481818D01*
X706972Y481833D01*
X707390Y481838D01*
X707808Y481833D01*
X708225Y481818D01*
X708642Y481792D01*
X709058Y481756D01*
X709473Y481710D01*
X709887Y481654D01*
X710299Y481587D01*
X710710Y481511D01*
X711119Y481424D01*
X711525Y481328D01*
X711929Y481222D01*
X712330Y481105D01*
X712728Y480979D01*
X713123Y480843D01*
X713515Y480698D01*
X713903Y480543D01*
X714286Y480378D01*
X714666Y480204D01*
X715041Y480021D01*
X715412Y479829D01*
X715778Y479627D01*
X716139Y479417D01*
X716495Y479198D01*
X716845Y478970D01*
X717189Y478734D01*
X717528Y478489D01*
X717860Y478236D01*
X718186Y477975D01*
X718506Y477706D01*
X718819Y477430D01*
X719125Y477145D01*
X719424Y476854D01*
X719715Y476555D01*
X720000Y476249D01*
X720276Y475936D01*
X720545Y475616D01*
X720806Y475290D01*
X721059Y474958D01*
X721304Y474619D01*
X721540Y474275D01*
X721768Y473925D01*
X721987Y473569D01*
X722197Y473208D01*
X722399Y472842D01*
X722591Y472471D01*
X722774Y472096D01*
X722948Y471716D01*
X723113Y471333D01*
X723268Y470945D01*
X723413Y470553D01*
X723549Y470158D01*
X723675Y469760D01*
X723792Y469359D01*
X723898Y468955D01*
X723994Y468549D01*
X724081Y468140D01*
X724157Y467729D01*
X724224Y467317D01*
X724280Y466903D01*
X724326Y466488D01*
X724362Y466072D01*
X724388Y465655D01*
X724403Y465238D01*
X724408Y464820D01*
X724403Y464402D01*
X724388Y463985D01*
X724362Y463568D01*
X724326Y463152D01*
X724280Y462737D01*
X724224Y462323D01*
X724157Y461911D01*
X724081Y461500D01*
X723994Y461091D01*
X723898Y460685D01*
X723792Y460281D01*
X723675Y459880D01*
X723549Y459482D01*
X723413Y459087D01*
X723268Y458695D01*
X723113Y458307D01*
X722948Y457924D01*
X722774Y457544D01*
X722591Y457169D01*
X722399Y456798D01*
X722197Y456432D01*
X721987Y456071D01*
X721768Y455715D01*
X721540Y455365D01*
X721304Y455021D01*
X721059Y454682D01*
X720806Y454350D01*
X720545Y454024D01*
X720276Y453704D01*
X720000Y453391D01*
X719715Y453085D01*
X719424Y452786D01*
X719125Y452495D01*
X718819Y452210D01*
X718506Y451934D01*
X718186Y451665D01*
X717860Y451404D01*
X717528Y451151D01*
X717189Y450906D01*
X716845Y450670D01*
X716495Y450442D01*
X716139Y450223D01*
X715778Y450013D01*
X715412Y449811D01*
X715041Y449619D01*
X714666Y449436D01*
X714286Y449262D01*
X713903Y449097D01*
X713515Y448942D01*
X713123Y448797D01*
X712728Y448661D01*
X712330Y448535D01*
X711929Y448418D01*
X711525Y448312D01*
X711119Y448216D01*
X710710Y448129D01*
X710299Y448053D01*
X709887Y447986D01*
X709473Y447930D01*
X709058Y447884D01*
X708642Y447848D01*
X708225Y447822D01*
X707808Y447807D01*
X707390Y447802D01*
X706972Y447807D01*
X706555Y447822D01*
X706138Y447848D01*
X705722Y447884D01*
X705307Y447930D01*
X704893Y447986D01*
X704481Y448053D01*
X704070Y448129D01*
X703661Y448216D01*
X703255Y448312D01*
X702851Y448418D01*
X702450Y448535D01*
X702052Y448661D01*
X701657Y448797D01*
X701265Y448942D01*
X700877Y449097D01*
X700494Y449262D01*
X700114Y449436D01*
X699739Y449619D01*
X699368Y449811D01*
X699002Y450013D01*
X698641Y450223D01*
X698285Y450442D01*
X697935Y450670D01*
X697591Y450906D01*
X697252Y451151D01*
X696920Y451404D01*
X696594Y451665D01*
X696274Y451934D01*
X695961Y452210D01*
X695655Y452495D01*
X695356Y452786D01*
X695065Y453085D01*
X694780Y453391D01*
X694504Y453704D01*
X694235Y454024D01*
X693974Y454350D01*
X693721Y454682D01*
X693476Y455021D01*
X693240Y455365D01*
X693012Y455715D01*
X692793Y456071D01*
X692583Y456432D01*
X692381Y456798D01*
X692189Y457169D01*
X692006Y457544D01*
X691832Y457924D01*
X691667Y458307D01*
X691512Y458695D01*
X691367Y459087D01*
X691231Y459482D01*
X691105Y459880D01*
X690988Y460281D01*
X690882Y460685D01*
X690786Y461091D01*
X690699Y461500D01*
X690623Y461911D01*
X690556Y462323D01*
X690500Y462737D01*
X690454Y463152D01*
X690418Y463568D01*
X690392Y463985D01*
X690377Y464402D01*
X690372Y464820D01*
D16*
X303391Y91723D03*
X303391Y99723D03*
X303391Y107723D03*
X303391Y115723D03*
X303391Y123723D03*
X303391Y131723D03*
X303391Y139723D03*
X303391Y147723D03*
X303391Y155723D03*
X303391Y163723D03*
X303391Y171723D03*
X303391Y179723D03*
X303391Y187723D03*
X303391Y195723D03*
X303391Y203723D03*
X303391Y211723D03*
X303391Y219723D03*
X303391Y227723D03*
D17*
X398920Y120695D03*
X408920Y120695D03*
X418920Y120695D03*
X428920Y120695D03*
X438920Y120695D03*
X448920Y120695D03*
X458920Y120695D03*
X468920Y120695D03*
D18*
X492920Y88195D03*
X374920Y88195D03*
D19*
X330169Y179918D03*
X347169Y179918D03*
M02*
