G04 EAGLE Gerber RS-274X export*
G75*
%MOMM*%
%FSLAX34Y34*%
%LPD*%
%INSoldermask Bottom*%
%IPPOS*%
%AMOC8*
5,1,8,0,0,1.08239X$1,22.5*%
G01*
%ADD10C,1.203200*%
%ADD11C,2.082800*%
%ADD12C,1.727200*%
%ADD13R,1.203200X1.303200*%
%ADD14R,1.303200X1.203200*%
%ADD15R,1.103200X1.003200*%
%ADD16R,1.703200X2.403200*%
%ADD17C,2.953200*%
%ADD18R,1.727200X1.727200*%
%ADD19C,1.727200*%
%ADD20R,0.400000X1.400000*%
%ADD21R,1.900000X2.350000*%

G36*
X84159Y236689D02*
X84159Y236689D01*
X84205Y236702D01*
X84280Y236714D01*
X85929Y237230D01*
X85972Y237252D01*
X86043Y237278D01*
X87560Y238106D01*
X87598Y238136D01*
X87663Y238176D01*
X88989Y239284D01*
X89020Y239320D01*
X89076Y239372D01*
X90160Y240717D01*
X90183Y240759D01*
X90229Y240821D01*
X91030Y242352D01*
X91044Y242398D01*
X91076Y242467D01*
X91564Y244124D01*
X91569Y244172D01*
X91587Y244247D01*
X91719Y245715D01*
X91735Y245743D01*
X91741Y245782D01*
X91756Y245819D01*
X91761Y245915D01*
X91769Y245965D01*
X91766Y245985D01*
X91767Y246006D01*
X91615Y247697D01*
X91602Y247743D01*
X91592Y247819D01*
X91113Y249448D01*
X91092Y249491D01*
X91066Y249563D01*
X90279Y251067D01*
X90250Y251106D01*
X90211Y251171D01*
X89145Y252493D01*
X89109Y252525D01*
X89058Y252582D01*
X87755Y253671D01*
X87714Y253694D01*
X87653Y253741D01*
X86162Y254554D01*
X86117Y254569D01*
X86048Y254603D01*
X84428Y255110D01*
X84380Y255116D01*
X84306Y255135D01*
X82623Y255316D01*
X82425Y255341D01*
X82374Y255338D01*
X82283Y255342D01*
X80574Y255169D01*
X80528Y255156D01*
X80452Y255144D01*
X78810Y254641D01*
X78767Y254619D01*
X78695Y254593D01*
X77182Y253779D01*
X77145Y253749D01*
X77079Y253709D01*
X75755Y252616D01*
X75723Y252579D01*
X75667Y252528D01*
X74581Y251197D01*
X74558Y251154D01*
X74512Y251093D01*
X73707Y249576D01*
X73692Y249530D01*
X73660Y249461D01*
X73166Y247815D01*
X73160Y247768D01*
X73142Y247693D01*
X72990Y246106D01*
X72984Y246089D01*
X72942Y245995D01*
X72942Y245985D01*
X72938Y245977D01*
X72927Y245790D01*
X73080Y244111D01*
X73093Y244064D01*
X73103Y243989D01*
X73581Y242372D01*
X73602Y242329D01*
X73627Y242257D01*
X74411Y240765D01*
X74441Y240727D01*
X74479Y240661D01*
X75539Y239350D01*
X75575Y239319D01*
X75626Y239262D01*
X76921Y238183D01*
X76963Y238159D01*
X77024Y238113D01*
X78505Y237307D01*
X78550Y237292D01*
X78619Y237259D01*
X78929Y237163D01*
X80228Y236758D01*
X80276Y236752D01*
X80350Y236733D01*
X82003Y236558D01*
X82259Y236511D01*
X82281Y236511D01*
X82441Y236504D01*
X84159Y236689D01*
G37*
G36*
X38871Y236638D02*
X38871Y236638D01*
X38917Y236651D01*
X38992Y236663D01*
X40641Y237179D01*
X40684Y237201D01*
X40755Y237227D01*
X42272Y238055D01*
X42310Y238085D01*
X42375Y238125D01*
X43701Y239233D01*
X43732Y239269D01*
X43788Y239321D01*
X44872Y240666D01*
X44895Y240708D01*
X44941Y240770D01*
X45742Y242301D01*
X45756Y242347D01*
X45788Y242416D01*
X46276Y244073D01*
X46281Y244121D01*
X46299Y244196D01*
X46431Y245664D01*
X46447Y245692D01*
X46453Y245731D01*
X46468Y245768D01*
X46473Y245864D01*
X46481Y245914D01*
X46478Y245934D01*
X46479Y245955D01*
X46327Y247646D01*
X46314Y247692D01*
X46304Y247768D01*
X45825Y249397D01*
X45804Y249440D01*
X45778Y249512D01*
X44991Y251016D01*
X44962Y251055D01*
X44923Y251120D01*
X43857Y252442D01*
X43821Y252474D01*
X43770Y252531D01*
X42467Y253620D01*
X42426Y253643D01*
X42365Y253690D01*
X40874Y254503D01*
X40829Y254518D01*
X40760Y254552D01*
X39140Y255059D01*
X39092Y255065D01*
X39018Y255084D01*
X37335Y255265D01*
X37137Y255290D01*
X37086Y255287D01*
X36995Y255291D01*
X35286Y255118D01*
X35240Y255105D01*
X35164Y255093D01*
X33522Y254590D01*
X33479Y254568D01*
X33407Y254542D01*
X31894Y253728D01*
X31857Y253698D01*
X31791Y253658D01*
X30467Y252565D01*
X30435Y252528D01*
X30379Y252477D01*
X29293Y251146D01*
X29270Y251103D01*
X29224Y251042D01*
X28419Y249525D01*
X28404Y249479D01*
X28372Y249410D01*
X27878Y247764D01*
X27872Y247717D01*
X27854Y247642D01*
X27702Y246055D01*
X27696Y246038D01*
X27654Y245944D01*
X27654Y245934D01*
X27650Y245926D01*
X27639Y245739D01*
X27792Y244060D01*
X27805Y244013D01*
X27815Y243938D01*
X28293Y242321D01*
X28314Y242278D01*
X28339Y242206D01*
X29123Y240714D01*
X29153Y240676D01*
X29191Y240610D01*
X30251Y239299D01*
X30287Y239268D01*
X30338Y239211D01*
X31633Y238132D01*
X31675Y238108D01*
X31736Y238062D01*
X33217Y237256D01*
X33262Y237241D01*
X33331Y237208D01*
X33641Y237112D01*
X34940Y236707D01*
X34988Y236701D01*
X35062Y236682D01*
X36715Y236507D01*
X36971Y236460D01*
X36993Y236460D01*
X37153Y236453D01*
X38871Y236638D01*
G37*
G36*
X38896Y171614D02*
X38896Y171614D01*
X38942Y171627D01*
X39017Y171639D01*
X40666Y172155D01*
X40709Y172177D01*
X40780Y172203D01*
X42297Y173031D01*
X42335Y173061D01*
X42400Y173101D01*
X43726Y174209D01*
X43757Y174245D01*
X43813Y174297D01*
X44897Y175642D01*
X44920Y175684D01*
X44966Y175746D01*
X45767Y177277D01*
X45781Y177323D01*
X45813Y177392D01*
X46301Y179049D01*
X46306Y179097D01*
X46324Y179172D01*
X46456Y180640D01*
X46472Y180668D01*
X46478Y180707D01*
X46493Y180744D01*
X46498Y180840D01*
X46506Y180890D01*
X46503Y180910D01*
X46504Y180931D01*
X46352Y182622D01*
X46339Y182668D01*
X46329Y182744D01*
X45850Y184373D01*
X45829Y184416D01*
X45803Y184488D01*
X45016Y185992D01*
X44987Y186031D01*
X44948Y186096D01*
X43882Y187418D01*
X43846Y187450D01*
X43795Y187507D01*
X42492Y188596D01*
X42451Y188619D01*
X42390Y188666D01*
X40899Y189479D01*
X40854Y189494D01*
X40785Y189528D01*
X39165Y190035D01*
X39117Y190041D01*
X39043Y190060D01*
X37360Y190241D01*
X37162Y190266D01*
X37111Y190263D01*
X37020Y190267D01*
X35311Y190094D01*
X35265Y190081D01*
X35189Y190069D01*
X33547Y189566D01*
X33504Y189544D01*
X33432Y189518D01*
X31919Y188704D01*
X31882Y188674D01*
X31816Y188634D01*
X30492Y187541D01*
X30460Y187504D01*
X30404Y187453D01*
X29318Y186122D01*
X29295Y186079D01*
X29249Y186018D01*
X28444Y184501D01*
X28429Y184455D01*
X28397Y184386D01*
X27903Y182740D01*
X27897Y182693D01*
X27879Y182618D01*
X27727Y181031D01*
X27721Y181014D01*
X27679Y180920D01*
X27679Y180910D01*
X27675Y180902D01*
X27664Y180715D01*
X27817Y179036D01*
X27830Y178989D01*
X27840Y178914D01*
X28318Y177297D01*
X28339Y177254D01*
X28364Y177182D01*
X29148Y175690D01*
X29178Y175652D01*
X29216Y175586D01*
X30276Y174275D01*
X30312Y174244D01*
X30363Y174187D01*
X31658Y173108D01*
X31700Y173084D01*
X31761Y173038D01*
X33242Y172232D01*
X33287Y172217D01*
X33356Y172184D01*
X33666Y172088D01*
X34965Y171683D01*
X35013Y171677D01*
X35087Y171658D01*
X36740Y171483D01*
X36996Y171436D01*
X37018Y171436D01*
X37178Y171429D01*
X38896Y171614D01*
G37*
G36*
X84134Y171614D02*
X84134Y171614D01*
X84180Y171627D01*
X84255Y171639D01*
X85904Y172155D01*
X85947Y172177D01*
X86018Y172203D01*
X87535Y173031D01*
X87573Y173061D01*
X87638Y173101D01*
X88964Y174209D01*
X88995Y174245D01*
X89051Y174297D01*
X90135Y175642D01*
X90158Y175684D01*
X90204Y175746D01*
X91005Y177277D01*
X91019Y177323D01*
X91051Y177392D01*
X91539Y179049D01*
X91544Y179097D01*
X91562Y179172D01*
X91694Y180640D01*
X91710Y180668D01*
X91716Y180707D01*
X91731Y180744D01*
X91736Y180840D01*
X91744Y180890D01*
X91741Y180910D01*
X91742Y180931D01*
X91590Y182622D01*
X91577Y182668D01*
X91567Y182744D01*
X91088Y184373D01*
X91067Y184416D01*
X91041Y184488D01*
X90254Y185992D01*
X90225Y186031D01*
X90186Y186096D01*
X89120Y187418D01*
X89084Y187450D01*
X89033Y187507D01*
X87730Y188596D01*
X87689Y188619D01*
X87628Y188666D01*
X86137Y189479D01*
X86092Y189494D01*
X86023Y189528D01*
X84403Y190035D01*
X84355Y190041D01*
X84281Y190060D01*
X82598Y190241D01*
X82400Y190266D01*
X82349Y190263D01*
X82258Y190267D01*
X80549Y190094D01*
X80503Y190081D01*
X80427Y190069D01*
X78785Y189566D01*
X78742Y189544D01*
X78670Y189518D01*
X77157Y188704D01*
X77120Y188674D01*
X77054Y188634D01*
X75730Y187541D01*
X75698Y187504D01*
X75642Y187453D01*
X74556Y186122D01*
X74533Y186079D01*
X74487Y186018D01*
X73682Y184501D01*
X73667Y184455D01*
X73635Y184386D01*
X73141Y182740D01*
X73135Y182693D01*
X73117Y182618D01*
X72965Y181031D01*
X72959Y181014D01*
X72917Y180920D01*
X72917Y180910D01*
X72913Y180902D01*
X72902Y180715D01*
X73055Y179036D01*
X73068Y178989D01*
X73078Y178914D01*
X73556Y177297D01*
X73577Y177254D01*
X73602Y177182D01*
X74386Y175690D01*
X74416Y175652D01*
X74454Y175586D01*
X75514Y174275D01*
X75550Y174244D01*
X75601Y174187D01*
X76896Y173108D01*
X76938Y173084D01*
X76999Y173038D01*
X78480Y172232D01*
X78525Y172217D01*
X78594Y172184D01*
X78904Y172088D01*
X80203Y171683D01*
X80251Y171677D01*
X80325Y171658D01*
X81978Y171483D01*
X82234Y171436D01*
X82256Y171436D01*
X82416Y171429D01*
X84134Y171614D01*
G37*
G36*
X84159Y147789D02*
X84159Y147789D01*
X84205Y147802D01*
X84280Y147814D01*
X85929Y148330D01*
X85972Y148352D01*
X86043Y148378D01*
X87560Y149206D01*
X87598Y149236D01*
X87663Y149276D01*
X88989Y150384D01*
X89020Y150420D01*
X89076Y150472D01*
X90160Y151817D01*
X90183Y151859D01*
X90229Y151921D01*
X91030Y153452D01*
X91044Y153498D01*
X91076Y153567D01*
X91564Y155224D01*
X91569Y155272D01*
X91587Y155347D01*
X91719Y156815D01*
X91735Y156843D01*
X91741Y156882D01*
X91756Y156919D01*
X91761Y157015D01*
X91769Y157065D01*
X91766Y157085D01*
X91767Y157106D01*
X91615Y158797D01*
X91602Y158843D01*
X91592Y158919D01*
X91113Y160548D01*
X91092Y160591D01*
X91066Y160663D01*
X90279Y162167D01*
X90250Y162206D01*
X90211Y162271D01*
X89145Y163593D01*
X89109Y163625D01*
X89058Y163682D01*
X87755Y164771D01*
X87714Y164794D01*
X87653Y164841D01*
X86162Y165654D01*
X86117Y165669D01*
X86048Y165703D01*
X84428Y166210D01*
X84380Y166216D01*
X84306Y166235D01*
X82623Y166416D01*
X82425Y166441D01*
X82374Y166438D01*
X82283Y166442D01*
X80574Y166269D01*
X80528Y166256D01*
X80452Y166244D01*
X78810Y165741D01*
X78767Y165719D01*
X78695Y165693D01*
X77182Y164879D01*
X77145Y164849D01*
X77079Y164809D01*
X75755Y163716D01*
X75723Y163679D01*
X75667Y163628D01*
X74581Y162297D01*
X74558Y162254D01*
X74512Y162193D01*
X73707Y160676D01*
X73692Y160630D01*
X73660Y160561D01*
X73166Y158915D01*
X73160Y158868D01*
X73142Y158793D01*
X72990Y157206D01*
X72984Y157189D01*
X72942Y157095D01*
X72942Y157085D01*
X72938Y157077D01*
X72927Y156890D01*
X73080Y155211D01*
X73093Y155164D01*
X73103Y155089D01*
X73581Y153472D01*
X73602Y153429D01*
X73627Y153357D01*
X74411Y151865D01*
X74441Y151827D01*
X74479Y151761D01*
X75539Y150450D01*
X75575Y150419D01*
X75626Y150362D01*
X76921Y149283D01*
X76963Y149259D01*
X77024Y149213D01*
X78505Y148407D01*
X78550Y148392D01*
X78619Y148359D01*
X78929Y148263D01*
X80228Y147858D01*
X80276Y147852D01*
X80350Y147833D01*
X82003Y147658D01*
X82259Y147611D01*
X82281Y147611D01*
X82441Y147604D01*
X84159Y147789D01*
G37*
G36*
X38871Y147738D02*
X38871Y147738D01*
X38917Y147751D01*
X38992Y147763D01*
X40641Y148279D01*
X40684Y148301D01*
X40755Y148327D01*
X42272Y149155D01*
X42310Y149185D01*
X42375Y149225D01*
X43701Y150333D01*
X43732Y150369D01*
X43788Y150421D01*
X44872Y151766D01*
X44895Y151808D01*
X44941Y151870D01*
X45742Y153401D01*
X45756Y153447D01*
X45788Y153516D01*
X46276Y155173D01*
X46281Y155221D01*
X46299Y155296D01*
X46431Y156764D01*
X46447Y156792D01*
X46453Y156831D01*
X46468Y156868D01*
X46473Y156964D01*
X46481Y157014D01*
X46478Y157034D01*
X46479Y157055D01*
X46327Y158746D01*
X46314Y158792D01*
X46304Y158868D01*
X45825Y160497D01*
X45804Y160540D01*
X45778Y160612D01*
X44991Y162116D01*
X44962Y162155D01*
X44923Y162220D01*
X43857Y163542D01*
X43821Y163574D01*
X43770Y163631D01*
X42467Y164720D01*
X42426Y164743D01*
X42365Y164790D01*
X40874Y165603D01*
X40829Y165618D01*
X40760Y165652D01*
X39140Y166159D01*
X39092Y166165D01*
X39018Y166184D01*
X37335Y166365D01*
X37137Y166390D01*
X37086Y166387D01*
X36995Y166391D01*
X35286Y166218D01*
X35240Y166205D01*
X35164Y166193D01*
X33522Y165690D01*
X33479Y165668D01*
X33407Y165642D01*
X31894Y164828D01*
X31857Y164798D01*
X31791Y164758D01*
X30467Y163665D01*
X30435Y163628D01*
X30379Y163577D01*
X29293Y162246D01*
X29270Y162203D01*
X29224Y162142D01*
X28419Y160625D01*
X28404Y160579D01*
X28372Y160510D01*
X27878Y158864D01*
X27872Y158817D01*
X27854Y158742D01*
X27702Y157155D01*
X27696Y157138D01*
X27654Y157044D01*
X27654Y157034D01*
X27650Y157026D01*
X27639Y156839D01*
X27792Y155160D01*
X27805Y155113D01*
X27815Y155038D01*
X28293Y153421D01*
X28314Y153378D01*
X28339Y153306D01*
X29123Y151814D01*
X29153Y151776D01*
X29191Y151710D01*
X30251Y150399D01*
X30287Y150368D01*
X30338Y150311D01*
X31633Y149232D01*
X31675Y149208D01*
X31736Y149162D01*
X33217Y148356D01*
X33262Y148341D01*
X33331Y148308D01*
X33641Y148212D01*
X34940Y147807D01*
X34988Y147801D01*
X35062Y147782D01*
X36715Y147607D01*
X36971Y147560D01*
X36993Y147560D01*
X37153Y147553D01*
X38871Y147738D01*
G37*
G36*
X38896Y82714D02*
X38896Y82714D01*
X38942Y82727D01*
X39017Y82739D01*
X40666Y83255D01*
X40709Y83277D01*
X40780Y83303D01*
X42297Y84131D01*
X42335Y84161D01*
X42400Y84201D01*
X43726Y85309D01*
X43757Y85345D01*
X43813Y85397D01*
X44897Y86742D01*
X44920Y86784D01*
X44966Y86846D01*
X45767Y88377D01*
X45781Y88423D01*
X45813Y88492D01*
X46301Y90149D01*
X46306Y90197D01*
X46324Y90272D01*
X46456Y91740D01*
X46472Y91768D01*
X46478Y91807D01*
X46493Y91844D01*
X46498Y91940D01*
X46506Y91990D01*
X46503Y92010D01*
X46504Y92031D01*
X46352Y93722D01*
X46339Y93768D01*
X46329Y93844D01*
X45850Y95473D01*
X45829Y95516D01*
X45803Y95588D01*
X45016Y97092D01*
X44987Y97131D01*
X44948Y97196D01*
X43882Y98518D01*
X43846Y98550D01*
X43795Y98607D01*
X42492Y99696D01*
X42451Y99719D01*
X42390Y99766D01*
X40899Y100579D01*
X40854Y100594D01*
X40785Y100628D01*
X39165Y101135D01*
X39117Y101141D01*
X39043Y101160D01*
X37360Y101341D01*
X37162Y101366D01*
X37111Y101363D01*
X37020Y101367D01*
X35311Y101194D01*
X35265Y101181D01*
X35189Y101169D01*
X33547Y100666D01*
X33504Y100644D01*
X33432Y100618D01*
X31919Y99804D01*
X31882Y99774D01*
X31816Y99734D01*
X30492Y98641D01*
X30460Y98604D01*
X30404Y98553D01*
X29318Y97222D01*
X29295Y97179D01*
X29249Y97118D01*
X28444Y95601D01*
X28429Y95555D01*
X28397Y95486D01*
X27903Y93840D01*
X27897Y93793D01*
X27879Y93718D01*
X27727Y92131D01*
X27721Y92114D01*
X27679Y92020D01*
X27679Y92010D01*
X27675Y92002D01*
X27664Y91815D01*
X27817Y90136D01*
X27830Y90089D01*
X27840Y90014D01*
X28318Y88397D01*
X28339Y88354D01*
X28364Y88282D01*
X29148Y86790D01*
X29178Y86752D01*
X29216Y86686D01*
X30276Y85375D01*
X30312Y85344D01*
X30363Y85287D01*
X31658Y84208D01*
X31700Y84184D01*
X31761Y84138D01*
X33242Y83332D01*
X33287Y83317D01*
X33356Y83284D01*
X33666Y83188D01*
X34965Y82783D01*
X35013Y82777D01*
X35087Y82758D01*
X36740Y82583D01*
X36996Y82536D01*
X37018Y82536D01*
X37178Y82529D01*
X38896Y82714D01*
G37*
G36*
X84134Y82714D02*
X84134Y82714D01*
X84180Y82727D01*
X84255Y82739D01*
X85904Y83255D01*
X85947Y83277D01*
X86018Y83303D01*
X87535Y84131D01*
X87573Y84161D01*
X87638Y84201D01*
X88964Y85309D01*
X88995Y85345D01*
X89051Y85397D01*
X90135Y86742D01*
X90158Y86784D01*
X90204Y86846D01*
X91005Y88377D01*
X91019Y88423D01*
X91051Y88492D01*
X91539Y90149D01*
X91544Y90197D01*
X91562Y90272D01*
X91694Y91740D01*
X91710Y91768D01*
X91716Y91807D01*
X91731Y91844D01*
X91736Y91940D01*
X91744Y91990D01*
X91741Y92010D01*
X91742Y92031D01*
X91590Y93722D01*
X91577Y93768D01*
X91567Y93844D01*
X91088Y95473D01*
X91067Y95516D01*
X91041Y95588D01*
X90254Y97092D01*
X90225Y97131D01*
X90186Y97196D01*
X89120Y98518D01*
X89084Y98550D01*
X89033Y98607D01*
X87730Y99696D01*
X87689Y99719D01*
X87628Y99766D01*
X86137Y100579D01*
X86092Y100594D01*
X86023Y100628D01*
X84403Y101135D01*
X84355Y101141D01*
X84281Y101160D01*
X82598Y101341D01*
X82400Y101366D01*
X82349Y101363D01*
X82258Y101367D01*
X80549Y101194D01*
X80503Y101181D01*
X80427Y101169D01*
X78785Y100666D01*
X78742Y100644D01*
X78670Y100618D01*
X77157Y99804D01*
X77120Y99774D01*
X77054Y99734D01*
X75730Y98641D01*
X75698Y98604D01*
X75642Y98553D01*
X74556Y97222D01*
X74533Y97179D01*
X74487Y97118D01*
X73682Y95601D01*
X73667Y95555D01*
X73635Y95486D01*
X73141Y93840D01*
X73135Y93793D01*
X73117Y93718D01*
X72965Y92131D01*
X72959Y92114D01*
X72917Y92020D01*
X72917Y92010D01*
X72913Y92002D01*
X72902Y91815D01*
X73055Y90136D01*
X73068Y90089D01*
X73078Y90014D01*
X73556Y88397D01*
X73577Y88354D01*
X73602Y88282D01*
X74386Y86790D01*
X74416Y86752D01*
X74454Y86686D01*
X75514Y85375D01*
X75550Y85344D01*
X75601Y85287D01*
X76896Y84208D01*
X76938Y84184D01*
X76999Y84138D01*
X78480Y83332D01*
X78525Y83317D01*
X78594Y83284D01*
X78904Y83188D01*
X80203Y82783D01*
X80251Y82777D01*
X80325Y82758D01*
X81978Y82583D01*
X82234Y82536D01*
X82256Y82536D01*
X82416Y82529D01*
X84134Y82714D01*
G37*
D10*
X50800Y502920D03*
X307340Y502920D03*
X596900Y502920D03*
X52070Y284480D03*
X50800Y54610D03*
X852170Y54610D03*
X855980Y281940D03*
X853440Y504190D03*
D11*
X580390Y425450D03*
X554990Y425450D03*
X529590Y425450D03*
X504190Y425450D03*
X478790Y425450D03*
X453390Y425450D03*
X427990Y425450D03*
X402590Y425450D03*
X377190Y425450D03*
X351790Y425450D03*
D12*
X132080Y323850D02*
X132080Y308610D01*
X104140Y308610D02*
X104140Y323850D01*
X132080Y285750D02*
X132080Y270510D01*
X104140Y270510D02*
X104140Y285750D01*
X773430Y474416D02*
X788670Y474416D01*
X788670Y446476D02*
X773430Y446476D01*
X146551Y464563D02*
X135774Y475340D01*
X116018Y455583D02*
X126794Y444807D01*
D13*
X408940Y381390D03*
X408940Y398390D03*
D11*
X788670Y321310D03*
X806631Y339271D03*
D13*
X774700Y371230D03*
X774700Y388230D03*
D14*
X731910Y392430D03*
X748910Y392430D03*
X739530Y359410D03*
X756530Y359410D03*
X724290Y340360D03*
X741290Y340360D03*
D15*
X712310Y389230D03*
X712310Y370230D03*
X691310Y379730D03*
D16*
X755910Y417830D03*
X724910Y417830D03*
D17*
X219150Y46430D03*
X799150Y46430D03*
D18*
X267970Y264160D03*
D19*
X293370Y264160D03*
X318770Y264160D03*
X344170Y264160D03*
X369570Y264160D03*
X394970Y264160D03*
X420370Y264160D03*
X445770Y264160D03*
X471170Y264160D03*
X496570Y264160D03*
X521970Y264160D03*
X547370Y264160D03*
X572770Y264160D03*
X598170Y264160D03*
X623570Y264160D03*
X648970Y264160D03*
X674370Y264160D03*
X699770Y264160D03*
X725170Y264160D03*
X750570Y264160D03*
X267970Y289560D03*
X293370Y289560D03*
X318770Y289560D03*
X344170Y289560D03*
X369570Y289560D03*
X394970Y289560D03*
X420370Y289560D03*
X445770Y289560D03*
X471170Y289560D03*
X496570Y289560D03*
X521970Y289560D03*
X547370Y289560D03*
X572770Y289560D03*
X598170Y289560D03*
X623570Y289560D03*
X648970Y289560D03*
X674370Y289560D03*
X699770Y289560D03*
X725170Y289560D03*
X750570Y289560D03*
D20*
X432787Y455043D03*
X442787Y455043D03*
X452787Y455043D03*
X462787Y455043D03*
X472787Y455043D03*
X482787Y455043D03*
X492787Y455043D03*
X502787Y455043D03*
D21*
X526787Y487543D03*
X408787Y487543D03*
M02*
