G04 EAGLE Gerber RS-274X export*
G75*
%MOMM*%
%FSLAX34Y34*%
%LPD*%
%INSolderpaste Bottom*%
%IPPOS*%
%AMOC8*
5,1,8,0,0,1.08239X$1,22.5*%
G01*
%ADD10R,1.000000X1.100000*%
%ADD11R,1.100000X1.000000*%
%ADD12R,0.900000X0.800000*%
%ADD13R,1.500000X2.200000*%
%ADD14R,1.524000X1.524000*%
%ADD15C,1.524000*%
%ADD16R,0.250000X1.250000*%
%ADD17R,1.650000X2.050000*%


D10*
X408940Y381390D03*
X408940Y398390D03*
X774700Y371230D03*
X774700Y388230D03*
D11*
X731910Y392430D03*
X748910Y392430D03*
X739530Y359410D03*
X756530Y359410D03*
X724290Y340360D03*
X741290Y340360D03*
D12*
X712310Y389230D03*
X712310Y370230D03*
X691310Y379730D03*
D13*
X755910Y417830D03*
X724910Y417830D03*
D14*
X267970Y264160D03*
D15*
X293370Y264160D03*
X318770Y264160D03*
X344170Y264160D03*
X369570Y264160D03*
X394970Y264160D03*
X420370Y264160D03*
X445770Y264160D03*
X471170Y264160D03*
X496570Y264160D03*
X521970Y264160D03*
X547370Y264160D03*
X572770Y264160D03*
X598170Y264160D03*
X623570Y264160D03*
X648970Y264160D03*
X674370Y264160D03*
X699770Y264160D03*
X725170Y264160D03*
X750570Y264160D03*
X267970Y289560D03*
X293370Y289560D03*
X318770Y289560D03*
X344170Y289560D03*
X369570Y289560D03*
X394970Y289560D03*
X420370Y289560D03*
X445770Y289560D03*
X471170Y289560D03*
X496570Y289560D03*
X521970Y289560D03*
X547370Y289560D03*
X572770Y289560D03*
X598170Y289560D03*
X623570Y289560D03*
X648970Y289560D03*
X674370Y289560D03*
X699770Y289560D03*
X725170Y289560D03*
X750570Y289560D03*
D16*
X432787Y455043D03*
X442787Y455043D03*
X452787Y455043D03*
X462787Y455043D03*
X472787Y455043D03*
X482787Y455043D03*
X492787Y455043D03*
X502787Y455043D03*
D17*
X526787Y487543D03*
X408787Y487543D03*
M02*
