M48
;GenerationSoftware,Autodesk,EAGLE,9.6.0*%
;CreationDate,2020-12-26T20:08:58Z*%
FMAT,2
ICI,OFF
METRIC,TZ,000.000
T4C0.350
T3C1.000
T2C1.016
T1C2.750
%
G90
M71
T1
X79915Y4643
X21915Y4643
T2
X80663Y33927
X78867Y32131
X3708Y18085
X3708Y24587
X8230Y18085
X8230Y24587
X3708Y9195
X3708Y15697
X8230Y9195
X8230Y15697
X12141Y45019
X14116Y46995
X78105Y44648
X78105Y47442
X10414Y27813
X13208Y27813
X10414Y31623
X13208Y31623
X35179Y42545
X37719Y42545
X40259Y42545
X42799Y42545
X45339Y42545
X47879Y42545
X50419Y42545
X52959Y42545
X55499Y42545
X58039Y42545
T3
X5080Y50292
X85344Y50419
X85598Y28194
X85217Y5461
X5080Y5461
X5207Y28448
X30734Y50292
X59690Y50292
T4
X45861Y13406
X43392Y13758
X44803Y13406
X38453Y12347
X46920Y13406
X42334Y13758
X40923Y14111
X40217Y13406
X38989Y37973
X58307Y37973
X58307Y39243
X38100Y39243
X33161Y40513
X58265Y36618
X69088Y35275
X67437Y34163
X77089Y34671
X76835Y31623
X63754Y27686
X43307Y32893
X40767Y35278
X34671Y34671
X22465Y36830
X30480Y32004
X64770Y32004
X45509Y35631
X53975Y34417
X43307Y34473
X49911Y33203
X57023Y33330
X53947Y35659
X47105Y35661
X47653Y40056
M30